<svg width="49" height="49" viewBox="0 0 49 49" fill="none" xmlns="http://www.w3.org/2000/svg">
<path d="M0 5C0 2.23858 2.23858 0 5 0H39C44.5228 0 49 4.47715 49 10V44C49 46.7614 46.7614 49 44 49H5C2.23858 49 0 46.7614 0 44V5Z" fill="white"/>
<path d="M16.185 25.5507C16.1181 25.5976 16.0519 25.6461 15.9863 25.6962C15.5119 26.0326 15.1061 26.4394 14.7708 26.9148L14.7705 26.9152C13.9272 28.1131 13.5 29.4313 13.5 30.8579C13.5 32.4374 13.9782 33.9294 14.9166 35.3247C15.8553 36.7204 17.1507 37.8516 18.7867 38.723L18.7866 38.7231L16.2272 26.0266C15.8153 26.3359 15.4534 26.7205 15.1419 27.1766C15.1419 27.1766 15.1419 27.1766 15.1419 27.1767C15.1302 27.1937 15.1187 27.2108 15.1072 27.228C14.3461 28.3442 13.9565 29.5446 13.9565 30.8198C13.9565 30.8325 13.9566 30.8452 13.9566 30.8579C13.9641 32.3195 14.4023 33.7189 15.2527 35.0486L15.2526 35.0486L15.2591 35.0583C15.2647 35.0666 15.2702 35.0749 15.2758 35.0831C16.1638 36.3929 17.4035 37.4645 18.9765 38.3041L18.9765 38.3041L18.9823 38.3071C18.9891 38.3106 18.9959 38.3141 19.0026 38.3176C19.0029 38.3177 19.0031 38.3178 19.0033 38.3179C20.6042 39.1408 22.4669 39.5431 24.5761 39.5431C26.9064 39.5431 28.8696 39.1053 30.435 38.1943L30.651 38.56C30.6515 38.5597 30.652 38.5594 30.6525 38.5591C30.6531 38.5587 30.6536 38.5584 30.6541 38.5581L30.4355 38.194C30.4435 38.1894 30.4515 38.1847 30.4595 38.18L30.4595 38.18L30.465 38.1767C32.0024 37.2483 33.1559 36.0091 33.9108 34.4621C33.9167 34.4499 33.9227 34.4376 33.9286 34.4254C34.6742 32.8798 35.0435 31.1803 35.0435 29.335C35.0435 28.0469 34.8435 26.7884 34.4445 25.5615L34.9083 25.4224C34.9081 25.4219 34.908 25.4213 34.9078 25.4208C34.5041 24.0751 33.7923 22.8555 32.7819 21.764C32.1716 21.0895 31.4166 20.4942 30.5233 19.9746H30.8913C32.0844 19.9746 33.0711 19.6758 33.7559 18.9905L33.7559 18.9906L33.7636 18.9825C34.4319 18.2834 34.7391 17.3479 34.7391 16.2386V12.5838C34.7391 11.5691 34.3862 10.7014 33.676 10.0184C32.9949 9.33876 32.1441 9 31.1576 9H17.9946C17.3712 9 16.7595 9.16411 16.1646 9.47594C15.559 9.7934 15.055 10.2413 14.6555 10.8124L15.0241 11.0702L14.6555 10.8124C14.2313 11.4189 14.0326 12.1456 14.0326 12.9645V21.7589C14.0326 23.0051 14.3445 24.0367 15.0465 24.7697L15.0464 24.7698L15.0539 24.7773C15.3927 25.1163 15.7709 25.3742 16.185 25.5507ZM16.185 25.5507C16.3485 25.6204 16.5176 25.6774 16.6921 25.7217C16.5317 25.8129 16.3776 25.9139 16.23 26.0245" fill="#021725"/>
<path d="M16.185 25.5507C16.1181 25.5976 16.0519 25.6461 15.9863 25.6962C15.5119 26.0326 15.1061 26.4394 14.7708 26.9148L14.7705 26.9152C13.9272 28.1131 13.5 29.4313 13.5 30.8579C13.5 32.4374 13.9782 33.9294 14.9166 35.3247C15.8553 36.7204 17.1507 37.8516 18.7867 38.723L18.7866 38.7231L16.2272 26.0266C15.8153 26.3359 15.4534 26.7205 15.1419 27.1766C15.1419 27.1766 15.1419 27.1766 15.1419 27.1767C15.1302 27.1937 15.1187 27.2108 15.1072 27.228C14.3461 28.3442 13.9565 29.5446 13.9565 30.8198C13.9565 30.8325 13.9566 30.8452 13.9566 30.8579C13.9641 32.3195 14.4023 33.7189 15.2527 35.0486L15.2526 35.0486L15.2591 35.0583C15.2647 35.0666 15.2702 35.0749 15.2758 35.0831C16.1638 36.3929 17.4035 37.4645 18.9765 38.3041L18.9765 38.3041L18.9823 38.3071C18.9891 38.3106 18.9959 38.3141 19.0026 38.3176C19.0029 38.3177 19.0031 38.3178 19.0033 38.3179C20.6042 39.1408 22.4669 39.5431 24.5761 39.5431C26.9064 39.5431 28.8696 39.1053 30.435 38.1943L30.651 38.56C30.6515 38.5597 30.652 38.5594 30.6525 38.5591C30.6531 38.5587 30.6536 38.5584 30.6541 38.5581L30.4355 38.194C30.4435 38.1894 30.4515 38.1847 30.4595 38.18L30.4595 38.18L30.465 38.1767C32.0024 37.2483 33.1559 36.0091 33.9108 34.4621C33.9167 34.4499 33.9227 34.4376 33.9286 34.4254C34.6742 32.8798 35.0435 31.1803 35.0435 29.335C35.0435 28.0469 34.8435 26.7884 34.4445 25.5615L34.9083 25.4224C34.9081 25.4219 34.908 25.4213 34.9078 25.4208C34.5041 24.0751 33.7923 22.8555 32.7819 21.764C32.1716 21.0895 31.4166 20.4942 30.5233 19.9746H30.8913C32.0844 19.9746 33.0711 19.6758 33.7559 18.9905L33.7559 18.9906L33.7636 18.9825C34.4319 18.2834 34.7391 17.3479 34.7391 16.2386V12.5838C34.7391 11.5691 34.3862 10.7014 33.676 10.0184C32.9949 9.33876 32.1441 9 31.1576 9H17.9946C17.3712 9 16.7595 9.16411 16.1646 9.47594C15.559 9.7934 15.055 10.2413 14.6555 10.8124L15.0241 11.0702L14.6555 10.8124C14.2313 11.4189 14.0326 12.1456 14.0326 12.9645V21.7589C14.0326 23.0051 14.3445 24.0367 15.0465 24.7697L15.0464 24.7698L15.0539 24.7773C15.3927 25.1163 15.7709 25.3742 16.185 25.5507ZM16.185 25.5507C16.3485 25.6204 16.5176 25.6774 16.6921 25.7217C16.5317 25.8129 16.3776 25.9139 16.23 26.0245" fill="url(#paint0_linear_3413_8035)"/>
<path d="M16.185 25.5507C16.1181 25.5976 16.0519 25.6461 15.9863 25.6962C15.5119 26.0326 15.1061 26.4394 14.7708 26.9148L14.7705 26.9152C13.9272 28.1131 13.5 29.4313 13.5 30.8579C13.5 32.4374 13.9782 33.9294 14.9166 35.3247C15.8553 36.7204 17.1507 37.8516 18.7867 38.723L18.7866 38.7231L16.2272 26.0266C15.8153 26.3359 15.4534 26.7205 15.1419 27.1766C15.1419 27.1766 15.1419 27.1766 15.1419 27.1767C15.1302 27.1937 15.1187 27.2108 15.1072 27.228C14.3461 28.3442 13.9565 29.5446 13.9565 30.8198C13.9565 30.8325 13.9566 30.8452 13.9566 30.8579C13.9641 32.3195 14.4023 33.7189 15.2527 35.0486L15.2526 35.0486L15.2591 35.0583C15.2647 35.0666 15.2702 35.0749 15.2758 35.0831C16.1638 36.3929 17.4035 37.4645 18.9765 38.3041L18.9765 38.3041L18.9823 38.3071C18.9891 38.3106 18.9959 38.3141 19.0026 38.3176C19.0029 38.3177 19.0031 38.3178 19.0033 38.3179C20.6042 39.1408 22.4669 39.5431 24.5761 39.5431C26.9064 39.5431 28.8696 39.1053 30.435 38.1943L30.651 38.56C30.6515 38.5597 30.652 38.5594 30.6525 38.5591C30.6531 38.5587 30.6536 38.5584 30.6541 38.5581L30.4355 38.194C30.4435 38.1894 30.4515 38.1847 30.4595 38.18L30.4595 38.18L30.465 38.1767C32.0024 37.2483 33.1559 36.0091 33.9108 34.4621C33.9167 34.4499 33.9227 34.4376 33.9286 34.4254C34.6742 32.8798 35.0435 31.1803 35.0435 29.335C35.0435 28.0469 34.8435 26.7884 34.4445 25.5615L34.9083 25.4224C34.9081 25.4219 34.908 25.4213 34.9078 25.4208C34.5041 24.0751 33.7923 22.8555 32.7819 21.764C32.1716 21.0895 31.4166 20.4942 30.5233 19.9746H30.8913C32.0844 19.9746 33.0711 19.6758 33.7559 18.9905L33.7559 18.9906L33.7636 18.9825C34.4319 18.2834 34.7391 17.3479 34.7391 16.2386V12.5838C34.7391 11.5691 34.3862 10.7014 33.676 10.0184C32.9949 9.33876 32.1441 9 31.1576 9H17.9946C17.3712 9 16.7595 9.16411 16.1646 9.47594C15.559 9.7934 15.055 10.2413 14.6555 10.8124L15.0241 11.0702L14.6555 10.8124C14.2313 11.4189 14.0326 12.1456 14.0326 12.9645V21.7589C14.0326 23.0051 14.3445 24.0367 15.0465 24.7697L15.0464 24.7698L15.0539 24.7773C15.3927 25.1163 15.7709 25.3742 16.185 25.5507ZM16.185 25.5507C16.3485 25.6204 16.5176 25.6774 16.6921 25.7217C16.5317 25.8129 16.3776 25.9139 16.23 26.0245" stroke="#021725"/>
<defs>
<linearGradient id="paint0_linear_3413_8035" x1="24.5" y1="9.5" x2="24.5" y2="39.5" gradientUnits="userSpaceOnUse">
<stop stop-color="white" stop-opacity="0"/>
<stop offset="1" stop-color="white"/>
</linearGradient>
</defs>
</svg>
