<svg xmlns="http://www.w3.org/2000/svg" width="40" height="40" viewBox="0 0 40 40" fill="none">
  <g clip-path="url(#clip0_1_2394)">
    <path d="M30.6687 31.525C27.9562 31.525 25.75 29.3187 25.75 26.6062C25.75 23.8937 27.9562 21.6875 30.6687 21.6875C33.3812 21.6875 35.5875 23.8937 35.5875 26.6062C35.5875 29.3187 33.3812 31.525 30.6687 31.525ZM30.6687 22.9063C28.625 22.9063 26.9625 24.5688 26.9625 26.6125C26.9625 28.6563 28.625 30.3187 30.6687 30.3187C32.7125 30.3187 34.375 28.6563 34.375 26.6125C34.375 24.5688 32.7125 22.9063 30.6687 22.9063Z" fill="black"/>
    <path d="M30.6686 29.2684C29.1999 29.2684 28.0061 28.0746 28.0061 26.6059C28.0061 25.1371 29.1999 23.9434 30.6686 23.9434C32.1374 23.9434 33.3311 25.1371 33.3311 26.6059C33.3311 28.0746 32.1374 29.2684 30.6686 29.2684ZM30.6686 25.1621C29.8686 25.1621 29.2186 25.8121 29.2186 26.6121C29.2186 27.4121 29.8686 28.0621 30.6686 28.0621C31.4686 28.0621 32.1186 27.4121 32.1186 26.6121C32.1186 25.8121 31.4686 25.1621 30.6686 25.1621Z" fill="black"/>
    <path d="M8.53752 31.525C5.82502 31.525 3.61877 29.3187 3.61877 26.6062C3.61877 23.8937 5.82502 21.6875 8.53752 21.6875C11.25 21.6875 13.4563 23.8937 13.4563 26.6062C13.4563 29.3187 11.25 31.525 8.53752 31.525ZM8.53752 22.9063C6.49377 22.9063 4.83127 24.5688 4.83127 26.6125C4.83127 28.6563 6.49377 30.3187 8.53752 30.3187C10.5813 30.3187 12.2438 28.6563 12.2438 26.6125C12.2438 24.5688 10.5813 22.9063 8.53752 22.9063Z" fill="black"/>
    <path d="M8.53774 29.2684C7.06899 29.2684 5.87524 28.0746 5.87524 26.6059C5.87524 25.1371 7.06899 23.9434 8.53774 23.9434C10.0065 23.9434 11.2002 25.1371 11.2002 26.6059C11.2002 28.0746 10.0065 29.2684 8.53774 29.2684ZM8.53774 25.1621C7.73774 25.1621 7.08774 25.8121 7.08774 26.6121C7.08774 27.4121 7.73774 28.0621 8.53774 28.0621C9.33774 28.0621 9.98774 27.4121 9.98774 26.6121C9.98774 25.8121 9.33774 25.1621 8.53774 25.1621Z" fill="black"/>
    <path d="M26.3565 27.2184H12.8565C12.519 27.2184 12.2502 26.9496 12.2502 26.6121C12.2502 26.2746 12.519 26.0059 12.8565 26.0059H26.3627C26.7002 26.0059 26.969 26.2746 26.969 26.6121C26.9627 26.9434 26.694 27.2184 26.3565 27.2184Z" fill="black"/>
    <path d="M38.1063 27.2188H34.9813C34.6438 27.2188 34.3751 26.95 34.3751 26.6125C34.3751 26.275 34.6438 26.0063 34.9813 26.0063H38.1063C38.2938 26.0063 38.4626 25.9312 38.5938 25.8C38.7251 25.6687 38.7938 25.4938 38.7876 25.3063L38.6813 20.1187C38.6126 19.1875 37.9688 18.3687 37.0501 18.0625L31.0188 16.0563C29.9626 15.7063 29.0251 15.1437 28.2376 14.375L25.1438 11.4C24.0001 10.2937 22.4876 9.6875 20.8938 9.6875H9.80631C8.36881 9.6875 6.98756 10.3 6.01881 11.3625L3.26256 14.3875C2.17506 15.575 1.52506 17.1125 1.43131 18.7188L1.21256 25.3C1.20631 25.4875 1.27506 25.6625 1.40631 25.8C1.53756 25.9375 1.71256 26.0063 1.90006 26.0063H4.23131C4.56881 26.0063 4.83756 26.275 4.83756 26.6125C4.83756 26.95 4.56881 27.2188 4.23131 27.2188H1.89381C1.37506 27.2188 0.893811 27.0125 0.531311 26.6438C0.168811 26.275 -0.0186893 25.775 6.06559e-05 25.2563L0.218811 18.65C0.331311 16.75 1.09381 14.95 2.36256 13.5625L5.11881 10.5375C6.31881 9.225 8.02506 8.46875 9.80631 8.46875H20.9001C22.8063 8.46875 24.6188 9.2 25.9876 10.5187L29.0813 13.5C29.7376 14.1375 30.5188 14.6125 31.4001 14.9L37.4313 16.9062C38.8126 17.3625 39.7813 18.6 39.8876 20.0563L40.0001 25.2812C40.0126 25.7938 39.8188 26.2812 39.4563 26.65C39.1001 27.0125 38.6188 27.2188 38.1063 27.2188Z" fill="black"/>
    <path d="M28.1311 17.1195H4.22482C4.01232 17.1195 3.81232 17.007 3.70607 16.8195C3.59982 16.6383 3.59357 16.407 3.69357 16.2195C3.79357 16.0383 6.16857 11.7633 9.08732 10.857C9.14357 10.8383 9.20607 10.832 9.26857 10.832H21.3311C22.5748 10.832 23.7436 11.3945 24.5311 12.382C25.3248 13.3758 26.7811 14.857 28.4748 16.0195C28.6936 16.1695 28.7873 16.4445 28.7123 16.7008C28.6311 16.9445 28.3936 17.1195 28.1311 17.1195ZM5.31232 15.907H26.3373C25.1686 14.932 24.1936 13.9008 23.5811 13.132C23.0248 12.4383 22.2061 12.0383 21.3311 12.0383H9.36232C7.67482 12.6195 6.10607 14.6945 5.31232 15.907Z" fill="black"/>
    <path d="M14.9126 17.1187C14.6751 17.1187 14.4563 16.9812 14.3563 16.75C13.1438 13.9375 15.1876 11.1812 15.2751 11.0687C15.4751 10.8 15.8563 10.75 16.1251 10.95C16.3938 11.15 16.4438 11.5312 16.2438 11.8C16.2251 11.8312 14.5376 14.1187 15.4688 16.275C15.6001 16.5812 15.4626 16.9375 15.1501 17.0687C15.0751 17.1062 14.9938 17.1187 14.9126 17.1187Z" fill="black"/>
    <path d="M2.04382 24.4633H0.650073C0.312573 24.4633 0.0438232 24.1945 0.0438232 23.857C0.0438232 23.5195 0.312573 23.2508 0.650073 23.2508H2.04382C2.14382 23.2508 2.23132 23.1758 2.23757 23.0758L2.43132 20.4758C2.43757 20.4008 2.40632 20.3508 2.38132 20.3258C2.36257 20.3008 2.31257 20.2633 2.23132 20.2633H0.793823C0.456323 20.2633 0.187573 19.9945 0.187573 19.657C0.187573 19.3195 0.456323 19.0508 0.793823 19.0508H2.23757C2.63132 19.0508 3.01257 19.2133 3.27507 19.5008C3.53757 19.7883 3.67507 20.1758 3.63757 20.5695L3.44382 23.157C3.40632 23.8883 2.78757 24.4633 2.04382 24.4633Z" fill="black"/>
    <path d="M39.3375 23.2812H37.875C36.9125 23.2812 36.0563 22.7062 35.7563 21.85C35.4063 20.8375 35.55 19.3125 38.2125 17.7812C38.5063 17.6125 38.875 17.7125 39.0375 18.0062C39.2062 18.2937 39.1062 18.6687 38.8125 18.8312C37.7375 19.45 36.5375 20.4 36.9 21.45C37.0313 21.8187 37.425 22.0687 37.875 22.0687H39.3375C39.675 22.0687 39.9438 22.3375 39.9438 22.675C39.9438 23.0125 39.6687 23.2812 39.3375 23.2812Z" fill="black"/>
  </g>
  <defs>
    <clipPath id="clip0_1_2394">
      <rect width="40" height="40" fill="white"/>
    </clipPath>
  </defs>
</svg>