<svg width="32" height="32" viewBox="0 0 32 32" fill="none" xmlns="http://www.w3.org/2000/svg">
<g clip-path="url(#clip0_239_1586)">
<path d="M2.54018 9.68321H3.53737V7.69289C3.53737 7.41486 3.34391 6.89433 3.53737 6.69773C3.73083 6.50113 4.26097 6.69773 4.53456 6.69773H18.4952C18.5842 6.69775 18.4177 6.65318 18.4952 6.69773C18.5726 6.74228 19.4465 6.6202 19.4924 6.69773L21.4868 11.6735L31.4586 12.6687C31.5848 12.6829 31.3739 12.5726 31.4586 12.6687C31.5433 12.7648 31.4586 13.5348 31.4586 13.6639V21.6251C31.4549 22.8283 31.2763 24.733 30.4614 25.6058C29.6466 26.4786 28.6519 26.534 27.4699 26.601C26.2878 26.6679 24.3864 26.3811 23.4811 25.6058C22.5759 24.8305 22.6192 23.8156 22.4839 22.6203H13.5092C13.379 23.7705 13.3624 24.8353 12.5121 25.6058C11.6617 26.3762 10.6598 26.601 9.5205 26.601C8.38123 26.601 7.37932 26.3762 6.52893 25.6058C5.67855 24.8353 4.66479 23.7705 4.53456 22.6203C4.26097 22.6203 3.73083 21.8217 3.53737 21.6251C3.53737 21.9032 3.34391 21.4286 3.53737 21.6251V19.6348H2.54018C2.40338 19.6348 1.63972 18.738 1.54299 18.6397C1.54299 18.7787 1.44626 18.5414 1.54299 18.6397V10.6784C1.54299 10.5394 1.44626 9.78151 1.54299 9.68321C1.63972 9.58491 2.40338 9.68321 2.54018 9.68321ZM18.4952 7.69289H13.5092V11.6735H20.4896L18.4952 7.69289ZM21.4868 12.6687H13.5092C13.606 12.767 13.3725 12.6687 13.5092 12.6687C13.4125 12.5704 12.5121 12.8077 12.5121 12.6687V7.69289H4.53456V14.659H11.5149C11.5949 14.659 11.4433 14.6226 11.5149 14.659C11.5865 14.6954 11.4668 15.5891 11.5149 15.6542L14.5064 19.6348H20.4896L23.4811 15.6542C23.5292 15.5891 23.4095 14.6954 23.4811 14.659C23.5527 14.6226 23.4011 14.659 23.4811 14.659H30.4614V13.6639L21.4868 12.6687ZM26.4727 25.6058C27.1868 25.6058 27.8733 25.0138 28.4671 24.6106C29.0608 24.2075 30.1882 24.2859 30.4614 23.6155C30.7347 22.945 30.6008 22.3369 30.4614 21.6251C30.3221 20.9134 29.9692 20.148 29.4643 19.6348C28.9593 19.1217 28.1703 18.7812 27.4699 18.6397C26.7695 18.4981 26.1352 18.362 25.4755 18.6397C24.8158 18.9174 23.8779 19.0314 23.4811 19.6348C23.0844 20.2382 23.4811 20.8995 23.4811 21.6251C23.4822 22.5979 23.8015 23.9228 24.4783 24.6106C25.1552 25.2985 25.5155 25.6047 26.4727 25.6058ZM9.5205 25.6058C10.2346 25.6058 10.9211 25.0138 11.5149 24.6106C12.1086 24.2075 12.2388 24.2859 12.5121 23.6155C12.7853 22.945 12.6514 22.3369 12.5121 21.6251C12.3727 20.9134 12.0198 20.148 11.5149 19.6348C11.0099 19.1217 10.2209 18.7812 9.5205 18.6397C8.82013 18.4981 8.18585 18.362 7.52612 18.6397C6.86639 18.9174 6.92566 19.0314 6.52893 19.6348C6.1322 20.2382 5.53174 20.8995 5.53174 21.6251C5.53284 22.5979 5.85207 23.9228 6.52893 24.6106C7.2058 25.2985 8.56326 25.6047 9.5205 25.6058ZM4.53456 21.6251C4.66479 20.475 5.67855 19.4101 6.52893 18.6397C7.37932 17.8692 8.38123 17.6445 9.5205 17.6445C10.6598 17.6445 11.6617 17.8692 12.5121 18.6397C13.3624 19.4101 13.379 20.475 13.5092 21.6251H22.4839C22.5848 20.6997 22.8917 19.3525 23.4811 18.6397C24.0705 17.9268 24.5959 17.9049 25.4755 17.6445C26.3552 17.3841 27.5931 17.3649 28.4671 17.6445C29.341 17.9241 29.8873 17.9141 30.4614 18.6397V15.6542H23.4811L21.4868 19.6348C21.4387 19.6999 20.5612 20.5936 20.4896 20.63C20.5696 20.63 20.4179 20.6664 20.4896 20.63H14.5064C14.5781 20.6664 14.4264 20.63 14.5064 20.63C14.4348 20.5936 14.5545 19.6999 14.5064 19.6348L11.5149 15.6542H4.53456V21.6251ZM2.54018 18.6397H3.53737V10.6784H2.54018V18.6397Z" fill="black"/>
<path d="M10.4728 12.5684H5.54224C5.63471 12.6602 5.41147 12.5684 5.54224 12.5684C5.54224 12.6983 5.44977 12.4766 5.54224 12.5684V9.63047C5.54224 9.50061 5.44977 8.74299 5.54224 8.65116C5.63471 8.55934 5.41147 8.65116 5.54224 8.65116H10.4728C10.6036 8.65116 11.3664 8.55934 11.4589 8.65116C11.5514 8.74299 11.4589 9.50061 11.4589 9.63047V12.5684C11.5514 12.4766 11.4589 12.6983 11.4589 12.5684C11.3664 12.6602 10.6036 12.5684 10.4728 12.5684ZM10.4728 9.63047H6.52835V11.5891H10.4728V9.63047Z" fill="black"/>
<path d="M8.52803 18.727C9.00056 18.727 10.0465 18.4645 10.4394 18.727C10.8323 18.9896 11.2142 20.2018 11.395 20.6384C11.5759 21.0749 11.4872 21.1306 11.395 21.5941C11.3029 22.0575 10.7735 22.2156 10.4394 22.5497C10.1052 22.8839 9.94716 23.4132 9.4837 23.5054C9.02024 23.5976 8.96459 23.6862 8.52803 23.5054C8.09146 23.3246 6.87921 22.9426 6.61668 22.5497C6.35415 22.1568 6.61668 21.1109 6.61668 20.6384C6.61744 20.005 7.12446 20.1306 7.57235 19.6827C8.02025 19.2348 7.89461 18.7278 8.52803 18.727ZM8.52803 22.5497C8.81155 22.5497 9.24796 22.7072 9.4837 22.5497C9.71944 22.3922 10.3309 21.856 10.4394 21.5941C10.5479 21.3321 10.4947 20.9165 10.4394 20.6384C10.3841 20.3603 10.6399 19.8832 10.4394 19.6827C10.2389 19.4822 9.76177 19.738 9.4837 19.6827C9.20563 19.6274 8.78997 19.5742 8.52803 19.6827C8.26609 19.7912 7.72987 20.4026 7.57235 20.6384C7.57235 20.3549 7.41484 20.8741 7.57235 20.6384C7.57235 21.0186 7.30352 22.2809 7.57235 22.5497C7.84119 22.8186 8.14784 22.5497 8.52803 22.5497Z" fill="black"/>
<path d="M26.528 18.727C27.0006 18.727 28.0465 18.4645 28.4394 18.727C28.8323 18.9896 29.2142 20.2018 29.395 20.6384C29.5759 21.0749 29.4872 21.1306 29.395 21.5941C29.3029 22.0575 28.7735 22.2156 28.4394 22.5497C28.1052 22.8839 27.9472 23.4132 27.4837 23.5054C27.0202 23.5976 26.9646 23.6862 26.528 23.5054C26.0915 23.3246 24.8792 22.9426 24.6167 22.5497C24.3542 22.1568 24.6167 21.1109 24.6167 20.6384C24.6174 20.005 25.1245 20.1306 25.5724 19.6827C26.0202 19.2348 25.8946 18.7278 26.528 18.727ZM26.528 22.5497C26.8115 22.5497 27.248 22.7072 27.4837 22.5497C27.7194 22.3922 28.3309 21.856 28.4394 21.5941C28.5479 21.3321 28.4947 20.9165 28.4394 20.6384C28.3841 20.3603 28.6399 19.8832 28.4394 19.6827C28.2389 19.4822 27.7618 19.738 27.4837 19.6827C27.2056 19.6274 26.79 19.5742 26.528 19.6827C26.2661 19.7912 25.7299 20.4026 25.5724 20.6384C25.5724 20.3549 25.4148 20.8741 25.5724 20.6384C25.5724 21.0186 25.3035 22.2809 25.5724 22.5497C25.8412 22.8186 26.1478 22.5497 26.528 22.5497Z" fill="black"/>
</g>
<defs>
<clipPath id="clip0_239_1586">
<rect width="31" height="31" fill="white" transform="matrix(-1 0 0 1 31.5 0.610352)"/>
</clipPath>
</defs>
</svg>
