<svg xmlns="http://www.w3.org/2000/svg" width="30" height="30" viewBox="0 0 30 30" fill="none">
  <path d="M7.32422 25.8984C6.55936 25.8984 5.81168 25.6716 5.17573 25.2467C4.53977 24.8218 4.0441 24.2178 3.7514 23.5112C3.45871 22.8045 3.38212 22.027 3.53134 21.2768C3.68056 20.5266 4.04887 19.8376 4.58971 19.2967C5.13054 18.7559 5.81961 18.3876 6.56977 18.2384C7.31993 18.0892 8.09749 18.1657 8.80413 18.4584C9.51077 18.7511 10.1147 19.2468 10.5397 19.8828C10.9646 20.5187 11.1914 21.2664 11.1914 22.0313C11.1902 23.0565 10.7823 24.0394 10.0574 24.7644C9.3324 25.4894 8.34948 25.8972 7.32422 25.8984ZM7.32422 20.0391C6.9302 20.0391 6.54503 20.1559 6.21742 20.3748C5.88981 20.5937 5.63446 20.9049 5.48368 21.2689C5.3329 21.6329 5.29344 22.0335 5.37031 22.4199C5.44718 22.8064 5.63692 23.1613 5.91553 23.4399C6.19414 23.7186 6.54912 23.9083 6.93556 23.9852C7.32201 24.062 7.72257 24.0226 8.0866 23.8718C8.45062 23.721 8.76176 23.4657 8.98066 23.1381C9.19957 22.8104 9.31641 22.4253 9.31641 22.0313C9.31641 21.7696 9.26488 21.5106 9.16476 21.2689C9.06465 21.0272 8.9179 20.8076 8.73291 20.6226C8.54792 20.4376 8.3283 20.2908 8.0866 20.1907C7.84489 20.0906 7.58584 20.0391 7.32422 20.0391Z" fill="black"/>
  <path d="M22.6172 25.8984C21.8523 25.8984 21.1047 25.6716 20.4687 25.2467C19.8327 24.8218 19.3371 24.2178 19.0444 23.5112C18.7517 22.8045 18.6751 22.027 18.8243 21.2768C18.9735 20.5266 19.3418 19.8376 19.8827 19.2967C20.4235 18.7559 21.1126 18.3876 21.8627 18.2384C22.6129 18.0892 23.3905 18.1657 24.0971 18.4584C24.8037 18.7511 25.4077 19.2468 25.8326 19.8828C26.2576 20.5187 26.4844 21.2664 26.4844 22.0313C26.4831 23.0565 26.0753 24.0394 25.3503 24.7644C24.6254 25.4894 23.6425 25.8972 22.6172 25.8984ZM22.6172 20.0391C22.2232 20.0391 21.838 20.1559 21.5104 20.3748C21.1828 20.5937 20.9274 20.9049 20.7766 21.2689C20.6259 21.6329 20.5864 22.0335 20.6633 22.4199C20.7401 22.8064 20.9299 23.1613 21.2085 23.4399C21.4871 23.7186 21.8421 23.9083 22.2285 23.9852C22.615 24.062 23.0155 24.0226 23.3796 23.8718C23.7436 23.721 24.0547 23.4657 24.2736 23.1381C24.4925 22.8104 24.6094 22.4253 24.6094 22.0313C24.6094 21.5029 24.3995 20.9962 24.0259 20.6226C23.6523 20.249 23.1456 20.0391 22.6172 20.0391Z" fill="black"/>
  <path d="M27.1875 22.9688H25.5469C25.2982 22.9688 25.0598 22.87 24.884 22.6942C24.7081 22.5183 24.6094 22.2799 24.6094 22.0312C24.6094 21.7826 24.7081 21.5442 24.884 21.3683C25.0598 21.1925 25.2982 21.0938 25.5469 21.0938H27.1875C27.4361 21.0938 27.6746 20.995 27.8504 20.8192C28.0262 20.6433 28.125 20.4049 28.125 20.1562V17.0578C28.1251 16.656 28.039 16.2588 27.8726 15.8931C27.7061 15.5274 27.4631 15.2017 27.16 14.9379L21.9387 10.3875C18.6739 7.54318 14.4901 5.9764 10.1602 5.97656H3.7418L2.05605 12.0182C1.93596 12.4489 1.87505 12.894 1.875 13.3412V20.1562C1.875 20.4049 1.97377 20.6433 2.14959 20.8192C2.3254 20.995 2.56386 21.0938 2.8125 21.0938H4.39453C4.64317 21.0938 4.88163 21.1925 5.05744 21.3683C5.23326 21.5442 5.33203 21.7826 5.33203 22.0312C5.33203 22.2799 5.23326 22.5183 5.05744 22.6942C4.88163 22.87 4.64317 22.9688 4.39453 22.9688H2.8125C2.06682 22.968 1.3519 22.6714 0.824619 22.1441C0.297341 21.6169 0.000775542 20.9019 0 20.1562L0 13.3412C0.000171109 12.7237 0.0843412 12.1091 0.250195 11.5143L2.12695 4.78711C2.18197 4.58993 2.30001 4.41618 2.46305 4.29239C2.62609 4.1686 2.82517 4.10158 3.02988 4.10156H10.1602C14.9422 4.10209 19.5625 5.83284 23.168 8.97422L28.3893 13.524C28.8947 13.9637 29.3 14.5067 29.5778 15.1163C29.8557 15.7258 29.9996 16.3879 30 17.0578V20.1562C29.9992 20.9019 29.7027 21.6169 29.1754 22.1441C28.6481 22.6714 27.9332 22.968 27.1875 22.9688Z" fill="black"/>
  <path d="M19.6875 22.9688H10.2539C10.0053 22.9688 9.76681 22.87 9.59099 22.6942C9.41518 22.5183 9.31641 22.2799 9.31641 22.0312C9.31641 21.7826 9.41518 21.5442 9.59099 21.3683C9.76681 21.1925 10.0053 21.0938 10.2539 21.0938H19.6875C19.9361 21.0938 20.1746 21.1925 20.3504 21.3683C20.5262 21.5442 20.625 21.7826 20.625 22.0312C20.625 22.2799 20.5262 22.5183 20.3504 22.6942C20.1746 22.87 19.9361 22.9688 19.6875 22.9688Z" fill="black"/>
  <path d="M29.0625 18.5742H27.1875C26.9389 18.5742 26.7004 18.4754 26.5246 18.2996C26.3488 18.1238 26.25 17.8854 26.25 17.6367C26.25 17.3881 26.3488 17.1496 26.5246 16.9738C26.7004 16.798 26.9389 16.6992 27.1875 16.6992H29.0625C29.3111 16.6992 29.5496 16.798 29.7254 16.9738C29.9012 17.1496 30 17.3881 30 17.6367C30 17.8854 29.9012 18.1238 29.7254 18.2996C29.5496 18.4754 29.3111 18.5742 29.0625 18.5742Z" fill="black"/>
  <path d="M22.1484 14.0038C22.0986 14.0038 22.7982 14.0501 6.49918 12.9491C6.2813 12.9344 6.07537 12.8441 5.91695 12.6938C5.75852 12.5435 5.65753 12.3427 5.63141 12.1258L4.79235 5.15319C4.77765 5.03092 4.78718 4.90695 4.82039 4.78837C4.8536 4.66978 4.90985 4.5589 4.98591 4.46205C5.06198 4.3652 5.15637 4.28429 5.26371 4.22392C5.37104 4.16355 5.48922 4.12491 5.61149 4.11022C5.73375 4.09552 5.85772 4.10505 5.97631 4.13826C6.09489 4.17147 6.20577 4.22772 6.30262 4.30378C6.39947 4.37985 6.48039 4.47424 6.54076 4.58158C6.60112 4.68891 6.63976 4.80709 6.65446 4.92936L7.40035 11.1286L21.7752 12.1012L23.4269 10.3809C23.5116 10.2899 23.6136 10.2166 23.7269 10.1654C23.8402 10.1142 23.9625 10.086 24.0868 10.0825C24.2111 10.079 24.3349 10.1003 24.4509 10.145C24.5669 10.1898 24.6728 10.2572 24.7625 10.3434C24.8522 10.4295 24.9238 10.5326 24.9733 10.6467C25.0228 10.7607 25.0491 10.8835 25.0506 11.0078C25.0522 11.1322 25.029 11.2556 24.9824 11.3709C24.9358 11.4862 24.8668 11.591 24.7793 11.6794L22.8246 13.7155C22.7371 13.8066 22.6321 13.8791 22.5159 13.9287C22.3997 13.9782 22.2747 14.0038 22.1484 14.0038Z" fill="black"/>
  <path d="M10.6963 13.2296C10.4672 13.2293 10.2461 13.1452 10.0747 12.9931C9.90342 12.841 9.79372 12.6314 9.76637 12.404L8.89391 5.15124C8.86423 4.90431 8.93386 4.6557 9.08748 4.4601C9.2411 4.26451 9.46612 4.13795 9.71305 4.10827C9.95998 4.07859 10.2086 4.14821 10.4042 4.30183C10.5998 4.45545 10.7263 4.68048 10.756 4.92741L11.6285 12.1801C11.6443 12.3119 11.632 12.4455 11.5924 12.5721C11.5528 12.6987 11.4867 12.8155 11.3986 12.9147C11.3105 13.0139 11.2023 13.0932 11.0812 13.1475C10.9602 13.2018 10.8289 13.2298 10.6963 13.2296Z" fill="black"/>
  <path d="M0 18.1053V13.535C2.70485e-05 13.3974 0.0303182 13.2616 0.0887251 13.1371C0.147132 13.0125 0.232224 12.9024 0.337965 12.8144C0.443706 12.7265 0.567506 12.6628 0.700584 12.6281C0.833663 12.5933 0.972759 12.5883 1.10801 12.6133L4.27207 13.1992C4.48745 13.2391 4.68208 13.3531 4.82218 13.5214C4.96229 13.6898 5.03902 13.9019 5.03906 14.1209V16.9334C5.03903 17.1248 4.98039 17.3117 4.87104 17.4688C4.76168 17.6259 4.60684 17.7458 4.42734 17.8123L1.26328 18.9842C1.12154 19.0367 0.969199 19.0542 0.819244 19.0351C0.66929 19.0161 0.52617 18.961 0.402085 18.8747C0.278 18.7884 0.176631 18.6733 0.106619 18.5393C0.0366062 18.4054 2.72056e-05 18.2564 0 18.1053ZM1.875 14.6623V16.7576L3.16406 16.2801V14.9008L1.875 14.6623Z" fill="black"/>
  <path d="M12.5391 15.1172C12.2904 15.1172 12.052 15.0184 11.8762 14.8426C11.7003 14.6668 11.6016 14.4283 11.6016 14.1797V12.4805C11.6016 12.2318 11.7003 11.9934 11.8762 11.8176C12.052 11.6417 12.2904 11.543 12.5391 11.543C12.7877 11.543 13.0262 11.6417 13.202 11.8176C13.3778 11.9934 13.4766 12.2318 13.4766 12.4805V14.1797C13.4766 14.4283 13.3778 14.6668 13.202 14.8426C13.0262 15.0184 12.7877 15.1172 12.5391 15.1172Z" fill="black"/>
</svg>