<svg xmlns="http://www.w3.org/2000/svg" width="298" height="94" viewBox="0 0 298 94" fill="none">
  <path d="M211.089 75.2978C213.195 75.7157 215.265 76.2748 217.31 76.5667C224.815 77.6352 232.265 79.0377 239.688 80.692C242.006 81.209 244.452 81.2892 246.759 81.335C250.18 81.4037 253.088 83.2659 256.327 83.825C257.961 84.1074 256.993 87.023 258.712 87.9655C255.32 89.4634 252.344 87.4637 249.216 87.8854C250.874 90.3029 253.149 88.5684 254.961 89.5206C256.548 90.3563 258.83 89.9404 258.937 92.9876C251.926 94.8021 245 93.829 238.031 92.77C231.629 91.7969 225.171 91.3066 218.741 90.5701C211.331 89.7229 203.845 89.8889 196.477 89.0073C186.083 87.7633 175.666 87.5725 165.266 86.876C162.791 86.71 160.318 86.2979 157.81 86.3589C147.851 86.5993 137.91 85.3362 127.973 85.4984C124.305 85.5576 120.584 85.279 116.91 85.3801C111.297 85.5346 105.59 86.2082 99.9087 85.134C97.3498 84.6493 94.5357 85.4392 91.934 85.443C86.1657 85.4526 80.3843 86.2502 74.57 85.1893C70.9391 84.5272 67.1288 85.2732 63.3991 85.2332C54.1038 85.134 44.7903 85.6491 35.5493 83.7277C32.7763 83.1515 29.8931 83.3137 27.1794 81.4495C28.281 79.4193 30.3327 80.0814 31.7291 78.6522C31.5957 77.7344 30.2109 77.7726 30.2487 76.6888C30.28 75.4562 31.515 75.4391 32.014 74.6663C30.1302 72.8403 30.1302 72.8402 30.9107 70.7032C21.5561 69.566 11.9956 71.6973 2.17168 69.5622C3.43466 67.2725 4.77504 67.24 5.83219 67.0225C7.0046 66.7802 8.11445 66.5226 9.45153 65.767C7.5727 65.3377 5.656 65.7537 4.54451 63.8246C4.93641 62.1245 6.52214 63.2178 7.25161 62.2772C7.16433 60.4817 5.36454 62.0615 5.03686 60.7526C7.04248 57.2169 10.5169 57.8466 13.4364 56.7475C9.99163 56.6598 6.97661 55.1047 3.77223 53.5878C5.90135 49.8614 9.39389 51.5328 12.7613 50.2391C9.45482 48.8596 6.67033 49.9567 3.85127 49.2889C3.93031 46.8523 4.83597 45.7552 7.00131 45.0644C8.70724 44.5187 10.8413 45.4632 12.2377 43.3014C9.25558 43.0075 6.14176 43.9826 3.65202 41.4467C4.34362 40.3324 4.3288 40.1893 6.97167 39.8039C8.5327 39.5768 8.755 37.1574 10.5334 37.4684C8.69078 36.7929 7.04412 36.0087 5.71528 34.715C5.25751 33.1581 7.28454 33.6332 6.94368 32.1811C5.34149 32.1907 3.69977 32.0247 2.20297 31.1069C2.91762 28.4661 5.62306 29.8876 6.91733 27.9204C5.39912 27.9204 4.02252 27.9586 2.64757 27.909C1.54431 27.8689 0.241806 27.6361 0.250039 26.1039C0.256625 24.8026 1.54596 24.7225 2.48784 24.4343C5.89312 23.3983 9.61619 24.3199 12.8585 21.9959C11.7865 20.8892 10.512 20.124 8.79616 20.1603C9.56186 19.1738 10.3391 18.7636 11.3863 18.7197C10.6536 17.9068 9.57503 17.6722 9.89942 16.4758C10.1826 15.434 11.0373 15.329 11.877 15.3939C14.5627 15.6 17.1085 14.2109 19.8254 14.4742C15.554 13.1805 10.6865 15.5618 6.78889 11.7323C8.41084 9.01907 10.9895 9.47698 12.9013 9.33578C20.0049 8.80916 26.9587 7.10908 34.0196 6.2867C43.333 5.20292 52.6827 4.53508 61.9583 2.94565C65.2714 2.37896 68.703 2.42859 72.0473 2.32364C81.0562 2.04316 90.0831 1.66723 99.0689 1.19975C105.275 0.877286 111.583 1.81609 117.752 0.135078C118.86 -0.168305 120.07 0.0873604 121.248 0.428905C124.05 1.23984 126.83 0.0720912 129.636 0.066367C143.364 0.0377459 157.052 1.30471 170.766 1.72067C178.057 1.94201 185.33 2.63462 192.599 3.09064C202.824 3.73176 213.055 5.00826 223.273 6.10922C229.953 6.83047 236.553 8.31499 243.304 8.57449C249.168 8.79964 254.979 10.7497 260.846 11.0321C267.986 11.3736 274.936 13.026 281.961 14.1022C287.11 14.8902 292.634 14.8005 297.25 19.6203C293.288 20.229 296.066 25.5334 292.481 26.726C293.454 27.1381 293.942 27.3442 294.609 27.6266C292.967 31.3721 290.295 30.8569 287.398 29.9468C289.509 33.3737 293.739 33.015 295.679 37.6726C292.974 36.1957 291.177 38.2049 288.605 37.4837C290.308 39.1971 292.485 38.7888 293.263 41.0022C292.415 44.6122 289.677 42.8969 287.265 43.4826C289.555 44.5779 290.8 46.3734 292.302 48.1956C288.101 51.1874 284.101 46.4382 279.973 48.5466C283.487 48.9702 286.912 49.3786 288.46 53.7672C288.137 54.6659 286.721 54.5075 286.843 55.9767C287.135 56.7724 287.91 56.1942 288.35 56.5186C289.415 57.3009 291.561 56.6503 291.431 58.9476C291.322 60.8709 289.455 60.3347 288.373 60.9205C289.763 62.136 292.168 61.6818 292.771 64.6851C284.735 65.601 276.79 62.7236 269.456 65.7079C271.887 67.6007 275.654 68.507 278.893 71.5046C276.654 73.033 274.933 73.6283 272.906 72.844C272.083 72.5254 271.149 72.4853 270.266 72.4891C265.565 72.512 260.658 71.5218 256.897 76.2748C258.061 77.4253 260.936 76.2061 261.157 79.1826C261.233 80.1939 260.643 81.77 258.778 81.3999C259.608 79.8829 259.258 78.7744 257.702 78.7763C252.611 78.7877 247.585 78.0054 242.538 77.3814C235.072 76.4579 227.588 75.7405 220.108 75.0059C217.119 74.7178 214.115 74.2217 211.089 75.2978ZM38.0654 75.1452C40.1533 76.9216 42.0025 77.038 43.8089 76.3473C44.8117 75.9637 45.7849 75.8588 46.7416 75.9962C51.6074 76.6945 56.5095 76.9655 61.3721 76.5801C68.1563 76.042 74.9504 75.813 81.7165 76.0649C90.205 76.3797 98.7017 76.9922 107.174 76.519C111.536 76.2747 115.906 76.4923 120.149 76.9006C127.898 77.6448 135.644 76.9521 143.389 77.7974C151.161 78.6446 159.02 78.3813 166.83 78.8679C167.999 78.9404 169.289 79.0014 170.466 79.1254C174.583 79.5604 178.755 79.2933 182.329 79.2933C134.897 73.4451 86.7783 71.7526 38.0654 75.1452ZM239.83 74.0366C226.34 70.1899 212.612 69.2912 198.874 68.444C212.525 70.3082 226.177 72.1724 239.83 74.0366ZM127.34 11.5949C115.045 11.2152 102.705 10.5379 90.3927 12.1635C102.693 11.5587 115 12.0166 127.34 11.5949ZM29.4929 61.6723C27.5186 59.8329 22.2542 60.205 19.1338 62.4241C22.7548 62.9621 25.9806 62.9984 29.4929 61.6723ZM255.975 19.1089C249.008 18.1606 242.039 17.2142 235.072 16.2659C241.942 18.0709 248.84 19.565 255.975 19.1089ZM95.8299 67.0741C95.8102 66.8489 95.7888 66.6218 95.7673 66.3967C90.5442 66.3967 85.3194 66.3967 80.0962 66.3967C80.0978 66.6218 80.0978 66.8489 80.0995 67.0741C85.344 67.0741 90.587 67.0741 95.8299 67.0741ZM69.882 65.6735C67.1387 66.2421 64.2784 64.8511 61.5878 66.3299C64.3328 65.767 67.2638 68.3486 69.882 65.6735Z" fill="#021523"/>
</svg>