<svg xmlns="http://www.w3.org/2000/svg" width="16" height="12" viewBox="0 0 16 12" fill="none">
  <path d="M15.7149 1.65891L14.305 0.27907C14.1149 0.0930232 13.8772 0 13.6079 0C13.3386 0 13.101 0.0930232 12.9109 0.27907L6.13069 6.91473L3.10495 3.93798C2.91485 3.75194 2.67723 3.65891 2.40792 3.65891C2.13861 3.65891 1.90099 3.75194 1.71089 3.93798L0.30099 5.31783C0.0950495 5.50388 0 5.73643 0 6C0 6.26357 0.0950495 6.49612 0.285149 6.68217L4.02376 10.3411L5.43366 11.7209C5.62376 11.907 5.86139 12 6.13069 12C6.4 12 6.63762 11.907 6.82772 11.7209L8.23762 10.3411L15.7149 3.02326C15.905 2.83721 16 2.60465 16 2.34109C16 2.07752 15.905 1.84496 15.7149 1.65891Z" fill="#FF6600"/>
</svg>