<svg width="28" height="12" viewBox="0 0 28 12" fill="none" xmlns="http://www.w3.org/2000/svg">
<g clip-path="url(#clip0_2013_4388)">
<path fill-rule="evenodd" clip-rule="evenodd" d="M27.958 10.0874L26.7241 11.3213L21.3772 5.97433L21.3773 5.97419L21.3771 5.97399L26.7241 0.62703L27.958 1.86094L23.8448 5.97413L27.958 10.0874Z" fill="white"/>
</g>
<g clip-path="url(#clip1_2013_4388)">
<path fill-rule="evenodd" clip-rule="evenodd" d="M20.958 10.0874L19.7241 11.3213L14.3772 5.97433L14.3773 5.97419L14.3771 5.97399L19.7241 0.62703L20.958 1.86094L16.8448 5.97413L20.958 10.0874Z" fill="white"/>
</g>
<g clip-path="url(#clip2_2013_4388)">
<path fill-rule="evenodd" clip-rule="evenodd" d="M13.958 10.0874L12.7241 11.3213L7.37716 5.97433L7.3773 5.97419L7.3771 5.97399L12.7241 0.62703L13.958 1.86094L9.84478 5.97413L13.958 10.0874Z" fill="white"/>
</g>
<g clip-path="url(#clip3_2013_4388)">
<path fill-rule="evenodd" clip-rule="evenodd" d="M6.95803 10.0874L5.72412 11.3213L0.377165 5.97433L0.377304 5.97419L0.377097 5.97399L5.72405 0.62703L6.95797 1.86094L2.84478 5.97413L6.95803 10.0874Z" fill="white"/>
</g>
<defs>
<clipPath id="clip0_2013_4388">
<rect width="11" height="7" fill="white" transform="matrix(-4.37114e-08 -1 -1 4.37114e-08 28 11.5)"/>
</clipPath>
<clipPath id="clip1_2013_4388">
<rect width="11" height="7" fill="white" transform="matrix(-4.37114e-08 -1 -1 4.37114e-08 21 11.5)"/>
</clipPath>
<clipPath id="clip2_2013_4388">
<rect width="11" height="7" fill="white" transform="matrix(-4.37114e-08 -1 -1 4.37114e-08 14 11.5)"/>
</clipPath>
<clipPath id="clip3_2013_4388">
<rect width="11" height="7" fill="white" transform="matrix(-4.37114e-08 -1 -1 4.37114e-08 7 11.5)"/>
</clipPath>
</defs>
</svg>
