<svg xmlns="http://www.w3.org/2000/svg" width="30" height="30" viewBox="0 0 30 30" fill="none">
  <path d="M14.9999 26.0996C14.5145 26.0996 14.121 26.4931 14.121 26.9785V29.1205C14.121 29.6059 14.5145 29.9994 14.9999 29.9994C15.4853 29.9994 15.8788 29.6059 15.8788 29.1205V26.9785C15.8788 26.4931 15.4853 26.0996 14.9999 26.0996Z" fill="#FF6600"/>
  <path d="M5.97633 17.4531C5.97633 16.9677 5.58282 16.5742 5.09743 16.5742H2.95547C2.47008 16.5742 2.07657 16.9677 2.07657 17.4531C2.07657 17.9385 2.47008 18.332 2.95547 18.332H5.09743C5.58282 18.332 5.97633 17.9385 5.97633 17.4531Z" fill="#FF6600"/>
  <path d="M27.0444 16.5742H24.9025C24.4171 16.5742 24.0236 16.9677 24.0236 17.4531C24.0236 17.9385 24.4171 18.332 24.9025 18.332H27.0444C27.5298 18.332 27.9234 17.9385 27.9234 17.4531C27.9234 16.9677 27.5298 16.5742 27.0444 16.5742Z" fill="#FF6600"/>
  <path d="M7.37642 23.8336L5.86183 25.3483C5.51859 25.6915 5.51859 26.248 5.86183 26.5912C6.03345 26.7629 6.25839 26.8487 6.48328 26.8487C6.70822 26.8487 6.93316 26.7628 7.10472 26.5912L8.61931 25.0766C8.96256 24.7333 8.96256 24.1768 8.61931 23.8336C8.27613 23.4903 7.71961 23.4904 7.37642 23.8336Z" fill="#FF6600"/>
  <path d="M22.6236 23.8336C22.2803 23.4903 21.7239 23.4904 21.3806 23.8336C21.0374 24.1768 21.0374 24.7333 21.3806 25.0766L22.8952 26.5912C23.0668 26.7629 23.2918 26.8487 23.5167 26.8487C23.7416 26.8487 23.9665 26.7628 24.1382 26.5912C24.4814 26.248 24.4814 25.6916 24.1382 25.3483L22.6236 23.8336Z" fill="#FF6600"/>
  <path d="M20.9824 13.0278C20.0854 11.7122 19.6114 10.1394 19.6114 8.47957V8.24496V5.50781C19.6114 4.24875 18.7796 3.18018 17.6368 2.82275V2.63672C17.6368 1.18283 16.454 0 15.0001 0C13.5461 0 12.3633 1.18283 12.3633 2.63672V2.82275C11.2204 3.18018 10.3887 4.24875 10.3887 5.50781V8.24496V8.47957C10.3887 10.097 9.89443 11.6996 8.95939 13.1144C8.17751 14.2976 7.76425 15.6753 7.76425 17.0987C7.76425 19.0505 8.52966 20.8802 9.91951 22.2509C11.2844 23.5969 13.0846 24.3345 14.9989 24.3345C15.0335 24.3345 15.0683 24.3342 15.1029 24.3337C19.0611 24.2786 22.2608 21.012 22.2356 17.0518C22.2264 15.6083 21.7931 14.2168 20.9824 13.0278ZM12.1465 5.50781C12.1465 4.92627 12.6196 4.45312 13.2012 4.45312H13.2422C13.7276 4.45312 14.1211 4.05961 14.1211 3.57422V2.63672C14.1211 2.15209 14.5154 1.75781 15 1.75781C15.4847 1.75781 15.8789 2.15209 15.8789 2.63672V3.57422C15.8789 4.05961 16.2724 4.45312 16.7578 4.45312H16.7988C17.3804 4.45312 17.8535 4.92627 17.8535 5.50781V7.36605H12.1465V5.50781ZM15.0784 22.5761C15.052 22.5764 15.026 22.5766 14.9996 22.5766C13.5502 22.5765 12.187 22.0182 11.1538 20.9992C10.1015 19.9615 9.52201 18.5763 9.52201 17.0987C9.52201 16.0209 9.83454 14.9783 10.4259 14.0836C11.4281 12.5672 12.0092 10.8646 12.1246 9.12387H14.1211V15.551H13.357C12.8716 15.551 12.4781 15.9445 12.4781 16.4299C12.4781 16.9153 12.8716 17.3088 13.357 17.3088H16.6431C17.1285 17.3088 17.522 16.9153 17.522 16.4299C17.522 15.9445 17.1285 15.551 16.6431 15.551H15.8789V9.12387H17.8738C17.9842 10.9012 18.5508 12.5818 19.5299 14.018C20.1431 14.9173 20.4709 15.9701 20.4778 17.0629C20.4969 20.0611 18.0748 22.5343 15.0784 22.5761Z" fill="#FF6600"/>
  <path d="M22.8517 10.9209C23.0766 10.9209 23.3016 10.8351 23.4732 10.6635L24.9878 9.14882C25.331 8.80558 25.331 8.24911 24.9878 7.90587C24.6446 7.56257 24.088 7.56269 23.7448 7.90587L22.2302 9.42052C21.887 9.76376 21.887 10.3202 22.2302 10.6635C22.4018 10.8351 22.6267 10.9209 22.8517 10.9209Z" fill="#FF6600"/>
  <path d="M6.52687 10.6635C6.69849 10.8351 6.92343 10.9209 7.14832 10.9209C7.3732 10.9209 7.5982 10.8351 7.76976 10.6635C8.113 10.3203 8.113 9.76382 7.76976 9.42052L6.25517 7.90587C5.91199 7.56257 5.35547 7.56269 5.01222 7.90587C4.66898 8.24905 4.66898 8.80558 5.01222 9.14882L6.52687 10.6635Z" fill="#FF6600"/>
</svg>