<svg xmlns="http://www.w3.org/2000/svg" width="30" height="30" viewBox="0 0 30 30" fill="none">
  <path d="M23.125 16.4883H2.5C2.16848 16.4883 1.85054 16.62 1.61612 16.8544C1.3817 17.0888 1.25 17.4068 1.25 17.7383C1.25 18.0698 1.3817 18.3877 1.61612 18.6222C1.85054 18.8566 2.16848 18.9883 2.5 18.9883H23.125C23.7431 18.9883 24.3473 19.1716 24.8612 19.5149C25.3751 19.8583 25.7756 20.3464 26.0121 20.9174C26.2486 21.4884 26.3105 22.1167 26.19 22.7229C26.0694 23.3291 25.7717 23.886 25.3347 24.323C24.8977 24.76 24.3409 25.0577 23.7347 25.1782C23.1285 25.2988 22.5001 25.2369 21.9291 25.0004C21.3581 24.7639 20.87 24.3633 20.5267 23.8494C20.1833 23.3355 20 22.7313 20 22.1133V21.4883C20 21.1568 19.8683 20.8388 19.6339 20.6044C19.3995 20.37 19.0815 20.2383 18.75 20.2383C18.4185 20.2383 18.1005 20.37 17.8661 20.6044C17.6317 20.8388 17.5 21.1568 17.5 21.4883V22.1133C17.5 23.2258 17.8299 24.3133 18.448 25.2384C19.0661 26.1634 19.9446 26.8844 20.9724 27.3101C22.0002 27.7358 23.1312 27.8472 24.2224 27.6302C25.3135 27.4132 26.3158 26.8774 27.1025 26.0908C27.8891 25.3041 28.4249 24.3018 28.6419 23.2107C28.859 22.1195 28.7476 20.9885 28.3218 19.9607C27.8961 18.9329 27.1751 18.0543 26.2501 17.4363C25.3251 16.8182 24.2375 16.4883 23.125 16.4883Z" fill="#FF6600"/>
  <path d="M2.5 15.2383H23.125C24.2375 15.2383 25.3251 14.9084 26.2501 14.2903C27.1751 13.6722 27.8961 12.7937 28.3218 11.7659C28.7476 10.738 28.859 9.60704 28.6419 8.5159C28.4249 7.42476 27.8891 6.42248 27.1025 5.63581C26.3158 4.84914 25.3135 4.31341 24.2224 4.09637C23.1312 3.87932 22.0002 3.99072 20.9724 4.41646C19.9446 4.8422 19.0661 5.56317 18.448 6.4882C17.8299 7.41323 17.5 8.50076 17.5 9.61328V10.2383C17.5 10.5698 17.6317 10.8877 17.8661 11.1222C18.1005 11.3566 18.4185 11.4883 18.75 11.4883C19.0815 11.4883 19.3995 11.3566 19.6339 11.1222C19.8683 10.8877 20 10.5698 20 10.2383V9.61328C20 8.99522 20.1833 8.39103 20.5267 7.87713C20.87 7.36322 21.3581 6.96268 21.9291 6.72616C22.5001 6.48964 23.1285 6.42775 23.7347 6.54833C24.3409 6.66891 24.8977 6.96654 25.3347 7.40358C25.7717 7.84061 26.0694 8.39744 26.19 9.00363C26.3105 9.60982 26.2486 10.2382 26.0121 10.8092C25.7756 11.3802 25.3751 11.8682 24.8612 12.2116C24.3473 12.555 23.7431 12.7383 23.125 12.7383H2.5C2.16848 12.7383 1.85054 12.87 1.61612 13.1044C1.3817 13.3388 1.25 13.6568 1.25 13.9883C1.25 14.3198 1.3817 14.6377 1.61612 14.8722C1.85054 15.1066 2.16848 15.2383 2.5 15.2383Z" fill="#FF6600"/>
  <path d="M2.5 11.4867H11.6375C12.5498 11.4867 13.4415 11.2162 14.2001 10.7094C14.9586 10.2025 15.5498 9.48217 15.8989 8.63935C16.248 7.79652 16.3393 6.8691 16.1614 5.97437C15.9834 5.07963 15.5441 4.25776 14.899 3.61269C14.254 2.96762 13.4321 2.52832 12.5374 2.35035C11.6426 2.17237 10.7152 2.26372 9.87237 2.61283C9.02955 2.96194 8.30917 3.55313 7.80235 4.31165C7.29552 5.07018 7.025 5.96196 7.025 6.87422V7.34922C7.025 7.68074 7.1567 7.99868 7.39112 8.2331C7.62554 8.46753 7.94348 8.59922 8.275 8.59922C8.60652 8.59922 8.92446 8.46753 9.15888 8.2331C9.3933 7.99868 9.525 7.68074 9.525 7.34922V6.87422C9.525 6.45641 9.6489 6.04798 9.88102 5.70058C10.1131 5.35318 10.4431 5.08242 10.8291 4.92253C11.2151 4.76264 11.6398 4.7208 12.0496 4.80231C12.4594 4.88382 12.8358 5.08502 13.1313 5.38046C13.4267 5.6759 13.6279 6.05231 13.7094 6.46209C13.7909 6.87188 13.7491 7.29663 13.5892 7.68264C13.4293 8.06865 13.1585 8.39858 12.8111 8.6307C12.4637 8.86283 12.0553 8.98672 11.6375 8.98672H2.5C2.16848 8.98672 1.85054 9.11842 1.61612 9.35284C1.3817 9.58726 1.25 9.9052 1.25 10.2367C1.25 10.5682 1.3817 10.8862 1.61612 11.1206C1.85054 11.355 2.16848 11.4867 2.5 11.4867Z" fill="#FF6600"/>
</svg>