<svg width="32" height="30" viewBox="0 0 32 30" fill="none" xmlns="http://www.w3.org/2000/svg">
<path d="M27.4113 0.181604C27.1878 -0.0601537 26.8129 -0.0609154 26.5887 0.181604C24.4999 2.44186 22 6.45161 22 9.84372C22 12.6869 24.243 15 27 15C29.757 15 32 12.6869 32 9.84372C32 6.42287 29.4506 2.38825 27.4113 0.181604ZM27 13.8281C24.8696 13.8281 23.1364 12.0407 23.1364 9.84372C23.1364 6.45442 25.9291 2.75988 27.0003 1.46762C28.0718 2.75873 30.8636 6.44894 30.8636 9.84372C30.8636 12.0407 29.1304 13.8281 27 13.8281ZM27 11.4844C27.8772 11.4844 28.5909 10.7484 28.5909 9.84375C28.5909 9.52013 28.8453 9.25781 29.1591 9.25781C29.4729 9.25781 29.7273 9.52013 29.7273 9.84375C29.7273 11.3946 28.5038 12.6562 27 12.6562C26.6862 12.6562 26.4318 12.3939 26.4318 12.0703C26.4318 11.7467 26.6862 11.4844 27 11.4844Z" fill="#FF6600"/>
<mask id="path-2-outside-1_0_1" maskUnits="userSpaceOnUse" x="-1" y="13" width="35" height="18" fill="black">
<rect fill="white" x="-1" y="13" width="35" height="18"/>
<path d="M5.103 29.27C4.443 29.27 3.828 29.135 3.258 28.865C2.688 28.589 2.196 28.211 1.782 27.731C1.374 27.251 1.08 26.693 0.9 26.057L2.988 25.499C3.072 25.847 3.225 26.147 3.447 26.399C3.675 26.651 3.939 26.846 4.239 26.984C4.545 27.122 4.86 27.191 5.184 27.191C5.604 27.191 5.988 27.089 6.336 26.885C6.684 26.681 6.96 26.408 7.164 26.066C7.368 25.718 7.47 25.334 7.47 24.914C7.47 24.494 7.365 24.113 7.155 23.771C6.951 23.423 6.675 23.15 6.327 22.952C5.979 22.748 5.598 22.646 5.184 22.646C4.686 22.646 4.272 22.736 3.942 22.916C3.618 23.096 3.369 23.288 3.195 23.492L1.341 22.898L1.737 16.04H8.775V18.074H2.898L3.708 17.309L3.42 22.079L3.024 21.593C3.36 21.287 3.75 21.059 4.194 20.909C4.638 20.759 5.067 20.684 5.481 20.684C6.291 20.684 7.008 20.87 7.632 21.242C8.262 21.608 8.754 22.109 9.108 22.745C9.468 23.381 9.648 24.104 9.648 24.914C9.648 25.724 9.438 26.459 9.018 27.119C8.598 27.773 8.043 28.295 7.353 28.685C6.669 29.075 5.919 29.27 5.103 29.27ZM16.4689 29.27C15.5509 29.27 14.7409 29.075 14.0389 28.685C13.3369 28.289 12.7879 27.74 12.3919 27.038C12.0019 26.336 11.8069 25.526 11.8069 24.608V20.432C11.8069 19.514 12.0019 18.704 12.3919 18.002C12.7879 17.3 13.3369 16.754 14.0389 16.364C14.7409 15.968 15.5509 15.77 16.4689 15.77C17.3869 15.77 18.1939 15.968 18.8899 16.364C19.5919 16.754 20.1409 17.3 20.5369 18.002C20.9329 18.704 21.1309 19.514 21.1309 20.432V24.608C21.1309 25.526 20.9329 26.336 20.5369 27.038C20.1409 27.74 19.5919 28.289 18.8899 28.685C18.1939 29.075 17.3869 29.27 16.4689 29.27ZM16.4689 27.209C16.9249 27.209 17.3389 27.101 17.7109 26.885C18.0829 26.663 18.3769 26.369 18.5929 26.003C18.8089 25.631 18.9169 25.217 18.9169 24.761V20.27C18.9169 19.808 18.8089 19.394 18.5929 19.028C18.3769 18.656 18.0829 18.362 17.7109 18.146C17.3389 17.924 16.9249 17.813 16.4689 17.813C16.0129 17.813 15.5989 17.924 15.2269 18.146C14.8549 18.362 14.5609 18.656 14.3449 19.028C14.1289 19.394 14.0209 19.808 14.0209 20.27V24.761C14.0209 25.217 14.1289 25.631 14.3449 26.003C14.5609 26.369 14.8549 26.663 15.2269 26.885C15.5989 27.101 16.0129 27.209 16.4689 27.209ZM23.3605 29V21.44H24.7465L27.4555 26.662L30.1715 21.44H31.5505V29H29.9405V24.835L27.7915 29H27.1265L24.9775 24.835V29H23.3605Z"/>
</mask>
<path d="M5.103 29.27C4.443 29.27 3.828 29.135 3.258 28.865C2.688 28.589 2.196 28.211 1.782 27.731C1.374 27.251 1.08 26.693 0.9 26.057L2.988 25.499C3.072 25.847 3.225 26.147 3.447 26.399C3.675 26.651 3.939 26.846 4.239 26.984C4.545 27.122 4.86 27.191 5.184 27.191C5.604 27.191 5.988 27.089 6.336 26.885C6.684 26.681 6.96 26.408 7.164 26.066C7.368 25.718 7.47 25.334 7.47 24.914C7.47 24.494 7.365 24.113 7.155 23.771C6.951 23.423 6.675 23.15 6.327 22.952C5.979 22.748 5.598 22.646 5.184 22.646C4.686 22.646 4.272 22.736 3.942 22.916C3.618 23.096 3.369 23.288 3.195 23.492L1.341 22.898L1.737 16.04H8.775V18.074H2.898L3.708 17.309L3.42 22.079L3.024 21.593C3.36 21.287 3.75 21.059 4.194 20.909C4.638 20.759 5.067 20.684 5.481 20.684C6.291 20.684 7.008 20.87 7.632 21.242C8.262 21.608 8.754 22.109 9.108 22.745C9.468 23.381 9.648 24.104 9.648 24.914C9.648 25.724 9.438 26.459 9.018 27.119C8.598 27.773 8.043 28.295 7.353 28.685C6.669 29.075 5.919 29.27 5.103 29.27ZM16.4689 29.27C15.5509 29.27 14.7409 29.075 14.0389 28.685C13.3369 28.289 12.7879 27.74 12.3919 27.038C12.0019 26.336 11.8069 25.526 11.8069 24.608V20.432C11.8069 19.514 12.0019 18.704 12.3919 18.002C12.7879 17.3 13.3369 16.754 14.0389 16.364C14.7409 15.968 15.5509 15.77 16.4689 15.77C17.3869 15.77 18.1939 15.968 18.8899 16.364C19.5919 16.754 20.1409 17.3 20.5369 18.002C20.9329 18.704 21.1309 19.514 21.1309 20.432V24.608C21.1309 25.526 20.9329 26.336 20.5369 27.038C20.1409 27.74 19.5919 28.289 18.8899 28.685C18.1939 29.075 17.3869 29.27 16.4689 29.27ZM16.4689 27.209C16.9249 27.209 17.3389 27.101 17.7109 26.885C18.0829 26.663 18.3769 26.369 18.5929 26.003C18.8089 25.631 18.9169 25.217 18.9169 24.761V20.27C18.9169 19.808 18.8089 19.394 18.5929 19.028C18.3769 18.656 18.0829 18.362 17.7109 18.146C17.3389 17.924 16.9249 17.813 16.4689 17.813C16.0129 17.813 15.5989 17.924 15.2269 18.146C14.8549 18.362 14.5609 18.656 14.3449 19.028C14.1289 19.394 14.0209 19.808 14.0209 20.27V24.761C14.0209 25.217 14.1289 25.631 14.3449 26.003C14.5609 26.369 14.8549 26.663 15.2269 26.885C15.5989 27.101 16.0129 27.209 16.4689 27.209ZM23.3605 29V21.44H24.7465L27.4555 26.662L30.1715 21.44H31.5505V29H29.9405V24.835L27.7915 29H27.1265L24.9775 24.835V29H23.3605Z" fill="#FF6600"/>
<path d="M3.258 28.865L2.58974 30.2451L2.6016 30.2507L3.258 28.865ZM1.782 27.731L0.613663 28.7241L0.620886 28.7325L1.782 27.731ZM0.9 26.057L0.504122 24.5757L-0.999114 24.9774L-0.575383 26.4746L0.9 26.057ZM2.988 25.499L4.47853 25.1392L4.1099 23.612L2.59212 24.0177L2.988 25.499ZM3.447 26.399L2.29645 27.4126L2.30316 27.4202L2.30998 27.4277L3.447 26.399ZM4.239 26.984L3.59819 28.3771L3.60863 28.3818L4.239 26.984ZM6.336 26.885L7.11144 28.2078H7.11144L6.336 26.885ZM7.164 26.066L8.4809 26.8515L8.4868 26.8414L7.164 26.066ZM7.155 23.771L5.8322 24.5464L5.84013 24.56L5.84834 24.5733L7.155 23.771ZM6.327 22.952L5.55156 24.2748L5.56011 24.2798L5.56873 24.2847L6.327 22.952ZM3.942 22.916L3.20774 21.5699L3.19735 21.5756L3.942 22.916ZM3.195 23.492L2.72716 24.9522L3.69922 25.2637L4.36161 24.4871L3.195 23.492ZM1.341 22.898L-0.189784 22.8096L-0.258273 23.9957L0.873163 24.3582L1.341 22.898ZM1.737 16.04V14.5067H0.289651L0.206216 15.9516L1.737 16.04ZM8.775 16.04H10.3083V14.5067H8.775V16.04ZM8.775 18.074V19.6073H10.3083V18.074H8.775ZM2.898 18.074L1.84518 16.9592L-0.958682 19.6073H2.898V18.074ZM3.708 17.309L5.23855 17.4014L5.47206 13.5339L2.65518 16.1942L3.708 17.309ZM3.42 22.079L2.23131 23.0476L4.7137 26.0941L4.95055 22.1714L3.42 22.079ZM3.024 21.593L1.99156 20.4593L0.918593 21.4365L1.83531 22.5616L3.024 21.593ZM4.194 20.909L3.70323 19.4563L3.70323 19.4563L4.194 20.909ZM7.632 21.242L6.84684 22.5591L6.85427 22.5635L6.86175 22.5678L7.632 21.242ZM9.108 22.745L7.76819 23.4907L7.77361 23.5003L9.108 22.745ZM9.018 27.119L10.3082 27.9476L10.3116 27.9422L9.018 27.119ZM7.353 28.685L6.59851 27.3501L6.59351 27.353L7.353 28.685ZM5.103 27.7367C4.65922 27.7367 4.26967 27.6476 3.9144 27.4793L2.6016 30.2507C3.38633 30.6224 4.22678 30.8033 5.103 30.8033V27.7367ZM3.92624 27.4849C3.54483 27.3003 3.22052 27.0512 2.94311 26.7295L0.620886 28.7325C1.17148 29.3708 1.83117 29.8777 2.58976 30.2451L3.92624 27.4849ZM2.95031 26.7379C2.69176 26.4338 2.4985 26.0745 2.37538 25.6394L-0.575383 26.4746C-0.3385 27.3115 0.0562422 28.0682 0.613693 28.7241L2.95031 26.7379ZM1.29588 27.5383L3.38388 26.9803L2.59212 24.0177L0.504122 24.5757L1.29588 27.5383ZM1.49747 25.8588C1.636 26.4327 1.89883 26.9612 2.29645 27.4126L4.59755 25.3854C4.55117 25.3328 4.508 25.2613 4.47853 25.1392L1.49747 25.8588ZM2.30998 27.4277C2.67292 27.8289 3.10434 28.1498 3.59821 28.377L4.87979 25.591C4.77366 25.5422 4.67708 25.4731 4.58402 25.3703L2.30998 27.4277ZM3.60863 28.3818C4.10545 28.6058 4.63475 28.7243 5.184 28.7243V25.6577C5.08525 25.6577 4.98455 25.6382 4.86937 25.5862L3.60863 28.3818ZM5.184 28.7243C5.86488 28.7243 6.51836 28.5555 7.11144 28.2078L5.56056 25.5622C5.45764 25.6225 5.34312 25.6577 5.184 25.6577V28.7243ZM7.11144 28.2078C7.67927 27.8749 8.14274 27.4183 8.48086 26.8515L5.84714 25.2805C5.77726 25.3977 5.68873 25.4871 5.56056 25.5622L7.11144 28.2078ZM8.4868 26.8414C8.83447 26.2484 9.00333 25.5949 9.00333 24.914H5.93667C5.93667 25.0731 5.90153 25.1876 5.8412 25.2906L8.4868 26.8414ZM9.00333 24.914C9.00333 24.2246 8.82693 23.5635 8.46166 22.9687L5.84834 24.5733C5.90307 24.6625 5.93667 24.7634 5.93667 24.914H9.00333ZM8.4778 22.9956C8.13884 22.4173 7.66891 21.9514 7.08527 21.6193L5.56873 24.2847C5.68109 24.3486 5.76316 24.4287 5.8322 24.5464L8.4778 22.9956ZM7.10244 21.6292C6.51287 21.2836 5.86308 21.1127 5.184 21.1127V24.1793C5.33292 24.1793 5.44513 24.2124 5.55156 24.2748L7.10244 21.6292ZM5.184 21.1127C4.50981 21.1127 3.82433 21.2336 3.20776 21.5699L4.67624 24.2621C4.71967 24.2384 4.86219 24.1793 5.184 24.1793V21.1127ZM3.19735 21.5756C2.77006 21.813 2.35722 22.1114 2.02839 22.4969L4.36161 24.4871C4.38078 24.4646 4.46594 24.379 4.68665 24.2564L3.19735 21.5756ZM3.66284 22.0318L1.80884 21.4378L0.873163 24.3582L2.72716 24.9522L3.66284 22.0318ZM2.87178 22.9864L3.26778 16.1284L0.206216 15.9516L-0.189784 22.8096L2.87178 22.9864ZM1.737 17.5733H8.775V14.5067H1.737V17.5733ZM7.24167 16.04V18.074H10.3083V16.04H7.24167ZM8.775 16.5407H2.898V19.6073H8.775V16.5407ZM3.95082 19.1888L4.76082 18.4238L2.65518 16.1942L1.84518 16.9592L3.95082 19.1888ZM2.17745 17.2166L1.88945 21.9866L4.95055 22.1714L5.23855 17.4014L2.17745 17.2166ZM4.60869 21.1104L4.21269 20.6244L1.83531 22.5616L2.23131 23.0476L4.60869 21.1104ZM4.05644 22.7267C4.23092 22.5678 4.435 22.4461 4.68477 22.3617L3.70323 19.4563C3.065 19.6719 2.48908 20.0062 1.99156 20.4593L4.05644 22.7267ZM4.68477 22.3617C4.99125 22.2581 5.25432 22.2173 5.481 22.2173V19.1507C4.87968 19.1507 4.28475 19.2599 3.70323 19.4563L4.68477 22.3617ZM5.481 22.2173C6.04718 22.2173 6.48681 22.3444 6.84684 22.5591L8.41717 19.9249C7.52919 19.3956 6.53482 19.1507 5.481 19.1507V22.2173ZM6.86175 22.5678C7.25342 22.7954 7.54855 23.0961 7.76822 23.4907L10.4478 21.9993C9.95945 21.1219 9.27058 20.4206 8.40225 19.9162L6.86175 22.5678ZM7.77361 23.5003C7.98947 23.8817 8.11467 24.3394 8.11467 24.914H11.1813C11.1813 23.8686 10.9465 22.8803 10.4424 21.9897L7.77361 23.5003ZM8.11467 24.914C8.11467 25.4433 7.98208 25.8908 7.72439 26.2958L10.3116 27.9422C10.8939 27.0272 11.1813 26.0047 11.1813 24.914H8.11467ZM7.72781 26.2904C7.44529 26.7304 7.07589 27.0803 6.59851 27.3501L8.10749 30.0199C9.01011 29.5097 9.75071 28.8156 10.3082 27.9476L7.72781 26.2904ZM6.59351 27.353C6.14951 27.6061 5.66275 27.7367 5.103 27.7367V30.8033C6.17525 30.8033 7.18849 30.5439 8.11249 30.017L6.59351 27.353ZM14.0389 28.685L13.2855 30.0205L13.2942 30.0254L14.0389 28.685ZM12.3919 27.038L11.0515 27.7827L11.0564 27.7914L12.3919 27.038ZM12.3919 18.002L11.0563 17.2486L11.0515 17.2573L12.3919 18.002ZM14.0389 16.364L14.7835 17.7044L14.7922 17.6995L14.0389 16.364ZM18.8899 16.364L18.1316 17.6967L18.1384 17.7006L18.1452 17.7044L18.8899 16.364ZM20.5369 18.002L19.2014 18.7554V18.7554L20.5369 18.002ZM20.5369 27.038L19.2014 26.2846L20.5369 27.038ZM18.8899 28.685L19.6394 30.0227L19.6432 30.0205L18.8899 28.685ZM17.7109 26.885L18.4808 28.211L18.4888 28.2064L18.4966 28.2017L17.7109 26.885ZM18.5929 26.003L19.9134 26.7823L19.9189 26.7729L18.5929 26.003ZM18.5929 19.028L17.2668 19.798L17.2724 19.8073L18.5929 19.028ZM17.7109 18.146L16.9251 19.4627L16.933 19.4674L16.9409 19.472L17.7109 18.146ZM15.2269 18.146L15.9968 19.472L16.0048 19.4674L16.0126 19.4627L15.2269 18.146ZM14.3449 19.028L15.6654 19.8073L15.6709 19.7979L14.3449 19.028ZM14.3449 26.003L13.0188 26.773L13.0244 26.7823L14.3449 26.003ZM15.2269 26.885L14.4411 28.2017L14.449 28.2064L14.4569 28.211L15.2269 26.885ZM16.4689 27.7367C15.7737 27.7367 15.2269 27.5909 14.7835 27.3446L13.2942 30.0254C14.2549 30.5591 15.3281 30.8033 16.4689 30.8033V27.7367ZM14.7922 27.3495C14.3337 27.0909 13.986 26.7432 13.7274 26.2846L11.0564 27.7914C11.5897 28.7368 12.34 29.4871 13.2855 30.0205L14.7922 27.3495ZM13.7322 26.2933C13.486 25.85 13.3402 25.3032 13.3402 24.608H10.2735C10.2735 25.7488 10.5178 26.822 11.0515 27.7827L13.7322 26.2933ZM13.3402 24.608V20.432H10.2735V24.608H13.3402ZM13.3402 20.432C13.3402 19.7368 13.486 19.19 13.7322 18.7467L11.0515 17.2573C10.5178 18.218 10.2735 19.2912 10.2735 20.432H13.3402ZM13.7274 18.7554C13.9849 18.2988 14.3298 17.9564 14.7835 17.7044L13.2942 15.0236C12.3439 15.5516 11.5909 16.3012 11.0564 17.2486L13.7274 18.7554ZM14.7922 17.6995C15.2339 17.4503 15.7776 17.3033 16.4689 17.3033V14.2367C15.3241 14.2367 14.2478 14.4857 13.2855 15.0285L14.7922 17.6995ZM16.4689 17.3033C17.1605 17.3033 17.6987 17.4504 18.1316 17.6967L19.6481 15.0313C18.689 14.4856 17.6133 14.2367 16.4689 14.2367V17.3033ZM18.1452 17.7044C18.5989 17.9564 18.9439 18.2988 19.2014 18.7554L21.8724 17.2486C21.3379 16.3012 20.5848 15.5516 19.6345 15.0236L18.1452 17.7044ZM19.2014 18.7554C19.4505 19.1971 19.5975 19.7407 19.5975 20.432H22.6642C22.6642 19.2873 22.4152 18.2109 21.8724 17.2486L19.2014 18.7554ZM19.5975 20.432V24.608H22.6642V20.432H19.5975ZM19.5975 24.608C19.5975 25.2993 19.4505 25.8429 19.2014 26.2846L21.8724 27.7914C22.4152 26.8291 22.6642 25.7527 22.6642 24.608H19.5975ZM19.2014 26.2846C18.9427 26.7432 18.595 27.0909 18.1365 27.3495L19.6432 30.0205C20.5887 29.4871 21.339 28.7368 21.8724 27.7914L19.2014 26.2846ZM18.1403 27.3474C17.7058 27.5908 17.1644 27.7367 16.4689 27.7367V30.8033C17.6094 30.8033 18.6819 30.5592 19.6394 30.0226L18.1403 27.3474ZM16.4689 28.7423C17.1784 28.7423 17.8608 28.571 18.4808 28.211L16.9409 25.559C16.817 25.631 16.6713 25.6757 16.4689 25.6757V28.7423ZM18.4966 28.2017C19.0846 27.8508 19.5643 27.3738 19.9134 26.7823L17.2724 25.2237C17.1894 25.3642 17.0811 25.4752 16.9251 25.5683L18.4966 28.2017ZM19.9189 26.7729C20.2789 26.1529 20.4502 25.4706 20.4502 24.761H17.3835C17.3835 24.9634 17.3388 25.1091 17.2669 25.2331L19.9189 26.7729ZM20.4502 24.761V20.27H17.3835V24.761H20.4502ZM20.4502 20.27C20.4502 19.5585 20.2807 18.8711 19.9134 18.2487L17.2724 19.8073C17.337 19.9169 17.3835 20.0575 17.3835 20.27H20.4502ZM19.9189 18.2581C19.569 17.6555 19.0834 17.1699 18.4808 16.82L16.9409 19.472C17.0824 19.5541 17.1847 19.6565 17.2669 19.7979L19.9189 18.2581ZM18.4966 16.8293C17.8744 16.4579 17.1864 16.2797 16.4689 16.2797V19.3463C16.6634 19.3463 16.8034 19.3901 16.9251 19.4627L18.4966 16.8293ZM16.4689 16.2797C15.7514 16.2797 15.0634 16.4579 14.4411 16.8293L16.0126 19.4627C16.1344 19.3901 16.2744 19.3463 16.4689 19.3463V16.2797ZM14.4569 16.82C13.8544 17.1699 13.3687 17.6555 13.0189 18.2581L15.6709 19.7979C15.753 19.6565 15.8554 19.5541 15.9968 19.472L14.4569 16.82ZM13.0244 18.2487C12.657 18.8711 12.4875 19.5585 12.4875 20.27H15.5542C15.5542 20.0575 15.6007 19.9169 15.6654 19.8073L13.0244 18.2487ZM12.4875 20.27V24.761H15.5542V20.27H12.4875ZM12.4875 24.761C12.4875 25.4706 12.6588 26.1529 13.0189 26.7729L15.6709 25.2331C15.5989 25.1091 15.5542 24.9634 15.5542 24.761H12.4875ZM13.0244 26.7823C13.3734 27.3738 13.8531 27.8508 14.4411 28.2017L16.0126 25.5683C15.8566 25.4752 15.7483 25.3642 15.6654 25.2237L13.0244 26.7823ZM14.4569 28.211C15.077 28.571 15.7593 28.7423 16.4689 28.7423V25.6757C16.2665 25.6757 16.1208 25.631 15.9968 25.559L14.4569 28.211ZM23.3605 29H21.8272V30.5333H23.3605V29ZM23.3605 21.44V19.9067H21.8272V21.44H23.3605ZM24.7465 21.44L26.1076 20.7339L25.6785 19.9067H24.7465V21.44ZM27.4555 26.662L26.0944 27.3681L27.4538 29.9884L28.8159 27.3695L27.4555 26.662ZM30.1715 21.44V19.9067H29.2407L28.8112 20.7325L30.1715 21.44ZM31.5505 21.44H33.0839V19.9067H31.5505V21.44ZM31.5505 29V30.5333H33.0839V29H31.5505ZM29.9405 29H28.4072V30.5333H29.9405V29ZM29.9405 24.835H31.4739L28.5779 24.1319L29.9405 24.835ZM27.7915 29V30.5333H28.7258L29.1542 29.7031L27.7915 29ZM27.1265 29L25.7639 29.7031L26.1923 30.5333H27.1265V29ZM24.9775 24.835L26.3402 24.1319L23.4442 24.835H24.9775ZM24.9775 29V30.5333H26.5109V29H24.9775ZM24.8939 29V21.44H21.8272V29H24.8939ZM23.3605 22.9733H24.7465V19.9067H23.3605V22.9733ZM23.3854 22.1461L26.0944 27.3681L28.8166 25.9559L26.1076 20.7339L23.3854 22.1461ZM28.8159 27.3695L31.5319 22.1475L28.8112 20.7325L26.0952 25.9545L28.8159 27.3695ZM30.1715 22.9733H31.5505V19.9067H30.1715V22.9733ZM30.0172 21.44V29H33.0839V21.44H30.0172ZM31.5505 27.4667H29.9405V30.5333H31.5505V27.4667ZM31.4739 29V24.835H28.4072V29H31.4739ZM28.5779 24.1319L26.4289 28.2969L29.1542 29.7031L31.3032 25.5381L28.5779 24.1319ZM27.7915 27.4667H27.1265V30.5333H27.7915V27.4667ZM28.4892 28.2969L26.3402 24.1319L23.6149 25.5381L25.7639 29.7031L28.4892 28.2969ZM23.4442 24.835V29H26.5109V24.835H23.4442ZM24.9775 27.4667H23.3605V30.5333H24.9775V27.4667Z" fill="#021523" mask="url(#path-2-outside-1_0_1)"/>
</svg>
