<svg xmlns="http://www.w3.org/2000/svg" width="301" height="98" viewBox="0 0 301 98" fill="none">
  <path d="M213.679 78.502C215.813 78.9377 217.911 79.5205 219.983 79.8249C227.59 80.9389 235.14 82.401 242.663 84.1257C245.012 84.6647 247.491 84.7483 249.829 84.796C253.297 84.8677 256.244 86.8092 259.526 87.392C261.182 87.6864 260.2 90.7261 261.943 91.7088C258.505 93.2703 255.489 91.1855 252.319 91.6252C253.999 94.1456 256.305 92.3373 258.141 93.33C259.75 94.2013 262.063 93.7676 262.171 96.9445C255.065 98.8363 248.046 97.8217 240.984 96.7177C234.495 95.7032 227.95 95.1919 221.434 94.4241C213.924 93.5409 206.337 93.7139 198.869 92.7949C188.336 91.4979 177.779 91.2989 167.238 90.5729C164.73 90.3998 162.224 89.9701 159.682 90.0338C149.589 90.2844 139.514 88.9676 129.443 89.1366C125.726 89.1983 121.955 88.9079 118.232 89.0133C112.543 89.1744 106.758 89.8766 101.001 88.7567C98.4075 88.2514 95.5555 89.0749 92.9188 89.0789C87.0728 89.0889 81.2136 89.9204 75.3209 88.8143C71.6412 88.1241 67.7795 88.9019 63.9996 88.8601C54.5791 88.7567 45.1402 89.2938 35.7747 87.2906C32.9644 86.6898 30.0423 86.8589 27.2921 84.9154C28.4085 82.7988 30.4879 83.4891 31.903 81.9991C31.7679 81.0423 30.3644 81.0821 30.4028 79.9522C30.4345 78.6671 31.6861 78.6492 32.1917 77.8436C30.2826 75.9398 30.2826 75.9398 31.0736 73.7118C21.593 72.5262 11.9038 74.7482 1.94756 72.5222C3.22755 70.1351 4.58598 70.1013 5.65737 69.8745C6.84557 69.6219 7.97037 69.3534 9.32546 68.5656C7.42132 68.118 5.47881 68.5517 4.35235 66.5406C4.74953 64.7681 6.35661 65.908 7.0959 64.9272C7.00745 63.0553 5.18342 64.7024 4.85133 63.3378C6.88396 59.6517 10.4052 60.3081 13.364 59.1623C9.87283 59.0708 6.8172 57.4496 3.56966 55.8682C5.72746 51.9831 9.26704 53.7257 12.6798 52.377C9.32879 50.9387 6.5068 52.0825 3.64977 51.3863C3.72987 48.846 4.64773 47.7022 6.84224 46.9821C8.57115 46.4131 10.7339 47.3978 12.1491 45.144C9.12687 44.8376 5.97111 45.8542 3.44784 43.2104C4.14875 42.0487 4.13373 41.8995 6.8122 41.4976C8.39425 41.2609 8.61954 38.7385 10.4219 39.0628C8.55446 38.3586 6.88563 37.541 5.53888 36.1923C5.07495 34.569 7.12928 35.0644 6.78383 33.5505C5.16006 33.5605 3.49624 33.3874 1.97927 32.4306C2.70354 29.6774 5.44543 31.1594 6.75713 29.1085C5.21847 29.1085 3.82333 29.1483 2.42986 29.0966C1.31174 29.0548 -0.00830479 28.8121 3.93572e-05 27.2147C0.00671467 25.858 1.31341 25.7745 2.26798 25.4741C5.71912 24.3939 9.49234 25.3548 12.7783 22.9319C11.6919 21.7781 10.4002 20.9804 8.66126 21.0182C9.43727 19.9897 10.225 19.562 11.2863 19.5163C10.5437 18.6688 9.45062 18.4242 9.77938 17.1769C10.0664 16.0908 10.9325 15.9813 11.7836 16.0489C14.5055 16.2638 17.0855 14.8156 19.8391 15.0901C15.5101 13.7414 10.5771 16.2241 6.62696 12.2316C8.27075 9.40286 10.8841 9.88026 12.8217 9.73305C20.021 9.18401 27.0684 7.41159 34.2244 6.55422C43.6633 5.42432 53.1389 4.72806 62.5394 3.071C65.8971 2.48019 69.3749 2.53193 72.7643 2.42252C81.8945 2.1301 91.043 1.73817 100.15 1.2508C106.44 0.914618 112.833 1.89337 119.084 0.140826C120.207 -0.175467 121.434 0.0910779 122.627 0.447157C125.468 1.29259 128.285 0.0751589 131.128 0.0691911C145.041 0.0393521 158.914 1.36023 172.812 1.79389C180.202 2.02465 187.573 2.74673 194.939 3.22216C205.303 3.89055 215.671 5.22138 226.026 6.36918C232.797 7.12113 239.485 8.66882 246.327 8.93936C252.27 9.17409 258.159 11.2071 264.106 11.5015C271.342 11.8576 278.386 13.5803 285.505 14.7023C290.723 15.5238 296.322 15.4303 301 20.4552C296.985 21.0898 299.8 26.62 296.167 27.8633C297.153 28.2929 297.647 28.5077 298.323 28.8022C296.659 32.7071 293.951 32.17 291.015 31.2211C293.155 34.7938 297.442 34.4199 299.408 39.2757C296.666 37.736 294.845 39.8307 292.239 39.0787C293.964 40.8651 296.17 40.4394 296.96 42.7469C296.1 46.5106 293.325 44.7223 290.88 45.333C293.202 46.4748 294.463 48.3467 295.985 50.2464C291.728 53.3656 287.674 48.4143 283.491 50.6125C287.052 51.0541 290.523 51.4798 292.092 56.0551C291.765 56.9921 290.329 56.827 290.453 58.3587C290.748 59.1882 291.534 58.5855 291.98 58.9236C293.06 59.7392 295.234 59.0609 295.102 61.456C294.992 63.4612 293.1 62.9022 292.003 63.5129C293.412 64.78 295.85 64.3066 296.461 67.4377C288.317 68.3925 280.265 65.3927 272.832 68.504C275.295 70.4773 279.113 71.4222 282.396 74.5473C280.126 76.1407 278.382 76.7614 276.328 75.9438C275.494 75.6116 274.547 75.5698 273.653 75.5738C268.888 75.5976 263.915 74.5652 260.104 79.5205C261.284 80.72 264.197 79.4489 264.421 82.5521C264.498 83.6064 263.9 85.2496 262.009 84.8637C262.851 83.2822 262.497 82.1264 260.92 82.1284C255.76 82.1404 250.666 81.3247 245.551 80.6742C237.985 79.7114 230.4 78.9635 222.819 78.1976C219.79 77.8972 216.746 77.3801 213.679 78.502ZM38.3247 78.3428C40.4408 80.1948 42.3149 80.3162 44.1456 79.5961C45.1619 79.1962 46.1482 79.0868 47.1177 79.2301C52.0491 79.9581 57.0172 80.2406 61.9453 79.8388C68.8209 79.2778 75.7065 79.0391 82.5637 79.3017C91.1665 79.6299 99.7776 80.2684 108.364 79.7751C112.784 79.5205 117.214 79.7473 121.514 80.173C129.368 80.9488 137.218 80.2267 145.066 81.1079C152.943 81.9912 160.908 81.7167 168.824 82.2239C170.009 82.2995 171.315 82.3631 172.509 82.4924C176.681 82.946 180.909 82.6675 184.531 82.6675C136.46 76.5704 87.6936 74.8059 38.3247 78.3428ZM242.806 77.1871C229.135 73.1767 215.222 72.2398 201.299 71.3565C215.134 73.3001 228.97 75.2436 242.806 77.1871ZM128.802 12.0883C116.341 11.6925 103.835 10.9863 91.3567 12.6811C103.823 12.0505 116.296 12.528 128.802 12.0883ZM29.6368 64.2967C27.6358 62.379 22.3006 62.7669 19.1382 65.0804C22.8079 65.6414 26.0772 65.6792 29.6368 64.2967ZM259.169 19.9221C252.108 18.9334 245.046 17.9467 237.985 16.958C244.947 18.8399 251.938 20.3975 259.169 19.9221ZM96.8672 69.9283C96.8472 69.6935 96.8255 69.4568 96.8038 69.2221C91.5103 69.2221 86.2151 69.2221 80.9215 69.2221C80.9232 69.4568 80.9232 69.6935 80.9249 69.9283C86.2401 69.9283 91.5536 69.9283 96.8672 69.9283ZM70.5698 68.4681C67.7895 69.0609 64.8908 67.6107 62.1639 69.1524C64.9458 68.5656 67.9164 71.2571 70.5698 68.4681Z" fill="white"/>
</svg>