<svg xmlns="http://www.w3.org/2000/svg" width="28" height="28" viewBox="0 0 28 28" fill="none">
  <path d="M14 0.25C11.2805 0.25 8.62209 1.05642 6.36092 2.56729C4.09974 4.07816 2.33737 6.22562 1.29666 8.7381C0.255958 11.2506 -0.0163382 14.0153 0.514209 16.6825C1.04476 19.3497 2.35432 21.7997 4.27729 23.7227C6.20026 25.6457 8.65028 26.9552 11.3175 27.4858C13.9848 28.0163 16.7494 27.744 19.2619 26.7033C21.7744 25.6626 23.9218 23.9003 25.4327 21.6391C26.9436 19.3779 27.75 16.7195 27.75 14C27.7459 10.3545 26.2959 6.85958 23.7182 4.28185C21.1404 1.70412 17.6455 0.254136 14 0.25ZM14 25.25C11.775 25.25 9.59989 24.5902 7.74984 23.354C5.89979 22.1179 4.45785 20.3609 3.60636 18.3052C2.75488 16.2495 2.53209 13.9875 2.96617 11.8052C3.40026 9.62295 4.47171 7.61839 6.04505 6.04505C7.6184 4.47171 9.62295 3.40025 11.8052 2.96617C13.9875 2.53208 16.2495 2.75487 18.3052 3.60636C20.3609 4.45784 22.1179 5.89978 23.354 7.74984C24.5902 9.59989 25.25 11.775 25.25 14C25.2467 16.9827 24.0604 19.8422 21.9513 21.9513C19.8422 24.0604 16.9827 25.2467 14 25.25Z" fill="#FF6600"/>
  <path d="M15.25 13.4825V9C15.25 8.66848 15.1183 8.35054 14.8839 8.11612C14.6495 7.8817 14.3315 7.75 14 7.75C13.6685 7.75 13.3505 7.8817 13.1161 8.11612C12.8817 8.35054 12.75 8.66848 12.75 9V14L12.7513 14.006C12.7534 14.3352 12.8846 14.6505 13.1166 14.8841L16.6514 18.4195C16.7668 18.5385 16.9047 18.6333 17.0571 18.6985C17.2095 18.7637 17.3733 18.7979 17.5391 18.7992C17.7048 18.8004 17.8692 18.7687 18.0225 18.7059C18.1759 18.643 18.3153 18.5503 18.4325 18.4331C18.5497 18.3159 18.6424 18.1766 18.7053 18.0232C18.7681 17.8698 18.7998 17.7055 18.7986 17.5397C18.7973 17.374 18.7631 17.2101 18.698 17.0577C18.6328 16.9053 18.538 16.7674 18.419 16.652L15.25 13.4825Z" fill="#FF6600"/>
</svg>