<svg xmlns="http://www.w3.org/2000/svg" width="406" height="93" viewBox="0 0 406 93" fill="none">
  <path d="M1.87814 10.1159C2.21417 10.7768 2.85532 11.017 3.9129 11.0653C2.45331 12.1626 1.23077 13.0822 0 14.0074C2.7048 15.7002 3.80359 13.2442 5.62808 12.9159C6.58878 14.2789 3.59952 14.7294 4.92923 15.9418C7.19696 15.8664 9.5802 15.7869 12.889 15.676C10.2997 17.7426 6.90625 17.3716 4.7045 18.6038C6.1311 21.2204 10.1594 17.8889 11.9262 20.1644C9.85223 20.2184 8.00507 20.5695 6.20325 21.0541C7.58243 23.3524 6.15387 27.3348 14.1507 25.6733C12.1386 26.9653 11.1675 27.5892 10.0728 28.2913C10.4975 28.712 10.9532 29.1654 11.514 29.7225C10.4708 30.1489 9.57187 30.517 8.65652 30.8908C8.99255 31.2987 9.32666 31.7066 9.77402 32.251C7.36816 32.5125 5.49622 32.9957 6.3497 35.2087C9.32251 32.4556 11.4831 37.7172 14.462 34.8718C14.8991 36.323 13.2395 36.4594 13.0602 37.4245C15.3052 38.1081 18.4305 37.1729 20.3849 38.9481C18.6202 39.4143 16.874 39.8762 14.9381 40.3864C17.2451 42.2995 21.8053 38.7832 22.9021 42.4572C21.125 42.6661 19.2634 42.9732 17.3771 43.0798C15.4516 43.1892 13.5054 43.1039 11.2542 43.1039C12.2375 45.142 15.1423 42.8737 15.8412 44.7114C14.2435 45.6409 12.153 45.6409 10.1245 46.0815C14.8125 47.6449 20.7437 45.0354 24.5597 48.1154C17.507 49.0079 10.009 49.7399 2.67389 50.9451C-4.4942 52.1234 11.1037 51.1626 5.29007 55.7192C7.31866 56.7027 8.94312 54.9645 10.8109 55.7448C10.4439 56.8562 7.93503 56.6914 7.77628 58.0828C11.0769 57.5598 11.1161 59.6888 12.3654 60.8415C13.8456 62.2074 10.7863 62.2344 10.712 63.1568C11.8912 64.4217 13.8311 63.4681 15.2906 64.038C15.1917 65.4039 11.6006 64.4345 12.0541 66.1713C12.3963 67.4846 14.1651 67.5386 15.5072 67.6068C15.7031 68.9229 13.858 68.7865 13.4622 69.7288C14.8723 70.3826 16.5483 69.861 18.0429 70.1396C19.2943 71.4159 14.2373 72.7774 18.2883 74.0495C17.0843 74.4332 16.0226 74.7715 15.0083 75.0941C15.1732 76.2312 16.4905 76.2027 17.5069 76.4685C16.5194 77.3511 14.4537 77.3 13.6992 79.0595C18.0594 77.3654 19.7581 81.3023 23.6112 80.711C26.1552 84.4746 30.3938 82.0584 33.8016 81.8751C39.2957 81.578 44.8661 80.0473 50.1582 80.4751C54.706 80.8432 59.0456 81.0109 63.6347 80.6613C59.5713 81.8225 55.205 82.3683 52.0941 84.4121C54.1123 84.3552 54.5638 85.7069 55.4297 87.1381C54.6339 87.5247 53.7144 87.971 52.6527 88.4855C51.3003 88.2538 49.4058 87.2361 48.1915 89.2856C55.5039 90.7936 62.7812 89.5486 69.9885 89.7987C70.2998 90.9585 67.6094 91.2626 68.632 92.6541C72.2871 93.5409 76.0371 92.4707 79.7397 92.2319C86.1121 91.8198 92.4432 91.1163 98.8445 90.7538C105.46 90.3786 112.059 89.7362 118.607 88.9716C121.79 88.5992 125.033 88.4912 128.174 88.3348C137.685 87.8615 147.17 87.2248 156.659 86.625C165.549 86.0636 174.455 85.8745 183.359 85.542C193.038 85.1795 202.721 84.8711 212.396 84.4945C223.832 84.0496 235.275 83.8564 246.697 83.4215C254.308 83.1329 261.903 83.0064 269.498 83.0633C281.16 83.15 292.783 83.7881 304.417 84.4533C313.706 84.9848 323.092 85.5363 332.452 85.0446C334.825 84.9195 337.544 84.513 339.35 83.5579C341.496 82.4223 343.593 82.5374 345.842 82.5118C354.501 82.4152 363.172 81.895 371.787 83.0178C377.644 83.781 383.546 84.1974 389.529 84.0908C391.663 84.0525 392.782 83.6531 392.281 82.0002C396.732 82.013 401.051 81.9874 404.51 79.7801C402.121 79.6536 399.645 80.6599 397.625 79.122C399.344 78.1527 401.915 78.7213 403.871 77.6368C401.651 76.848 399.474 78.3574 397.709 77.1436C399.068 76.0663 400.002 75.0771 396.726 74.6493C394.963 74.419 393.281 73.8932 391.384 73.4597C394.316 71.8877 397.639 73.1498 401.014 72.3653C398.956 70.1097 395.435 70.5574 392.642 69.8922C393.341 69.2541 394.324 69.554 395.134 69.5838C395.965 69.6137 396.763 69.9462 397.6 70.0443C398.991 70.2092 400.913 70.0002 401.096 69.2342C401.313 68.3274 400.204 67.3737 398.202 67.442C396.26 67.5088 394.528 66.6006 392.471 66.7754C395.241 66.2353 398.229 66.8308 400.832 65.4337C399.181 63.2719 395.277 64.5198 393.093 63.0943C394.378 62.3964 395.99 63.1639 397.247 62.4348C398.758 61.5592 398.744 60.8685 397.031 60.1934C398.22 59.2085 399.134 60.0726 400.105 60.1692C401.103 60.2687 402.133 60.3171 402.758 59.5595C402.418 58.2449 400.668 58.1923 399.319 57.5726C401.513 57.5726 403.704 57.5726 405.807 57.5726C406.277 56.5279 405.9 56.1925 404.55 56.0376C400.806 55.6069 397.08 54.5921 393.378 54.6561C390.444 54.7073 389.622 52.7388 387.179 52.6748C388.504 52.4161 389.824 52.2314 391.046 51.5378C389.679 49.2609 386.492 49.359 383.93 49.4044C379.536 49.4826 375.275 48.6952 370.919 48.816C369.808 48.8473 369.031 48.5147 368.348 48.0428C369.886 46.6912 374.009 50.0966 374.516 46.1313C370.333 46.8462 367.165 45.061 363.557 44.4484C363.714 43.3825 365.446 43.8657 366.241 43.1679C364.437 40.7844 360.774 41.4524 357.95 40.8C361.096 39.6886 364.852 40.4532 368.379 39.292C366.386 38.5217 364.724 37.8793 362.86 37.1587C369.548 36.0089 376.096 36.4935 383.169 36.3073C380.466 33.6822 376.331 34.2138 373.312 33.0256C376.382 32.6419 379.637 33.1123 382.066 31.2675C378.005 29.8917 373.457 30.1049 368.971 30.1617C366.524 30.193 364.959 29.8249 365.672 27.7285C371.175 27.1045 376.778 27.8692 382.82 27.9147C380.033 25.1687 376.114 26.4507 372.379 25.5795C376.203 24.1625 379.501 26.5118 382.901 24.9911C381.573 20.2269 374.789 23.6167 371.939 21.4038C375.669 21.4038 379.664 21.4038 383.66 21.4038C383.693 21.1892 383.725 20.976 383.758 20.7614C375.085 19.0047 365.829 19.1908 357.146 17.4085C364.054 17.3432 370.896 15.9446 377.807 17.1542C378.747 17.319 379.804 17.1797 380.806 17.1598C381.773 17.1399 382.616 16.8443 382.616 16.1507C382.616 15.4642 381.765 15.2638 380.831 15.0961C377.411 14.4778 373.935 14.5688 370.465 14.5987C368.717 14.6129 367.027 14.5859 365.542 13.8255C371.83 12.3801 378.555 15.2724 385.053 13.1021C383.014 10.7513 379.681 11.4477 377.174 11.0768C369.936 10.0051 362.481 9.84589 355.125 9.29017C345.673 8.57527 336.103 8.6776 326.743 7.36007C326.139 7.27479 325.494 7.32882 324.867 7.33166C309.777 7.42831 294.764 5.8507 279.663 6.31688C277.633 6.37941 275.998 5.66024 274.47 5.13437C271.027 3.9476 267.628 3.26535 263.746 3.28525C255.526 3.32788 247.327 2.77646 239.112 2.56753C225.627 2.22358 212.182 1.18318 198.703 0.634568C189.743 0.269298 180.755 0.155602 171.777 0.0902228C159.597 0.00210324 147.411 -0.0661176 135.235 0.1087C124.01 0.269305 112.785 0.662976 101.574 1.14053C91.2186 1.58112 80.8984 2.47797 70.6173 3.32931C58.1262 4.36401 21.5352 4.93962 9.53067 8.11903C7.06088 8.77282 4.40356 9.17362 1.87814 10.1159Z" fill="white"/>
</svg>