<svg width="28" height="30" viewBox="0 0 28 30" fill="none" xmlns="http://www.w3.org/2000/svg">
<path fill-rule="evenodd" clip-rule="evenodd" d="M11 7.65656V14.0177C11.0165 14.9138 11.5959 15 12.3581 15H18.3552C18.6152 14.9986 18.8641 14.8945 19.0474 14.7104C19.2308 14.5264 19.3337 14.2773 19.3337 14.0177C19.3337 13.7582 19.2308 13.5091 19.0474 13.3251C18.8641 13.141 18.6152 13.0369 18.3552 13.0355H14.359L24.0323 3.37761V7.36743C24.0316 7.49687 24.0566 7.62518 24.1057 7.74497C24.1548 7.86476 24.2272 7.97368 24.3186 8.06546C24.41 8.15724 24.5187 8.23008 24.6384 8.27978C24.7581 8.32948 24.8865 8.35506 25.0162 8.35506C25.1458 8.35506 25.2742 8.32948 25.3939 8.27978C25.5136 8.23008 25.6223 8.15724 25.7137 8.06546C25.8052 7.97368 25.8775 7.86476 25.9266 7.74497C25.9758 7.62518 26.0007 7.49687 26 7.36743V1.00626C25.983 0.43204 25.6318 0.0396379 25.0415 0.0243156C22.9389 -0.0302059 20.7564 0.0239933 18.6448 0.0239933C18.3839 0.0239933 18.1336 0.127482 17.9491 0.311692C17.7646 0.495903 17.6609 0.745746 17.6609 1.00626C17.6609 1.26677 17.7646 1.51662 17.9491 1.70083C18.1336 1.88504 18.3839 1.98852 18.6448 1.98852H22.641L12.9677 11.6464V7.65656C12.9684 7.52712 12.9434 7.39881 12.8943 7.27902C12.8452 7.15923 12.7728 7.05031 12.6814 6.95853C12.59 6.86675 12.4813 6.79392 12.3616 6.74422C12.2419 6.69452 12.1135 6.66893 11.9838 6.66893C11.8542 6.66893 11.7258 6.69452 11.6061 6.74422C11.4864 6.79392 11.3777 6.86675 11.2863 6.95853C11.1948 7.05031 11.1225 7.15923 11.0734 7.27902C11.0242 7.39881 10.9993 7.52712 11 7.65656Z" fill="#FF6600"/>
<mask id="path-2-outside-1_0_1" maskUnits="userSpaceOnUse" x="-2" y="13" width="32" height="19" fill="black">
<rect fill="white" x="-2" y="13" width="32" height="19"/>
<path d="M4.742 29.27C3.896 29.27 3.134 29.072 2.456 28.676C1.784 28.274 1.25 27.719 0.854 27.011C0.458 26.303 0.26 25.49 0.26 24.572V20.63C0.26 19.646 0.455 18.791 0.845 18.065C1.241 17.339 1.793 16.778 2.501 16.382C3.215 15.986 4.043 15.788 4.985 15.788C5.639 15.788 6.26 15.899 6.848 16.121C7.436 16.337 7.958 16.685 8.414 17.165L6.848 18.686C6.62 18.416 6.341 18.203 6.011 18.047C5.687 17.891 5.345 17.813 4.985 17.813C4.481 17.813 4.04 17.933 3.662 18.173C3.284 18.407 2.99 18.716 2.78 19.1C2.576 19.484 2.474 19.895 2.474 20.333V22.484L2.078 22.052C2.45 21.62 2.897 21.284 3.419 21.044C3.941 20.798 4.487 20.675 5.057 20.675C5.873 20.675 6.593 20.861 7.217 21.233C7.841 21.599 8.333 22.103 8.693 22.745C9.053 23.381 9.233 24.107 9.233 24.923C9.233 25.733 9.026 26.468 8.612 27.128C8.204 27.782 7.661 28.304 6.983 28.694C6.305 29.078 5.558 29.27 4.742 29.27ZM4.742 27.191C5.162 27.191 5.546 27.092 5.894 26.894C6.242 26.69 6.518 26.417 6.722 26.075C6.932 25.727 7.037 25.343 7.037 24.923C7.037 24.503 6.935 24.119 6.731 23.771C6.527 23.423 6.251 23.147 5.903 22.943C5.561 22.733 5.18 22.628 4.76 22.628C4.34 22.628 3.956 22.733 3.608 22.943C3.26 23.147 2.984 23.423 2.78 23.771C2.576 24.119 2.474 24.503 2.474 24.923C2.474 25.331 2.573 25.709 2.771 26.057C2.975 26.399 3.248 26.675 3.59 26.885C3.938 27.089 4.322 27.191 4.742 27.191ZM10.3197 29L13.0847 25.178L10.3757 21.44H12.3637L14.0647 23.855L15.7377 21.44H17.7257L15.0167 25.178L17.7957 29H15.8077L14.0647 26.501L12.3077 29H10.3197ZM24.5736 29V26.858H18.8316V24.833L22.9806 16.04H25.4556L21.3066 24.833H24.5736V21.458H26.7696V24.833H27.9846V26.858H26.7696V29H24.5736Z"/>
</mask>
<path d="M4.742 29.27C3.896 29.27 3.134 29.072 2.456 28.676C1.784 28.274 1.25 27.719 0.854 27.011C0.458 26.303 0.26 25.49 0.26 24.572V20.63C0.26 19.646 0.455 18.791 0.845 18.065C1.241 17.339 1.793 16.778 2.501 16.382C3.215 15.986 4.043 15.788 4.985 15.788C5.639 15.788 6.26 15.899 6.848 16.121C7.436 16.337 7.958 16.685 8.414 17.165L6.848 18.686C6.62 18.416 6.341 18.203 6.011 18.047C5.687 17.891 5.345 17.813 4.985 17.813C4.481 17.813 4.04 17.933 3.662 18.173C3.284 18.407 2.99 18.716 2.78 19.1C2.576 19.484 2.474 19.895 2.474 20.333V22.484L2.078 22.052C2.45 21.62 2.897 21.284 3.419 21.044C3.941 20.798 4.487 20.675 5.057 20.675C5.873 20.675 6.593 20.861 7.217 21.233C7.841 21.599 8.333 22.103 8.693 22.745C9.053 23.381 9.233 24.107 9.233 24.923C9.233 25.733 9.026 26.468 8.612 27.128C8.204 27.782 7.661 28.304 6.983 28.694C6.305 29.078 5.558 29.27 4.742 29.27ZM4.742 27.191C5.162 27.191 5.546 27.092 5.894 26.894C6.242 26.69 6.518 26.417 6.722 26.075C6.932 25.727 7.037 25.343 7.037 24.923C7.037 24.503 6.935 24.119 6.731 23.771C6.527 23.423 6.251 23.147 5.903 22.943C5.561 22.733 5.18 22.628 4.76 22.628C4.34 22.628 3.956 22.733 3.608 22.943C3.26 23.147 2.984 23.423 2.78 23.771C2.576 24.119 2.474 24.503 2.474 24.923C2.474 25.331 2.573 25.709 2.771 26.057C2.975 26.399 3.248 26.675 3.59 26.885C3.938 27.089 4.322 27.191 4.742 27.191ZM10.3197 29L13.0847 25.178L10.3757 21.44H12.3637L14.0647 23.855L15.7377 21.44H17.7257L15.0167 25.178L17.7957 29H15.8077L14.0647 26.501L12.3077 29H10.3197ZM24.5736 29V26.858H18.8316V24.833L22.9806 16.04H25.4556L21.3066 24.833H24.5736V21.458H26.7696V24.833H27.9846V26.858H26.7696V29H24.5736Z" fill="#FF6600"/>
<path d="M2.456 28.676L1.42926 30.3923L1.43826 30.3977L1.44731 30.403L2.456 28.676ZM0.854 27.011L2.59952 26.0347L0.854 27.011ZM0.845 18.065L-0.910827 17.1073L-0.916876 17.1185L0.845 18.065ZM2.501 16.382L1.53096 14.633L1.52469 14.6365L2.501 16.382ZM6.848 16.121L6.14157 17.9921L6.14995 17.9952L6.15837 17.9983L6.848 16.121ZM8.414 17.165L9.80745 18.5997L11.2263 17.2216L9.864 15.7875L8.414 17.165ZM6.848 18.686L5.31994 19.9764L6.70333 21.6146L8.24145 20.1207L6.848 18.686ZM6.011 18.047L5.14337 19.849L5.1498 19.8521L5.15624 19.8551L6.011 18.047ZM3.662 18.173L4.71471 19.8735L4.7244 19.8675L4.73402 19.8614L3.662 18.173ZM2.78 19.1L1.02526 18.1404L1.01945 18.151L1.01377 18.1617L2.78 19.1ZM2.474 22.484L0.999692 23.8354L4.474 27.6256V22.484H2.474ZM2.078 22.052L0.562462 20.747L-0.597079 22.0935L0.603692 23.4034L2.078 22.052ZM3.419 21.044L4.25447 22.8611L4.26305 22.8572L4.2716 22.8532L3.419 21.044ZM7.217 21.233L6.19287 22.9509L6.19899 22.9545L6.20514 22.9581L7.217 21.233ZM8.693 22.745L6.94853 23.7232L6.95249 23.7302L8.693 22.745ZM8.612 27.128L6.91773 26.0652L6.91513 26.0694L8.612 27.128ZM6.983 28.694L7.96866 30.4343L7.98023 30.4276L6.983 28.694ZM5.894 26.894L6.88305 28.6323L6.89429 28.6259L6.90544 28.6194L5.894 26.894ZM6.722 26.075L5.0096 25.0417L5.00436 25.0504L6.722 26.075ZM6.731 23.771L5.0056 24.7824L5.0056 24.7824L6.731 23.771ZM5.903 22.943L4.85647 24.6473L4.87391 24.658L4.89156 24.6684L5.903 22.943ZM3.608 22.943L4.61944 24.6684L4.63043 24.662L4.64133 24.6554L3.608 22.943ZM2.771 26.057L1.03267 27.046L1.04283 27.0639L1.05336 27.0816L2.771 26.057ZM3.59 26.885L2.54347 28.5893L2.56091 28.6L2.57856 28.6104L3.59 26.885ZM4.742 27.27C4.22208 27.27 3.81297 27.1524 3.46469 26.949L1.44731 30.403C2.45503 30.9916 3.56992 31.27 4.742 31.27V27.27ZM3.48274 26.9597C3.12199 26.7439 2.83117 26.4489 2.59952 26.0347L-0.891516 27.9873C-0.331169 28.9891 0.446009 29.8041 1.42926 30.3923L3.48274 26.9597ZM2.59952 26.0347C2.39137 25.6625 2.26 25.1939 2.26 24.572H-1.74C-1.74 25.7861 -1.47537 26.9435 -0.891516 27.9873L2.59952 26.0347ZM2.26 24.572V20.63H-1.74V24.572H2.26ZM2.26 20.63C2.26 19.9124 2.40085 19.395 2.60688 19.0115L-0.916876 17.1185C-1.49085 18.187 -1.74 19.3795 -1.74 20.63H2.26ZM2.60079 19.0227C2.82007 18.6207 3.10484 18.3358 3.47731 18.1275L1.52469 14.6365C0.481157 15.2202 -0.338065 16.0573 -0.910791 17.1073L2.60079 19.0227ZM3.47104 18.131C3.84533 17.9234 4.32972 17.788 4.985 17.788V13.788C3.75628 13.788 2.58467 14.0486 1.53096 14.633L3.47104 18.131ZM4.985 17.788C5.4076 17.788 5.78845 17.8588 6.14157 17.9921L7.55443 14.2499C6.73155 13.9392 5.8704 13.788 4.985 13.788V17.788ZM6.15837 17.9983C6.44149 18.1023 6.70732 18.2723 6.964 18.5425L9.864 15.7875C9.20868 15.0977 8.43051 14.5717 7.53764 14.2437L6.15837 17.9983ZM7.02055 15.7303L5.45455 17.2513L8.24145 20.1207L9.80745 18.5997L7.02055 15.7303ZM8.37606 17.3956C7.95715 16.8996 7.44593 16.5131 6.86576 16.2389L5.15624 19.8551C5.23607 19.8929 5.28285 19.9324 5.31994 19.9764L8.37606 17.3956ZM6.87863 16.245C6.28365 15.9585 5.64506 15.813 4.985 15.813V19.813C5.04494 19.813 5.09035 19.8235 5.14337 19.849L6.87863 16.245ZM4.985 15.813C4.15043 15.813 3.32758 16.0163 2.58998 16.4846L4.73402 19.8614C4.75242 19.8497 4.81157 19.813 4.985 19.813V15.813ZM2.60929 16.4725C1.94199 16.8856 1.40397 17.4479 1.02526 18.1404L4.53474 20.0596C4.57603 19.9841 4.62601 19.9284 4.71471 19.8735L2.60929 16.4725ZM1.01377 18.1617C0.655102 18.8368 0.474 19.5703 0.474 20.333H4.474C4.474 20.2197 4.4969 20.1312 4.54623 20.0383L1.01377 18.1617ZM0.474 20.333V22.484H4.474V20.333H0.474ZM3.94831 21.1326L3.55231 20.7006L0.603692 23.4034L0.999692 23.8354L3.94831 21.1326ZM3.59354 23.357C3.77672 23.1443 3.99118 22.9822 4.25447 22.8611L2.58353 19.2269C1.80282 19.5858 1.12328 20.0957 0.562462 20.747L3.59354 23.357ZM4.2716 22.8532C4.53035 22.7312 4.78554 22.675 5.057 22.675V18.675C4.18846 18.675 3.35165 18.8648 2.5664 19.2348L4.2716 22.8532ZM5.057 22.675C5.55794 22.675 5.91546 22.7855 6.19287 22.9509L8.24113 19.5151C7.27055 18.9365 6.18806 18.675 5.057 18.675V22.675ZM6.20514 22.9581C6.51742 23.1413 6.75896 23.3851 6.94854 23.7232L10.4375 21.7668C9.90705 20.8209 9.16458 20.0567 8.22886 19.5079L6.20514 22.9581ZM6.95249 23.7302C7.12324 24.0319 7.233 24.4112 7.233 24.923H11.233C11.233 23.8028 10.9828 22.7301 10.4335 21.7598L6.95249 23.7302ZM7.233 24.923C7.233 25.3727 7.1238 25.7367 6.91774 26.0652L10.3063 28.1908C10.9282 27.1993 11.233 26.0933 11.233 24.923H7.233ZM6.91513 26.0694C6.68392 26.44 6.38296 26.7319 5.98577 26.9604L7.98023 30.4276C8.93904 29.8761 9.72408 29.124 10.3089 28.1866L6.91513 26.0694ZM5.99736 26.9537C5.63439 27.1593 5.2295 27.27 4.742 27.27V31.27C5.8865 31.27 6.97562 30.9967 7.96864 30.4343L5.99736 26.9537ZM4.742 29.191C5.49114 29.191 6.21864 29.0104 6.88305 28.6323L4.90495 25.1557C4.87336 25.1736 4.83286 25.191 4.742 25.191V29.191ZM6.90544 28.6194C7.54017 28.2473 8.06071 27.7348 8.43964 27.0996L5.00436 25.0504C4.97529 25.0992 4.94383 25.1327 4.88256 25.1686L6.90544 28.6194ZM8.43438 27.1083C8.83902 26.4378 9.037 25.6945 9.037 24.923H5.037C5.037 24.9915 5.02498 25.0162 5.00963 25.0417L8.43438 27.1083ZM9.037 24.923C9.037 24.1627 8.84779 23.4272 8.4564 22.7596L5.0056 24.7824C5.02221 24.8108 5.037 24.8433 5.037 24.923H9.037ZM8.4564 22.7596C8.07939 22.1164 7.55757 21.5946 6.91444 21.2176L4.89156 24.6684C4.94443 24.6994 4.97461 24.7296 5.0056 24.7824L8.4564 22.7596ZM6.94953 21.2387C6.27769 20.8261 5.53145 20.628 4.76 20.628V24.628C4.82855 24.628 4.84431 24.6399 4.85647 24.6473L6.94953 21.2387ZM4.76 20.628C3.98853 20.628 3.24523 20.826 2.57467 21.2306L4.64133 24.6554C4.66678 24.64 4.69147 24.628 4.76 24.628V20.628ZM2.59656 21.2176C1.95343 21.5946 1.43161 22.1164 1.0546 22.7596L4.5054 24.7824C4.53639 24.7296 4.56657 24.6994 4.61944 24.6684L2.59656 21.2176ZM1.0546 22.7596C0.663211 23.4272 0.474 24.1627 0.474 24.923H4.474C4.474 24.8433 4.48879 24.8108 4.5054 24.7824L1.0546 22.7596ZM0.474 24.923C0.474 25.6709 0.659791 26.3907 1.03267 27.046L4.50933 25.068C4.48621 25.0273 4.474 24.9911 4.474 24.923H0.474ZM1.05336 27.0816C1.42422 27.7033 1.92839 28.2117 2.54347 28.5893L4.63653 25.1807C4.56761 25.1383 4.52579 25.0947 4.48864 25.0324L1.05336 27.0816ZM2.57856 28.6104C3.24623 29.0018 3.98173 29.191 4.742 29.191V25.191C4.66227 25.191 4.62977 25.1762 4.60144 25.1596L2.57856 28.6104ZM10.3197 29L8.69927 27.8277L6.4043 31H10.3197V29ZM13.0847 25.178L14.7051 26.3503L15.5539 25.177L14.7041 24.0044L13.0847 25.178ZM10.3757 21.44V19.44H6.45626L8.75625 22.6136L10.3757 21.44ZM12.3637 21.44L13.9988 20.2883L13.4013 19.44H12.3637V21.44ZM14.0647 23.855L12.4296 25.0067L14.0783 27.3475L15.7087 24.9939L14.0647 23.855ZM15.7377 21.44V19.44H14.6902L14.0936 20.3011L15.7377 21.44ZM17.7257 21.44L19.3451 22.6136L21.6451 19.44H17.7257V21.44ZM15.0167 25.178L13.3973 24.0044L12.5453 25.1799L13.3991 26.3542L15.0167 25.178ZM17.7957 29V31H21.7227L19.4133 27.8238L17.7957 29ZM15.8077 29L14.1673 30.1441L14.7642 31H15.8077V29ZM14.0647 26.501L15.7051 25.3569L14.0712 23.0143L12.4286 25.3507L14.0647 26.501ZM12.3077 29V31H13.3464L13.9438 30.1503L12.3077 29ZM11.9401 30.1723L14.7051 26.3503L11.4643 24.0057L8.69927 27.8277L11.9401 30.1723ZM14.7041 24.0044L11.9951 20.2664L8.75625 22.6136L11.4653 26.3516L14.7041 24.0044ZM10.3757 23.44H12.3637V19.44H10.3757V23.44ZM10.7286 22.5917L12.4296 25.0067L15.6998 22.7033L13.9988 20.2883L10.7286 22.5917ZM15.7087 24.9939L17.3817 22.5789L14.0936 20.3011L12.4206 22.7161L15.7087 24.9939ZM15.7377 23.44H17.7257V19.44H15.7377V23.44ZM16.1063 20.2664L13.3973 24.0044L16.6361 26.3516L19.3451 22.6136L16.1063 20.2664ZM13.3991 26.3542L16.1781 30.1762L19.4133 27.8238L16.6343 24.0018L13.3991 26.3542ZM17.7957 27H15.8077V31H17.7957V27ZM17.4481 27.8559L15.7051 25.3569L12.4243 27.6451L14.1673 30.1441L17.4481 27.8559ZM12.4286 25.3507L10.6716 27.8497L13.9438 30.1503L15.7008 27.6513L12.4286 25.3507ZM12.3077 27H10.3197V31H12.3077V27ZM24.5736 29H22.5736V31H24.5736V29ZM24.5736 26.858H26.5736V24.858H24.5736V26.858ZM18.8316 26.858H16.8316V28.858H18.8316V26.858ZM18.8316 24.833L17.0229 23.9795L16.8316 24.3848V24.833H18.8316ZM22.9806 16.04V14.04H21.7129L21.1719 15.1865L22.9806 16.04ZM25.4556 16.04L27.2644 16.8935L28.6108 14.04H25.4556V16.04ZM21.3066 24.833L19.4979 23.9795L18.1515 26.833H21.3066V24.833ZM24.5736 24.833V26.833H26.5736V24.833H24.5736ZM24.5736 21.458V19.458H22.5736V21.458H24.5736ZM26.7696 21.458H28.7696V19.458H26.7696V21.458ZM26.7696 24.833H24.7696V26.833H26.7696V24.833ZM27.9846 24.833H29.9846V22.833H27.9846V24.833ZM27.9846 26.858V28.858H29.9846V26.858H27.9846ZM26.7696 26.858V24.858H24.7696V26.858H26.7696ZM26.7696 29V31H28.7696V29H26.7696ZM26.5736 29V26.858H22.5736V29H26.5736ZM24.5736 24.858H18.8316V28.858H24.5736V24.858ZM20.8316 26.858V24.833H16.8316V26.858H20.8316ZM20.6404 25.6865L24.7894 16.8935L21.1719 15.1865L17.0229 23.9795L20.6404 25.6865ZM22.9806 18.04H25.4556V14.04H22.9806V18.04ZM23.6469 15.1865L19.4979 23.9795L23.1154 25.6865L27.2644 16.8935L23.6469 15.1865ZM21.3066 26.833H24.5736V22.833H21.3066V26.833ZM26.5736 24.833V21.458H22.5736V24.833H26.5736ZM24.5736 23.458H26.7696V19.458H24.5736V23.458ZM24.7696 21.458V24.833H28.7696V21.458H24.7696ZM26.7696 26.833H27.9846V22.833H26.7696V26.833ZM25.9846 24.833V26.858H29.9846V24.833H25.9846ZM27.9846 24.858H26.7696V28.858H27.9846V24.858ZM24.7696 26.858V29H28.7696V26.858H24.7696ZM26.7696 27H24.5736V31H26.7696V27Z" fill="#021523" mask="url(#path-2-outside-1_0_1)"/>
</svg>
