<svg width="30" height="30" viewBox="0 0 30 30" fill="none" xmlns="http://www.w3.org/2000/svg">
<g clip-path="url(#clip0_1_2352)">
<mask id="path-1-outside-1_1_2352" maskUnits="userSpaceOnUse" x="-1" y="16.5" width="25" height="14" fill="black">
<rect fill="white" x="-1" y="16.5" width="25" height="14"/>
<path d="M2.6325 28.5V20.5552L0.81 21.669V19.8735L2.6325 18.78H4.293V28.5H2.6325ZM9.74668 28.7025C9.25168 28.7025 8.79043 28.6013 8.36293 28.3987C7.93543 28.1917 7.56643 27.9082 7.25593 27.5482C6.94993 27.1882 6.72943 26.7697 6.59443 26.2927L8.16043 25.8742C8.22343 26.1352 8.33818 26.3602 8.50468 26.5492C8.67568 26.7382 8.87368 26.8845 9.09868 26.988C9.32818 27.0915 9.56443 27.1432 9.80743 27.1432C10.1224 27.1432 10.4104 27.0667 10.6714 26.9137C10.9324 26.7607 11.1394 26.556 11.2924 26.2995C11.4454 26.0385 11.5219 25.7505 11.5219 25.4355C11.5219 25.1205 11.4432 24.8347 11.2857 24.5782C11.1327 24.3172 10.9257 24.1125 10.6647 23.964C10.4037 23.811 10.1179 23.7345 9.80743 23.7345C9.43393 23.7345 9.12343 23.802 8.87593 23.937C8.63293 24.072 8.44618 24.216 8.31568 24.369L6.92518 23.9235L7.22218 18.78H12.5007V20.3055H8.09293L8.70043 19.7317L8.48443 23.3092L8.18743 22.9447C8.43943 22.7152 8.73193 22.5442 9.06493 22.4317C9.39793 22.3192 9.71968 22.263 10.0302 22.263C10.6377 22.263 11.1754 22.4025 11.6434 22.6815C12.1159 22.956 12.4849 23.3317 12.7504 23.8087C13.0204 24.2857 13.1554 24.828 13.1554 25.4355C13.1554 26.043 12.9979 26.5942 12.6829 27.0892C12.3679 27.5797 11.9517 27.9712 11.4342 28.2637C10.9212 28.5563 10.3587 28.7025 9.74668 28.7025ZM15.6146 28.5L14.7746 27.66L21.4998 20.94L22.3398 21.7852L15.6146 28.5ZM20.7648 28.6575C20.4183 28.6575 20.1016 28.5735 19.8146 28.4055C19.5311 28.234 19.3036 28.0065 19.1321 27.723C18.9606 27.436 18.8748 27.1175 18.8748 26.7675C18.8748 26.4245 18.9623 26.1095 19.1373 25.8225C19.3123 25.5355 19.5433 25.3062 19.8303 25.1347C20.1173 24.9632 20.4288 24.8775 20.7648 24.8775C21.1113 24.8775 21.4281 24.9632 21.7151 25.1347C22.0021 25.3027 22.2296 25.5302 22.3976 25.8172C22.5691 26.1007 22.6548 26.4175 22.6548 26.7675C22.6548 27.1175 22.5691 27.436 22.3976 27.723C22.2296 28.0065 22.0021 28.234 21.7151 28.4055C21.4281 28.5735 21.1113 28.6575 20.7648 28.6575ZM20.7648 27.576C20.9083 27.576 21.0413 27.5392 21.1638 27.4657C21.2898 27.3922 21.3896 27.2942 21.4631 27.1717C21.5366 27.0492 21.5733 26.9145 21.5733 26.7675C21.5733 26.6205 21.5366 26.4857 21.4631 26.3632C21.3896 26.2407 21.2898 26.1427 21.1638 26.0692C21.0413 25.9957 20.9083 25.959 20.7648 25.959C20.6178 25.959 20.4831 25.9957 20.3606 26.0692C20.2381 26.1427 20.1383 26.2407 20.0613 26.3632C19.9878 26.4857 19.9511 26.6205 19.9511 26.7675C19.9511 26.9145 19.9878 27.0492 20.0613 27.1717C20.1383 27.2942 20.2381 27.3922 20.3606 27.4657C20.4831 27.5392 20.6178 27.576 20.7648 27.576ZM16.3496 24.5625C16.0031 24.5625 15.6863 24.4785 15.3993 24.3105C15.1123 24.139 14.8831 23.9115 14.7116 23.628C14.5436 23.341 14.4596 23.0225 14.4596 22.6725C14.4596 22.3295 14.5471 22.0145 14.7221 21.7275C14.8971 21.4405 15.1281 21.2112 15.4151 21.0397C15.7021 20.8682 16.0136 20.7825 16.3496 20.7825C16.6961 20.7825 17.0111 20.8682 17.2946 21.0397C17.5816 21.2077 17.8108 21.4352 17.9823 21.7222C18.1538 22.0057 18.2396 22.3225 18.2396 22.6725C18.2396 23.0225 18.1538 23.341 17.9823 23.628C17.8108 23.9115 17.5816 24.139 17.2946 24.3105C17.0111 24.4785 16.6961 24.5625 16.3496 24.5625ZM16.3496 23.481C16.4966 23.481 16.6313 23.4442 16.7538 23.3707C16.8763 23.2972 16.9743 23.1992 17.0478 23.0768C17.1213 22.9542 17.1581 22.8195 17.1581 22.6725C17.1581 22.5255 17.1213 22.3907 17.0478 22.2682C16.9743 22.1457 16.8763 22.0477 16.7538 21.9742C16.6313 21.9007 16.4966 21.864 16.3496 21.864C16.2026 21.864 16.0678 21.9007 15.9453 21.9742C15.8228 22.0477 15.7248 22.1457 15.6513 22.2682C15.5778 22.3907 15.5411 22.5255 15.5411 22.6725C15.5411 22.8195 15.5778 22.9542 15.6513 23.0768C15.7248 23.1992 15.8228 23.2972 15.9453 23.3707C16.0678 23.4442 16.2026 23.481 16.3496 23.481Z"/>
</mask>
<path d="M2.6325 28.5V20.5552L0.81 21.669V19.8735L2.6325 18.78H4.293V28.5H2.6325ZM9.74668 28.7025C9.25168 28.7025 8.79043 28.6013 8.36293 28.3987C7.93543 28.1917 7.56643 27.9082 7.25593 27.5482C6.94993 27.1882 6.72943 26.7697 6.59443 26.2927L8.16043 25.8742C8.22343 26.1352 8.33818 26.3602 8.50468 26.5492C8.67568 26.7382 8.87368 26.8845 9.09868 26.988C9.32818 27.0915 9.56443 27.1432 9.80743 27.1432C10.1224 27.1432 10.4104 27.0667 10.6714 26.9137C10.9324 26.7607 11.1394 26.556 11.2924 26.2995C11.4454 26.0385 11.5219 25.7505 11.5219 25.4355C11.5219 25.1205 11.4432 24.8347 11.2857 24.5782C11.1327 24.3172 10.9257 24.1125 10.6647 23.964C10.4037 23.811 10.1179 23.7345 9.80743 23.7345C9.43393 23.7345 9.12343 23.802 8.87593 23.937C8.63293 24.072 8.44618 24.216 8.31568 24.369L6.92518 23.9235L7.22218 18.78H12.5007V20.3055H8.09293L8.70043 19.7317L8.48443 23.3092L8.18743 22.9447C8.43943 22.7152 8.73193 22.5442 9.06493 22.4317C9.39793 22.3192 9.71968 22.263 10.0302 22.263C10.6377 22.263 11.1754 22.4025 11.6434 22.6815C12.1159 22.956 12.4849 23.3317 12.7504 23.8087C13.0204 24.2857 13.1554 24.828 13.1554 25.4355C13.1554 26.043 12.9979 26.5942 12.6829 27.0892C12.3679 27.5797 11.9517 27.9712 11.4342 28.2637C10.9212 28.5563 10.3587 28.7025 9.74668 28.7025ZM15.6146 28.5L14.7746 27.66L21.4998 20.94L22.3398 21.7852L15.6146 28.5ZM20.7648 28.6575C20.4183 28.6575 20.1016 28.5735 19.8146 28.4055C19.5311 28.234 19.3036 28.0065 19.1321 27.723C18.9606 27.436 18.8748 27.1175 18.8748 26.7675C18.8748 26.4245 18.9623 26.1095 19.1373 25.8225C19.3123 25.5355 19.5433 25.3062 19.8303 25.1347C20.1173 24.9632 20.4288 24.8775 20.7648 24.8775C21.1113 24.8775 21.4281 24.9632 21.7151 25.1347C22.0021 25.3027 22.2296 25.5302 22.3976 25.8172C22.5691 26.1007 22.6548 26.4175 22.6548 26.7675C22.6548 27.1175 22.5691 27.436 22.3976 27.723C22.2296 28.0065 22.0021 28.234 21.7151 28.4055C21.4281 28.5735 21.1113 28.6575 20.7648 28.6575ZM20.7648 27.576C20.9083 27.576 21.0413 27.5392 21.1638 27.4657C21.2898 27.3922 21.3896 27.2942 21.4631 27.1717C21.5366 27.0492 21.5733 26.9145 21.5733 26.7675C21.5733 26.6205 21.5366 26.4857 21.4631 26.3632C21.3896 26.2407 21.2898 26.1427 21.1638 26.0692C21.0413 25.9957 20.9083 25.959 20.7648 25.959C20.6178 25.959 20.4831 25.9957 20.3606 26.0692C20.2381 26.1427 20.1383 26.2407 20.0613 26.3632C19.9878 26.4857 19.9511 26.6205 19.9511 26.7675C19.9511 26.9145 19.9878 27.0492 20.0613 27.1717C20.1383 27.2942 20.2381 27.3922 20.3606 27.4657C20.4831 27.5392 20.6178 27.576 20.7648 27.576ZM16.3496 24.5625C16.0031 24.5625 15.6863 24.4785 15.3993 24.3105C15.1123 24.139 14.8831 23.9115 14.7116 23.628C14.5436 23.341 14.4596 23.0225 14.4596 22.6725C14.4596 22.3295 14.5471 22.0145 14.7221 21.7275C14.8971 21.4405 15.1281 21.2112 15.4151 21.0397C15.7021 20.8682 16.0136 20.7825 16.3496 20.7825C16.6961 20.7825 17.0111 20.8682 17.2946 21.0397C17.5816 21.2077 17.8108 21.4352 17.9823 21.7222C18.1538 22.0057 18.2396 22.3225 18.2396 22.6725C18.2396 23.0225 18.1538 23.341 17.9823 23.628C17.8108 23.9115 17.5816 24.139 17.2946 24.3105C17.0111 24.4785 16.6961 24.5625 16.3496 24.5625ZM16.3496 23.481C16.4966 23.481 16.6313 23.4442 16.7538 23.3707C16.8763 23.2972 16.9743 23.1992 17.0478 23.0768C17.1213 22.9542 17.1581 22.8195 17.1581 22.6725C17.1581 22.5255 17.1213 22.3907 17.0478 22.2682C16.9743 22.1457 16.8763 22.0477 16.7538 21.9742C16.6313 21.9007 16.4966 21.864 16.3496 21.864C16.2026 21.864 16.0678 21.9007 15.9453 21.9742C15.8228 22.0477 15.7248 22.1457 15.6513 22.2682C15.5778 22.3907 15.5411 22.5255 15.5411 22.6725C15.5411 22.8195 15.5778 22.9542 15.6513 23.0768C15.7248 23.1992 15.8228 23.2972 15.9453 23.3707C16.0678 23.4442 16.2026 23.481 16.3496 23.481Z" fill="#FF6600"/>
<path d="M2.6325 28.5H1.4825V29.65H2.6325V28.5ZM2.6325 20.5552H3.7825V18.5047L2.03283 19.574L2.6325 20.5552ZM0.81 21.669H-0.34V23.7195L1.40967 22.6503L0.81 21.669ZM0.81 19.8735L0.21833 18.8874L-0.34 19.2224V19.8735H0.81ZM2.6325 18.78V17.63H2.31397L2.04083 17.7939L2.6325 18.78ZM4.293 18.78H5.443V17.63H4.293V18.78ZM4.293 28.5V29.65H5.443V28.5H4.293ZM3.7825 28.5V20.5552H1.4825V28.5H3.7825ZM2.03283 19.574L0.210333 20.6877L1.40967 22.6503L3.23217 21.5365L2.03283 19.574ZM1.96 21.669V19.8735H-0.34V21.669H1.96ZM1.40167 20.8596L3.22417 19.7661L2.04083 17.7939L0.21833 18.8874L1.40167 20.8596ZM2.6325 19.93H4.293V17.63H2.6325V19.93ZM3.143 18.78V28.5H5.443V18.78H3.143ZM4.293 27.35H2.6325V29.65H4.293V27.35ZM8.36293 28.3988L7.86174 29.4338L7.87063 29.438L8.36293 28.3988ZM7.25593 27.5483L6.37968 28.2931L6.3851 28.2993L7.25593 27.5483ZM6.59443 26.2927L6.29753 25.1817L5.1701 25.483L5.4879 26.6059L6.59443 26.2927ZM8.16043 25.8742L9.27833 25.6044L9.00186 24.459L7.86353 24.7632L8.16043 25.8742ZM8.50468 26.5492L7.64177 27.3094L7.64681 27.3152L7.65192 27.3208L8.50468 26.5492ZM9.09868 26.988L8.61808 28.0328L8.62591 28.0363L9.09868 26.988ZM10.6714 26.9137L11.253 27.9059L10.6714 26.9137ZM11.2924 26.2995L12.2801 26.8886L12.2845 26.8811L11.2924 26.2995ZM11.2857 24.5782L10.2936 25.1598L10.2995 25.17L10.3057 25.18L11.2857 24.5782ZM10.6647 23.964L10.0831 24.9561L10.0895 24.9599L10.096 24.9635L10.6647 23.964ZM8.87593 23.937L8.32524 22.9274L8.31744 22.9317L8.87593 23.937ZM8.31568 24.369L7.96481 25.4642L8.69385 25.6977L9.19064 25.1153L8.31568 24.369ZM6.92518 23.9235L5.7771 23.8572L5.72573 24.7468L6.57431 25.0187L6.92518 23.9235ZM7.22218 18.78V17.63H6.13667L6.0741 18.7137L7.22218 18.78ZM12.5007 18.78H13.6507V17.63H12.5007V18.78ZM12.5007 20.3055V21.4555H13.6507V20.3055H12.5007ZM8.09293 20.3055L7.30332 19.4694L5.20042 21.4555H8.09293V20.3055ZM8.70043 19.7318L9.84834 19.8011L10.0235 16.9004L7.91082 18.8957L8.70043 19.7318ZM8.48443 23.3092L7.59291 24.0357L9.45471 26.3206L9.63234 23.3786L8.48443 23.3092ZM8.18743 22.9447L7.4131 22.0945L6.60838 22.8274L7.29591 23.6712L8.18743 22.9447ZM9.06493 22.4317L8.69686 21.3422H8.69686L9.06493 22.4317ZM11.6434 22.6815L11.0545 23.6694L11.0658 23.6759L11.6434 22.6815ZM12.7504 23.8087L11.7456 24.3681L11.7496 24.3752L12.7504 23.8087ZM12.6829 27.0892L13.6506 27.7107L13.6531 27.7067L12.6829 27.0892ZM11.4342 28.2638L10.8683 27.2626L10.8646 27.2647L11.4342 28.2638ZM9.74668 27.5525C9.41385 27.5525 9.12169 27.4857 8.85523 27.3595L7.87063 29.438C8.45918 29.7168 9.08952 29.8525 9.74668 29.8525V27.5525ZM8.86411 27.3637C8.57805 27.2252 8.33482 27.0384 8.12677 26.7972L6.3851 28.2993C6.79805 28.7781 7.29281 29.1583 7.86175 29.4338L8.86411 27.3637ZM8.13216 26.8035C7.93825 26.5753 7.79331 26.3058 7.70097 25.9796L5.4879 26.6059C5.66556 27.2337 5.96162 27.8012 6.3797 28.293L8.13216 26.8035ZM6.89134 27.4038L8.45734 26.9853L7.86353 24.7632L6.29753 25.1817L6.89134 27.4038ZM7.04254 26.1441C7.14643 26.5745 7.34356 26.9709 7.64177 27.3094L9.3676 25.7891C9.33281 25.7496 9.30044 25.696 9.27833 25.6044L7.04254 26.1441ZM7.65192 27.3208C7.92412 27.6217 8.24769 27.8624 8.61809 28.0328L9.57928 25.9432C9.49968 25.9066 9.42725 25.8548 9.35745 25.7777L7.65192 27.3208ZM8.62591 28.0363C8.99852 28.2044 9.3955 28.2933 9.80743 28.2933V25.9932C9.73337 25.9932 9.65785 25.9786 9.57146 25.9397L8.62591 28.0363ZM9.80743 28.2933C10.3181 28.2933 10.8082 28.1666 11.253 27.9059L10.0899 25.9216C10.0127 25.9669 9.92678 25.9932 9.80743 25.9932V28.2933ZM11.253 27.9059C11.6789 27.6562 12.0265 27.3138 12.2801 26.8886L10.3048 25.7104C10.2524 25.7982 10.186 25.8653 10.0899 25.9216L11.253 27.9059ZM12.2845 26.8811C12.5453 26.4363 12.6719 25.9462 12.6719 25.4355H10.3719C10.3719 25.5548 10.3456 25.6407 10.3003 25.7179L12.2845 26.8811ZM12.6719 25.4355C12.6719 24.9184 12.5396 24.4227 12.2657 23.9765L10.3057 25.18C10.3467 25.2468 10.3719 25.3226 10.3719 25.4355H12.6719ZM12.2778 23.9967C12.0236 23.563 11.6711 23.2135 11.2334 22.9645L10.096 24.9635C10.1803 25.0115 10.2418 25.0715 10.2936 25.1598L12.2778 23.9967ZM11.2463 22.9719C10.8041 22.7127 10.3167 22.5845 9.80743 22.5845V24.8845C9.91912 24.8845 10.0033 24.9093 10.0831 24.9561L11.2463 22.9719ZM9.80743 22.5845C9.30179 22.5845 8.78768 22.6752 8.32525 22.9274L9.42661 24.9466C9.45918 24.9288 9.56607 24.8845 9.80743 24.8845V22.5845ZM8.31744 22.9317C7.99698 23.1098 7.68735 23.3336 7.44072 23.6227L9.19064 25.1153C9.20502 25.0984 9.26889 25.0342 9.43442 24.9423L8.31744 22.9317ZM8.66656 23.2738L7.27606 22.8283L6.57431 25.0187L7.96481 25.4642L8.66656 23.2738ZM8.07327 23.9898L8.37027 18.8463L6.0741 18.7137L5.7771 23.8572L8.07327 23.9898ZM7.22218 19.93H12.5007V17.63H7.22218V19.93ZM11.3507 18.78V20.3055H13.6507V18.78H11.3507ZM12.5007 19.1555H8.09293V21.4555H12.5007V19.1555ZM8.88255 21.1416L9.49005 20.5678L7.91082 18.8957L7.30332 19.4694L8.88255 21.1416ZM7.55252 19.6624L7.33652 23.2399L9.63234 23.3786L9.84834 19.8011L7.55252 19.6624ZM9.37595 22.5828L9.07895 22.2183L7.29591 23.6712L7.59291 24.0357L9.37595 22.5828ZM8.96176 23.795C9.09262 23.6758 9.24568 23.5845 9.43301 23.5213L8.69686 21.3422C8.21819 21.504 7.78625 21.7547 7.4131 22.0945L8.96176 23.795ZM9.43301 23.5213C9.66287 23.4436 9.86017 23.413 10.0302 23.413V21.113C9.57919 21.113 9.133 21.1949 8.69686 21.3422L9.43301 23.5213ZM10.0302 23.413C10.4548 23.413 10.7845 23.5083 11.0546 23.6693L12.2323 21.6937C11.5663 21.2967 10.8205 21.113 10.0302 21.113V23.413ZM11.0658 23.6759C11.3595 23.8465 11.5808 24.072 11.7456 24.368L13.7553 23.2495C13.389 22.5914 12.8724 22.0655 12.2211 21.6871L11.0658 23.6759ZM11.7496 24.3752C11.9115 24.6613 12.0054 25.0045 12.0054 25.4355H14.3054C14.3054 24.6515 14.1293 23.9102 13.7512 23.2423L11.7496 24.3752ZM12.0054 25.4355C12.0054 25.8324 11.906 26.1681 11.7127 26.4718L13.6531 27.7067C14.0899 27.0204 14.3054 26.2536 14.3054 25.4355H12.0054ZM11.7153 26.4678C11.5034 26.7978 11.2264 27.0602 10.8683 27.2626L12 29.2649C12.677 28.8823 13.2325 28.3617 13.6506 27.7107L11.7153 26.4678ZM10.8646 27.2647C10.5316 27.4546 10.1665 27.5525 9.74668 27.5525V29.8525C10.5509 29.8525 11.3108 29.6579 12.0038 29.2628L10.8646 27.2647ZM15.6146 28.5L14.8014 29.3132L15.614 30.1257L16.4271 29.3138L15.6146 28.5ZM14.7746 27.66L13.9617 26.8465L13.1479 27.6597L13.9614 28.4732L14.7746 27.66ZM21.4998 20.94L22.3155 20.1294L21.5027 19.3114L20.687 20.1265L21.4998 20.94ZM22.3398 21.7852L23.1524 22.5991L23.9643 21.7884L23.1555 20.9746L22.3398 21.7852ZM19.8146 28.4055L19.2194 29.3895L19.2265 29.3938L19.2336 29.398L19.8146 28.4055ZM19.1321 27.723L18.1449 28.3129L18.1481 28.3182L19.1321 27.723ZM19.1373 25.8225L18.1555 25.2238L18.1555 25.2238L19.1373 25.8225ZM19.8303 25.1347L19.2404 24.1476L19.8303 25.1347ZM21.7151 25.1347L21.1252 26.122L21.1341 26.1272L21.7151 25.1347ZM22.3976 25.8173L21.4051 26.3982L21.4093 26.4054L21.4136 26.4125L22.3976 25.8173ZM22.3976 27.723L21.4104 27.1331L21.4083 27.1367L22.3976 27.723ZM21.7151 28.4055L22.2961 29.398L22.305 29.3927L21.7151 28.4055ZM21.1638 27.4657L20.5844 26.4724L20.5783 26.476L20.5722 26.4796L21.1638 27.4657ZM21.4631 27.1718L22.4492 27.7634L22.4492 27.7634L21.4631 27.1718ZM21.4631 26.3632L22.4492 25.7716L22.4492 25.7716L21.4631 26.3632ZM21.1638 26.0693L20.5722 27.0554L20.5783 27.059L20.5844 27.0626L21.1638 26.0693ZM20.0613 26.3632L19.0877 25.7513L19.0814 25.7614L19.0752 25.7716L20.0613 26.3632ZM20.0613 27.1718L19.0752 27.7634L19.0814 27.7736L19.0877 27.7837L20.0613 27.1718ZM15.3993 24.3105L14.8094 25.2977L14.8184 25.303L15.3993 24.3105ZM14.7116 23.628L13.7191 24.209L13.7233 24.2161L13.7276 24.2232L14.7116 23.628ZM14.7221 21.7275L13.7402 21.1288L14.7221 21.7275ZM15.4151 21.0397L14.8252 20.0526L14.8252 20.0526L15.4151 21.0397ZM17.2946 21.0397L16.6994 22.0237L16.7065 22.028L16.7136 22.0322L17.2946 21.0397ZM17.9823 21.7222L16.9951 22.3122L16.9984 22.3175L17.9823 21.7222ZM17.9823 23.628L18.9663 24.2232L18.9695 24.2179L17.9823 23.628ZM17.2946 24.3105L17.8809 25.2998L17.8845 25.2977L17.2946 24.3105ZM16.7538 23.3707L16.1622 22.3846V22.3846L16.7538 23.3707ZM17.0478 23.0767L18.034 23.6684L18.034 23.6684L17.0478 23.0767ZM17.0478 22.2682L18.034 21.6766V21.6766L17.0478 22.2682ZM16.7538 21.9742L17.3455 20.9881V20.9881L16.7538 21.9742ZM15.6513 22.2682L14.6652 21.6766V21.6766L15.6513 22.2682ZM15.6513 23.0767L14.6652 23.6684L14.6652 23.6684L15.6513 23.0767ZM15.9453 23.3707L16.537 22.3846V22.3846L15.9453 23.3707ZM16.4278 27.6868L15.5878 26.8468L13.9614 28.4732L14.8014 29.3132L16.4278 27.6868ZM15.5874 28.4735L22.3127 21.7535L20.687 20.1265L13.9617 26.8465L15.5874 28.4735ZM20.6841 21.7506L21.5241 22.5959L23.1555 20.9746L22.3155 20.1294L20.6841 21.7506ZM21.5273 20.9714L14.8021 27.6862L16.4271 29.3138L23.1524 22.5991L21.5273 20.9714ZM20.7648 27.5075C20.6136 27.5075 20.4988 27.4735 20.3955 27.413L19.2336 29.398C19.7044 29.6735 20.2231 29.8075 20.7648 29.8075V27.5075ZM20.4098 27.4215C20.2854 27.3463 20.1913 27.2522 20.1161 27.1278L18.1481 28.3182C18.4159 28.7608 18.7768 29.1217 19.2194 29.3895L20.4098 27.4215ZM20.1193 27.1331C20.0594 27.0329 20.0248 26.9199 20.0248 26.7675H17.7248C17.7248 27.3151 17.8618 27.8391 18.1449 28.3129L20.1193 27.1331ZM20.0248 26.7675C20.0248 26.6312 20.0565 26.524 20.1192 26.4212L18.1555 25.2238C17.8682 25.695 17.7248 26.2178 17.7248 26.7675H20.0248ZM20.1192 26.4212C20.1976 26.2927 20.2944 26.1971 20.4202 26.1219L19.2404 24.1476C18.7923 24.4154 18.4271 24.7783 18.1555 25.2238L20.1192 26.4212ZM20.4202 26.1219C20.528 26.0575 20.6355 26.0275 20.7648 26.0275V23.7275C20.2222 23.7275 19.7067 23.869 19.2404 24.1476L20.4202 26.1219ZM20.7648 26.0275C20.9115 26.0275 21.0232 26.061 21.1252 26.1219L22.305 24.1476C21.833 23.8655 21.3112 23.7275 20.7648 23.7275V26.0275ZM21.1341 26.1272C21.251 26.1956 21.3367 26.2814 21.4051 26.3982L23.3901 25.2363C23.1224 24.7791 22.7532 24.4099 22.296 24.1423L21.1341 26.1272ZM21.4136 26.4125C21.4703 26.5062 21.5048 26.615 21.5048 26.7675H23.8048C23.8048 26.22 23.6679 25.6953 23.3816 25.222L21.4136 26.4125ZM21.5048 26.7675C21.5048 26.9199 21.4703 27.0329 21.4104 27.1331L23.3848 28.3129C23.6679 27.8391 23.8048 27.3151 23.8048 26.7675H21.5048ZM21.4083 27.1367C21.3394 27.2529 21.2502 27.3436 21.1252 27.4183L22.305 29.3927C22.754 29.1244 23.1198 28.7601 23.3869 28.3093L21.4083 27.1367ZM21.1341 27.413C21.0309 27.4735 20.9161 27.5075 20.7648 27.5075V29.8075C21.3066 29.8075 21.8253 29.6735 22.296 29.398L21.1341 27.413ZM20.7648 28.726C21.1158 28.726 21.4534 28.6331 21.7555 28.4519L20.5722 26.4796C20.5969 26.4648 20.6287 26.4503 20.6659 26.44C20.7031 26.4297 20.7372 26.426 20.7648 26.426V28.726ZM21.7433 28.4591C22.0328 28.2902 22.2739 28.0555 22.4492 27.7634L20.477 26.5801C20.4893 26.5596 20.5061 26.5375 20.5272 26.5168C20.5482 26.4961 20.5686 26.4816 20.5844 26.4724L21.7433 28.4591ZM22.4492 27.7634C22.6332 27.4568 22.7233 27.1166 22.7233 26.7675H20.4233C20.4233 26.7442 20.4264 26.7125 20.4363 26.6762C20.4463 26.6397 20.4608 26.607 20.477 26.5801L22.4492 27.7634ZM22.7233 26.7675C22.7233 26.4184 22.6332 26.0782 22.4492 25.7716L20.477 26.9549C20.4608 26.928 20.4463 26.8953 20.4363 26.8588C20.4264 26.8225 20.4233 26.7908 20.4233 26.7675H22.7233ZM22.4492 25.7716C22.2739 25.4795 22.0328 25.2448 21.7433 25.0759L20.5844 27.0626C20.5686 27.0534 20.5482 27.0389 20.5272 27.0182C20.5061 26.9975 20.4893 26.9754 20.477 26.9549L22.4492 25.7716ZM21.7555 25.0831C21.4534 24.9019 21.1158 24.809 20.7648 24.809V27.109C20.7372 27.109 20.7031 27.1053 20.6659 27.095C20.6287 27.0847 20.5969 27.0702 20.5722 27.0554L21.7555 25.0831ZM20.7648 24.809C20.4158 24.809 20.0755 24.8992 19.7689 25.0831L20.9523 27.0554C20.9253 27.0715 20.8926 27.0861 20.8561 27.096C20.8198 27.1059 20.7882 27.109 20.7648 27.109V24.809ZM19.7689 25.0831C19.4894 25.2508 19.2596 25.4778 19.0877 25.7513L21.035 26.9752C21.0275 26.9871 21.016 27.0024 20.9998 27.0182C20.9837 27.0341 20.967 27.0465 20.9523 27.0554L19.7689 25.0831ZM19.0752 25.7716C18.8913 26.0782 18.8011 26.4184 18.8011 26.7675H21.1011C21.1011 26.7909 21.098 26.8225 21.0881 26.8588C21.0782 26.8953 21.0636 26.928 21.0475 26.9549L19.0752 25.7716ZM18.8011 26.7675C18.8011 27.1166 18.8913 27.4568 19.0752 27.7634L21.0475 26.5801C21.0636 26.607 21.0782 26.6397 21.0881 26.6762C21.098 26.7125 21.1011 26.7441 21.1011 26.7675H18.8011ZM19.0877 27.7837C19.2596 28.0572 19.4894 28.2842 19.7689 28.4519L20.9523 26.4796C20.967 26.4885 20.9837 26.5009 20.9998 26.5168C21.016 26.5326 21.0275 26.5479 21.035 26.5598L19.0877 27.7837ZM19.7689 28.4519C20.0755 28.6358 20.4158 28.726 20.7648 28.726V26.426C20.7882 26.426 20.8198 26.4291 20.8561 26.439C20.8926 26.4489 20.9253 26.4635 20.9523 26.4796L19.7689 28.4519ZM16.3496 23.4125C16.1984 23.4125 16.0835 23.3785 15.9803 23.318L14.8184 25.303C15.2892 25.5785 15.8078 25.7125 16.3496 25.7125V23.4125ZM15.9892 23.3233C15.8621 23.2474 15.7688 23.1538 15.6956 23.0328L13.7276 24.2232C13.9974 24.6692 14.3625 25.0306 14.8094 25.2977L15.9892 23.3233ZM15.7041 23.047C15.6447 22.9457 15.6096 22.8294 15.6096 22.6725H13.3096C13.3096 23.2156 13.4425 23.7363 13.7191 24.209L15.7041 23.047ZM15.6096 22.6725C15.6096 22.5362 15.6413 22.429 15.704 22.3262L13.7402 21.1288C13.4529 21.6 13.3096 22.1228 13.3096 22.6725H15.6096ZM15.704 22.3262C15.7823 22.1977 15.8791 22.1021 16.005 22.0269L14.8252 20.0526C14.377 20.3204 14.0119 20.6833 13.7402 21.1288L15.704 22.3262ZM16.005 22.0269C16.1127 21.9625 16.2202 21.9325 16.3496 21.9325V19.6325C15.807 19.6325 15.2914 19.774 14.8252 20.0526L16.005 22.0269ZM16.3496 21.9325C16.4963 21.9325 16.6038 21.9659 16.6994 22.0237L17.8898 20.0558C17.4184 19.7706 16.8959 19.6325 16.3496 19.6325V21.9325ZM16.7136 22.0322C16.8326 22.1018 16.9225 22.1905 16.9952 22.3121L18.9695 21.1324C18.6992 20.68 18.3306 20.3137 17.8755 20.0473L16.7136 22.0322ZM16.9984 22.3175C17.055 22.4112 17.0896 22.52 17.0896 22.6725H19.3896C19.3896 22.125 19.2526 21.6003 18.9663 21.127L16.9984 22.3175ZM17.0896 22.6725C17.0896 22.8249 17.055 22.9379 16.9952 23.0381L18.9695 24.2179C19.2527 23.7441 19.3896 23.2201 19.3896 22.6725H17.0896ZM16.9984 23.0328C16.9251 23.1538 16.8318 23.2474 16.7047 23.3233L17.8845 25.2977C18.3314 25.0306 18.6966 24.6692 18.9663 24.2232L16.9984 23.0328ZM16.7083 23.3212C16.6116 23.3785 16.5009 23.4125 16.3496 23.4125V25.7125C16.8913 25.7125 17.4106 25.5785 17.8809 25.2998L16.7083 23.3212ZM16.3496 24.631C16.6987 24.631 17.0389 24.5408 17.3455 24.3569L16.1622 22.3846C16.1891 22.3685 16.2218 22.3539 16.2583 22.344C16.2946 22.3341 16.3262 22.331 16.3496 22.331V24.631ZM17.3455 24.3569C17.6299 24.1862 17.8633 23.9528 18.034 23.6684L16.0617 22.4851C16.0719 22.4682 16.0865 22.4485 16.106 22.429C16.1256 22.4094 16.1453 22.3948 16.1622 22.3846L17.3455 24.3569ZM18.034 23.6684C18.2179 23.3618 18.3081 23.0216 18.3081 22.6725H16.0081C16.0081 22.6491 16.0112 22.6175 16.021 22.5812C16.031 22.5447 16.0456 22.512 16.0617 22.4851L18.034 23.6684ZM18.3081 22.6725C18.3081 22.3234 18.2179 21.9832 18.034 21.6766L16.0617 22.8599C16.0456 22.833 16.031 22.8003 16.021 22.7638C16.0112 22.7275 16.0081 22.6958 16.0081 22.6725H18.3081ZM18.034 21.6766C17.8633 21.3922 17.6299 21.1588 17.3455 20.9881L16.1622 22.9604C16.1453 22.9502 16.1256 22.9356 16.106 22.916C16.0865 22.8965 16.0719 22.8768 16.0617 22.8599L18.034 21.6766ZM17.3455 20.9881C17.0389 20.8042 16.6987 20.714 16.3496 20.714V23.014C16.3262 23.014 16.2946 23.0109 16.2583 23.001C16.2218 22.9911 16.1891 22.9765 16.1622 22.9604L17.3455 20.9881ZM16.3496 20.714C16.0005 20.714 15.6603 20.8042 15.3537 20.9881L16.537 22.9604C16.5101 22.9765 16.4774 22.9911 16.4409 23.001C16.4046 23.0109 16.3729 23.014 16.3496 23.014V20.714ZM15.3537 20.9881C15.0693 21.1588 14.8358 21.3922 14.6652 21.6766L16.6375 22.8599C16.6273 22.8768 16.6126 22.8965 16.5931 22.916C16.5736 22.9356 16.5539 22.9502 16.537 22.9604L15.3537 20.9881ZM14.6652 21.6766C14.4813 21.9832 14.3911 22.3234 14.3911 22.6725H16.6911C16.6911 22.6958 16.688 22.7275 16.6781 22.7638C16.6682 22.8003 16.6536 22.833 16.6375 22.8599L14.6652 21.6766ZM14.3911 22.6725C14.3911 23.0216 14.4813 23.3618 14.6652 23.6684L16.6375 22.4851C16.6536 22.512 16.6682 22.5447 16.6781 22.5812C16.688 22.6175 16.6911 22.6491 16.6911 22.6725H14.3911ZM14.6652 23.6684C14.8358 23.9528 15.0693 24.1862 15.3537 24.3569L16.537 22.3846C16.5539 22.3948 16.5736 22.4094 16.5931 22.429C16.6126 22.4485 16.6273 22.4682 16.6375 22.4851L14.6652 23.6684ZM15.3537 24.3569C15.6603 24.5408 16.0005 24.631 16.3496 24.631V22.331C16.3729 22.331 16.4046 22.3341 16.4409 22.344C16.4774 22.3539 16.5101 22.3685 16.537 22.3846L15.3537 24.3569Z" fill="#021523" mask="url(#path-1-outside-1_1_2352)"/>
<path d="M28.4842 13.9273L8.68031 1.17826C8.13268 0.825925 7.40214 1.01357 7.09047 1.5853L0.138808 14.3343C-0.26922 15.0825 0.271151 15.9999 1.12282 15.9999H27.7129C27.7402 15.9999 27.7674 15.9989 27.7942 15.9968C27.8219 15.999 27.8496 16 27.8773 16C28.9914 16.0001 29.4264 14.5339 28.4842 13.9273ZM3.01505 13.7491L8.48131 3.72443L24.0532 13.7491H3.01505Z" fill="#FF6600"/>
</g>
<defs>
<clipPath id="clip0_1_2352">
<rect width="30" height="30" fill="white"/>
</clipPath>
</defs>
</svg>
