<svg width="34" height="30" viewBox="0 0 34 30" fill="none" xmlns="http://www.w3.org/2000/svg">
<g clip-path="url(#clip0_1_2336)">
<path d="M17 1.25C14.2805 1.25 11.6221 2.05642 9.36092 3.56729C7.09974 5.07816 5.33737 7.22562 4.29666 9.7381C3.25596 12.2506 2.98366 15.0153 3.51421 17.6825C4.04476 20.3497 5.35432 22.7997 7.27729 24.7227C9.20026 26.6457 11.6503 27.9552 14.3175 28.4858C16.9848 29.0163 19.7494 28.744 22.2619 27.7033C24.7744 26.6626 26.9218 24.9003 28.4327 22.6391C29.9436 20.3779 30.75 17.7195 30.75 15C30.7459 11.3545 29.2959 7.85958 26.7182 5.28185C24.1404 2.70412 20.6455 1.25414 17 1.25ZM17 26.25C14.775 26.25 12.5999 25.5902 10.7498 24.354C8.89979 23.1179 7.45785 21.3609 6.60636 19.3052C5.75488 17.2495 5.53209 14.9875 5.96617 12.8052C6.40026 10.6229 7.47171 8.61839 9.04505 7.04505C10.6184 5.47171 12.623 4.40025 14.8052 3.96617C16.9875 3.53208 19.2495 3.75487 21.3052 4.60636C23.3609 5.45784 25.1179 6.89978 26.354 8.74984C27.5902 10.5999 28.25 12.775 28.25 15C28.2467 17.9827 27.0604 20.8422 24.9513 22.9513C22.8422 25.0604 19.9827 26.2467 17 26.25Z" fill="#FF6600"/>
<path d="M18.25 14.4825V10C18.25 9.66848 18.1183 9.35054 17.8839 9.11612C17.6495 8.8817 17.3315 8.75 17 8.75C16.6685 8.75 16.3505 8.8817 16.1161 9.11612C15.8817 9.35054 15.75 9.66848 15.75 10V15L15.7513 15.006C15.7534 15.3352 15.8846 15.6505 16.1166 15.8841L19.6514 19.4195C19.7668 19.5385 19.9047 19.6333 20.0571 19.6985C20.2095 19.7637 20.3733 19.7979 20.5391 19.7992C20.7048 19.8004 20.8692 19.7687 21.0225 19.7059C21.1759 19.643 21.3153 19.5503 21.4325 19.4331C21.5497 19.3159 21.6424 19.1766 21.7053 19.0232C21.7681 18.8698 21.7998 18.7055 21.7986 18.5397C21.7973 18.374 21.7631 18.2101 21.698 18.0577C21.6328 17.9053 21.538 17.7674 21.419 17.652L18.25 14.4825Z" fill="#FF6600"/>
<mask id="path-3-outside-1_1_2336" maskUnits="userSpaceOnUse" x="11" y="13" width="22" height="18" fill="black">
<rect fill="white" x="11" y="13" width="22" height="18"/>
<path d="M13.9 28.982V27.092L19.444 22.151C19.876 21.767 20.176 21.404 20.344 21.062C20.512 20.72 20.596 20.39 20.596 20.072C20.596 19.64 20.503 19.256 20.317 18.92C20.131 18.578 19.873 18.308 19.543 18.11C19.219 17.912 18.844 17.813 18.418 17.813C17.968 17.813 17.569 17.918 17.221 18.128C16.879 18.332 16.612 18.605 16.42 18.947C16.228 19.289 16.138 19.658 16.15 20.054H13.918C13.918 19.19 14.11 18.437 14.494 17.795C14.884 17.153 15.418 16.655 16.096 16.301C16.78 15.947 17.569 15.77 18.463 15.77C19.291 15.77 20.035 15.956 20.695 16.328C21.355 16.694 21.874 17.204 22.252 17.858C22.63 18.506 22.819 19.253 22.819 20.099C22.819 20.717 22.735 21.236 22.567 21.656C22.399 22.076 22.147 22.463 21.811 22.817C21.481 23.171 21.07 23.564 20.578 23.996L16.645 27.479L16.447 26.939H22.819V28.982H13.9ZM29.1057 29V26.459C28.8443 26.5897 28.5457 26.6923 28.2097 26.767C27.8783 26.8417 27.5307 26.879 27.1667 26.879C26.3873 26.879 25.7643 26.704 25.2977 26.354C24.8357 26.004 24.537 25.4953 24.4017 24.828C24.3597 24.6367 24.3293 24.4383 24.3107 24.233C24.2967 24.023 24.2873 23.834 24.2827 23.666C24.2827 23.4933 24.2827 23.3627 24.2827 23.274V21.44H25.9907V23.274C25.9907 23.3767 25.9953 23.5283 26.0047 23.729C26.014 23.925 26.0397 24.121 26.0817 24.317C26.1703 24.6903 26.3313 24.9633 26.5647 25.136C26.798 25.3087 27.1317 25.395 27.5657 25.395C27.9017 25.395 28.198 25.3507 28.4547 25.262C28.7113 25.1733 28.9283 25.0613 29.1057 24.926V21.44H30.7997V29H29.1057Z"/>
</mask>
<path d="M13.9 28.982V27.092L19.444 22.151C19.876 21.767 20.176 21.404 20.344 21.062C20.512 20.72 20.596 20.39 20.596 20.072C20.596 19.64 20.503 19.256 20.317 18.92C20.131 18.578 19.873 18.308 19.543 18.11C19.219 17.912 18.844 17.813 18.418 17.813C17.968 17.813 17.569 17.918 17.221 18.128C16.879 18.332 16.612 18.605 16.42 18.947C16.228 19.289 16.138 19.658 16.15 20.054H13.918C13.918 19.19 14.11 18.437 14.494 17.795C14.884 17.153 15.418 16.655 16.096 16.301C16.78 15.947 17.569 15.77 18.463 15.77C19.291 15.77 20.035 15.956 20.695 16.328C21.355 16.694 21.874 17.204 22.252 17.858C22.63 18.506 22.819 19.253 22.819 20.099C22.819 20.717 22.735 21.236 22.567 21.656C22.399 22.076 22.147 22.463 21.811 22.817C21.481 23.171 21.07 23.564 20.578 23.996L16.645 27.479L16.447 26.939H22.819V28.982H13.9ZM29.1057 29V26.459C28.8443 26.5897 28.5457 26.6923 28.2097 26.767C27.8783 26.8417 27.5307 26.879 27.1667 26.879C26.3873 26.879 25.7643 26.704 25.2977 26.354C24.8357 26.004 24.537 25.4953 24.4017 24.828C24.3597 24.6367 24.3293 24.4383 24.3107 24.233C24.2967 24.023 24.2873 23.834 24.2827 23.666C24.2827 23.4933 24.2827 23.3627 24.2827 23.274V21.44H25.9907V23.274C25.9907 23.3767 25.9953 23.5283 26.0047 23.729C26.014 23.925 26.0397 24.121 26.0817 24.317C26.1703 24.6903 26.3313 24.9633 26.5647 25.136C26.798 25.3087 27.1317 25.395 27.5657 25.395C27.9017 25.395 28.198 25.3507 28.4547 25.262C28.7113 25.1733 28.9283 25.0613 29.1057 24.926V21.44H30.7997V29H29.1057Z" fill="#FF6600"/>
<path d="M13.9 28.982H11.9V30.982H13.9V28.982ZM13.9 27.092L12.5693 25.5989L11.9 26.1954V27.092H13.9ZM19.444 22.151L18.1153 20.6562L18.1133 20.6579L19.444 22.151ZM20.344 21.062L22.1391 21.9438L22.1391 21.9438L20.344 21.062ZM20.317 18.92L18.56 19.8755L18.5636 19.8821L18.5672 19.8886L20.317 18.92ZM19.543 18.11L18.5001 19.8166L18.507 19.8208L18.514 19.825L19.543 18.11ZM17.221 18.128L18.2456 19.8457L18.2543 19.8404L17.221 18.128ZM16.42 18.947L14.676 17.9679L14.676 17.9679L16.42 18.947ZM16.15 20.054V22.054H18.2115L18.1491 19.9934L16.15 20.054ZM13.918 20.054H11.918V22.054H13.918V20.054ZM14.494 17.795L12.7846 16.7566L12.7776 16.7684L14.494 17.795ZM16.096 16.301L15.1767 14.5248L15.1703 14.5281L16.096 16.301ZM20.695 16.328L19.713 18.0703L19.7251 18.0771L20.695 16.328ZM22.252 17.858L20.5204 18.8588L20.5244 18.8657L22.252 17.858ZM21.811 22.817L20.3604 21.4401L20.3542 21.4467L20.3481 21.4532L21.811 22.817ZM20.578 23.996L19.2584 22.4931L19.252 22.4987L20.578 23.996ZM16.645 27.479L14.7672 28.1675L15.7764 30.9197L17.971 28.9763L16.645 27.479ZM16.447 26.939V24.939H13.5835L14.5692 27.6275L16.447 26.939ZM22.819 26.939H24.819V24.939H22.819V26.939ZM22.819 28.982V30.982H24.819V28.982H22.819ZM15.9 28.982V27.092H11.9V28.982H15.9ZM15.2307 28.5851L20.7747 23.6441L18.1133 20.6579L12.5693 25.5989L15.2307 28.5851ZM20.7727 23.6458C21.3083 23.1698 21.8135 22.6066 22.1391 21.9438L18.5489 20.1802C18.5489 20.1801 18.5474 20.1831 18.5439 20.1893C18.5403 20.1955 18.5348 20.2045 18.527 20.2163C18.5111 20.2402 18.4868 20.2738 18.4513 20.3167C18.3793 20.4039 18.2712 20.5175 18.1153 20.6562L20.7727 23.6458ZM22.1391 21.9438C22.4155 21.3812 22.596 20.7505 22.596 20.072H18.596C18.596 20.0533 18.5987 20.0495 18.5948 20.0646C18.5907 20.0808 18.579 20.1189 18.5489 20.1802L22.1391 21.9438ZM22.596 20.072C22.596 19.3442 22.4366 18.6193 22.0668 17.9514L18.5672 19.8886C18.5694 19.8927 18.596 19.9358 18.596 20.072H22.596ZM22.074 17.9645C21.7195 17.3127 21.2118 16.7789 20.572 16.395L18.514 19.825C18.5304 19.8348 18.5362 19.8408 18.538 19.8427C18.5399 19.8447 18.5478 19.8531 18.56 19.8755L22.074 17.9645ZM20.5859 16.4034C19.9108 15.9909 19.1659 15.813 18.418 15.813V19.813C18.4754 19.813 18.5028 19.8196 18.5082 19.821C18.5123 19.8221 18.5072 19.8209 18.5001 19.8166L20.5859 16.4034ZM18.418 15.813C17.644 15.813 16.8802 15.9977 16.1877 16.4156L18.2543 19.8404C18.2578 19.8383 18.292 19.813 18.418 19.813V15.813ZM16.1964 16.4104C15.559 16.7906 15.0419 17.3162 14.676 17.9679L18.164 19.9261C18.1821 19.8938 18.199 19.8734 18.2456 19.8456L16.1964 16.4104ZM14.676 17.9679C14.3042 18.6302 14.128 19.3592 14.1509 20.1146L18.1491 19.9934C18.1483 19.9675 18.151 19.9564 18.1515 19.9542C18.1521 19.952 18.1541 19.9437 18.164 19.9261L14.676 17.9679ZM16.15 18.054H13.918V22.054H16.15V18.054ZM15.918 20.054C15.918 19.4946 16.0392 19.1079 16.2104 18.8216L12.7776 16.7684C12.1808 17.7661 11.918 18.8854 11.918 20.054H15.918ZM16.2033 18.8334C16.4004 18.509 16.6608 18.2623 17.0217 18.0739L15.1703 14.5281C14.1752 15.0477 13.3676 15.797 12.7847 16.7566L16.2033 18.8334ZM17.0153 18.0772C17.3727 17.8923 17.8374 17.77 18.463 17.77V13.77C17.3006 13.77 16.1873 14.0017 15.1767 14.5248L17.0153 18.0772ZM18.463 17.77C18.9798 17.77 19.3801 17.8827 19.713 18.0703L21.677 14.5857C20.6899 14.0293 19.6022 13.77 18.463 13.77V17.77ZM19.7251 18.0771C20.0678 18.2671 20.3236 18.5183 20.5204 18.8588L23.9836 16.8572C23.4244 15.8897 22.6422 15.1209 21.6649 14.5789L19.7251 18.0771ZM20.5244 18.8657C20.7021 19.1703 20.819 19.5609 20.819 20.099H24.819C24.819 18.9451 24.5579 17.8417 23.9796 16.8503L20.5244 18.8657ZM20.819 20.099C20.819 20.5497 20.7558 20.7988 20.71 20.9132L24.424 22.3988C24.7142 21.6732 24.819 20.8843 24.819 20.099H20.819ZM20.71 20.9132C20.6433 21.08 20.5359 21.2553 20.3604 21.4401L23.2616 24.1939C23.7581 23.6707 24.1547 23.072 24.424 22.3988L20.71 20.9132ZM20.3481 21.4532C20.0761 21.745 19.7165 22.0909 19.2584 22.4931L21.8976 25.4989C22.4235 25.0371 22.8859 24.597 23.2739 24.1808L20.3481 21.4532ZM19.252 22.4987L15.319 25.9817L17.971 28.9763L21.904 25.4933L19.252 22.4987ZM18.5228 26.7905L18.3248 26.2505L14.5692 27.6275L14.7672 28.1675L18.5228 26.7905ZM16.447 28.939H22.819V24.939H16.447V28.939ZM20.819 26.939V28.982H24.819V26.939H20.819ZM22.819 26.982H13.9V30.982H22.819V26.982ZM29.1057 29H27.1057V31H29.1057V29ZM29.1057 26.459H31.1057V23.2229L28.2112 24.6701L29.1057 26.459ZM28.2097 26.767L27.7758 24.8146L27.77 24.8159L28.2097 26.767ZM25.2977 26.354L24.0899 27.9482L24.0977 27.954L25.2977 26.354ZM24.4017 24.828L26.3618 24.4305L26.3586 24.4148L26.3551 24.3992L24.4017 24.828ZM24.3107 24.233L22.3151 24.366L22.3167 24.3901L22.3189 24.4141L24.3107 24.233ZM24.2827 23.666H22.2827V23.6938L22.2834 23.7215L24.2827 23.666ZM24.2827 21.44V19.44H22.2827V21.44H24.2827ZM25.9907 21.44H27.9907V19.44H25.9907V21.44ZM26.0047 23.729L24.0068 23.8219L24.0069 23.8241L26.0047 23.729ZM26.0817 24.317L24.1261 24.7361L24.1307 24.7577L24.1358 24.7791L26.0817 24.317ZM28.4547 25.262L29.1077 27.1524H29.1077L28.4547 25.262ZM29.1057 24.926L30.319 26.5159L31.1057 25.9156V24.926H29.1057ZM29.1057 21.44V19.44H27.1057V21.44H29.1057ZM30.7997 21.44H32.7997V19.44H30.7997V21.44ZM30.7997 29V31H32.7997V29H30.7997ZM31.1057 29V26.459H27.1057V29H31.1057ZM28.2112 24.6701C28.1193 24.7161 27.9796 24.7693 27.7758 24.8146L28.6435 28.7194C29.1117 28.6153 29.5693 28.4632 30.0001 28.2479L28.2112 24.6701ZM27.77 24.8159C27.5929 24.8558 27.3933 24.879 27.1667 24.879V28.879C27.6681 28.879 28.1638 28.8275 28.6493 28.7181L27.77 24.8159ZM27.1667 24.879C26.6758 24.879 26.5182 24.7694 26.4977 24.754L24.0977 27.954C25.0105 28.6386 26.0989 28.879 27.1667 28.879V24.879ZM26.5054 24.7598C26.4977 24.754 26.4182 24.7088 26.3618 24.4305L22.4416 25.2255C22.6558 26.2818 23.1737 27.254 24.0899 27.9482L26.5054 24.7598ZM26.3551 24.3992C26.332 24.2937 26.3139 24.1783 26.3024 24.0519L22.3189 24.4141C22.3447 24.6984 22.3873 24.9796 22.4482 25.2568L26.3551 24.3992ZM26.3062 24.1C26.2935 23.9097 26.2857 23.7471 26.2819 23.6105L22.2834 23.7215C22.289 23.9209 22.2998 24.1363 22.3151 24.366L26.3062 24.1ZM26.2827 23.666C26.2827 23.6657 26.2827 23.6653 26.2827 23.665C26.2827 23.6647 26.2827 23.6643 26.2827 23.664C26.2827 23.6636 26.2827 23.6633 26.2827 23.663C26.2827 23.6626 26.2827 23.6623 26.2827 23.662C26.2827 23.6616 26.2827 23.6613 26.2827 23.661C26.2827 23.6606 26.2827 23.6603 26.2827 23.6599C26.2827 23.6596 26.2827 23.6593 26.2827 23.6589C26.2827 23.6586 26.2827 23.6583 26.2827 23.6579C26.2827 23.6576 26.2827 23.6573 26.2827 23.6569C26.2827 23.6566 26.2827 23.6563 26.2827 23.6559C26.2827 23.6556 26.2827 23.6553 26.2827 23.6549C26.2827 23.6546 26.2827 23.6543 26.2827 23.6539C26.2827 23.6536 26.2827 23.6533 26.2827 23.6529C26.2827 23.6526 26.2827 23.6523 26.2827 23.6519C26.2827 23.6516 26.2827 23.6513 26.2827 23.6509C26.2827 23.6506 26.2827 23.6503 26.2827 23.6499C26.2827 23.6496 26.2827 23.6493 26.2827 23.6489C26.2827 23.6486 26.2827 23.6483 26.2827 23.6479C26.2827 23.6476 26.2827 23.6473 26.2827 23.647C26.2827 23.6466 26.2827 23.6463 26.2827 23.646C26.2827 23.6456 26.2827 23.6453 26.2827 23.645C26.2827 23.6446 26.2827 23.6443 26.2827 23.644C26.2827 23.6436 26.2827 23.6433 26.2827 23.643C26.2827 23.6427 26.2827 23.6423 26.2827 23.642C26.2827 23.6417 26.2827 23.6413 26.2827 23.641C26.2827 23.6407 26.2827 23.6403 26.2827 23.64C26.2827 23.6397 26.2827 23.6394 26.2827 23.639C26.2827 23.6387 26.2827 23.6384 26.2827 23.638C26.2827 23.6377 26.2827 23.6374 26.2827 23.6371C26.2827 23.6367 26.2827 23.6364 26.2827 23.6361C26.2827 23.6358 26.2827 23.6354 26.2827 23.6351C26.2827 23.6348 26.2827 23.6344 26.2827 23.6341C26.2827 23.6338 26.2827 23.6335 26.2827 23.6331C26.2827 23.6328 26.2827 23.6325 26.2827 23.6322C26.2827 23.6318 26.2827 23.6315 26.2827 23.6312C26.2827 23.6309 26.2827 23.6305 26.2827 23.6302C26.2827 23.6299 26.2827 23.6295 26.2827 23.6292C26.2827 23.6289 26.2827 23.6286 26.2827 23.6282C26.2827 23.6279 26.2827 23.6276 26.2827 23.6273C26.2827 23.6269 26.2827 23.6266 26.2827 23.6263C26.2827 23.626 26.2827 23.6257 26.2827 23.6253C26.2827 23.625 26.2827 23.6247 26.2827 23.6244C26.2827 23.624 26.2827 23.6237 26.2827 23.6234C26.2827 23.6231 26.2827 23.6227 26.2827 23.6224C26.2827 23.6221 26.2827 23.6218 26.2827 23.6214C26.2827 23.6211 26.2827 23.6208 26.2827 23.6205C26.2827 23.6202 26.2827 23.6198 26.2827 23.6195C26.2827 23.6192 26.2827 23.6189 26.2827 23.6185C26.2827 23.6182 26.2827 23.6179 26.2827 23.6176C26.2827 23.6173 26.2827 23.6169 26.2827 23.6166C26.2827 23.6163 26.2827 23.616 26.2827 23.6157C26.2827 23.6153 26.2827 23.615 26.2827 23.6147C26.2827 23.6144 26.2827 23.614 26.2827 23.6137C26.2827 23.6134 26.2827 23.6131 26.2827 23.6128C26.2827 23.6124 26.2827 23.6121 26.2827 23.6118C26.2827 23.6115 26.2827 23.6112 26.2827 23.6109C26.2827 23.6105 26.2827 23.6102 26.2827 23.6099C26.2827 23.6096 26.2827 23.6093 26.2827 23.6089C26.2827 23.6086 26.2827 23.6083 26.2827 23.608C26.2827 23.6077 26.2827 23.6073 26.2827 23.607C26.2827 23.6067 26.2827 23.6064 26.2827 23.6061C26.2827 23.6058 26.2827 23.6054 26.2827 23.6051C26.2827 23.6048 26.2827 23.6045 26.2827 23.6042C26.2827 23.6039 26.2827 23.6035 26.2827 23.6032C26.2827 23.6029 26.2827 23.6026 26.2827 23.6023C26.2827 23.602 26.2827 23.6016 26.2827 23.6013C26.2827 23.601 26.2827 23.6007 26.2827 23.6004C26.2827 23.6001 26.2827 23.5997 26.2827 23.5994C26.2827 23.5991 26.2827 23.5988 26.2827 23.5985C26.2827 23.5982 26.2827 23.5978 26.2827 23.5975C26.2827 23.5972 26.2827 23.5969 26.2827 23.5966C26.2827 23.5963 26.2827 23.596 26.2827 23.5956C26.2827 23.5953 26.2827 23.595 26.2827 23.5947C26.2827 23.5944 26.2827 23.5941 26.2827 23.5938C26.2827 23.5935 26.2827 23.5931 26.2827 23.5928C26.2827 23.5925 26.2827 23.5922 26.2827 23.5919C26.2827 23.5916 26.2827 23.5913 26.2827 23.5909C26.2827 23.5906 26.2827 23.5903 26.2827 23.59C26.2827 23.5897 26.2827 23.5894 26.2827 23.5891C26.2827 23.5888 26.2827 23.5885 26.2827 23.5881C26.2827 23.5878 26.2827 23.5875 26.2827 23.5872C26.2827 23.5869 26.2827 23.5866 26.2827 23.5863C26.2827 23.586 26.2827 23.5856 26.2827 23.5853C26.2827 23.585 26.2827 23.5847 26.2827 23.5844C26.2827 23.5841 26.2827 23.5838 26.2827 23.5835C26.2827 23.5832 26.2827 23.5829 26.2827 23.5825C26.2827 23.5822 26.2827 23.5819 26.2827 23.5816C26.2827 23.5813 26.2827 23.581 26.2827 23.5807C26.2827 23.5804 26.2827 23.5801 26.2827 23.5798C26.2827 23.5795 26.2827 23.5791 26.2827 23.5788C26.2827 23.5785 26.2827 23.5782 26.2827 23.5779C26.2827 23.5776 26.2827 23.5773 26.2827 23.577C26.2827 23.5767 26.2827 23.5764 26.2827 23.5761C26.2827 23.5758 26.2827 23.5755 26.2827 23.5751C26.2827 23.5748 26.2827 23.5745 26.2827 23.5742C26.2827 23.5739 26.2827 23.5736 26.2827 23.5733C26.2827 23.573 26.2827 23.5727 26.2827 23.5724C26.2827 23.5721 26.2827 23.5718 26.2827 23.5715C26.2827 23.5712 26.2827 23.5709 26.2827 23.5706C26.2827 23.5702 26.2827 23.5699 26.2827 23.5696C26.2827 23.5693 26.2827 23.569 26.2827 23.5687C26.2827 23.5684 26.2827 23.5681 26.2827 23.5678C26.2827 23.5675 26.2827 23.5672 26.2827 23.5669C26.2827 23.5666 26.2827 23.5663 26.2827 23.566C26.2827 23.5657 26.2827 23.5654 26.2827 23.5651C26.2827 23.5648 26.2827 23.5645 26.2827 23.5642C26.2827 23.5639 26.2827 23.5636 26.2827 23.5632C26.2827 23.5629 26.2827 23.5626 26.2827 23.5623C26.2827 23.562 26.2827 23.5617 26.2827 23.5614C26.2827 23.5611 26.2827 23.5608 26.2827 23.5605C26.2827 23.5602 26.2827 23.5599 26.2827 23.5596C26.2827 23.5593 26.2827 23.559 26.2827 23.5587C26.2827 23.5584 26.2827 23.5581 26.2827 23.5578C26.2827 23.5575 26.2827 23.5572 26.2827 23.5569C26.2827 23.5566 26.2827 23.5563 26.2827 23.556C26.2827 23.5557 26.2827 23.5554 26.2827 23.5551C26.2827 23.5548 26.2827 23.5545 26.2827 23.5542C26.2827 23.5539 26.2827 23.5536 26.2827 23.5533C26.2827 23.553 26.2827 23.5527 26.2827 23.5524C26.2827 23.5521 26.2827 23.5518 26.2827 23.5515C26.2827 23.5512 26.2827 23.5509 26.2827 23.5506C26.2827 23.5503 26.2827 23.55 26.2827 23.5497C26.2827 23.5494 26.2827 23.5491 26.2827 23.5488C26.2827 23.5485 26.2827 23.5482 26.2827 23.5479C26.2827 23.5476 26.2827 23.5473 26.2827 23.547C26.2827 23.5467 26.2827 23.5465 26.2827 23.5462C26.2827 23.5459 26.2827 23.5456 26.2827 23.5453C26.2827 23.545 26.2827 23.5447 26.2827 23.5444C26.2827 23.5441 26.2827 23.5438 26.2827 23.5435C26.2827 23.5432 26.2827 23.5429 26.2827 23.5426C26.2827 23.5423 26.2827 23.542 26.2827 23.5417C26.2827 23.5414 26.2827 23.5411 26.2827 23.5408C26.2827 23.5405 26.2827 23.5402 26.2827 23.5399C26.2827 23.5396 26.2827 23.5394 26.2827 23.5391C26.2827 23.5388 26.2827 23.5385 26.2827 23.5382C26.2827 23.5379 26.2827 23.5376 26.2827 23.5373C26.2827 23.537 26.2827 23.5367 26.2827 23.5364C26.2827 23.5361 26.2827 23.5358 26.2827 23.5355C26.2827 23.5352 26.2827 23.535 26.2827 23.5347C26.2827 23.5344 26.2827 23.5341 26.2827 23.5338C26.2827 23.5335 26.2827 23.5332 26.2827 23.5329C26.2827 23.5326 26.2827 23.5323 26.2827 23.532C26.2827 23.5317 26.2827 23.5314 26.2827 23.5312C26.2827 23.5309 26.2827 23.5306 26.2827 23.5303C26.2827 23.53 26.2827 23.5297 26.2827 23.5294C26.2827 23.5291 26.2827 23.5288 26.2827 23.5285C26.2827 23.5282 26.2827 23.528 26.2827 23.5277C26.2827 23.5274 26.2827 23.5271 26.2827 23.5268C26.2827 23.5265 26.2827 23.5262 26.2827 23.5259C26.2827 23.5256 26.2827 23.5253 26.2827 23.5251C26.2827 23.5248 26.2827 23.5245 26.2827 23.5242C26.2827 23.5239 26.2827 23.5236 26.2827 23.5233C26.2827 23.523 26.2827 23.5227 26.2827 23.5225C26.2827 23.5222 26.2827 23.5219 26.2827 23.5216C26.2827 23.5213 26.2827 23.521 26.2827 23.5207C26.2827 23.5204 26.2827 23.5202 26.2827 23.5199C26.2827 23.5196 26.2827 23.5193 26.2827 23.519C26.2827 23.5187 26.2827 23.5184 26.2827 23.5181C26.2827 23.5179 26.2827 23.5176 26.2827 23.5173C26.2827 23.517 26.2827 23.5167 26.2827 23.5164C26.2827 23.5161 26.2827 23.5159 26.2827 23.5156C26.2827 23.5153 26.2827 23.515 26.2827 23.5147C26.2827 23.5144 26.2827 23.5141 26.2827 23.5139C26.2827 23.5136 26.2827 23.5133 26.2827 23.513C26.2827 23.5127 26.2827 23.5124 26.2827 23.5122C26.2827 23.5119 26.2827 23.5116 26.2827 23.5113C26.2827 23.511 26.2827 23.5107 26.2827 23.5104C26.2827 23.5102 26.2827 23.5099 26.2827 23.5096C26.2827 23.5093 26.2827 23.509 26.2827 23.5087C26.2827 23.5085 26.2827 23.5082 26.2827 23.5079C26.2827 23.5076 26.2827 23.5073 26.2827 23.5071C26.2827 23.5068 26.2827 23.5065 26.2827 23.5062C26.2827 23.5059 26.2827 23.5056 26.2827 23.5054C26.2827 23.5051 26.2827 23.5048 26.2827 23.5045C26.2827 23.5042 26.2827 23.504 26.2827 23.5037C26.2827 23.5034 26.2827 23.5031 26.2827 23.5028C26.2827 23.5025 26.2827 23.5023 26.2827 23.502C26.2827 23.5017 26.2827 23.5014 26.2827 23.5011C26.2827 23.5009 26.2827 23.5006 26.2827 23.5003C26.2827 23.5 26.2827 23.4997 26.2827 23.4995C26.2827 23.4992 26.2827 23.4989 26.2827 23.4986C26.2827 23.4983 26.2827 23.4981 26.2827 23.4978C26.2827 23.4975 26.2827 23.4972 26.2827 23.497C26.2827 23.4967 26.2827 23.4964 26.2827 23.4961C26.2827 23.4958 26.2827 23.4956 26.2827 23.4953C26.2827 23.495 26.2827 23.4947 26.2827 23.4944C26.2827 23.4942 26.2827 23.4939 26.2827 23.4936C26.2827 23.4933 26.2827 23.4931 26.2827 23.4928C26.2827 23.4925 26.2827 23.4922 26.2827 23.492C26.2827 23.4917 26.2827 23.4914 26.2827 23.4911C26.2827 23.4908 26.2827 23.4906 26.2827 23.4903C26.2827 23.49 26.2827 23.4897 26.2827 23.4895C26.2827 23.4892 26.2827 23.4889 26.2827 23.4886C26.2827 23.4884 26.2827 23.4881 26.2827 23.4878C26.2827 23.4875 26.2827 23.4873 26.2827 23.487C26.2827 23.4867 26.2827 23.4864 26.2827 23.4862C26.2827 23.4859 26.2827 23.4856 26.2827 23.4853C26.2827 23.4851 26.2827 23.4848 26.2827 23.4845C26.2827 23.4842 26.2827 23.484 26.2827 23.4837C26.2827 23.4834 26.2827 23.4832 26.2827 23.4829C26.2827 23.4826 26.2827 23.4823 26.2827 23.4821C26.2827 23.4818 26.2827 23.4815 26.2827 23.4812C26.2827 23.481 26.2827 23.4807 26.2827 23.4804C26.2827 23.4802 26.2827 23.4799 26.2827 23.4796C26.2827 23.4793 26.2827 23.4791 26.2827 23.4788C26.2827 23.4785 26.2827 23.4783 26.2827 23.478C26.2827 23.4777 26.2827 23.4774 26.2827 23.4772C26.2827 23.4769 26.2827 23.4766 26.2827 23.4764C26.2827 23.4761 26.2827 23.4758 26.2827 23.4755C26.2827 23.4753 26.2827 23.475 26.2827 23.4747C26.2827 23.4745 26.2827 23.4742 26.2827 23.4739C26.2827 23.4737 26.2827 23.4734 26.2827 23.4731C26.2827 23.4728 26.2827 23.4726 26.2827 23.4723C26.2827 23.472 26.2827 23.4718 26.2827 23.4715C26.2827 23.4712 26.2827 23.471 26.2827 23.4707C26.2827 23.4704 26.2827 23.4702 26.2827 23.4699C26.2827 23.4696 26.2827 23.4694 26.2827 23.4691C26.2827 23.4688 26.2827 23.4686 26.2827 23.4683C26.2827 23.468 26.2827 23.4678 26.2827 23.4675C26.2827 23.4672 26.2827 23.467 26.2827 23.4667C26.2827 23.4664 26.2827 23.4662 26.2827 23.4659C26.2827 23.4656 26.2827 23.4654 26.2827 23.4651C26.2827 23.4648 26.2827 23.4646 26.2827 23.4643C26.2827 23.464 26.2827 23.4638 26.2827 23.4635C26.2827 23.4632 26.2827 23.463 26.2827 23.4627C26.2827 23.4624 26.2827 23.4622 26.2827 23.4619C26.2827 23.4616 26.2827 23.4614 26.2827 23.4611C26.2827 23.4608 26.2827 23.4606 26.2827 23.4603C26.2827 23.46 26.2827 23.4598 26.2827 23.4595C26.2827 23.4593 26.2827 23.459 26.2827 23.4587C26.2827 23.4585 26.2827 23.4582 26.2827 23.4579C26.2827 23.4577 26.2827 23.4574 26.2827 23.4572C26.2827 23.4569 26.2827 23.4566 26.2827 23.4564C26.2827 23.4561 26.2827 23.4558 26.2827 23.4556C26.2827 23.4553 26.2827 23.4551 26.2827 23.4548C26.2827 23.4545 26.2827 23.4543 26.2827 23.454C26.2827 23.4537 26.2827 23.4535 26.2827 23.4532C26.2827 23.453 26.2827 23.4527 26.2827 23.4524C26.2827 23.4522 26.2827 23.4519 26.2827 23.4517C26.2827 23.4514 26.2827 23.4511 26.2827 23.4509C26.2827 23.4506 26.2827 23.4504 26.2827 23.4501C26.2827 23.4498 26.2827 23.4496 26.2827 23.4493C26.2827 23.4491 26.2827 23.4488 26.2827 23.4485C26.2827 23.4483 26.2827 23.448 26.2827 23.4478C26.2827 23.4475 26.2827 23.4472 26.2827 23.447C26.2827 23.4467 26.2827 23.4465 26.2827 23.4462C26.2827 23.4459 26.2827 23.4457 26.2827 23.4454C26.2827 23.4452 26.2827 23.4449 26.2827 23.4447C26.2827 23.4444 26.2827 23.4441 26.2827 23.4439C26.2827 23.4436 26.2827 23.4434 26.2827 23.4431C26.2827 23.4429 26.2827 23.4426 26.2827 23.4423C26.2827 23.4421 26.2827 23.4418 26.2827 23.4416C26.2827 23.4413 26.2827 23.4411 26.2827 23.4408C26.2827 23.4405 26.2827 23.4403 26.2827 23.44C26.2827 23.4398 26.2827 23.4395 26.2827 23.4393C26.2827 23.439 26.2827 23.4388 26.2827 23.4385C26.2827 23.4382 26.2827 23.438 26.2827 23.4377C26.2827 23.4375 26.2827 23.4372 26.2827 23.437C26.2827 23.4367 26.2827 23.4365 26.2827 23.4362C26.2827 23.436 26.2827 23.4357 26.2827 23.4354C26.2827 23.4352 26.2827 23.4349 26.2827 23.4347C26.2827 23.4344 26.2827 23.4342 26.2827 23.4339C26.2827 23.4337 26.2827 23.4334 26.2827 23.4332C26.2827 23.4329 26.2827 23.4327 26.2827 23.4324C26.2827 23.4322 26.2827 23.4319 26.2827 23.4316C26.2827 23.4314 26.2827 23.4311 26.2827 23.4309C26.2827 23.4306 26.2827 23.4304 26.2827 23.4301C26.2827 23.4299 26.2827 23.4296 26.2827 23.4294C26.2827 23.4291 26.2827 23.4289 26.2827 23.4286C26.2827 23.4284 26.2827 23.4281 26.2827 23.4279C26.2827 23.4276 26.2827 23.4274 26.2827 23.4271C26.2827 23.4269 26.2827 23.4266 26.2827 23.4264C26.2827 23.4261 26.2827 23.4259 26.2827 23.4256C26.2827 23.4254 26.2827 23.4251 26.2827 23.4249C26.2827 23.4246 26.2827 23.4244 26.2827 23.4241C26.2827 23.4239 26.2827 23.4236 26.2827 23.4234C26.2827 23.4231 26.2827 23.4229 26.2827 23.4226C26.2827 23.4224 26.2827 23.4221 26.2827 23.4219C26.2827 23.4216 26.2827 23.4214 26.2827 23.4211C26.2827 23.4209 26.2827 23.4206 26.2827 23.4204C26.2827 23.4202 26.2827 23.4199 26.2827 23.4197C26.2827 23.4194 26.2827 23.4192 26.2827 23.4189C26.2827 23.4187 26.2827 23.4184 26.2827 23.4182C26.2827 23.4179 26.2827 23.4177 26.2827 23.4174C26.2827 23.4172 26.2827 23.4169 26.2827 23.4167C26.2827 23.4165 26.2827 23.4162 26.2827 23.416C26.2827 23.4157 26.2827 23.4155 26.2827 23.4152C26.2827 23.415 26.2827 23.4147 26.2827 23.4145C26.2827 23.4142 26.2827 23.414 26.2827 23.4138C26.2827 23.4135 26.2827 23.4133 26.2827 23.413C26.2827 23.4128 26.2827 23.4125 26.2827 23.4123C26.2827 23.412 26.2827 23.4118 26.2827 23.4116C26.2827 23.4113 26.2827 23.4111 26.2827 23.4108C26.2827 23.4106 26.2827 23.4103 26.2827 23.4101C26.2827 23.4099 26.2827 23.4096 26.2827 23.4094C26.2827 23.4091 26.2827 23.4089 26.2827 23.4086C26.2827 23.4084 26.2827 23.4082 26.2827 23.4079C26.2827 23.4077 26.2827 23.4074 26.2827 23.4072C26.2827 23.4069 26.2827 23.4067 26.2827 23.4065C26.2827 23.4062 26.2827 23.406 26.2827 23.4057C26.2827 23.4055 26.2827 23.4053 26.2827 23.405C26.2827 23.4048 26.2827 23.4045 26.2827 23.4043C26.2827 23.4041 26.2827 23.4038 26.2827 23.4036C26.2827 23.4033 26.2827 23.4031 26.2827 23.4029C26.2827 23.4026 26.2827 23.4024 26.2827 23.4021C26.2827 23.4019 26.2827 23.4017 26.2827 23.4014C26.2827 23.4012 26.2827 23.4009 26.2827 23.4007C26.2827 23.4005 26.2827 23.4002 26.2827 23.4C26.2827 23.3997 26.2827 23.3995 26.2827 23.3993C26.2827 23.399 26.2827 23.3988 26.2827 23.3986C26.2827 23.3983 26.2827 23.3981 26.2827 23.3978C26.2827 23.3976 26.2827 23.3974 26.2827 23.3971C26.2827 23.3969 26.2827 23.3967 26.2827 23.3964C26.2827 23.3962 26.2827 23.3959 26.2827 23.3957C26.2827 23.3955 26.2827 23.3952 26.2827 23.395C26.2827 23.3948 26.2827 23.3945 26.2827 23.3943C26.2827 23.3941 26.2827 23.3938 26.2827 23.3936C26.2827 23.3933 26.2827 23.3931 26.2827 23.3929C26.2827 23.3926 26.2827 23.3924 26.2827 23.3922C26.2827 23.3919 26.2827 23.3917 26.2827 23.3915C26.2827 23.3912 26.2827 23.391 26.2827 23.3908C26.2827 23.3905 26.2827 23.3903 26.2827 23.3901C26.2827 23.3898 26.2827 23.3896 26.2827 23.3894C26.2827 23.3891 26.2827 23.3889 26.2827 23.3887C26.2827 23.3884 26.2827 23.3882 26.2827 23.388C26.2827 23.3877 26.2827 23.3875 26.2827 23.3873C26.2827 23.387 26.2827 23.3868 26.2827 23.3866C26.2827 23.3863 26.2827 23.3861 26.2827 23.3859C26.2827 23.3856 26.2827 23.3854 26.2827 23.3852C26.2827 23.3849 26.2827 23.3847 26.2827 23.3845C26.2827 23.3842 26.2827 23.384 26.2827 23.3838C26.2827 23.3836 26.2827 23.3833 26.2827 23.3831C26.2827 23.3829 26.2827 23.3826 26.2827 23.3824C26.2827 23.3822 26.2827 23.3819 26.2827 23.3817C26.2827 23.3815 26.2827 23.3812 26.2827 23.381C26.2827 23.3808 26.2827 23.3806 26.2827 23.3803C26.2827 23.3801 26.2827 23.3799 26.2827 23.3796C26.2827 23.3794 26.2827 23.3792 26.2827 23.379C26.2827 23.3787 26.2827 23.3785 26.2827 23.3783C26.2827 23.378 26.2827 23.3778 26.2827 23.3776C26.2827 23.3774 26.2827 23.3771 26.2827 23.3769C26.2827 23.3767 26.2827 23.3764 26.2827 23.3762C26.2827 23.376 26.2827 23.3758 26.2827 23.3755C26.2827 23.3753 26.2827 23.3751 26.2827 23.3748C26.2827 23.3746 26.2827 23.3744 26.2827 23.3742C26.2827 23.3739 26.2827 23.3737 26.2827 23.3735C26.2827 23.3733 26.2827 23.373 26.2827 23.3728C26.2827 23.3726 26.2827 23.3724 26.2827 23.3721C26.2827 23.3719 26.2827 23.3717 26.2827 23.3715C26.2827 23.3712 26.2827 23.371 26.2827 23.3708C26.2827 23.3706 26.2827 23.3703 26.2827 23.3701C26.2827 23.3699 26.2827 23.3697 26.2827 23.3694C26.2827 23.3692 26.2827 23.369 26.2827 23.3688C26.2827 23.3685 26.2827 23.3683 26.2827 23.3681C26.2827 23.3679 26.2827 23.3676 26.2827 23.3674C26.2827 23.3672 26.2827 23.367 26.2827 23.3667C26.2827 23.3665 26.2827 23.3663 26.2827 23.3661C26.2827 23.3659 26.2827 23.3656 26.2827 23.3654C26.2827 23.3652 26.2827 23.365 26.2827 23.3647C26.2827 23.3645 26.2827 23.3643 26.2827 23.3641C26.2827 23.3639 26.2827 23.3636 26.2827 23.3634C26.2827 23.3632 26.2827 23.363 26.2827 23.3627C26.2827 23.3625 26.2827 23.3623 26.2827 23.3621C26.2827 23.3619 26.2827 23.3616 26.2827 23.3614C26.2827 23.3612 26.2827 23.361 26.2827 23.3608C26.2827 23.3605 26.2827 23.3603 26.2827 23.3601C26.2827 23.3599 26.2827 23.3597 26.2827 23.3594C26.2827 23.3592 26.2827 23.359 26.2827 23.3588C26.2827 23.3586 26.2827 23.3583 26.2827 23.3581C26.2827 23.3579 26.2827 23.3577 26.2827 23.3575C26.2827 23.3572 26.2827 23.357 26.2827 23.3568C26.2827 23.3566 26.2827 23.3564 26.2827 23.3562C26.2827 23.3559 26.2827 23.3557 26.2827 23.3555C26.2827 23.3553 26.2827 23.3551 26.2827 23.3548C26.2827 23.3546 26.2827 23.3544 26.2827 23.3542C26.2827 23.354 26.2827 23.3538 26.2827 23.3535C26.2827 23.3533 26.2827 23.3531 26.2827 23.3529C26.2827 23.3527 26.2827 23.3525 26.2827 23.3522C26.2827 23.352 26.2827 23.3518 26.2827 23.3516C26.2827 23.3514 26.2827 23.3512 26.2827 23.351C26.2827 23.3507 26.2827 23.3505 26.2827 23.3503C26.2827 23.3501 26.2827 23.3499 26.2827 23.3497C26.2827 23.3494 26.2827 23.3492 26.2827 23.349C26.2827 23.3488 26.2827 23.3486 26.2827 23.3484C26.2827 23.3482 26.2827 23.3479 26.2827 23.3477C26.2827 23.3475 26.2827 23.3473 26.2827 23.3471C26.2827 23.3469 26.2827 23.3467 26.2827 23.3465C26.2827 23.3462 26.2827 23.346 26.2827 23.3458C26.2827 23.3456 26.2827 23.3454 26.2827 23.3452C26.2827 23.345 26.2827 23.3447 26.2827 23.3445C26.2827 23.3443 26.2827 23.3441 26.2827 23.3439C26.2827 23.3437 26.2827 23.3435 26.2827 23.3433C26.2827 23.3431 26.2827 23.3428 26.2827 23.3426C26.2827 23.3424 26.2827 23.3422 26.2827 23.342C26.2827 23.3418 26.2827 23.3416 26.2827 23.3414C26.2827 23.3412 26.2827 23.3409 26.2827 23.3407C26.2827 23.3405 26.2827 23.3403 26.2827 23.3401C26.2827 23.3399 26.2827 23.3397 26.2827 23.3395C26.2827 23.3393 26.2827 23.3391 26.2827 23.3388C26.2827 23.3386 26.2827 23.3384 26.2827 23.3382C26.2827 23.338 26.2827 23.3378 26.2827 23.3376C26.2827 23.3374 26.2827 23.3372 26.2827 23.337C26.2827 23.3368 26.2827 23.3365 26.2827 23.3363C26.2827 23.3361 26.2827 23.3359 26.2827 23.3357C26.2827 23.3355 26.2827 23.3353 26.2827 23.3351C26.2827 23.3349 26.2827 23.3347 26.2827 23.3345C26.2827 23.3343 26.2827 23.3341 26.2827 23.3338C26.2827 23.3336 26.2827 23.3334 26.2827 23.3332C26.2827 23.333 26.2827 23.3328 26.2827 23.3326C26.2827 23.3324 26.2827 23.3322 26.2827 23.332C26.2827 23.3318 26.2827 23.3316 26.2827 23.3314C26.2827 23.3312 26.2827 23.331 26.2827 23.3308C26.2827 23.3306 26.2827 23.3303 26.2827 23.3301C26.2827 23.3299 26.2827 23.3297 26.2827 23.3295C26.2827 23.3293 26.2827 23.3291 26.2827 23.3289C26.2827 23.3287 26.2827 23.3285 26.2827 23.3283C26.2827 23.3281 26.2827 23.3279 26.2827 23.3277C26.2827 23.3275 26.2827 23.3273 26.2827 23.3271C26.2827 23.3269 26.2827 23.3267 26.2827 23.3265C26.2827 23.3263 26.2827 23.3261 26.2827 23.3259C26.2827 23.3257 26.2827 23.3255 26.2827 23.3253C26.2827 23.3251 26.2827 23.3249 26.2827 23.3247C26.2827 23.3244 26.2827 23.3242 26.2827 23.324C26.2827 23.3238 26.2827 23.3236 26.2827 23.3234C26.2827 23.3232 26.2827 23.323 26.2827 23.3228C26.2827 23.3226 26.2827 23.3224 26.2827 23.3222C26.2827 23.322 26.2827 23.3218 26.2827 23.3216C26.2827 23.3214 26.2827 23.3212 26.2827 23.321C26.2827 23.3208 26.2827 23.3206 26.2827 23.3204C26.2827 23.3202 26.2827 23.32 26.2827 23.3198C26.2827 23.3196 26.2827 23.3194 26.2827 23.3192C26.2827 23.319 26.2827 23.3188 26.2827 23.3186C26.2827 23.3184 26.2827 23.3182 26.2827 23.318C26.2827 23.3178 26.2827 23.3176 26.2827 23.3174C26.2827 23.3172 26.2827 23.3171 26.2827 23.3169C26.2827 23.3167 26.2827 23.3165 26.2827 23.3163C26.2827 23.3161 26.2827 23.3159 26.2827 23.3157C26.2827 23.3155 26.2827 23.3153 26.2827 23.3151C26.2827 23.3149 26.2827 23.3147 26.2827 23.3145C26.2827 23.3143 26.2827 23.3141 26.2827 23.3139C26.2827 23.3137 26.2827 23.3135 26.2827 23.3133C26.2827 23.3131 26.2827 23.3129 26.2827 23.3127C26.2827 23.3125 26.2827 23.3123 26.2827 23.3121C26.2827 23.3119 26.2827 23.3117 26.2827 23.3116C26.2827 23.3114 26.2827 23.3112 26.2827 23.311C26.2827 23.3108 26.2827 23.3106 26.2827 23.3104C26.2827 23.3102 26.2827 23.31 26.2827 23.3098C26.2827 23.3096 26.2827 23.3094 26.2827 23.3092C26.2827 23.309 26.2827 23.3088 26.2827 23.3086C26.2827 23.3084 26.2827 23.3083 26.2827 23.3081C26.2827 23.3079 26.2827 23.3077 26.2827 23.3075C26.2827 23.3073 26.2827 23.3071 26.2827 23.3069C26.2827 23.3067 26.2827 23.3065 26.2827 23.3063C26.2827 23.3061 26.2827 23.3059 26.2827 23.3057C26.2827 23.3056 26.2827 23.3054 26.2827 23.3052C26.2827 23.305 26.2827 23.3048 26.2827 23.3046C26.2827 23.3044 26.2827 23.3042 26.2827 23.304C26.2827 23.3038 26.2827 23.3036 26.2827 23.3035C26.2827 23.3033 26.2827 23.3031 26.2827 23.3029C26.2827 23.3027 26.2827 23.3025 26.2827 23.3023C26.2827 23.3021 26.2827 23.3019 26.2827 23.3017C26.2827 23.3016 26.2827 23.3014 26.2827 23.3012C26.2827 23.301 26.2827 23.3008 26.2827 23.3006C26.2827 23.3004 26.2827 23.3002 26.2827 23.3C26.2827 23.2999 26.2827 23.2997 26.2827 23.2995C26.2827 23.2993 26.2827 23.2991 26.2827 23.2989C26.2827 23.2987 26.2827 23.2985 26.2827 23.2984C26.2827 23.2982 26.2827 23.298 26.2827 23.2978C26.2827 23.2976 26.2827 23.2974 26.2827 23.2972C26.2827 23.297 26.2827 23.2969 26.2827 23.2967C26.2827 23.2965 26.2827 23.2963 26.2827 23.2961C26.2827 23.2959 26.2827 23.2957 26.2827 23.2956C26.2827 23.2954 26.2827 23.2952 26.2827 23.295C26.2827 23.2948 26.2827 23.2946 26.2827 23.2944C26.2827 23.2943 26.2827 23.2941 26.2827 23.2939C26.2827 23.2937 26.2827 23.2935 26.2827 23.2933C26.2827 23.2931 26.2827 23.293 26.2827 23.2928C26.2827 23.2926 26.2827 23.2924 26.2827 23.2922C26.2827 23.292 26.2827 23.2919 26.2827 23.2917C26.2827 23.2915 26.2827 23.2913 26.2827 23.2911C26.2827 23.2909 26.2827 23.2908 26.2827 23.2906C26.2827 23.2904 26.2827 23.2902 26.2827 23.29C26.2827 23.2898 26.2827 23.2897 26.2827 23.2895C26.2827 23.2893 26.2827 23.2891 26.2827 23.2889C26.2827 23.2887 26.2827 23.2886 26.2827 23.2884C26.2827 23.2882 26.2827 23.288 26.2827 23.2878C26.2827 23.2877 26.2827 23.2875 26.2827 23.2873C26.2827 23.2871 26.2827 23.2869 26.2827 23.2867C26.2827 23.2866 26.2827 23.2864 26.2827 23.2862C26.2827 23.286 26.2827 23.2858 26.2827 23.2857C26.2827 23.2855 26.2827 23.2853 26.2827 23.2851C26.2827 23.2849 26.2827 23.2848 26.2827 23.2846C26.2827 23.2844 26.2827 23.2842 26.2827 23.284C26.2827 23.2839 26.2827 23.2837 26.2827 23.2835C26.2827 23.2833 26.2827 23.2831 26.2827 23.283C26.2827 23.2828 26.2827 23.2826 26.2827 23.2824C26.2827 23.2823 26.2827 23.2821 26.2827 23.2819C26.2827 23.2817 26.2827 23.2815 26.2827 23.2814C26.2827 23.2812 26.2827 23.281 26.2827 23.2808C26.2827 23.2807 26.2827 23.2805 26.2827 23.2803C26.2827 23.2801 26.2827 23.2799 26.2827 23.2798C26.2827 23.2796 26.2827 23.2794 26.2827 23.2792C26.2827 23.2791 26.2827 23.2789 26.2827 23.2787C26.2827 23.2785 26.2827 23.2784 26.2827 23.2782C26.2827 23.278 26.2827 23.2778 26.2827 23.2777C26.2827 23.2775 26.2827 23.2773 26.2827 23.2771C26.2827 23.277 26.2827 23.2768 26.2827 23.2766C26.2827 23.2764 26.2827 23.2763 26.2827 23.2761C26.2827 23.2759 26.2827 23.2757 26.2827 23.2756C26.2827 23.2754 26.2827 23.2752 26.2827 23.275C26.2827 23.2749 26.2827 23.2747 26.2827 23.2745C26.2827 23.2743 26.2827 23.2742 26.2827 23.274H22.2827C22.2827 23.2742 22.2827 23.2743 22.2827 23.2745C22.2827 23.2747 22.2827 23.2749 22.2827 23.275C22.2827 23.2752 22.2827 23.2754 22.2827 23.2756C22.2827 23.2757 22.2827 23.2759 22.2827 23.2761C22.2827 23.2763 22.2827 23.2764 22.2827 23.2766C22.2827 23.2768 22.2827 23.277 22.2827 23.2771C22.2827 23.2773 22.2827 23.2775 22.2827 23.2777C22.2827 23.2778 22.2827 23.278 22.2827 23.2782C22.2827 23.2784 22.2827 23.2785 22.2827 23.2787C22.2827 23.2789 22.2827 23.2791 22.2827 23.2792C22.2827 23.2794 22.2827 23.2796 22.2827 23.2798C22.2827 23.2799 22.2827 23.2801 22.2827 23.2803C22.2827 23.2805 22.2827 23.2807 22.2827 23.2808C22.2827 23.281 22.2827 23.2812 22.2827 23.2814C22.2827 23.2815 22.2827 23.2817 22.2827 23.2819C22.2827 23.2821 22.2827 23.2823 22.2827 23.2824C22.2827 23.2826 22.2827 23.2828 22.2827 23.283C22.2827 23.2831 22.2827 23.2833 22.2827 23.2835C22.2827 23.2837 22.2827 23.2839 22.2827 23.284C22.2827 23.2842 22.2827 23.2844 22.2827 23.2846C22.2827 23.2848 22.2827 23.2849 22.2827 23.2851C22.2827 23.2853 22.2827 23.2855 22.2827 23.2857C22.2827 23.2858 22.2827 23.286 22.2827 23.2862C22.2827 23.2864 22.2827 23.2866 22.2827 23.2867C22.2827 23.2869 22.2827 23.2871 22.2827 23.2873C22.2827 23.2875 22.2827 23.2877 22.2827 23.2878C22.2827 23.288 22.2827 23.2882 22.2827 23.2884C22.2827 23.2886 22.2827 23.2887 22.2827 23.2889C22.2827 23.2891 22.2827 23.2893 22.2827 23.2895C22.2827 23.2897 22.2827 23.2898 22.2827 23.29C22.2827 23.2902 22.2827 23.2904 22.2827 23.2906C22.2827 23.2908 22.2827 23.2909 22.2827 23.2911C22.2827 23.2913 22.2827 23.2915 22.2827 23.2917C22.2827 23.2919 22.2827 23.292 22.2827 23.2922C22.2827 23.2924 22.2827 23.2926 22.2827 23.2928C22.2827 23.293 22.2827 23.2931 22.2827 23.2933C22.2827 23.2935 22.2827 23.2937 22.2827 23.2939C22.2827 23.2941 22.2827 23.2943 22.2827 23.2944C22.2827 23.2946 22.2827 23.2948 22.2827 23.295C22.2827 23.2952 22.2827 23.2954 22.2827 23.2956C22.2827 23.2957 22.2827 23.2959 22.2827 23.2961C22.2827 23.2963 22.2827 23.2965 22.2827 23.2967C22.2827 23.2969 22.2827 23.297 22.2827 23.2972C22.2827 23.2974 22.2827 23.2976 22.2827 23.2978C22.2827 23.298 22.2827 23.2982 22.2827 23.2984C22.2827 23.2985 22.2827 23.2987 22.2827 23.2989C22.2827 23.2991 22.2827 23.2993 22.2827 23.2995C22.2827 23.2997 22.2827 23.2999 22.2827 23.3C22.2827 23.3002 22.2827 23.3004 22.2827 23.3006C22.2827 23.3008 22.2827 23.301 22.2827 23.3012C22.2827 23.3014 22.2827 23.3016 22.2827 23.3017C22.2827 23.3019 22.2827 23.3021 22.2827 23.3023C22.2827 23.3025 22.2827 23.3027 22.2827 23.3029C22.2827 23.3031 22.2827 23.3033 22.2827 23.3035C22.2827 23.3036 22.2827 23.3038 22.2827 23.304C22.2827 23.3042 22.2827 23.3044 22.2827 23.3046C22.2827 23.3048 22.2827 23.305 22.2827 23.3052C22.2827 23.3054 22.2827 23.3056 22.2827 23.3057C22.2827 23.3059 22.2827 23.3061 22.2827 23.3063C22.2827 23.3065 22.2827 23.3067 22.2827 23.3069C22.2827 23.3071 22.2827 23.3073 22.2827 23.3075C22.2827 23.3077 22.2827 23.3079 22.2827 23.3081C22.2827 23.3083 22.2827 23.3084 22.2827 23.3086C22.2827 23.3088 22.2827 23.309 22.2827 23.3092C22.2827 23.3094 22.2827 23.3096 22.2827 23.3098C22.2827 23.31 22.2827 23.3102 22.2827 23.3104C22.2827 23.3106 22.2827 23.3108 22.2827 23.311C22.2827 23.3112 22.2827 23.3114 22.2827 23.3116C22.2827 23.3117 22.2827 23.3119 22.2827 23.3121C22.2827 23.3123 22.2827 23.3125 22.2827 23.3127C22.2827 23.3129 22.2827 23.3131 22.2827 23.3133C22.2827 23.3135 22.2827 23.3137 22.2827 23.3139C22.2827 23.3141 22.2827 23.3143 22.2827 23.3145C22.2827 23.3147 22.2827 23.3149 22.2827 23.3151C22.2827 23.3153 22.2827 23.3155 22.2827 23.3157C22.2827 23.3159 22.2827 23.3161 22.2827 23.3163C22.2827 23.3165 22.2827 23.3167 22.2827 23.3169C22.2827 23.3171 22.2827 23.3172 22.2827 23.3174C22.2827 23.3176 22.2827 23.3178 22.2827 23.318C22.2827 23.3182 22.2827 23.3184 22.2827 23.3186C22.2827 23.3188 22.2827 23.319 22.2827 23.3192C22.2827 23.3194 22.2827 23.3196 22.2827 23.3198C22.2827 23.32 22.2827 23.3202 22.2827 23.3204C22.2827 23.3206 22.2827 23.3208 22.2827 23.321C22.2827 23.3212 22.2827 23.3214 22.2827 23.3216C22.2827 23.3218 22.2827 23.322 22.2827 23.3222C22.2827 23.3224 22.2827 23.3226 22.2827 23.3228C22.2827 23.323 22.2827 23.3232 22.2827 23.3234C22.2827 23.3236 22.2827 23.3238 22.2827 23.324C22.2827 23.3242 22.2827 23.3244 22.2827 23.3247C22.2827 23.3249 22.2827 23.3251 22.2827 23.3253C22.2827 23.3255 22.2827 23.3257 22.2827 23.3259C22.2827 23.3261 22.2827 23.3263 22.2827 23.3265C22.2827 23.3267 22.2827 23.3269 22.2827 23.3271C22.2827 23.3273 22.2827 23.3275 22.2827 23.3277C22.2827 23.3279 22.2827 23.3281 22.2827 23.3283C22.2827 23.3285 22.2827 23.3287 22.2827 23.3289C22.2827 23.3291 22.2827 23.3293 22.2827 23.3295C22.2827 23.3297 22.2827 23.3299 22.2827 23.3301C22.2827 23.3303 22.2827 23.3306 22.2827 23.3308C22.2827 23.331 22.2827 23.3312 22.2827 23.3314C22.2827 23.3316 22.2827 23.3318 22.2827 23.332C22.2827 23.3322 22.2827 23.3324 22.2827 23.3326C22.2827 23.3328 22.2827 23.333 22.2827 23.3332C22.2827 23.3334 22.2827 23.3336 22.2827 23.3338C22.2827 23.3341 22.2827 23.3343 22.2827 23.3345C22.2827 23.3347 22.2827 23.3349 22.2827 23.3351C22.2827 23.3353 22.2827 23.3355 22.2827 23.3357C22.2827 23.3359 22.2827 23.3361 22.2827 23.3363C22.2827 23.3365 22.2827 23.3368 22.2827 23.337C22.2827 23.3372 22.2827 23.3374 22.2827 23.3376C22.2827 23.3378 22.2827 23.338 22.2827 23.3382C22.2827 23.3384 22.2827 23.3386 22.2827 23.3388C22.2827 23.3391 22.2827 23.3393 22.2827 23.3395C22.2827 23.3397 22.2827 23.3399 22.2827 23.3401C22.2827 23.3403 22.2827 23.3405 22.2827 23.3407C22.2827 23.3409 22.2827 23.3412 22.2827 23.3414C22.2827 23.3416 22.2827 23.3418 22.2827 23.342C22.2827 23.3422 22.2827 23.3424 22.2827 23.3426C22.2827 23.3428 22.2827 23.3431 22.2827 23.3433C22.2827 23.3435 22.2827 23.3437 22.2827 23.3439C22.2827 23.3441 22.2827 23.3443 22.2827 23.3445C22.2827 23.3447 22.2827 23.345 22.2827 23.3452C22.2827 23.3454 22.2827 23.3456 22.2827 23.3458C22.2827 23.346 22.2827 23.3462 22.2827 23.3465C22.2827 23.3467 22.2827 23.3469 22.2827 23.3471C22.2827 23.3473 22.2827 23.3475 22.2827 23.3477C22.2827 23.3479 22.2827 23.3482 22.2827 23.3484C22.2827 23.3486 22.2827 23.3488 22.2827 23.349C22.2827 23.3492 22.2827 23.3494 22.2827 23.3497C22.2827 23.3499 22.2827 23.3501 22.2827 23.3503C22.2827 23.3505 22.2827 23.3507 22.2827 23.351C22.2827 23.3512 22.2827 23.3514 22.2827 23.3516C22.2827 23.3518 22.2827 23.352 22.2827 23.3522C22.2827 23.3525 22.2827 23.3527 22.2827 23.3529C22.2827 23.3531 22.2827 23.3533 22.2827 23.3535C22.2827 23.3538 22.2827 23.354 22.2827 23.3542C22.2827 23.3544 22.2827 23.3546 22.2827 23.3548C22.2827 23.3551 22.2827 23.3553 22.2827 23.3555C22.2827 23.3557 22.2827 23.3559 22.2827 23.3562C22.2827 23.3564 22.2827 23.3566 22.2827 23.3568C22.2827 23.357 22.2827 23.3572 22.2827 23.3575C22.2827 23.3577 22.2827 23.3579 22.2827 23.3581C22.2827 23.3583 22.2827 23.3586 22.2827 23.3588C22.2827 23.359 22.2827 23.3592 22.2827 23.3594C22.2827 23.3597 22.2827 23.3599 22.2827 23.3601C22.2827 23.3603 22.2827 23.3605 22.2827 23.3608C22.2827 23.361 22.2827 23.3612 22.2827 23.3614C22.2827 23.3616 22.2827 23.3619 22.2827 23.3621C22.2827 23.3623 22.2827 23.3625 22.2827 23.3627C22.2827 23.363 22.2827 23.3632 22.2827 23.3634C22.2827 23.3636 22.2827 23.3639 22.2827 23.3641C22.2827 23.3643 22.2827 23.3645 22.2827 23.3647C22.2827 23.365 22.2827 23.3652 22.2827 23.3654C22.2827 23.3656 22.2827 23.3659 22.2827 23.3661C22.2827 23.3663 22.2827 23.3665 22.2827 23.3667C22.2827 23.367 22.2827 23.3672 22.2827 23.3674C22.2827 23.3676 22.2827 23.3679 22.2827 23.3681C22.2827 23.3683 22.2827 23.3685 22.2827 23.3688C22.2827 23.369 22.2827 23.3692 22.2827 23.3694C22.2827 23.3697 22.2827 23.3699 22.2827 23.3701C22.2827 23.3703 22.2827 23.3706 22.2827 23.3708C22.2827 23.371 22.2827 23.3712 22.2827 23.3715C22.2827 23.3717 22.2827 23.3719 22.2827 23.3721C22.2827 23.3724 22.2827 23.3726 22.2827 23.3728C22.2827 23.373 22.2827 23.3733 22.2827 23.3735C22.2827 23.3737 22.2827 23.3739 22.2827 23.3742C22.2827 23.3744 22.2827 23.3746 22.2827 23.3748C22.2827 23.3751 22.2827 23.3753 22.2827 23.3755C22.2827 23.3758 22.2827 23.376 22.2827 23.3762C22.2827 23.3764 22.2827 23.3767 22.2827 23.3769C22.2827 23.3771 22.2827 23.3774 22.2827 23.3776C22.2827 23.3778 22.2827 23.378 22.2827 23.3783C22.2827 23.3785 22.2827 23.3787 22.2827 23.379C22.2827 23.3792 22.2827 23.3794 22.2827 23.3796C22.2827 23.3799 22.2827 23.3801 22.2827 23.3803C22.2827 23.3806 22.2827 23.3808 22.2827 23.381C22.2827 23.3812 22.2827 23.3815 22.2827 23.3817C22.2827 23.3819 22.2827 23.3822 22.2827 23.3824C22.2827 23.3826 22.2827 23.3829 22.2827 23.3831C22.2827 23.3833 22.2827 23.3836 22.2827 23.3838C22.2827 23.384 22.2827 23.3842 22.2827 23.3845C22.2827 23.3847 22.2827 23.3849 22.2827 23.3852C22.2827 23.3854 22.2827 23.3856 22.2827 23.3859C22.2827 23.3861 22.2827 23.3863 22.2827 23.3866C22.2827 23.3868 22.2827 23.387 22.2827 23.3873C22.2827 23.3875 22.2827 23.3877 22.2827 23.388C22.2827 23.3882 22.2827 23.3884 22.2827 23.3887C22.2827 23.3889 22.2827 23.3891 22.2827 23.3894C22.2827 23.3896 22.2827 23.3898 22.2827 23.3901C22.2827 23.3903 22.2827 23.3905 22.2827 23.3908C22.2827 23.391 22.2827 23.3912 22.2827 23.3915C22.2827 23.3917 22.2827 23.3919 22.2827 23.3922C22.2827 23.3924 22.2827 23.3926 22.2827 23.3929C22.2827 23.3931 22.2827 23.3933 22.2827 23.3936C22.2827 23.3938 22.2827 23.3941 22.2827 23.3943C22.2827 23.3945 22.2827 23.3948 22.2827 23.395C22.2827 23.3952 22.2827 23.3955 22.2827 23.3957C22.2827 23.3959 22.2827 23.3962 22.2827 23.3964C22.2827 23.3967 22.2827 23.3969 22.2827 23.3971C22.2827 23.3974 22.2827 23.3976 22.2827 23.3978C22.2827 23.3981 22.2827 23.3983 22.2827 23.3986C22.2827 23.3988 22.2827 23.399 22.2827 23.3993C22.2827 23.3995 22.2827 23.3997 22.2827 23.4C22.2827 23.4002 22.2827 23.4005 22.2827 23.4007C22.2827 23.4009 22.2827 23.4012 22.2827 23.4014C22.2827 23.4017 22.2827 23.4019 22.2827 23.4021C22.2827 23.4024 22.2827 23.4026 22.2827 23.4029C22.2827 23.4031 22.2827 23.4033 22.2827 23.4036C22.2827 23.4038 22.2827 23.4041 22.2827 23.4043C22.2827 23.4045 22.2827 23.4048 22.2827 23.405C22.2827 23.4053 22.2827 23.4055 22.2827 23.4057C22.2827 23.406 22.2827 23.4062 22.2827 23.4065C22.2827 23.4067 22.2827 23.4069 22.2827 23.4072C22.2827 23.4074 22.2827 23.4077 22.2827 23.4079C22.2827 23.4082 22.2827 23.4084 22.2827 23.4086C22.2827 23.4089 22.2827 23.4091 22.2827 23.4094C22.2827 23.4096 22.2827 23.4099 22.2827 23.4101C22.2827 23.4103 22.2827 23.4106 22.2827 23.4108C22.2827 23.4111 22.2827 23.4113 22.2827 23.4116C22.2827 23.4118 22.2827 23.412 22.2827 23.4123C22.2827 23.4125 22.2827 23.4128 22.2827 23.413C22.2827 23.4133 22.2827 23.4135 22.2827 23.4138C22.2827 23.414 22.2827 23.4142 22.2827 23.4145C22.2827 23.4147 22.2827 23.415 22.2827 23.4152C22.2827 23.4155 22.2827 23.4157 22.2827 23.416C22.2827 23.4162 22.2827 23.4165 22.2827 23.4167C22.2827 23.4169 22.2827 23.4172 22.2827 23.4174C22.2827 23.4177 22.2827 23.4179 22.2827 23.4182C22.2827 23.4184 22.2827 23.4187 22.2827 23.4189C22.2827 23.4192 22.2827 23.4194 22.2827 23.4197C22.2827 23.4199 22.2827 23.4202 22.2827 23.4204C22.2827 23.4206 22.2827 23.4209 22.2827 23.4211C22.2827 23.4214 22.2827 23.4216 22.2827 23.4219C22.2827 23.4221 22.2827 23.4224 22.2827 23.4226C22.2827 23.4229 22.2827 23.4231 22.2827 23.4234C22.2827 23.4236 22.2827 23.4239 22.2827 23.4241C22.2827 23.4244 22.2827 23.4246 22.2827 23.4249C22.2827 23.4251 22.2827 23.4254 22.2827 23.4256C22.2827 23.4259 22.2827 23.4261 22.2827 23.4264C22.2827 23.4266 22.2827 23.4269 22.2827 23.4271C22.2827 23.4274 22.2827 23.4276 22.2827 23.4279C22.2827 23.4281 22.2827 23.4284 22.2827 23.4286C22.2827 23.4289 22.2827 23.4291 22.2827 23.4294C22.2827 23.4296 22.2827 23.4299 22.2827 23.4301C22.2827 23.4304 22.2827 23.4306 22.2827 23.4309C22.2827 23.4311 22.2827 23.4314 22.2827 23.4316C22.2827 23.4319 22.2827 23.4322 22.2827 23.4324C22.2827 23.4327 22.2827 23.4329 22.2827 23.4332C22.2827 23.4334 22.2827 23.4337 22.2827 23.4339C22.2827 23.4342 22.2827 23.4344 22.2827 23.4347C22.2827 23.4349 22.2827 23.4352 22.2827 23.4354C22.2827 23.4357 22.2827 23.436 22.2827 23.4362C22.2827 23.4365 22.2827 23.4367 22.2827 23.437C22.2827 23.4372 22.2827 23.4375 22.2827 23.4377C22.2827 23.438 22.2827 23.4382 22.2827 23.4385C22.2827 23.4388 22.2827 23.439 22.2827 23.4393C22.2827 23.4395 22.2827 23.4398 22.2827 23.44C22.2827 23.4403 22.2827 23.4405 22.2827 23.4408C22.2827 23.4411 22.2827 23.4413 22.2827 23.4416C22.2827 23.4418 22.2827 23.4421 22.2827 23.4423C22.2827 23.4426 22.2827 23.4429 22.2827 23.4431C22.2827 23.4434 22.2827 23.4436 22.2827 23.4439C22.2827 23.4441 22.2827 23.4444 22.2827 23.4447C22.2827 23.4449 22.2827 23.4452 22.2827 23.4454C22.2827 23.4457 22.2827 23.4459 22.2827 23.4462C22.2827 23.4465 22.2827 23.4467 22.2827 23.447C22.2827 23.4472 22.2827 23.4475 22.2827 23.4478C22.2827 23.448 22.2827 23.4483 22.2827 23.4485C22.2827 23.4488 22.2827 23.4491 22.2827 23.4493C22.2827 23.4496 22.2827 23.4498 22.2827 23.4501C22.2827 23.4504 22.2827 23.4506 22.2827 23.4509C22.2827 23.4511 22.2827 23.4514 22.2827 23.4517C22.2827 23.4519 22.2827 23.4522 22.2827 23.4524C22.2827 23.4527 22.2827 23.453 22.2827 23.4532C22.2827 23.4535 22.2827 23.4537 22.2827 23.454C22.2827 23.4543 22.2827 23.4545 22.2827 23.4548C22.2827 23.4551 22.2827 23.4553 22.2827 23.4556C22.2827 23.4558 22.2827 23.4561 22.2827 23.4564C22.2827 23.4566 22.2827 23.4569 22.2827 23.4572C22.2827 23.4574 22.2827 23.4577 22.2827 23.4579C22.2827 23.4582 22.2827 23.4585 22.2827 23.4587C22.2827 23.459 22.2827 23.4593 22.2827 23.4595C22.2827 23.4598 22.2827 23.46 22.2827 23.4603C22.2827 23.4606 22.2827 23.4608 22.2827 23.4611C22.2827 23.4614 22.2827 23.4616 22.2827 23.4619C22.2827 23.4622 22.2827 23.4624 22.2827 23.4627C22.2827 23.463 22.2827 23.4632 22.2827 23.4635C22.2827 23.4638 22.2827 23.464 22.2827 23.4643C22.2827 23.4646 22.2827 23.4648 22.2827 23.4651C22.2827 23.4654 22.2827 23.4656 22.2827 23.4659C22.2827 23.4662 22.2827 23.4664 22.2827 23.4667C22.2827 23.467 22.2827 23.4672 22.2827 23.4675C22.2827 23.4678 22.2827 23.468 22.2827 23.4683C22.2827 23.4686 22.2827 23.4688 22.2827 23.4691C22.2827 23.4694 22.2827 23.4696 22.2827 23.4699C22.2827 23.4702 22.2827 23.4704 22.2827 23.4707C22.2827 23.471 22.2827 23.4712 22.2827 23.4715C22.2827 23.4718 22.2827 23.472 22.2827 23.4723C22.2827 23.4726 22.2827 23.4728 22.2827 23.4731C22.2827 23.4734 22.2827 23.4737 22.2827 23.4739C22.2827 23.4742 22.2827 23.4745 22.2827 23.4747C22.2827 23.475 22.2827 23.4753 22.2827 23.4755C22.2827 23.4758 22.2827 23.4761 22.2827 23.4764C22.2827 23.4766 22.2827 23.4769 22.2827 23.4772C22.2827 23.4774 22.2827 23.4777 22.2827 23.478C22.2827 23.4783 22.2827 23.4785 22.2827 23.4788C22.2827 23.4791 22.2827 23.4793 22.2827 23.4796C22.2827 23.4799 22.2827 23.4802 22.2827 23.4804C22.2827 23.4807 22.2827 23.481 22.2827 23.4812C22.2827 23.4815 22.2827 23.4818 22.2827 23.4821C22.2827 23.4823 22.2827 23.4826 22.2827 23.4829C22.2827 23.4832 22.2827 23.4834 22.2827 23.4837C22.2827 23.484 22.2827 23.4842 22.2827 23.4845C22.2827 23.4848 22.2827 23.4851 22.2827 23.4853C22.2827 23.4856 22.2827 23.4859 22.2827 23.4862C22.2827 23.4864 22.2827 23.4867 22.2827 23.487C22.2827 23.4873 22.2827 23.4875 22.2827 23.4878C22.2827 23.4881 22.2827 23.4884 22.2827 23.4886C22.2827 23.4889 22.2827 23.4892 22.2827 23.4895C22.2827 23.4897 22.2827 23.49 22.2827 23.4903C22.2827 23.4906 22.2827 23.4908 22.2827 23.4911C22.2827 23.4914 22.2827 23.4917 22.2827 23.492C22.2827 23.4922 22.2827 23.4925 22.2827 23.4928C22.2827 23.4931 22.2827 23.4933 22.2827 23.4936C22.2827 23.4939 22.2827 23.4942 22.2827 23.4944C22.2827 23.4947 22.2827 23.495 22.2827 23.4953C22.2827 23.4956 22.2827 23.4958 22.2827 23.4961C22.2827 23.4964 22.2827 23.4967 22.2827 23.497C22.2827 23.4972 22.2827 23.4975 22.2827 23.4978C22.2827 23.4981 22.2827 23.4983 22.2827 23.4986C22.2827 23.4989 22.2827 23.4992 22.2827 23.4995C22.2827 23.4997 22.2827 23.5 22.2827 23.5003C22.2827 23.5006 22.2827 23.5009 22.2827 23.5011C22.2827 23.5014 22.2827 23.5017 22.2827 23.502C22.2827 23.5023 22.2827 23.5025 22.2827 23.5028C22.2827 23.5031 22.2827 23.5034 22.2827 23.5037C22.2827 23.504 22.2827 23.5042 22.2827 23.5045C22.2827 23.5048 22.2827 23.5051 22.2827 23.5054C22.2827 23.5056 22.2827 23.5059 22.2827 23.5062C22.2827 23.5065 22.2827 23.5068 22.2827 23.5071C22.2827 23.5073 22.2827 23.5076 22.2827 23.5079C22.2827 23.5082 22.2827 23.5085 22.2827 23.5087C22.2827 23.509 22.2827 23.5093 22.2827 23.5096C22.2827 23.5099 22.2827 23.5102 22.2827 23.5104C22.2827 23.5107 22.2827 23.511 22.2827 23.5113C22.2827 23.5116 22.2827 23.5119 22.2827 23.5122C22.2827 23.5124 22.2827 23.5127 22.2827 23.513C22.2827 23.5133 22.2827 23.5136 22.2827 23.5139C22.2827 23.5141 22.2827 23.5144 22.2827 23.5147C22.2827 23.515 22.2827 23.5153 22.2827 23.5156C22.2827 23.5159 22.2827 23.5161 22.2827 23.5164C22.2827 23.5167 22.2827 23.517 22.2827 23.5173C22.2827 23.5176 22.2827 23.5179 22.2827 23.5181C22.2827 23.5184 22.2827 23.5187 22.2827 23.519C22.2827 23.5193 22.2827 23.5196 22.2827 23.5199C22.2827 23.5202 22.2827 23.5204 22.2827 23.5207C22.2827 23.521 22.2827 23.5213 22.2827 23.5216C22.2827 23.5219 22.2827 23.5222 22.2827 23.5225C22.2827 23.5227 22.2827 23.523 22.2827 23.5233C22.2827 23.5236 22.2827 23.5239 22.2827 23.5242C22.2827 23.5245 22.2827 23.5248 22.2827 23.5251C22.2827 23.5253 22.2827 23.5256 22.2827 23.5259C22.2827 23.5262 22.2827 23.5265 22.2827 23.5268C22.2827 23.5271 22.2827 23.5274 22.2827 23.5277C22.2827 23.528 22.2827 23.5282 22.2827 23.5285C22.2827 23.5288 22.2827 23.5291 22.2827 23.5294C22.2827 23.5297 22.2827 23.53 22.2827 23.5303C22.2827 23.5306 22.2827 23.5309 22.2827 23.5312C22.2827 23.5314 22.2827 23.5317 22.2827 23.532C22.2827 23.5323 22.2827 23.5326 22.2827 23.5329C22.2827 23.5332 22.2827 23.5335 22.2827 23.5338C22.2827 23.5341 22.2827 23.5344 22.2827 23.5347C22.2827 23.535 22.2827 23.5352 22.2827 23.5355C22.2827 23.5358 22.2827 23.5361 22.2827 23.5364C22.2827 23.5367 22.2827 23.537 22.2827 23.5373C22.2827 23.5376 22.2827 23.5379 22.2827 23.5382C22.2827 23.5385 22.2827 23.5388 22.2827 23.5391C22.2827 23.5394 22.2827 23.5396 22.2827 23.5399C22.2827 23.5402 22.2827 23.5405 22.2827 23.5408C22.2827 23.5411 22.2827 23.5414 22.2827 23.5417C22.2827 23.542 22.2827 23.5423 22.2827 23.5426C22.2827 23.5429 22.2827 23.5432 22.2827 23.5435C22.2827 23.5438 22.2827 23.5441 22.2827 23.5444C22.2827 23.5447 22.2827 23.545 22.2827 23.5453C22.2827 23.5456 22.2827 23.5459 22.2827 23.5462C22.2827 23.5465 22.2827 23.5467 22.2827 23.547C22.2827 23.5473 22.2827 23.5476 22.2827 23.5479C22.2827 23.5482 22.2827 23.5485 22.2827 23.5488C22.2827 23.5491 22.2827 23.5494 22.2827 23.5497C22.2827 23.55 22.2827 23.5503 22.2827 23.5506C22.2827 23.5509 22.2827 23.5512 22.2827 23.5515C22.2827 23.5518 22.2827 23.5521 22.2827 23.5524C22.2827 23.5527 22.2827 23.553 22.2827 23.5533C22.2827 23.5536 22.2827 23.5539 22.2827 23.5542C22.2827 23.5545 22.2827 23.5548 22.2827 23.5551C22.2827 23.5554 22.2827 23.5557 22.2827 23.556C22.2827 23.5563 22.2827 23.5566 22.2827 23.5569C22.2827 23.5572 22.2827 23.5575 22.2827 23.5578C22.2827 23.5581 22.2827 23.5584 22.2827 23.5587C22.2827 23.559 22.2827 23.5593 22.2827 23.5596C22.2827 23.5599 22.2827 23.5602 22.2827 23.5605C22.2827 23.5608 22.2827 23.5611 22.2827 23.5614C22.2827 23.5617 22.2827 23.562 22.2827 23.5623C22.2827 23.5626 22.2827 23.5629 22.2827 23.5632C22.2827 23.5636 22.2827 23.5639 22.2827 23.5642C22.2827 23.5645 22.2827 23.5648 22.2827 23.5651C22.2827 23.5654 22.2827 23.5657 22.2827 23.566C22.2827 23.5663 22.2827 23.5666 22.2827 23.5669C22.2827 23.5672 22.2827 23.5675 22.2827 23.5678C22.2827 23.5681 22.2827 23.5684 22.2827 23.5687C22.2827 23.569 22.2827 23.5693 22.2827 23.5696C22.2827 23.5699 22.2827 23.5702 22.2827 23.5706C22.2827 23.5709 22.2827 23.5712 22.2827 23.5715C22.2827 23.5718 22.2827 23.5721 22.2827 23.5724C22.2827 23.5727 22.2827 23.573 22.2827 23.5733C22.2827 23.5736 22.2827 23.5739 22.2827 23.5742C22.2827 23.5745 22.2827 23.5748 22.2827 23.5751C22.2827 23.5755 22.2827 23.5758 22.2827 23.5761C22.2827 23.5764 22.2827 23.5767 22.2827 23.577C22.2827 23.5773 22.2827 23.5776 22.2827 23.5779C22.2827 23.5782 22.2827 23.5785 22.2827 23.5788C22.2827 23.5791 22.2827 23.5795 22.2827 23.5798C22.2827 23.5801 22.2827 23.5804 22.2827 23.5807C22.2827 23.581 22.2827 23.5813 22.2827 23.5816C22.2827 23.5819 22.2827 23.5822 22.2827 23.5825C22.2827 23.5829 22.2827 23.5832 22.2827 23.5835C22.2827 23.5838 22.2827 23.5841 22.2827 23.5844C22.2827 23.5847 22.2827 23.585 22.2827 23.5853C22.2827 23.5856 22.2827 23.586 22.2827 23.5863C22.2827 23.5866 22.2827 23.5869 22.2827 23.5872C22.2827 23.5875 22.2827 23.5878 22.2827 23.5881C22.2827 23.5885 22.2827 23.5888 22.2827 23.5891C22.2827 23.5894 22.2827 23.5897 22.2827 23.59C22.2827 23.5903 22.2827 23.5906 22.2827 23.5909C22.2827 23.5913 22.2827 23.5916 22.2827 23.5919C22.2827 23.5922 22.2827 23.5925 22.2827 23.5928C22.2827 23.5931 22.2827 23.5935 22.2827 23.5938C22.2827 23.5941 22.2827 23.5944 22.2827 23.5947C22.2827 23.595 22.2827 23.5953 22.2827 23.5956C22.2827 23.596 22.2827 23.5963 22.2827 23.5966C22.2827 23.5969 22.2827 23.5972 22.2827 23.5975C22.2827 23.5978 22.2827 23.5982 22.2827 23.5985C22.2827 23.5988 22.2827 23.5991 22.2827 23.5994C22.2827 23.5997 22.2827 23.6001 22.2827 23.6004C22.2827 23.6007 22.2827 23.601 22.2827 23.6013C22.2827 23.6016 22.2827 23.602 22.2827 23.6023C22.2827 23.6026 22.2827 23.6029 22.2827 23.6032C22.2827 23.6035 22.2827 23.6039 22.2827 23.6042C22.2827 23.6045 22.2827 23.6048 22.2827 23.6051C22.2827 23.6054 22.2827 23.6058 22.2827 23.6061C22.2827 23.6064 22.2827 23.6067 22.2827 23.607C22.2827 23.6073 22.2827 23.6077 22.2827 23.608C22.2827 23.6083 22.2827 23.6086 22.2827 23.6089C22.2827 23.6093 22.2827 23.6096 22.2827 23.6099C22.2827 23.6102 22.2827 23.6105 22.2827 23.6109C22.2827 23.6112 22.2827 23.6115 22.2827 23.6118C22.2827 23.6121 22.2827 23.6124 22.2827 23.6128C22.2827 23.6131 22.2827 23.6134 22.2827 23.6137C22.2827 23.614 22.2827 23.6144 22.2827 23.6147C22.2827 23.615 22.2827 23.6153 22.2827 23.6157C22.2827 23.616 22.2827 23.6163 22.2827 23.6166C22.2827 23.6169 22.2827 23.6173 22.2827 23.6176C22.2827 23.6179 22.2827 23.6182 22.2827 23.6185C22.2827 23.6189 22.2827 23.6192 22.2827 23.6195C22.2827 23.6198 22.2827 23.6202 22.2827 23.6205C22.2827 23.6208 22.2827 23.6211 22.2827 23.6214C22.2827 23.6218 22.2827 23.6221 22.2827 23.6224C22.2827 23.6227 22.2827 23.6231 22.2827 23.6234C22.2827 23.6237 22.2827 23.624 22.2827 23.6244C22.2827 23.6247 22.2827 23.625 22.2827 23.6253C22.2827 23.6257 22.2827 23.626 22.2827 23.6263C22.2827 23.6266 22.2827 23.6269 22.2827 23.6273C22.2827 23.6276 22.2827 23.6279 22.2827 23.6282C22.2827 23.6286 22.2827 23.6289 22.2827 23.6292C22.2827 23.6295 22.2827 23.6299 22.2827 23.6302C22.2827 23.6305 22.2827 23.6309 22.2827 23.6312C22.2827 23.6315 22.2827 23.6318 22.2827 23.6322C22.2827 23.6325 22.2827 23.6328 22.2827 23.6331C22.2827 23.6335 22.2827 23.6338 22.2827 23.6341C22.2827 23.6344 22.2827 23.6348 22.2827 23.6351C22.2827 23.6354 22.2827 23.6358 22.2827 23.6361C22.2827 23.6364 22.2827 23.6367 22.2827 23.6371C22.2827 23.6374 22.2827 23.6377 22.2827 23.638C22.2827 23.6384 22.2827 23.6387 22.2827 23.639C22.2827 23.6394 22.2827 23.6397 22.2827 23.64C22.2827 23.6403 22.2827 23.6407 22.2827 23.641C22.2827 23.6413 22.2827 23.6417 22.2827 23.642C22.2827 23.6423 22.2827 23.6427 22.2827 23.643C22.2827 23.6433 22.2827 23.6436 22.2827 23.644C22.2827 23.6443 22.2827 23.6446 22.2827 23.645C22.2827 23.6453 22.2827 23.6456 22.2827 23.646C22.2827 23.6463 22.2827 23.6466 22.2827 23.647C22.2827 23.6473 22.2827 23.6476 22.2827 23.6479C22.2827 23.6483 22.2827 23.6486 22.2827 23.6489C22.2827 23.6493 22.2827 23.6496 22.2827 23.6499C22.2827 23.6503 22.2827 23.6506 22.2827 23.6509C22.2827 23.6513 22.2827 23.6516 22.2827 23.6519C22.2827 23.6523 22.2827 23.6526 22.2827 23.6529C22.2827 23.6533 22.2827 23.6536 22.2827 23.6539C22.2827 23.6543 22.2827 23.6546 22.2827 23.6549C22.2827 23.6553 22.2827 23.6556 22.2827 23.6559C22.2827 23.6563 22.2827 23.6566 22.2827 23.6569C22.2827 23.6573 22.2827 23.6576 22.2827 23.6579C22.2827 23.6583 22.2827 23.6586 22.2827 23.6589C22.2827 23.6593 22.2827 23.6596 22.2827 23.6599C22.2827 23.6603 22.2827 23.6606 22.2827 23.661C22.2827 23.6613 22.2827 23.6616 22.2827 23.662C22.2827 23.6623 22.2827 23.6626 22.2827 23.663C22.2827 23.6633 22.2827 23.6636 22.2827 23.664C22.2827 23.6643 22.2827 23.6647 22.2827 23.665C22.2827 23.6653 22.2827 23.6657 22.2827 23.666H26.2827ZM26.2827 23.274V21.44H22.2827V23.274H26.2827ZM24.2827 23.44H25.9907V19.44H24.2827V23.44ZM23.9907 21.44V23.274H27.9907V21.44H23.9907ZM23.9907 23.274C23.9907 23.4245 23.9971 23.6136 24.0068 23.8219L28.0025 23.6361C27.9935 23.4431 27.9907 23.3289 27.9907 23.274H23.9907ZM24.0069 23.8241C24.0216 24.1314 24.0617 24.4357 24.1261 24.7361L28.0373 23.8979C28.0176 23.8063 28.0064 23.7186 28.0024 23.6339L24.0069 23.8241ZM24.1358 24.7791C24.298 25.4622 24.6549 26.2108 25.375 26.7437L27.7543 23.5283C27.8723 23.6156 27.9485 23.7127 27.9916 23.7858C28.0316 23.8535 28.035 23.8863 28.0275 23.8549L24.1358 24.7791ZM25.375 26.7437C26.0854 27.2694 26.9048 27.395 27.5657 27.395V23.395C27.4762 23.395 27.4583 23.3856 27.4909 23.394C27.5269 23.4033 27.6299 23.4362 27.7543 23.5283L25.375 26.7437ZM27.5657 27.395C28.0732 27.395 28.5979 27.3285 29.1077 27.1524L27.8016 23.3716C27.7981 23.3728 27.7301 23.395 27.5657 23.395V27.395ZM29.1077 27.1524C29.5237 27.0087 29.9399 26.8052 30.319 26.5159L27.8923 23.3361C27.9167 23.3175 27.8989 23.338 27.8016 23.3716L29.1077 27.1524ZM31.1057 24.926V21.44H27.1057V24.926H31.1057ZM29.1057 23.44H30.7997V19.44H29.1057V23.44ZM28.7997 21.44V29H32.7997V21.44H28.7997ZM30.7997 27H29.1057V31H30.7997V27Z" fill="#021523" mask="url(#path-3-outside-1_1_2336)"/>
</g>
<defs>
<clipPath id="clip0_1_2336">
<rect width="34" height="30" fill="white"/>
</clipPath>
</defs>
</svg>
