<svg width="38" height="30" viewBox="0 0 38 30" fill="none" xmlns="http://www.w3.org/2000/svg">
<g clip-path="url(#clip0_1_2342)">
<path d="M29.4113 0.193711C29.1878 -0.064164 28.8129 -0.0649765 28.5887 0.193711C26.4999 2.60465 24 6.88171 24 10.5C24 13.5327 26.243 16 29 16C31.757 16 34 13.5327 34 10.5C34 6.85106 31.4506 2.54746 29.4113 0.193711ZM29 14.75C26.8696 14.75 25.1364 12.8434 25.1364 10.5C25.1364 6.88471 27.9291 2.94387 29.0003 1.56546C30.0718 2.94265 32.8636 6.87887 32.8636 10.5C32.8636 12.8434 31.1304 14.75 29 14.75ZM29 12.25C29.8772 12.25 30.5909 11.4649 30.5909 10.5C30.5909 10.1548 30.8453 9.875 31.1591 9.875C31.4729 9.875 31.7273 10.1548 31.7273 10.5C31.7273 12.1542 30.5038 13.5 29 13.5C28.6862 13.5 28.4318 13.2202 28.4318 12.875C28.4318 12.5298 28.6862 12.25 29 12.25Z" fill="#FF6600"/>
<mask id="path-2-outside-1_1_2342" maskUnits="userSpaceOnUse" x="1" y="13" width="35" height="18" fill="black">
<rect fill="white" x="1" y="13" width="35" height="18"/>
<path d="M7.103 29.27C6.443 29.27 5.828 29.135 5.258 28.865C4.688 28.589 4.196 28.211 3.782 27.731C3.374 27.251 3.08 26.693 2.9 26.057L4.988 25.499C5.072 25.847 5.225 26.147 5.447 26.399C5.675 26.651 5.939 26.846 6.239 26.984C6.545 27.122 6.86 27.191 7.184 27.191C7.604 27.191 7.988 27.089 8.336 26.885C8.684 26.681 8.96 26.408 9.164 26.066C9.368 25.718 9.47 25.334 9.47 24.914C9.47 24.494 9.365 24.113 9.155 23.771C8.951 23.423 8.675 23.15 8.327 22.952C7.979 22.748 7.598 22.646 7.184 22.646C6.686 22.646 6.272 22.736 5.942 22.916C5.618 23.096 5.369 23.288 5.195 23.492L3.341 22.898L3.737 16.04H10.775V18.074H4.898L5.708 17.309L5.42 22.079L5.024 21.593C5.36 21.287 5.75 21.059 6.194 20.909C6.638 20.759 7.067 20.684 7.481 20.684C8.291 20.684 9.008 20.87 9.632 21.242C10.262 21.608 10.754 22.109 11.108 22.745C11.468 23.381 11.648 24.104 11.648 24.914C11.648 25.724 11.438 26.459 11.018 27.119C10.598 27.773 10.043 28.295 9.353 28.685C8.669 29.075 7.919 29.27 7.103 29.27ZM18.4689 29.27C17.5509 29.27 16.7409 29.075 16.0389 28.685C15.3369 28.289 14.7879 27.74 14.3919 27.038C14.0019 26.336 13.8069 25.526 13.8069 24.608V20.432C13.8069 19.514 14.0019 18.704 14.3919 18.002C14.7879 17.3 15.3369 16.754 16.0389 16.364C16.7409 15.968 17.5509 15.77 18.4689 15.77C19.3869 15.77 20.1939 15.968 20.8899 16.364C21.5919 16.754 22.1409 17.3 22.5369 18.002C22.9329 18.704 23.1309 19.514 23.1309 20.432V24.608C23.1309 25.526 22.9329 26.336 22.5369 27.038C22.1409 27.74 21.5919 28.289 20.8899 28.685C20.1939 29.075 19.3869 29.27 18.4689 29.27ZM18.4689 27.209C18.9249 27.209 19.3389 27.101 19.7109 26.885C20.0829 26.663 20.3769 26.369 20.5929 26.003C20.8089 25.631 20.9169 25.217 20.9169 24.761V20.27C20.9169 19.808 20.8089 19.394 20.5929 19.028C20.3769 18.656 20.0829 18.362 19.7109 18.146C19.3389 17.924 18.9249 17.813 18.4689 17.813C18.0129 17.813 17.5989 17.924 17.2269 18.146C16.8549 18.362 16.5609 18.656 16.3449 19.028C16.1289 19.394 16.0209 19.808 16.0209 20.27V24.761C16.0209 25.217 16.1289 25.631 16.3449 26.003C16.5609 26.369 16.8549 26.663 17.2269 26.885C17.5989 27.101 18.0129 27.209 18.4689 27.209ZM25.3605 29V21.44H26.7465L29.4555 26.662L32.1715 21.44H33.5505V29H31.9405V24.835L29.7915 29H29.1265L26.9775 24.835V29H25.3605Z"/>
</mask>
<path d="M7.103 29.27C6.443 29.27 5.828 29.135 5.258 28.865C4.688 28.589 4.196 28.211 3.782 27.731C3.374 27.251 3.08 26.693 2.9 26.057L4.988 25.499C5.072 25.847 5.225 26.147 5.447 26.399C5.675 26.651 5.939 26.846 6.239 26.984C6.545 27.122 6.86 27.191 7.184 27.191C7.604 27.191 7.988 27.089 8.336 26.885C8.684 26.681 8.96 26.408 9.164 26.066C9.368 25.718 9.47 25.334 9.47 24.914C9.47 24.494 9.365 24.113 9.155 23.771C8.951 23.423 8.675 23.15 8.327 22.952C7.979 22.748 7.598 22.646 7.184 22.646C6.686 22.646 6.272 22.736 5.942 22.916C5.618 23.096 5.369 23.288 5.195 23.492L3.341 22.898L3.737 16.04H10.775V18.074H4.898L5.708 17.309L5.42 22.079L5.024 21.593C5.36 21.287 5.75 21.059 6.194 20.909C6.638 20.759 7.067 20.684 7.481 20.684C8.291 20.684 9.008 20.87 9.632 21.242C10.262 21.608 10.754 22.109 11.108 22.745C11.468 23.381 11.648 24.104 11.648 24.914C11.648 25.724 11.438 26.459 11.018 27.119C10.598 27.773 10.043 28.295 9.353 28.685C8.669 29.075 7.919 29.27 7.103 29.27ZM18.4689 29.27C17.5509 29.27 16.7409 29.075 16.0389 28.685C15.3369 28.289 14.7879 27.74 14.3919 27.038C14.0019 26.336 13.8069 25.526 13.8069 24.608V20.432C13.8069 19.514 14.0019 18.704 14.3919 18.002C14.7879 17.3 15.3369 16.754 16.0389 16.364C16.7409 15.968 17.5509 15.77 18.4689 15.77C19.3869 15.77 20.1939 15.968 20.8899 16.364C21.5919 16.754 22.1409 17.3 22.5369 18.002C22.9329 18.704 23.1309 19.514 23.1309 20.432V24.608C23.1309 25.526 22.9329 26.336 22.5369 27.038C22.1409 27.74 21.5919 28.289 20.8899 28.685C20.1939 29.075 19.3869 29.27 18.4689 29.27ZM18.4689 27.209C18.9249 27.209 19.3389 27.101 19.7109 26.885C20.0829 26.663 20.3769 26.369 20.5929 26.003C20.8089 25.631 20.9169 25.217 20.9169 24.761V20.27C20.9169 19.808 20.8089 19.394 20.5929 19.028C20.3769 18.656 20.0829 18.362 19.7109 18.146C19.3389 17.924 18.9249 17.813 18.4689 17.813C18.0129 17.813 17.5989 17.924 17.2269 18.146C16.8549 18.362 16.5609 18.656 16.3449 19.028C16.1289 19.394 16.0209 19.808 16.0209 20.27V24.761C16.0209 25.217 16.1289 25.631 16.3449 26.003C16.5609 26.369 16.8549 26.663 17.2269 26.885C17.5989 27.101 18.0129 27.209 18.4689 27.209ZM25.3605 29V21.44H26.7465L29.4555 26.662L32.1715 21.44H33.5505V29H31.9405V24.835L29.7915 29H29.1265L26.9775 24.835V29H25.3605Z" fill="#FF6600"/>
<path d="M5.258 28.865L4.58974 30.2451L4.6016 30.2507L5.258 28.865ZM3.782 27.731L2.61366 28.7241L2.62089 28.7325L3.782 27.731ZM2.9 26.057L2.50412 24.5757L1.00089 24.9774L1.42462 26.4746L2.9 26.057ZM4.988 25.499L6.47853 25.1392L6.1099 23.612L4.59212 24.0177L4.988 25.499ZM5.447 26.399L4.29645 27.4126L4.30316 27.4202L4.30998 27.4277L5.447 26.399ZM6.239 26.984L5.59819 28.3771L5.60863 28.3818L6.239 26.984ZM8.336 26.885L9.11144 28.2078H9.11144L8.336 26.885ZM9.164 26.066L10.4809 26.8515L10.4868 26.8414L9.164 26.066ZM9.155 23.771L7.8322 24.5464L7.84013 24.56L7.84834 24.5733L9.155 23.771ZM8.327 22.952L7.55156 24.2748L7.56011 24.2798L7.56873 24.2847L8.327 22.952ZM5.942 22.916L5.20774 21.5699L5.19735 21.5756L5.942 22.916ZM5.195 23.492L4.72716 24.9522L5.69922 25.2637L6.36161 24.4871L5.195 23.492ZM3.341 22.898L1.81022 22.8096L1.74173 23.9957L2.87316 24.3582L3.341 22.898ZM3.737 16.04V14.5067H2.28965L2.20622 15.9516L3.737 16.04ZM10.775 16.04H12.3083V14.5067H10.775V16.04ZM10.775 18.074V19.6073H12.3083V18.074H10.775ZM4.898 18.074L3.84518 16.9592L1.04132 19.6073H4.898V18.074ZM5.708 17.309L7.23855 17.4014L7.47206 13.5339L4.65518 16.1942L5.708 17.309ZM5.42 22.079L4.23131 23.0476L6.7137 26.0941L6.95055 22.1714L5.42 22.079ZM5.024 21.593L3.99156 20.4593L2.91859 21.4365L3.83531 22.5616L5.024 21.593ZM6.194 20.909L5.70323 19.4563L5.70323 19.4563L6.194 20.909ZM9.632 21.242L8.84684 22.5591L8.85427 22.5635L8.86175 22.5678L9.632 21.242ZM11.108 22.745L9.76819 23.4907L9.77361 23.5003L11.108 22.745ZM11.018 27.119L12.3082 27.9476L12.3116 27.9422L11.018 27.119ZM9.353 28.685L8.59851 27.3501L8.59351 27.353L9.353 28.685ZM7.103 27.7367C6.65922 27.7367 6.26967 27.6476 5.9144 27.4793L4.6016 30.2507C5.38633 30.6224 6.22678 30.8033 7.103 30.8033V27.7367ZM5.92624 27.4849C5.54483 27.3003 5.22052 27.0512 4.94311 26.7295L2.62089 28.7325C3.17148 29.3708 3.83117 29.8777 4.58976 30.2451L5.92624 27.4849ZM4.95031 26.7379C4.69176 26.4338 4.4985 26.0745 4.37538 25.6394L1.42462 26.4746C1.6615 27.3115 2.05624 28.0682 2.61369 28.7241L4.95031 26.7379ZM3.29588 27.5383L5.38388 26.9803L4.59212 24.0177L2.50412 24.5757L3.29588 27.5383ZM3.49747 25.8588C3.636 26.4327 3.89883 26.9612 4.29645 27.4126L6.59755 25.3854C6.55117 25.3328 6.508 25.2613 6.47853 25.1392L3.49747 25.8588ZM4.30998 27.4277C4.67292 27.8289 5.10434 28.1498 5.59821 28.377L6.87979 25.591C6.77366 25.5422 6.67708 25.4731 6.58402 25.3703L4.30998 27.4277ZM5.60863 28.3818C6.10545 28.6058 6.63475 28.7243 7.184 28.7243V25.6577C7.08525 25.6577 6.98455 25.6382 6.86937 25.5862L5.60863 28.3818ZM7.184 28.7243C7.86488 28.7243 8.51836 28.5555 9.11144 28.2078L7.56056 25.5622C7.45764 25.6225 7.34312 25.6577 7.184 25.6577V28.7243ZM9.11144 28.2078C9.67927 27.8749 10.1427 27.4183 10.4809 26.8515L7.84714 25.2805C7.77726 25.3977 7.68873 25.4871 7.56056 25.5622L9.11144 28.2078ZM10.4868 26.8414C10.8345 26.2484 11.0033 25.5949 11.0033 24.914H7.93667C7.93667 25.0731 7.90153 25.1876 7.8412 25.2906L10.4868 26.8414ZM11.0033 24.914C11.0033 24.2246 10.8269 23.5635 10.4617 22.9687L7.84834 24.5733C7.90307 24.6625 7.93667 24.7634 7.93667 24.914H11.0033ZM10.4778 22.9956C10.1388 22.4173 9.66891 21.9514 9.08527 21.6193L7.56873 24.2847C7.68109 24.3486 7.76316 24.4287 7.8322 24.5464L10.4778 22.9956ZM9.10244 21.6292C8.51287 21.2836 7.86308 21.1127 7.184 21.1127V24.1793C7.33292 24.1793 7.44513 24.2124 7.55156 24.2748L9.10244 21.6292ZM7.184 21.1127C6.50981 21.1127 5.82433 21.2336 5.20776 21.5699L6.67624 24.2621C6.71967 24.2384 6.86219 24.1793 7.184 24.1793V21.1127ZM5.19735 21.5756C4.77006 21.813 4.35722 22.1114 4.02839 22.4969L6.36161 24.4871C6.38078 24.4646 6.46594 24.379 6.68665 24.2564L5.19735 21.5756ZM5.66284 22.0318L3.80884 21.4378L2.87316 24.3582L4.72716 24.9522L5.66284 22.0318ZM4.87178 22.9864L5.26778 16.1284L2.20622 15.9516L1.81022 22.8096L4.87178 22.9864ZM3.737 17.5733H10.775V14.5067H3.737V17.5733ZM9.24167 16.04V18.074H12.3083V16.04H9.24167ZM10.775 16.5407H4.898V19.6073H10.775V16.5407ZM5.95082 19.1888L6.76082 18.4238L4.65518 16.1942L3.84518 16.9592L5.95082 19.1888ZM4.17745 17.2166L3.88945 21.9866L6.95055 22.1714L7.23855 17.4014L4.17745 17.2166ZM6.60869 21.1104L6.21269 20.6244L3.83531 22.5616L4.23131 23.0476L6.60869 21.1104ZM6.05644 22.7267C6.23092 22.5678 6.435 22.4461 6.68477 22.3617L5.70323 19.4563C5.065 19.6719 4.48908 20.0062 3.99156 20.4593L6.05644 22.7267ZM6.68477 22.3617C6.99125 22.2581 7.25432 22.2173 7.481 22.2173V19.1507C6.87968 19.1507 6.28475 19.2599 5.70323 19.4563L6.68477 22.3617ZM7.481 22.2173C8.04718 22.2173 8.48681 22.3444 8.84684 22.5591L10.4172 19.9249C9.52919 19.3956 8.53482 19.1507 7.481 19.1507V22.2173ZM8.86175 22.5678C9.25342 22.7954 9.54855 23.0961 9.76822 23.4907L12.4478 21.9993C11.9594 21.1219 11.2706 20.4206 10.4022 19.9162L8.86175 22.5678ZM9.77361 23.5003C9.98947 23.8817 10.1147 24.3394 10.1147 24.914H13.1813C13.1813 23.8686 12.9465 22.8803 12.4424 21.9897L9.77361 23.5003ZM10.1147 24.914C10.1147 25.4433 9.98208 25.8908 9.72439 26.2958L12.3116 27.9422C12.8939 27.0272 13.1813 26.0047 13.1813 24.914H10.1147ZM9.72781 26.2904C9.44529 26.7304 9.07589 27.0803 8.59851 27.3501L10.1075 30.0199C11.0101 29.5097 11.7507 28.8156 12.3082 27.9476L9.72781 26.2904ZM8.59351 27.353C8.14951 27.6061 7.66275 27.7367 7.103 27.7367V30.8033C8.17525 30.8033 9.18849 30.5439 10.1125 30.017L8.59351 27.353ZM16.0389 28.685L15.2855 30.0205L15.2942 30.0254L16.0389 28.685ZM14.3919 27.038L13.0515 27.7827L13.0564 27.7914L14.3919 27.038ZM14.3919 18.002L13.0563 17.2486L13.0515 17.2573L14.3919 18.002ZM16.0389 16.364L16.7835 17.7044L16.7922 17.6995L16.0389 16.364ZM20.8899 16.364L20.1316 17.6967L20.1384 17.7006L20.1452 17.7044L20.8899 16.364ZM22.5369 18.002L21.2014 18.7554V18.7554L22.5369 18.002ZM22.5369 27.038L21.2014 26.2846L22.5369 27.038ZM20.8899 28.685L21.6394 30.0227L21.6432 30.0205L20.8899 28.685ZM19.7109 26.885L20.4808 28.211L20.4888 28.2064L20.4966 28.2017L19.7109 26.885ZM20.5929 26.003L21.9134 26.7823L21.9189 26.7729L20.5929 26.003ZM20.5929 19.028L19.2668 19.798L19.2724 19.8073L20.5929 19.028ZM19.7109 18.146L18.9251 19.4627L18.933 19.4674L18.9409 19.472L19.7109 18.146ZM17.2269 18.146L17.9968 19.472L18.0048 19.4674L18.0126 19.4627L17.2269 18.146ZM16.3449 19.028L17.6654 19.8073L17.6709 19.7979L16.3449 19.028ZM16.3449 26.003L15.0188 26.773L15.0244 26.7823L16.3449 26.003ZM17.2269 26.885L16.4411 28.2017L16.449 28.2064L16.4569 28.211L17.2269 26.885ZM18.4689 27.7367C17.7737 27.7367 17.2269 27.5909 16.7835 27.3446L15.2942 30.0254C16.2549 30.5591 17.3281 30.8033 18.4689 30.8033V27.7367ZM16.7922 27.3495C16.3337 27.0909 15.986 26.7432 15.7274 26.2846L13.0564 27.7914C13.5897 28.7368 14.34 29.4871 15.2855 30.0205L16.7922 27.3495ZM15.7322 26.2933C15.486 25.85 15.3402 25.3032 15.3402 24.608H12.2735C12.2735 25.7488 12.5178 26.822 13.0515 27.7827L15.7322 26.2933ZM15.3402 24.608V20.432H12.2735V24.608H15.3402ZM15.3402 20.432C15.3402 19.7368 15.486 19.19 15.7322 18.7467L13.0515 17.2573C12.5178 18.218 12.2735 19.2912 12.2735 20.432H15.3402ZM15.7274 18.7554C15.9849 18.2988 16.3298 17.9564 16.7835 17.7044L15.2942 15.0236C14.3439 15.5516 13.5909 16.3012 13.0564 17.2486L15.7274 18.7554ZM16.7922 17.6995C17.2339 17.4503 17.7776 17.3033 18.4689 17.3033V14.2367C17.3241 14.2367 16.2478 14.4857 15.2855 15.0285L16.7922 17.6995ZM18.4689 17.3033C19.1605 17.3033 19.6987 17.4504 20.1316 17.6967L21.6481 15.0313C20.689 14.4856 19.6133 14.2367 18.4689 14.2367V17.3033ZM20.1452 17.7044C20.5989 17.9564 20.9439 18.2988 21.2014 18.7554L23.8724 17.2486C23.3379 16.3012 22.5848 15.5516 21.6345 15.0236L20.1452 17.7044ZM21.2014 18.7554C21.4505 19.1971 21.5975 19.7407 21.5975 20.432H24.6642C24.6642 19.2873 24.4152 18.2109 23.8724 17.2486L21.2014 18.7554ZM21.5975 20.432V24.608H24.6642V20.432H21.5975ZM21.5975 24.608C21.5975 25.2993 21.4505 25.8429 21.2014 26.2846L23.8724 27.7914C24.4152 26.8291 24.6642 25.7527 24.6642 24.608H21.5975ZM21.2014 26.2846C20.9427 26.7432 20.595 27.0909 20.1365 27.3495L21.6432 30.0205C22.5887 29.4871 23.339 28.7368 23.8724 27.7914L21.2014 26.2846ZM20.1403 27.3474C19.7058 27.5908 19.1644 27.7367 18.4689 27.7367V30.8033C19.6094 30.8033 20.6819 30.5592 21.6394 30.0226L20.1403 27.3474ZM18.4689 28.7423C19.1784 28.7423 19.8608 28.571 20.4808 28.211L18.9409 25.559C18.817 25.631 18.6713 25.6757 18.4689 25.6757V28.7423ZM20.4966 28.2017C21.0846 27.8508 21.5643 27.3738 21.9134 26.7823L19.2724 25.2237C19.1894 25.3642 19.0811 25.4752 18.9251 25.5683L20.4966 28.2017ZM21.9189 26.7729C22.2789 26.1529 22.4502 25.4706 22.4502 24.761H19.3835C19.3835 24.9634 19.3388 25.1091 19.2669 25.2331L21.9189 26.7729ZM22.4502 24.761V20.27H19.3835V24.761H22.4502ZM22.4502 20.27C22.4502 19.5585 22.2807 18.8711 21.9134 18.2487L19.2724 19.8073C19.337 19.9169 19.3835 20.0575 19.3835 20.27H22.4502ZM21.9189 18.2581C21.569 17.6555 21.0834 17.1699 20.4808 16.82L18.9409 19.472C19.0824 19.5541 19.1847 19.6565 19.2669 19.7979L21.9189 18.2581ZM20.4966 16.8293C19.8744 16.4579 19.1864 16.2797 18.4689 16.2797V19.3463C18.6634 19.3463 18.8034 19.3901 18.9251 19.4627L20.4966 16.8293ZM18.4689 16.2797C17.7514 16.2797 17.0634 16.4579 16.4411 16.8293L18.0126 19.4627C18.1344 19.3901 18.2744 19.3463 18.4689 19.3463V16.2797ZM16.4569 16.82C15.8544 17.1699 15.3687 17.6555 15.0189 18.2581L17.6709 19.7979C17.753 19.6565 17.8554 19.5541 17.9968 19.472L16.4569 16.82ZM15.0244 18.2487C14.657 18.8711 14.4875 19.5585 14.4875 20.27H17.5542C17.5542 20.0575 17.6007 19.9169 17.6654 19.8073L15.0244 18.2487ZM14.4875 20.27V24.761H17.5542V20.27H14.4875ZM14.4875 24.761C14.4875 25.4706 14.6588 26.1529 15.0189 26.7729L17.6709 25.2331C17.5989 25.1091 17.5542 24.9634 17.5542 24.761H14.4875ZM15.0244 26.7823C15.3734 27.3738 15.8531 27.8508 16.4411 28.2017L18.0126 25.5683C17.8566 25.4752 17.7483 25.3642 17.6654 25.2237L15.0244 26.7823ZM16.4569 28.211C17.077 28.571 17.7593 28.7423 18.4689 28.7423V25.6757C18.2665 25.6757 18.1208 25.631 17.9968 25.559L16.4569 28.211ZM25.3605 29H23.8272V30.5333H25.3605V29ZM25.3605 21.44V19.9067H23.8272V21.44H25.3605ZM26.7465 21.44L28.1076 20.7339L27.6785 19.9067H26.7465V21.44ZM29.4555 26.662L28.0944 27.3681L29.4538 29.9884L30.8159 27.3695L29.4555 26.662ZM32.1715 21.44V19.9067H31.2407L30.8112 20.7325L32.1715 21.44ZM33.5505 21.44H35.0839V19.9067H33.5505V21.44ZM33.5505 29V30.5333H35.0839V29H33.5505ZM31.9405 29H30.4072V30.5333H31.9405V29ZM31.9405 24.835H33.4739L30.5779 24.1319L31.9405 24.835ZM29.7915 29V30.5333H30.7258L31.1542 29.7031L29.7915 29ZM29.1265 29L27.7639 29.7031L28.1923 30.5333H29.1265V29ZM26.9775 24.835L28.3402 24.1319L25.4442 24.835H26.9775ZM26.9775 29V30.5333H28.5109V29H26.9775ZM26.8939 29V21.44H23.8272V29H26.8939ZM25.3605 22.9733H26.7465V19.9067H25.3605V22.9733ZM25.3854 22.1461L28.0944 27.3681L30.8166 25.9559L28.1076 20.7339L25.3854 22.1461ZM30.8159 27.3695L33.5319 22.1475L30.8112 20.7325L28.0952 25.9545L30.8159 27.3695ZM32.1715 22.9733H33.5505V19.9067H32.1715V22.9733ZM32.0172 21.44V29H35.0839V21.44H32.0172ZM33.5505 27.4667H31.9405V30.5333H33.5505V27.4667ZM33.4739 29V24.835H30.4072V29H33.4739ZM30.5779 24.1319L28.4289 28.2969L31.1542 29.7031L33.3032 25.5381L30.5779 24.1319ZM29.7915 27.4667H29.1265V30.5333H29.7915V27.4667ZM30.4892 28.2969L28.3402 24.1319L25.6149 25.5381L27.7639 29.7031L30.4892 28.2969ZM25.4442 24.835V29H28.5109V24.835H25.4442ZM26.9775 27.4667H25.3605V30.5333H26.9775V27.4667Z" fill="#021523" mask="url(#path-2-outside-1_1_2342)"/>
</g>
<defs>
<clipPath id="clip0_1_2342">
<rect width="38" height="30" fill="white"/>
</clipPath>
</defs>
</svg>
