<svg width="30" height="30" viewBox="0 0 30 30" fill="none" xmlns="http://www.w3.org/2000/svg">
<g clip-path="url(#clip0_1_2357)">
<path d="M12.8231 15.44V4.82285C12.8231 3.54375 12.3149 2.31704 11.4105 1.41258C10.506 0.50812 9.2793 0 8.0002 0C6.7211 0 5.49439 0.50812 4.58993 1.41258C3.68547 2.31704 3.17735 3.54375 3.17735 4.82285V15.44C2.16603 16.1916 1.34481 17.1696 0.779486 18.2957C0.21416 19.4218 -0.0795527 20.6646 -0.0781198 21.9246C-0.0781198 26.3443 3.52305 29.9689 7.94219 30H8.00079C9.69893 29.9999 11.3539 29.4647 12.7305 28.4704C14.1071 27.4762 15.1355 26.0734 15.6694 24.4614C16.2034 22.8494 16.2158 21.1101 15.705 19.4907C15.1941 17.8712 14.1859 16.4539 12.8236 15.44H12.8231ZM8.0002 27.7734H7.95801C6.95966 27.7656 5.97987 27.5027 5.11176 27.0096C4.24364 26.5165 3.51603 25.8096 2.99806 24.9561C2.4801 24.1026 2.18897 23.1308 2.15236 22.1331C2.11575 21.1354 2.33486 20.1448 2.78887 19.2557C3.20067 18.4577 3.78854 17.7638 4.50801 17.2266L5.40391 16.5592V4.82285C5.40391 4.13427 5.67745 3.4739 6.16435 2.987C6.65125 2.5001 7.31162 2.22656 8.0002 2.22656C8.68878 2.22656 9.34916 2.5001 9.83605 2.987C10.323 3.4739 10.5965 4.13427 10.5965 4.82285V16.558L11.4924 17.2266C12.2118 17.764 12.7995 18.4581 13.2109 19.2563C13.6354 20.0808 13.8552 20.9954 13.852 21.9229C13.8496 23.474 13.2323 24.961 12.1354 26.0577C11.0384 27.1544 9.55136 27.7714 8.0002 27.7734Z" fill="#FF6600"/>
<path d="M9.05487 17.8473V8.79688C9.05487 8.51715 8.94375 8.24889 8.74596 8.0511C8.54817 7.85331 8.2799 7.74219 8.00018 7.74219C7.72046 7.74219 7.4522 7.85331 7.25441 8.0511C7.05661 8.24889 6.94549 8.51715 6.94549 8.79688V17.8473C5.954 18.1039 5.09011 18.7133 4.51569 19.5612C3.94127 20.4091 3.69574 21.4374 3.8251 22.4534C3.95446 23.4693 4.44984 24.4033 5.21841 25.0802C5.98698 25.7571 6.97601 26.1306 8.00018 26.1306C9.02435 26.1306 10.0134 25.7571 10.782 25.0802C11.5505 24.4033 12.0459 23.4693 12.1753 22.4534C12.3046 21.4374 12.0591 20.4091 11.4847 19.5612C10.9102 18.7133 10.0464 18.1039 9.05487 17.8473Z" fill="#FF6600"/>
<path d="M15.1885 5.85938H19.426C19.7057 5.85938 19.974 5.74826 20.1718 5.55046C20.3695 5.35267 20.4807 5.08441 20.4807 4.80469C20.4807 4.52497 20.3695 4.2567 20.1718 4.05891C19.974 3.86112 19.7057 3.75 19.426 3.75H15.1885C14.9088 3.75 14.6405 3.86112 14.4427 4.05891C14.2449 4.2567 14.1338 4.52497 14.1338 4.80469C14.1338 5.08441 14.2449 5.35267 14.4427 5.55046C14.6405 5.74826 14.9088 5.85938 15.1885 5.85938Z" fill="#FF6600"/>
<path d="M19.426 12.7891H15.1885C14.9088 12.7891 14.6405 12.9002 14.4427 13.098C14.2449 13.2958 14.1338 13.564 14.1338 13.8438C14.1338 14.1235 14.2449 14.3917 14.4427 14.5895C14.6405 14.7873 14.9088 14.8984 15.1885 14.8984H19.426C19.7057 14.8984 19.974 14.7873 20.1718 14.5895C20.3695 14.3917 20.4807 14.1235 20.4807 13.8438C20.4807 13.564 20.3695 13.2958 20.1718 13.098C19.974 12.9002 19.7057 12.7891 19.426 12.7891Z" fill="#FF6600"/>
<path d="M15.1885 10.3789H17.3078C17.5875 10.3789 17.8558 10.2678 18.0536 10.07C18.2514 9.8722 18.3625 9.60394 18.3625 9.32422C18.3625 9.0445 18.2514 8.77623 18.0536 8.57844C17.8558 8.38065 17.5875 8.26953 17.3078 8.26953H15.1885C15.05 8.26953 14.9128 8.29681 14.7849 8.34981C14.6569 8.40282 14.5406 8.48051 14.4427 8.57844C14.3448 8.67638 14.2671 8.79265 14.2141 8.92061C14.1611 9.04857 14.1338 9.18572 14.1338 9.32422C14.1338 9.46272 14.1611 9.59987 14.2141 9.72783C14.2671 9.85579 14.3448 9.97206 14.4427 10.07C14.5406 10.1679 14.6569 10.2456 14.7849 10.2986C14.9128 10.3516 15.05 10.3789 15.1885 10.3789Z" fill="#FF6600"/>
<mask id="path-6-outside-1_1_2357" maskUnits="userSpaceOnUse" x="17" y="14.5" width="12" height="17" fill="black">
<rect fill="white" x="17" y="14.5" width="12" height="17"/>
<path d="M22.922 29.77C22.004 29.77 21.194 29.575 20.492 29.185C19.79 28.789 19.241 28.24 18.845 27.538C18.455 26.836 18.26 26.026 18.26 25.108V20.932C18.26 20.014 18.455 19.204 18.845 18.502C19.241 17.8 19.79 17.254 20.492 16.864C21.194 16.468 22.004 16.27 22.922 16.27C23.84 16.27 24.647 16.468 25.343 16.864C26.045 17.254 26.594 17.8 26.99 18.502C27.386 19.204 27.584 20.014 27.584 20.932V25.108C27.584 26.026 27.386 26.836 26.99 27.538C26.594 28.24 26.045 28.789 25.343 29.185C24.647 29.575 23.84 29.77 22.922 29.77ZM22.922 27.709C23.378 27.709 23.792 27.601 24.164 27.385C24.536 27.163 24.83 26.869 25.046 26.503C25.262 26.131 25.37 25.717 25.37 25.261V20.77C25.37 20.308 25.262 19.894 25.046 19.528C24.83 19.156 24.536 18.862 24.164 18.646C23.792 18.424 23.378 18.313 22.922 18.313C22.466 18.313 22.052 18.424 21.68 18.646C21.308 18.862 21.014 19.156 20.798 19.528C20.582 19.894 20.474 20.308 20.474 20.77V25.261C20.474 25.717 20.582 26.131 20.798 26.503C21.014 26.869 21.308 27.163 21.68 27.385C22.052 27.601 22.466 27.709 22.922 27.709Z"/>
</mask>
<path d="M22.922 29.77C22.004 29.77 21.194 29.575 20.492 29.185C19.79 28.789 19.241 28.24 18.845 27.538C18.455 26.836 18.26 26.026 18.26 25.108V20.932C18.26 20.014 18.455 19.204 18.845 18.502C19.241 17.8 19.79 17.254 20.492 16.864C21.194 16.468 22.004 16.27 22.922 16.27C23.84 16.27 24.647 16.468 25.343 16.864C26.045 17.254 26.594 17.8 26.99 18.502C27.386 19.204 27.584 20.014 27.584 20.932V25.108C27.584 26.026 27.386 26.836 26.99 27.538C26.594 28.24 26.045 28.789 25.343 29.185C24.647 29.575 23.84 29.77 22.922 29.77ZM22.922 27.709C23.378 27.709 23.792 27.601 24.164 27.385C24.536 27.163 24.83 26.869 25.046 26.503C25.262 26.131 25.37 25.717 25.37 25.261V20.77C25.37 20.308 25.262 19.894 25.046 19.528C24.83 19.156 24.536 18.862 24.164 18.646C23.792 18.424 23.378 18.313 22.922 18.313C22.466 18.313 22.052 18.424 21.68 18.646C21.308 18.862 21.014 19.156 20.798 19.528C20.582 19.894 20.474 20.308 20.474 20.77V25.261C20.474 25.717 20.582 26.131 20.798 26.503C21.014 26.869 21.308 27.163 21.68 27.385C22.052 27.601 22.466 27.709 22.922 27.709Z" fill="#FF6600"/>
<path d="M20.492 29.185L19.927 30.1866L19.9335 30.1903L20.492 29.185ZM18.845 27.538L17.8397 28.0965L17.8434 28.103L18.845 27.538ZM18.845 18.502L17.8434 17.937L17.8397 17.9435L18.845 18.502ZM20.492 16.864L21.0505 17.8693L21.057 17.8656L20.492 16.864ZM25.343 16.864L24.7743 17.8636L24.7845 17.8693L25.343 16.864ZM26.99 18.502L25.9884 19.067V19.067L26.99 18.502ZM26.99 27.538L25.9884 26.973L26.99 27.538ZM25.343 29.185L25.9052 30.1882L25.908 30.1866L25.343 29.185ZM24.164 27.385L24.7415 28.3796L24.7533 28.3725L24.164 27.385ZM25.046 26.503L26.0364 27.0875L26.0405 27.0805L25.046 26.503ZM25.046 19.528L24.0515 20.1055L24.0556 20.1125L25.046 19.528ZM24.164 18.646L23.5746 19.6336L23.5865 19.6405L24.164 18.646ZM21.68 18.646L22.2575 19.6406L22.2693 19.6335L21.68 18.646ZM20.798 19.528L21.7884 20.1125L21.7925 20.1055L20.798 19.528ZM20.798 26.503L19.8035 27.0805L19.8076 27.0875L20.798 26.503ZM21.68 27.385L21.0906 28.3726L21.1025 28.3795L21.68 27.385ZM22.922 28.62C22.1711 28.62 21.5585 28.4619 21.0505 28.1797L19.9335 30.1903C20.8295 30.6881 21.8369 30.92 22.922 30.92V28.62ZM21.057 28.1834C20.5376 27.8904 20.1396 27.4924 19.8466 26.973L17.8434 28.103C18.3424 28.9876 19.0424 29.6876 19.927 30.1866L21.057 28.1834ZM19.8503 26.9795C19.5681 26.4715 19.41 25.8589 19.41 25.108H17.11C17.11 26.1931 17.3419 27.2005 17.8397 28.0965L19.8503 26.9795ZM19.41 25.108V20.932H17.11V25.108H19.41ZM19.41 20.932C19.41 20.1811 19.5681 19.5685 19.8503 19.0605L17.8397 17.9435C17.3419 18.8395 17.11 19.8469 17.11 20.932H19.41ZM19.8466 19.067C20.1388 18.5491 20.5347 18.1558 21.0505 17.8693L19.9335 15.8587C19.0453 16.3522 18.3432 17.0509 17.8434 17.937L19.8466 19.067ZM21.057 17.8656C21.5638 17.5797 22.174 17.42 22.922 17.42V15.12C21.834 15.12 20.8242 15.3563 19.927 15.8624L21.057 17.8656ZM22.922 17.42C23.6702 17.42 24.2756 17.5798 24.7743 17.8635L25.9117 15.8645C25.0184 15.3562 24.0098 15.12 22.922 15.12V17.42ZM24.7845 17.8693C25.3003 18.1558 25.6962 18.5491 25.9884 19.067L27.9916 17.937C27.4918 17.0509 26.7897 16.3522 25.9015 15.8587L24.7845 17.8693ZM25.9884 19.067C26.2743 19.5738 26.434 20.184 26.434 20.932H28.734C28.734 19.844 28.4977 18.8342 27.9916 17.937L25.9884 19.067ZM26.434 20.932V25.108H28.734V20.932H26.434ZM26.434 25.108C26.434 25.856 26.2743 26.4662 25.9884 26.973L27.9916 28.103C28.4977 27.2058 28.734 26.196 28.734 25.108H26.434ZM25.9884 26.973C25.6954 27.4924 25.2974 27.8904 24.778 28.1834L25.908 30.1866C26.7926 29.6876 27.4926 28.9876 27.9916 28.103L25.9884 26.973ZM24.7808 28.1818C24.281 28.4619 23.6731 28.62 22.922 28.62V30.92C24.0069 30.92 25.013 30.6881 25.9052 30.1882L24.7808 28.1818ZM22.922 28.859C23.5682 28.859 24.1834 28.7035 24.7415 28.3795L23.5865 26.3905C23.4006 26.4985 23.1878 26.559 22.922 26.559V28.859ZM24.7533 28.3725C25.2873 28.0539 25.7206 27.6226 26.0364 27.0875L24.0556 25.9185C23.9394 26.1154 23.7847 26.2721 23.5747 26.3975L24.7533 28.3725ZM26.0405 27.0805C26.3645 26.5224 26.52 25.9072 26.52 25.261H24.22C24.22 25.5268 24.1595 25.7396 24.0515 25.9255L26.0405 27.0805ZM26.52 25.261V20.77H24.22V25.261H26.52ZM26.52 20.77C26.52 20.1209 26.3659 19.5018 26.0364 18.9435L24.0556 20.1125C24.1581 20.2862 24.22 20.4951 24.22 20.77H26.52ZM26.0405 18.9505C25.7241 18.4056 25.2864 17.9679 24.7415 17.6515L23.5865 19.6405C23.7856 19.7561 23.9359 19.9064 24.0515 20.1055L26.0405 18.9505ZM24.7533 17.6585C24.1936 17.3245 23.5741 17.163 22.922 17.163V19.463C23.1819 19.463 23.3904 19.5235 23.5747 19.6335L24.7533 17.6585ZM22.922 17.163C22.2699 17.163 21.6504 17.3245 21.0907 17.6585L22.2693 19.6335C22.4536 19.5235 22.6621 19.463 22.922 19.463V17.163ZM21.1025 17.6515C20.5576 17.9679 20.1199 18.4056 19.8035 18.9505L21.7925 20.1055C21.9081 19.9064 22.0584 19.7561 22.2575 19.6405L21.1025 17.6515ZM19.8076 18.9435C19.4781 19.5018 19.324 20.1209 19.324 20.77H21.624C21.624 20.4951 21.6859 20.2862 21.7884 20.1125L19.8076 18.9435ZM19.324 20.77V25.261H21.624V20.77H19.324ZM19.324 25.261C19.324 25.9072 19.4795 26.5224 19.8035 27.0805L21.7925 25.9255C21.6845 25.7396 21.624 25.5268 21.624 25.261H19.324ZM19.8076 27.0875C20.1234 27.6226 20.5567 28.0539 21.0907 28.3725L22.2693 26.3975C22.0593 26.2721 21.9046 26.1154 21.7884 25.9185L19.8076 27.0875ZM21.1025 28.3795C21.6606 28.7035 22.2758 28.859 22.922 28.859V26.559C22.6562 26.559 22.4434 26.4985 22.2575 26.3905L21.1025 28.3795Z" fill="#021523" mask="url(#path-6-outside-1_1_2357)"/>
<circle cx="28" cy="14" r="1.5" stroke="#FF6600"/>
</g>
<defs>
<clipPath id="clip0_1_2357">
<rect width="30" height="30" fill="white"/>
</clipPath>
</defs>
</svg>
