<svg width="30" height="30" viewBox="0 0 30 30" fill="none" xmlns="http://www.w3.org/2000/svg">
<g clip-path="url(#clip0_1_2346)">
<path d="M2.5 15.2383H23.125C24.2375 15.2383 25.3251 14.9084 26.2501 14.2903C27.1751 13.6722 27.8961 12.7937 28.3218 11.7659C28.7476 10.738 28.859 9.60704 28.6419 8.5159C28.4249 7.42476 27.8891 6.42248 27.1025 5.63581C26.3158 4.84914 25.3135 4.31341 24.2224 4.09637C23.1312 3.87932 22.0002 3.99072 20.9724 4.41646C19.9446 4.8422 19.0661 5.56317 18.448 6.4882C17.8299 7.41323 17.5 8.50076 17.5 9.61328V10.2383C17.5 10.5698 17.6317 10.8877 17.8661 11.1222C18.1005 11.3566 18.4185 11.4883 18.75 11.4883C19.0815 11.4883 19.3995 11.3566 19.6339 11.1222C19.8683 10.8877 20 10.5698 20 10.2383V9.61328C20 8.99522 20.1833 8.39103 20.5267 7.87713C20.87 7.36322 21.3581 6.96268 21.9291 6.72616C22.5001 6.48964 23.1285 6.42775 23.7347 6.54833C24.3409 6.66891 24.8977 6.96654 25.3347 7.40358C25.7717 7.84061 26.0694 8.39744 26.19 9.00363C26.3105 9.60982 26.2486 10.2382 26.0121 10.8092C25.7756 11.3802 25.3751 11.8682 24.8612 12.2116C24.3473 12.555 23.7431 12.7383 23.125 12.7383H2.5C2.16848 12.7383 1.85054 12.87 1.61612 13.1044C1.3817 13.3388 1.25 13.6568 1.25 13.9883C1.25 14.3198 1.3817 14.6377 1.61612 14.8722C1.85054 15.1066 2.16848 15.2383 2.5 15.2383Z" fill="#FF6600"/>
<path d="M2.5 11.4867H11.6375C12.5498 11.4867 13.4415 11.2162 14.2001 10.7094C14.9586 10.2025 15.5498 9.48217 15.8989 8.63935C16.248 7.79652 16.3393 6.8691 16.1614 5.97437C15.9834 5.07963 15.5441 4.25776 14.899 3.61269C14.254 2.96762 13.4321 2.52832 12.5374 2.35035C11.6426 2.17237 10.7152 2.26372 9.87237 2.61283C9.02955 2.96194 8.30917 3.55313 7.80235 4.31165C7.29552 5.07018 7.025 5.96196 7.025 6.87422V7.34922C7.025 7.68074 7.1567 7.99868 7.39112 8.2331C7.62554 8.46753 7.94348 8.59922 8.275 8.59922C8.60652 8.59922 8.92446 8.46753 9.15888 8.2331C9.3933 7.99868 9.525 7.68074 9.525 7.34922V6.87422C9.525 6.45641 9.6489 6.04798 9.88102 5.70058C10.1131 5.35318 10.4431 5.08242 10.8291 4.92253C11.2151 4.76264 11.6398 4.7208 12.0496 4.80231C12.4594 4.88382 12.8358 5.08502 13.1313 5.38046C13.4267 5.6759 13.6279 6.05231 13.7094 6.46209C13.7909 6.87188 13.7491 7.29663 13.5892 7.68264C13.4293 8.06865 13.1585 8.39858 12.8111 8.6307C12.4637 8.86283 12.0553 8.98672 11.6375 8.98672H2.5C2.16848 8.98672 1.85054 9.11842 1.61612 9.35284C1.3817 9.58726 1.25 9.9052 1.25 10.2367C1.25 10.5682 1.3817 10.8862 1.61612 11.1206C1.85054 11.355 2.16848 11.4867 2.5 11.4867Z" fill="#FF6600"/>
<mask id="path-3-outside-1_1_2346" maskUnits="userSpaceOnUse" x="-1" y="16.5" width="32" height="14" fill="black">
<rect fill="white" x="-1" y="16.5" width="32" height="14"/>
<path d="M3.726 28.6823C3.24 28.6823 2.781 28.5878 2.349 28.3987C1.917 28.2097 1.54125 27.942 1.22175 27.5955C0.90675 27.249 0.6795 26.8395 0.54 26.367L2.11275 25.9417C2.22525 26.3287 2.43 26.628 2.727 26.8395C3.0285 27.0465 3.35925 27.1477 3.71925 27.1432C4.03875 27.1432 4.3245 27.069 4.5765 26.9205C4.8285 26.772 5.0265 26.5717 5.1705 26.3197C5.3145 26.0632 5.3865 25.7775 5.3865 25.4625C5.3865 24.981 5.23125 24.5782 4.92075 24.2542C4.61025 23.9302 4.20975 23.7682 3.71925 23.7682C3.57075 23.7682 3.4245 23.7885 3.2805 23.829C3.141 23.8695 3.006 23.9257 2.8755 23.9977L2.133 22.7152L5.4 19.9207L5.54175 20.3122H0.918V18.78H6.87825V20.319L4.2525 22.8435L4.239 22.3642C4.8285 22.4047 5.33025 22.569 5.74425 22.857C6.16275 23.145 6.48225 23.5162 6.70275 23.9707C6.92775 24.4252 7.04025 24.9225 7.04025 25.4625C7.04025 26.0745 6.8895 26.6235 6.588 27.1095C6.291 27.5955 5.8905 27.9802 5.3865 28.2637C4.887 28.5428 4.3335 28.6823 3.726 28.6823ZM12.2857 28.7025C11.5972 28.7025 10.9897 28.5563 10.4632 28.2637C9.93674 27.9667 9.52499 27.555 9.22799 27.0285C8.93549 26.502 8.78924 25.8945 8.78924 25.206V22.074C8.78924 21.3855 8.93549 20.778 9.22799 20.2515C9.52499 19.725 9.93674 19.3155 10.4632 19.023C10.9897 18.726 11.5972 18.5775 12.2857 18.5775C12.9742 18.5775 13.5795 18.726 14.1015 19.023C14.628 19.3155 15.0397 19.725 15.3367 20.2515C15.6337 20.778 15.7822 21.3855 15.7822 22.074V25.206C15.7822 25.8945 15.6337 26.502 15.3367 27.0285C15.0397 27.555 14.628 27.9667 14.1015 28.2637C13.5795 28.5563 12.9742 28.7025 12.2857 28.7025ZM12.2857 27.1567C12.6277 27.1567 12.9382 27.0757 13.2172 26.9137C13.4962 26.7472 13.7167 26.5267 13.8787 26.2522C14.0407 25.9732 14.1217 25.6627 14.1217 25.3207V21.9525C14.1217 21.606 14.0407 21.2955 13.8787 21.021C13.7167 20.742 13.4962 20.5215 13.2172 20.3595C12.9382 20.193 12.6277 20.1097 12.2857 20.1097C11.9437 20.1097 11.6332 20.193 11.3542 20.3595C11.0752 20.5215 10.8547 20.742 10.6927 21.021C10.5307 21.2955 10.4497 21.606 10.4497 21.9525V25.3207C10.4497 25.6627 10.5307 25.9732 10.6927 26.2522C10.8547 26.5267 11.0752 26.7472 11.3542 26.9137C11.6332 27.0757 11.9437 27.1567 12.2857 27.1567ZM17.4545 28.5L17.465 22.83H18.746V25.56L20.8197 22.83H22.4L20.2002 25.665L22.589 28.5H20.9142L18.746 25.77V28.5H17.4545ZM23.1044 28.5V22.83H24.1439L26.1756 26.7465L28.2126 22.83H29.2469V28.5H28.0394V25.3762L26.4276 28.5H25.9289L24.3171 25.3762V28.5H23.1044Z"/>
</mask>
<path d="M3.726 28.6823C3.24 28.6823 2.781 28.5878 2.349 28.3987C1.917 28.2097 1.54125 27.942 1.22175 27.5955C0.90675 27.249 0.6795 26.8395 0.54 26.367L2.11275 25.9417C2.22525 26.3287 2.43 26.628 2.727 26.8395C3.0285 27.0465 3.35925 27.1477 3.71925 27.1432C4.03875 27.1432 4.3245 27.069 4.5765 26.9205C4.8285 26.772 5.0265 26.5717 5.1705 26.3197C5.3145 26.0632 5.3865 25.7775 5.3865 25.4625C5.3865 24.981 5.23125 24.5782 4.92075 24.2542C4.61025 23.9302 4.20975 23.7682 3.71925 23.7682C3.57075 23.7682 3.4245 23.7885 3.2805 23.829C3.141 23.8695 3.006 23.9257 2.8755 23.9977L2.133 22.7152L5.4 19.9207L5.54175 20.3122H0.918V18.78H6.87825V20.319L4.2525 22.8435L4.239 22.3642C4.8285 22.4047 5.33025 22.569 5.74425 22.857C6.16275 23.145 6.48225 23.5162 6.70275 23.9707C6.92775 24.4252 7.04025 24.9225 7.04025 25.4625C7.04025 26.0745 6.8895 26.6235 6.588 27.1095C6.291 27.5955 5.8905 27.9802 5.3865 28.2637C4.887 28.5428 4.3335 28.6823 3.726 28.6823ZM12.2857 28.7025C11.5972 28.7025 10.9897 28.5563 10.4632 28.2637C9.93674 27.9667 9.52499 27.555 9.22799 27.0285C8.93549 26.502 8.78924 25.8945 8.78924 25.206V22.074C8.78924 21.3855 8.93549 20.778 9.22799 20.2515C9.52499 19.725 9.93674 19.3155 10.4632 19.023C10.9897 18.726 11.5972 18.5775 12.2857 18.5775C12.9742 18.5775 13.5795 18.726 14.1015 19.023C14.628 19.3155 15.0397 19.725 15.3367 20.2515C15.6337 20.778 15.7822 21.3855 15.7822 22.074V25.206C15.7822 25.8945 15.6337 26.502 15.3367 27.0285C15.0397 27.555 14.628 27.9667 14.1015 28.2637C13.5795 28.5563 12.9742 28.7025 12.2857 28.7025ZM12.2857 27.1567C12.6277 27.1567 12.9382 27.0757 13.2172 26.9137C13.4962 26.7472 13.7167 26.5267 13.8787 26.2522C14.0407 25.9732 14.1217 25.6627 14.1217 25.3207V21.9525C14.1217 21.606 14.0407 21.2955 13.8787 21.021C13.7167 20.742 13.4962 20.5215 13.2172 20.3595C12.9382 20.193 12.6277 20.1097 12.2857 20.1097C11.9437 20.1097 11.6332 20.193 11.3542 20.3595C11.0752 20.5215 10.8547 20.742 10.6927 21.021C10.5307 21.2955 10.4497 21.606 10.4497 21.9525V25.3207C10.4497 25.6627 10.5307 25.9732 10.6927 26.2522C10.8547 26.5267 11.0752 26.7472 11.3542 26.9137C11.6332 27.0757 11.9437 27.1567 12.2857 27.1567ZM17.4545 28.5L17.465 22.83H18.746V25.56L20.8197 22.83H22.4L20.2002 25.665L22.589 28.5H20.9142L18.746 25.77V28.5H17.4545ZM23.1044 28.5V22.83H24.1439L26.1756 26.7465L28.2126 22.83H29.2469V28.5H28.0394V25.3762L26.4276 28.5H25.9289L24.3171 25.3762V28.5H23.1044Z" fill="#FF6600"/>
<path d="M2.349 28.3988L1.88806 29.4523H1.88806L2.349 28.3988ZM1.22175 27.5955L0.370798 28.3691L0.376305 28.3751L1.22175 27.5955ZM0.54 26.367L0.239835 25.2569L-0.896144 25.564L-0.562935 26.6926L0.54 26.367ZM2.11275 25.9417L3.21704 25.6207L2.90201 24.537L1.81258 24.8316L2.11275 25.9417ZM2.727 26.8395L2.05992 27.7763L2.06796 27.782L2.07609 27.7876L2.727 26.8395ZM3.71925 27.1432V25.9932H3.71206L3.70488 25.9933L3.71925 27.1432ZM5.1705 26.3197L6.16901 26.8903L6.17328 26.8827L5.1705 26.3197ZM4.92075 24.2542L4.09046 25.0499H4.09046L4.92075 24.2542ZM3.2805 23.829L2.96913 22.7219L2.95987 22.7246L3.2805 23.829ZM2.8755 23.9977L1.88026 24.5739L2.44469 25.5489L3.43104 25.0047L2.8755 23.9977ZM2.133 22.7152L1.38548 21.8413L0.658326 22.4633L1.13776 23.2914L2.133 22.7152ZM5.4 19.9207L6.48131 19.5292L5.91549 17.9665L4.65248 19.0468L5.4 19.9207ZM5.54175 20.3122V21.4622H7.18119L6.62306 19.9207L5.54175 20.3122ZM0.918 20.3122H-0.232V21.4622H0.918V20.3122ZM0.918 18.78V17.63H-0.232V18.78H0.918ZM6.87825 18.78H8.02825V17.63H6.87825V18.78ZM6.87825 20.319L7.67528 21.148L8.02825 20.8086V20.319H6.87825ZM4.2525 22.8435L3.10296 22.8759L3.17613 25.4737L5.04953 23.6725L4.2525 22.8435ZM4.239 22.3642L4.31782 21.217L3.05378 21.1301L3.08946 22.3966L4.239 22.3642ZM5.74425 22.857L5.08752 23.8011L5.09231 23.8044L5.74425 22.857ZM6.70275 23.9707L5.66805 24.4727L5.67213 24.481L6.70275 23.9707ZM6.588 27.1095L5.61075 26.5032L5.60673 26.5098L6.588 27.1095ZM5.3865 28.2638L5.94729 29.2678L5.9503 29.2661L5.3865 28.2638ZM3.726 27.5322C3.39367 27.5322 3.09209 27.4686 2.80994 27.3452L1.88806 29.4523C2.46991 29.7069 3.08633 29.8322 3.726 29.8322V27.5322ZM2.80994 27.3452C2.52361 27.2199 2.27881 27.0454 2.06719 26.8159L0.376305 28.3751C0.803692 28.8386 1.31039 29.1996 1.88806 29.4523L2.80994 27.3452ZM2.07268 26.8219C1.88048 26.6105 1.73593 26.3563 1.64294 26.0414L-0.562935 26.6926C-0.376927 27.3227 -0.0669777 27.8875 0.370819 28.3691L2.07268 26.8219ZM0.840165 27.4771L2.41292 27.0519L1.81258 24.8316L0.239835 25.2569L0.840165 27.4771ZM1.00846 26.2628C1.18516 26.8706 1.52961 27.3986 2.05992 27.7763L3.39408 25.9027C3.33039 25.8574 3.26534 25.7869 3.21704 25.6207L1.00846 26.2628ZM2.07609 27.7876C2.56991 28.1266 3.13236 28.3007 3.73362 28.2932L3.70488 25.9933C3.58614 25.9948 3.48709 25.9664 3.37791 25.8914L2.07609 27.7876ZM3.71925 28.2933C4.22455 28.2933 4.71533 28.1735 5.16035 27.9113L3.99265 25.9297C3.93367 25.9645 3.85295 25.9932 3.71925 25.9932V28.2933ZM5.16035 27.9113C5.58336 27.662 5.92488 27.3175 6.16898 26.8903L4.17202 25.7492C4.12812 25.826 4.07364 25.882 3.99265 25.9297L5.16035 27.9113ZM6.17328 26.8827C6.42063 26.4421 6.5365 25.9602 6.5365 25.4625H4.2365C4.2365 25.5948 4.20837 25.6844 4.16772 25.7568L6.17328 26.8827ZM6.5365 25.4625C6.5365 24.7082 6.28259 24.0132 5.75104 23.4586L4.09046 25.0499C4.17991 25.1433 4.2365 25.2538 4.2365 25.4625H6.5365ZM5.75104 23.4586C5.20225 22.8859 4.49093 22.6182 3.71925 22.6182V24.9183C3.92857 24.9183 4.01825 24.9746 4.09046 25.0499L5.75104 23.4586ZM3.71925 22.6182C3.46471 22.6182 3.21372 22.6532 2.96914 22.722L3.59186 24.936C3.63528 24.9238 3.67679 24.9183 3.71925 24.9183V22.6182ZM2.95987 22.7246C2.7366 22.7894 2.52297 22.8788 2.31996 22.9908L3.43104 25.0047C3.48903 24.9727 3.5454 24.9496 3.60113 24.9334L2.95987 22.7246ZM3.87074 23.4216L3.12824 22.1391L1.13776 23.2914L1.88026 24.5739L3.87074 23.4216ZM2.88052 23.5892L6.14752 20.7947L4.65248 19.0468L1.38548 21.8413L2.88052 23.5892ZM4.31869 20.3123L4.46044 20.7038L6.62306 19.9207L6.48131 19.5292L4.31869 20.3123ZM5.54175 19.1622H0.918V21.4622H5.54175V19.1622ZM2.068 20.3122V18.78H-0.232V20.3122H2.068ZM0.918 19.93H6.87825V17.63H0.918V19.93ZM5.72825 18.78V20.319H8.02825V18.78H5.72825ZM6.08122 19.49L3.45547 22.0145L5.04953 23.6725L7.67528 21.148L6.08122 19.49ZM5.40204 22.8111L5.38854 22.3319L3.08946 22.3966L3.10296 22.8759L5.40204 22.8111ZM4.16018 23.5115C4.57824 23.5403 4.87163 23.6509 5.08753 23.801L6.40097 21.913C5.78887 21.4871 5.07876 21.2692 4.31782 21.217L4.16018 23.5115ZM5.09231 23.8044C5.34782 23.9802 5.53498 24.1984 5.66809 24.4727L7.73741 23.4688C7.42952 22.8341 6.97768 22.3098 6.39619 21.9096L5.09231 23.8044ZM5.67213 24.481C5.81355 24.7666 5.89025 25.0877 5.89025 25.4625H8.19025C8.19025 24.7573 8.04195 24.0839 7.73337 23.4605L5.67213 24.481ZM5.89025 25.4625C5.89025 25.8759 5.79137 26.2121 5.61077 26.5033L7.56523 27.7157C7.98763 27.0349 8.19025 26.2731 8.19025 25.4625H5.89025ZM5.60673 26.5098C5.41382 26.8255 5.15816 27.0727 4.8227 27.2614L5.9503 29.2661C6.62284 28.8878 7.16818 28.3655 7.56927 27.7092L5.60673 26.5098ZM4.82571 27.2598C4.50825 27.4371 4.14972 27.5322 3.726 27.5322V29.8322C4.51728 29.8322 5.26576 29.6484 5.94729 29.2677L4.82571 27.2598ZM10.4632 28.2638L9.89821 29.2654L9.90475 29.269L10.4632 28.2638ZM9.22799 27.0285L8.22269 27.587L8.22636 27.5935L9.22799 27.0285ZM9.22799 20.2515L8.22634 19.6865L8.22271 19.693L9.22799 20.2515ZM10.4632 19.023L11.0217 20.0283L11.0283 20.0246L10.4632 19.023ZM14.1015 19.023L13.5328 20.0226L13.543 20.0283L14.1015 19.023ZM15.3367 20.2515L14.3351 20.8165V20.8165L15.3367 20.2515ZM15.3367 27.0285L14.3351 26.4635L15.3367 27.0285ZM14.1015 28.2638L14.6636 29.267L14.6665 29.2654L14.1015 28.2638ZM13.2172 26.9137L13.7947 27.9083L13.8066 27.9013L13.2172 26.9137ZM13.8787 26.2522L14.8692 26.8368L14.8732 26.8297L13.8787 26.2522ZM13.8787 21.021L12.8842 21.5985L12.8884 21.6055L13.8787 21.021ZM13.2172 20.3595L12.6279 21.3471L12.6398 21.354L13.2172 20.3595ZM11.3542 20.3595L11.9317 21.3541L11.9436 21.347L11.3542 20.3595ZM10.6927 21.021L11.6832 21.6055L11.6872 21.5985L10.6927 21.021ZM10.6927 26.2522L9.69821 26.8297L9.70235 26.8367L10.6927 26.2522ZM11.3542 26.9137L10.7649 27.9013L10.7768 27.9083L11.3542 26.9137ZM12.2857 27.5525C11.7644 27.5525 11.3542 27.4432 11.0217 27.2585L9.90475 29.269C10.6252 29.6693 11.4301 29.8525 12.2857 29.8525V27.5525ZM11.0283 27.2621C10.6844 27.0681 10.4236 26.8074 10.2296 26.4635L8.22636 27.5935C8.62638 28.3026 9.1891 28.8654 9.89822 29.2654L11.0283 27.2621ZM10.2333 26.47C10.0485 26.1375 9.93924 25.7274 9.93924 25.206H7.63924C7.63924 26.0616 7.82243 26.8665 8.22271 27.587L10.2333 26.47ZM9.93924 25.206V22.074H7.63924V25.206H9.93924ZM9.93924 22.074C9.93924 21.5526 10.0485 21.1425 10.2333 20.81L8.22271 19.693C7.82243 20.4135 7.63924 21.2184 7.63924 22.074H9.93924ZM10.2296 20.8165C10.4228 20.4741 10.6814 20.2173 11.0217 20.0283L9.90475 18.0177C9.19203 18.4137 8.62722 18.9759 8.22636 19.6865L10.2296 20.8165ZM11.0283 20.0246C11.3595 19.8377 11.7673 19.7275 12.2857 19.7275V17.4275C11.4272 17.4275 10.6199 17.6143 9.89822 18.0214L11.0283 20.0246ZM12.2857 19.7275C12.8044 19.7275 13.2081 19.8378 13.5328 20.0225L14.6702 18.0235C13.9509 17.6142 13.1441 17.4275 12.2857 17.4275V19.7275ZM13.543 20.0283C13.8833 20.2173 14.142 20.4741 14.3351 20.8165L16.3384 19.6865C15.9375 18.9759 15.3727 18.4137 14.66 18.0177L13.543 20.0283ZM14.3351 20.8165C14.522 21.1478 14.6322 21.5555 14.6322 22.074H16.9322C16.9322 21.2155 16.7455 20.4082 16.3384 19.6865L14.3351 20.8165ZM14.6322 22.074V25.206H16.9322V22.074H14.6322ZM14.6322 25.206C14.6322 25.7245 14.522 26.1322 14.3351 26.4635L16.3384 27.5935C16.7455 26.8718 16.9322 26.0645 16.9322 25.206H14.6322ZM14.3351 26.4635C14.1411 26.8074 13.8804 27.0681 13.5365 27.2621L14.6665 29.2654C15.3756 28.8654 15.9384 28.3026 16.3384 27.5935L14.3351 26.4635ZM13.5393 27.2605C13.2135 27.4431 12.8074 27.5525 12.2857 27.5525V29.8525C13.1411 29.8525 13.9455 29.6694 14.6636 29.267L13.5393 27.2605ZM12.2857 28.3068C12.8179 28.3068 13.3297 28.1783 13.7947 27.9083L12.6398 25.9192C12.5468 25.9732 12.4376 26.0068 12.2857 26.0068V28.3068ZM13.8066 27.9013C14.2475 27.6381 14.6073 27.2804 14.8691 26.8367L12.8884 25.6678C12.8262 25.7731 12.7449 25.8564 12.6279 25.9262L13.8066 27.9013ZM14.8732 26.8297C15.1433 26.3647 15.2717 25.8529 15.2717 25.3208H12.9717C12.9717 25.4726 12.9382 25.5818 12.8842 25.6748L14.8732 26.8297ZM15.2717 25.3208V21.9525H12.9717V25.3208H15.2717ZM15.2717 21.9525C15.2717 21.4189 15.1446 20.9033 14.8691 20.4365L12.8884 21.6055C12.9368 21.6877 12.9717 21.7931 12.9717 21.9525H15.2717ZM14.8732 20.4435C14.6108 19.9916 14.2466 19.6274 13.7947 19.365L12.6398 21.354C12.7459 21.4156 12.8226 21.4924 12.8842 21.5985L14.8732 20.4435ZM13.8066 19.372C13.3398 19.0935 12.8239 18.9597 12.2857 18.9597V21.2597C12.4316 21.2597 12.5366 21.2925 12.6279 21.347L13.8066 19.372ZM12.2857 18.9597C11.7476 18.9597 11.2316 19.0935 10.7649 19.372L11.9436 21.347C12.0349 21.2925 12.1399 21.2597 12.2857 21.2597V18.9597ZM10.7768 19.365C10.3249 19.6274 9.96063 19.9916 9.69823 20.4435L11.6872 21.5985C11.7488 21.4924 11.8256 21.4156 11.9317 21.354L10.7768 19.365ZM9.70235 20.4365C9.42684 20.9033 9.29974 21.4189 9.29974 21.9525H11.5997C11.5997 21.7931 11.6346 21.6877 11.6831 21.6055L9.70235 20.4365ZM9.29974 21.9525V25.3208H11.5997V21.9525H9.29974ZM9.29974 25.3208C9.29974 25.8529 9.42821 26.3647 9.69823 26.8297L11.6872 25.6748C11.6333 25.5818 11.5997 25.4726 11.5997 25.3208H9.29974ZM9.70235 26.8367C9.96415 27.2804 10.3239 27.6381 10.7649 27.9013L11.9436 25.9262C11.8265 25.8564 11.7453 25.7731 11.6831 25.6678L9.70235 26.8367ZM10.7768 27.9083C11.2418 28.1783 11.7536 28.3068 12.2857 28.3068V26.0068C12.1339 26.0068 12.0247 25.9732 11.9317 25.9192L10.7768 27.9083ZM17.4545 28.5L16.3045 28.4979L16.3023 29.65H17.4545V28.5ZM17.465 22.83V21.68H16.3171L16.315 22.8279L17.465 22.83ZM18.746 22.83H19.896V21.68H18.746V22.83ZM18.746 25.56H17.596V28.9751L19.6617 26.2556L18.746 25.56ZM20.8197 22.83V21.68H20.2491L19.904 22.1344L20.8197 22.83ZM22.4 22.83L23.3085 23.535L24.7479 21.68H22.4V22.83ZM20.2002 25.665L19.2917 24.96L18.7215 25.6948L19.3208 26.406L20.2002 25.665ZM22.589 28.5V29.65H25.0618L23.4684 27.759L22.589 28.5ZM20.9142 28.5L20.0137 29.2152L20.359 29.65H20.9142V28.5ZM18.746 25.77L19.6465 25.0548L17.596 22.473V25.77H18.746ZM18.746 28.5V29.65H19.896V28.5H18.746ZM18.6045 28.5021L18.615 22.8321L16.315 22.8279L16.3045 28.4979L18.6045 28.5021ZM17.465 23.98H18.746V21.68H17.465V23.98ZM17.596 22.83V25.56H19.896V22.83H17.596ZM19.6617 26.2556L21.7355 23.5256L19.904 22.1344L17.8302 24.8644L19.6617 26.2556ZM20.8197 23.98H22.4V21.68H20.8197V23.98ZM21.4914 22.125L19.2917 24.96L21.1088 26.37L23.3085 23.535L21.4914 22.125ZM19.3208 26.406L21.7095 29.241L23.4684 27.759L21.0797 24.924L19.3208 26.406ZM22.589 27.35H20.9142V29.65H22.589V27.35ZM21.8148 27.7848L19.6465 25.0548L17.8455 26.4852L20.0137 29.2152L21.8148 27.7848ZM17.596 25.77V28.5H19.896V25.77H17.596ZM18.746 27.35H17.4545V29.65H18.746V27.35ZM23.1044 28.5H21.9544V29.65H23.1044V28.5ZM23.1044 22.83V21.68H21.9544V22.83H23.1044ZM24.1439 22.83L25.1647 22.3004L24.8428 21.68H24.1439V22.83ZM26.1756 26.7465L25.1548 27.2761L26.1743 29.2413L27.1959 27.2771L26.1756 26.7465ZM28.2126 22.83V21.68H27.5145L27.1924 22.2994L28.2126 22.83ZM29.2469 22.83H30.3969V21.68H29.2469V22.83ZM29.2469 28.5V29.65H30.3969V28.5H29.2469ZM28.0394 28.5H26.8894V29.65H28.0394V28.5ZM28.0394 25.3763H29.1894L27.0174 24.8489L28.0394 25.3763ZM26.4276 28.5V29.65H27.1283L27.4496 29.0273L26.4276 28.5ZM25.9289 28.5L24.9069 29.0273L25.2282 29.65H25.9289V28.5ZM24.3171 25.3763L25.3391 24.8489L23.1671 25.3763H24.3171ZM24.3171 28.5V29.65H25.4671V28.5H24.3171ZM24.2544 28.5V22.83H21.9544V28.5H24.2544ZM23.1044 23.98H24.1439V21.68H23.1044V23.98ZM23.1231 23.3596L25.1548 27.2761L27.1964 26.2169L25.1647 22.3004L23.1231 23.3596ZM27.1959 27.2771L29.2329 23.3606L27.1924 22.2994L25.1554 26.2159L27.1959 27.2771ZM28.2126 23.98H29.2469V21.68H28.2126V23.98ZM28.0969 22.83V28.5H30.3969V22.83H28.0969ZM29.2469 27.35H28.0394V29.65H29.2469V27.35ZM29.1894 28.5V25.3763H26.8894V28.5H29.1894ZM27.0174 24.8489L25.4057 27.9727L27.4496 29.0273L29.0614 25.9036L27.0174 24.8489ZM26.4276 27.35H25.9289V29.65H26.4276V27.35ZM26.9509 27.9727L25.3391 24.8489L23.2952 25.9036L24.9069 29.0273L26.9509 27.9727ZM23.1671 25.3763V28.5H25.4671V25.3763H23.1671ZM24.3171 27.35H23.1044V29.65H24.3171V27.35Z" fill="#021523" mask="url(#path-3-outside-1_1_2346)"/>
</g>
<defs>
<clipPath id="clip0_1_2346">
<rect width="30" height="30" fill="white"/>
</clipPath>
</defs>
</svg>
