<svg xmlns="http://www.w3.org/2000/svg" width="286" height="41" viewBox="0 0 286 41" fill="none">
  <path d="M1.323 4.85094C1.55972 5.13519 2.01138 5.2385 2.75638 5.25929C1.72818 5.73122 0.866974 6.12673 0 6.52469C1.90533 7.25276 2.67935 6.19642 3.9646 6.05521C4.64136 6.64145 2.53561 6.83523 3.47229 7.35667C5.06976 7.32427 6.7486 7.29005 9.07944 7.24237C7.25543 8.13121 4.86499 7.97165 3.314 8.50166C4.31894 9.62707 7.15662 8.19416 8.40118 9.17286C6.94025 9.19609 5.63901 9.34709 4.36975 9.55554C5.34131 10.544 4.33496 12.2569 9.96823 11.5423C8.55084 12.098 7.86679 12.3663 7.09564 12.6683C7.39481 12.8493 7.71582 13.0443 8.11081 13.2839C7.37598 13.4673 6.74274 13.6256 6.09793 13.7864C6.33466 13.9618 6.57001 14.1373 6.88513 14.3714C5.19037 14.4839 3.8717 14.6917 4.47293 15.6435C6.56708 14.4594 8.08902 16.7225 10.1875 15.4986C10.4954 16.1228 9.32632 16.1815 9.19998 16.5966C10.7815 16.8906 12.9831 16.4883 14.3598 17.2519C13.1167 17.4524 11.8866 17.651 10.5229 17.8705C12.148 18.6933 15.3604 17.1809 16.133 18.7612C14.8812 18.851 13.5698 18.9831 12.241 19.0289C10.8846 19.076 9.51364 19.0393 7.9278 19.0393C8.62051 19.9159 10.6667 18.9403 11.1591 19.7307C10.0336 20.1305 8.561 20.1305 7.13199 20.32C10.4344 20.9924 14.6125 19.8701 17.3006 21.1948C12.3325 21.5787 7.05066 21.8935 1.88358 22.4119C-3.16589 22.9187 7.82181 22.5054 3.72647 24.4652C5.15549 24.8883 6.29984 24.1406 7.61557 24.4763C7.35706 24.9543 5.58969 24.8834 5.47787 25.4819C7.80292 25.2569 7.83054 26.1726 8.7106 26.6684C9.7533 27.2559 7.59818 27.2675 7.5459 27.6642C8.37659 28.2083 9.74304 27.7981 10.7712 28.0432C10.7015 28.6307 8.17181 28.2138 8.4913 28.9608C8.73239 29.5256 9.97839 29.5489 10.9238 29.5782C11.0618 30.1443 9.76199 30.0856 9.48318 30.4909C10.4765 30.7721 11.6572 30.5477 12.71 30.6676C13.5916 31.2165 10.0292 31.8021 12.8829 32.3492C12.0348 32.5143 11.2868 32.6598 10.5724 32.7986C10.6885 33.2876 11.6165 33.2754 12.3324 33.3897C11.6368 33.7693 10.1817 33.7473 9.65015 34.5041C12.7216 33.7754 13.9183 35.4687 16.6325 35.2144C18.4246 36.8332 21.4104 35.7939 23.811 35.7151C27.6812 35.5873 31.6052 34.9289 35.3331 35.1129C38.5367 35.2713 41.5937 35.3434 44.8264 35.193C41.964 35.6925 38.8882 35.9272 36.6968 36.8063C38.1185 36.7818 38.4366 37.3632 39.0465 37.9788C38.4859 38.145 37.8382 38.337 37.0903 38.5583C36.1377 38.4586 34.8031 38.0209 33.9477 38.9024C39.0988 39.551 44.2252 39.0155 49.3023 39.1231C49.5215 39.6219 47.6263 39.7527 48.3466 40.3512C50.9215 40.7327 53.5631 40.2724 56.1713 40.1697C60.6602 39.9924 65.1201 39.6898 69.6293 39.5339C74.2896 39.3725 78.9382 39.0962 83.5505 38.7673C85.7928 38.6072 88.0772 38.5607 90.2904 38.4935C96.9896 38.2899 103.671 38.016 110.356 37.7581C116.618 37.5166 122.892 37.4353 129.164 37.2922C135.982 37.1364 142.803 37.0037 149.619 36.8417C157.674 36.6504 165.736 36.5673 173.781 36.3802C179.143 36.2561 184.493 36.2017 189.843 36.2261C198.058 36.2634 206.246 36.5379 214.441 36.824C220.985 37.0526 227.597 37.2898 234.19 37.0783C235.862 37.0245 237.777 36.8497 239.05 36.4389C240.561 35.9504 242.038 36 243.623 35.989C249.722 35.9474 255.83 35.7236 261.899 36.2066C266.025 36.5348 270.183 36.714 274.397 36.6681C275.9 36.6516 276.689 36.4798 276.336 35.7689C279.471 35.7744 282.514 35.7634 284.951 34.814C283.267 34.7596 281.523 35.1924 280.1 34.531C281.311 34.1141 283.122 34.3586 284.5 33.8922C282.936 33.5529 281.403 34.2021 280.16 33.68C281.117 33.2167 281.775 32.7912 279.467 32.6072C278.225 32.5082 277.04 32.282 275.704 32.0956C277.769 31.4195 280.11 31.9623 282.488 31.6248C281.038 30.6547 278.558 30.8473 276.59 30.5612C277.082 30.2867 277.775 30.4157 278.346 30.4285C278.931 30.4414 279.493 30.5844 280.083 30.6266C281.063 30.6975 282.416 30.6076 282.546 30.2781C282.698 29.8881 281.917 29.478 280.507 29.5073C279.139 29.536 277.919 29.1454 276.47 29.2206C278.421 28.9883 280.526 29.2444 282.36 28.6435C281.197 27.7137 278.446 28.2505 276.908 27.6373C277.813 27.3372 278.948 27.6673 279.834 27.3537C280.899 26.9771 280.889 26.68 279.682 26.3896C280.52 25.966 281.163 26.3377 281.847 26.3792C282.55 26.422 283.276 26.4428 283.716 26.117C283.477 25.5516 282.244 25.5289 281.294 25.2624C282.839 25.2624 284.383 25.2624 285.864 25.2624C286.195 24.8131 285.929 24.6688 284.978 24.6022C282.341 24.417 279.717 23.9805 277.109 24.008C275.042 24.03 274.462 23.1833 272.742 23.1558C273.675 23.0446 274.605 22.9651 275.466 22.6668C274.503 21.6875 272.258 21.7297 270.453 21.7492C267.358 21.7828 264.356 21.4442 261.288 21.4961C260.505 21.5096 259.958 21.3665 259.477 21.1636C260.56 20.5822 263.465 22.0469 263.822 20.3414C260.875 20.6489 258.643 19.8811 256.102 19.6176C256.212 19.1591 257.432 19.367 257.993 19.0668C256.722 18.0417 254.141 18.329 252.152 18.0484C254.368 17.5704 257.014 17.8992 259.499 17.3998C258.094 17.0685 256.924 16.7922 255.611 16.4822C260.322 15.9877 264.934 16.1961 269.917 16.1161C268.013 14.987 265.1 15.2156 262.974 14.7046C265.136 14.5395 267.429 14.7419 269.14 13.9484C266.279 13.3566 263.075 13.4483 259.915 13.4728C258.192 13.4862 257.089 13.3279 257.592 12.4262C261.468 12.1579 265.415 12.4867 269.672 12.5063C267.708 11.3253 264.947 11.8767 262.316 11.5019C265.01 10.8925 267.333 11.9029 269.728 11.2488C268.793 9.19976 264.014 10.6577 262.007 9.70593C264.634 9.70593 267.448 9.70593 270.263 9.70593C270.286 9.61362 270.309 9.52193 270.332 9.42962C264.223 8.67405 257.702 8.75412 251.585 7.98755C256.452 7.95943 261.272 7.35791 266.14 7.87813C266.802 7.94904 267.547 7.88913 268.253 7.88058C268.934 7.87202 269.528 7.74485 269.528 7.44654C269.528 7.15128 268.928 7.06508 268.27 6.99295C265.861 6.72703 263.412 6.76617 260.968 6.779C259.737 6.78512 258.546 6.7735 257.5 6.44645C261.93 5.82475 266.667 7.06876 271.244 6.1353C269.808 5.1242 267.46 5.42375 265.694 5.26419C260.595 4.80327 255.344 4.73479 250.162 4.49577C243.504 4.18829 236.762 4.2323 230.169 3.66562C229.744 3.62894 229.289 3.65218 228.848 3.6534C218.217 3.69497 207.642 3.01643 197.004 3.21694C195.574 3.24383 194.422 2.93451 193.346 2.70833C190.921 2.19789 188.526 1.90445 185.791 1.91301C180.001 1.93135 174.226 1.69418 168.439 1.60432C158.939 1.45638 149.468 1.0089 139.973 0.772932C133.662 0.615827 127.33 0.566925 121.005 0.538805C112.425 0.500905 103.841 0.471562 95.2643 0.546753C87.3568 0.61583 79.4494 0.785151 71.5521 0.990549C64.2574 1.18005 56.9875 1.56579 49.7452 1.93196C40.946 2.37699 15.1701 2.62457 6.71371 3.99206C4.97391 4.27326 3.10202 4.44564 1.323 4.85094Z" fill="white"/>
</svg>