<svg xmlns="http://www.w3.org/2000/svg" width="339" height="64" viewBox="0 0 339 64" fill="none">
  <path d="M240.655 51.2666C243.058 51.5511 245.421 51.9318 247.755 52.1305C256.322 52.858 264.825 53.8129 273.298 54.9392C275.944 55.2913 278.735 55.3458 281.369 55.377C285.274 55.4238 288.593 56.6917 292.29 57.0723C294.155 57.2646 293.05 59.2497 295.012 59.8914C291.14 60.9112 287.744 59.5497 284.173 59.8368C286.065 61.4828 288.663 60.3019 290.73 60.9502C292.542 61.5192 295.147 61.236 295.269 63.3107C287.266 64.5461 279.361 63.8836 271.407 63.1626C264.1 62.5 256.728 62.1662 249.389 61.6647C240.931 61.0879 232.387 61.2009 223.976 60.6007C212.112 59.7537 200.223 59.6238 188.352 59.1496C185.527 59.0366 182.704 58.756 179.841 58.7976C168.474 58.9613 157.127 58.1013 145.784 58.2117C141.599 58.252 137.351 58.0623 133.158 58.1311C126.751 58.2364 120.236 58.6949 113.752 57.9635C110.831 57.6336 107.619 58.1714 104.649 58.174C98.0654 58.1805 91.4665 58.7235 84.8299 58.0012C80.6856 57.5504 76.3364 58.0584 72.0793 58.0311C61.4695 57.9635 50.8389 58.3143 40.2911 57.0061C37.126 56.6138 33.835 56.7242 30.7376 55.455C31.995 54.0727 34.3368 54.5235 35.9307 53.5505C35.7784 52.9256 34.1977 52.9516 34.241 52.2137C34.2767 51.3745 35.6863 51.3628 36.2558 50.8366C34.1057 49.5934 34.1057 49.5933 34.9965 48.1383C24.319 47.3641 13.4066 48.8152 2.19343 47.3615C3.63502 45.8025 5.16494 45.7805 6.37159 45.6324C7.7098 45.4674 8.97659 45.292 10.5028 44.7776C8.35823 44.4853 6.17048 44.7685 4.90181 43.4551C5.34914 42.2975 7.15911 43.0419 7.99173 42.4015C7.89212 41.179 5.83781 42.2547 5.46379 41.3635C7.75303 38.9562 11.7188 39.3849 15.0512 38.6366C11.1192 38.5769 7.67785 37.5181 4.02032 36.4853C6.45053 33.9482 10.437 35.0862 14.2806 34.2054C10.5065 33.2661 7.32826 34.0131 4.11054 33.5584C4.20075 31.8994 5.23449 31.1525 7.70604 30.6822C9.65322 30.3106 12.0891 30.9537 13.6829 29.4818C10.2791 29.2817 6.72494 29.9456 3.88312 28.2191C4.67251 27.4604 4.6556 27.3629 7.67221 27.1005C9.45399 26.9459 9.70773 25.2986 11.7376 25.5104C9.63442 25.0505 7.75491 24.5166 6.23814 23.6358C5.71564 22.5757 8.02932 22.8992 7.64026 21.9105C5.8115 21.917 3.93762 21.804 2.22915 21.1792C3.04485 19.3812 6.13289 20.349 7.61018 19.0096C5.87727 19.0096 4.30601 19.0356 2.73662 19.0019C1.47734 18.9746 -0.00935323 18.8161 4.43259e-05 17.7729C0.00756237 16.8869 1.47922 16.8323 2.5543 16.6362C6.44113 15.9307 10.6907 16.5582 14.3915 14.9759C13.1679 14.2224 11.7132 13.7015 9.75471 13.7262C10.6287 13.0545 11.5158 12.7752 12.7112 12.7453C11.8748 12.1919 10.6437 12.0321 11.014 11.2176C11.3373 10.5082 12.3127 10.4368 13.2713 10.4809C16.3368 10.6213 19.2425 9.6755 22.3437 9.85478C17.4682 8.97398 11.9124 10.5953 7.46358 7.98798C9.3149 6.14064 12.2582 6.45241 14.4403 6.35628C22.5485 5.99772 30.4857 4.84022 38.5451 4.28031C49.1756 3.54241 59.8474 3.08771 70.4347 2.00555C74.2163 1.61971 78.1332 1.65351 81.9505 1.58205C92.2333 1.39108 102.537 1.13513 112.793 0.816851C119.877 0.597301 127.078 1.23649 134.118 0.0919681C135.383 -0.114591 136.765 0.0594794 138.108 0.292021C141.307 0.844144 144.48 0.0490834 147.683 0.045186C163.352 0.0256993 178.977 0.888316 194.629 1.17152C202.952 1.32222 211.253 1.79378 219.55 2.10427C231.221 2.54077 242.899 3.40988 254.561 4.15947C262.186 4.65053 269.719 5.66127 277.425 5.83795C284.118 5.99125 290.751 7.31893 297.448 7.5112C305.597 7.74374 313.531 8.86878 321.549 9.60148C327.426 10.138 333.732 10.077 339 13.3585C334.478 13.7729 337.649 17.3845 333.557 18.1964C334.668 18.477 335.224 18.6173 335.985 18.8096C334.111 21.3597 331.061 21.009 327.755 20.3893C330.164 22.7225 334.993 22.4783 337.207 25.6494C334.119 24.6439 332.068 26.0119 329.133 25.5208C331.076 26.6874 333.561 26.4094 334.45 27.9164C333.482 30.3743 330.356 29.2064 327.603 29.6052C330.217 30.3509 331.638 31.5734 333.352 32.814C328.557 34.851 323.992 31.6175 319.28 33.053C323.291 33.3414 327.2 33.6195 328.967 36.6074C328.599 37.2193 326.982 37.1115 327.121 38.1118C327.454 38.6535 328.339 38.2599 328.841 38.4807C330.057 39.0134 332.506 38.5704 332.358 40.1345C332.234 41.444 330.102 41.079 328.868 41.4778C330.454 42.3053 333.2 41.9961 333.888 44.0409C324.716 44.6645 315.647 42.7055 307.276 44.7373C310.05 46.026 314.35 46.6431 318.047 48.684C315.491 49.7246 313.527 50.1299 311.213 49.5959C310.274 49.379 309.208 49.3517 308.2 49.3543C302.834 49.3699 297.233 48.6957 292.941 51.9318C294.27 52.7151 297.551 51.885 297.803 53.9116C297.889 54.6001 297.217 55.6732 295.087 55.4212C296.034 54.3884 295.636 53.6336 293.86 53.6349C288.048 53.6427 282.312 53.11 276.551 52.6852C268.03 52.0565 259.487 51.568 250.949 51.0678C247.537 50.8717 244.109 50.5339 240.655 51.2666ZM43.163 51.1627C45.5462 52.3721 47.6569 52.4514 49.7188 51.9811C50.8634 51.72 51.9742 51.6486 53.0662 51.7421C58.6201 52.2176 64.2154 52.402 69.7656 52.1396C77.5092 51.7733 85.2641 51.6174 92.987 51.7889C102.676 52.0032 112.374 52.4202 122.044 52.098C127.023 51.9317 132.011 52.0799 136.855 52.3579C145.7 52.8645 154.541 52.3929 163.38 52.9685C172.252 53.5453 181.223 53.366 190.137 53.6973C191.471 53.7466 192.943 53.7882 194.287 53.8726C198.986 54.1688 203.748 53.987 207.827 53.987C153.688 50.0052 98.7646 48.8528 43.163 51.1627ZM273.46 50.4079C258.063 47.7889 242.393 47.177 226.712 46.6002C242.294 47.8694 257.877 49.1387 273.46 50.4079ZM145.063 7.89442C131.028 7.63589 116.943 7.17471 102.89 8.28156C116.93 7.86974 130.978 8.18152 145.063 7.89442ZM33.3783 41.9897C31.1248 40.7373 25.116 40.9906 21.5543 42.5015C25.6873 42.8678 29.3693 42.8925 33.3783 41.9897ZM291.888 13.0103C283.936 12.3647 275.982 11.7203 268.03 11.0746C275.871 12.3036 283.744 13.3208 291.888 13.0103ZM109.096 45.6674C109.074 45.5142 109.049 45.3595 109.025 45.2062C103.063 45.2062 97.0994 45.2062 91.1376 45.2062C91.1394 45.3595 91.1394 45.5142 91.1413 45.6674C97.1275 45.6674 103.112 45.6674 109.096 45.6674ZM79.4789 44.7139C76.3477 45.101 73.083 44.154 70.0118 45.1608C73.145 44.7775 76.4905 46.5352 79.4789 44.7139Z" fill="white"/>
</svg>