<svg xmlns="http://www.w3.org/2000/svg" width="306" height="65" viewBox="0 0 306 65" fill="none">
  <path d="M1.41547 7.07027C1.66873 7.53219 2.15195 7.70007 2.94901 7.73384C1.84897 8.50072 0.927582 9.14344 0 9.79012C2.03848 10.9732 2.86661 9.25668 4.24167 9.02721C4.9657 9.97985 2.7128 10.2947 3.71497 11.1421C5.42407 11.0894 7.22021 11.0338 9.71396 10.9564C7.76248 12.4007 5.20499 12.1414 3.54559 13.0027C4.62079 14.8315 7.65677 12.503 8.98831 14.0934C7.42526 14.1312 6.03311 14.3765 4.67514 14.7153C5.7146 16.3215 4.63794 19.105 10.6649 17.9437C9.14841 18.8467 8.41656 19.2828 7.59152 19.7735C7.91159 20.0675 8.25504 20.3844 8.67764 20.7738C7.89145 21.0718 7.21393 21.3291 6.52408 21.5904C6.77734 21.8755 7.02914 22.1606 7.3663 22.541C5.5531 22.7238 4.14227 23.0615 4.78552 24.6082C7.026 22.6841 8.65433 26.3615 10.8995 24.3728C11.2289 25.387 9.97809 25.4824 9.84293 26.1569C11.5349 26.6347 13.8904 25.9811 15.3633 27.2218C14.0333 27.5476 12.7173 27.8704 11.2583 28.2271C12.9969 29.5641 16.4338 27.1065 17.2604 29.6744C15.9211 29.8204 14.5181 30.035 13.0964 30.1095C11.6453 30.186 10.1785 30.1264 8.48181 30.1264C9.22293 31.5509 11.4122 29.9655 11.9389 31.2499C10.7348 31.8995 9.15927 31.8996 7.6304 32.2075C11.1636 33.3002 15.6337 31.4764 18.5097 33.629C13.1944 34.2529 7.54337 34.7644 2.0152 35.6068C-3.38715 36.4303 8.36844 35.7588 3.98691 38.9435C5.51578 39.6309 6.74008 38.416 8.14777 38.9614C7.87122 39.7382 5.98032 39.623 5.86069 40.5955C8.34821 40.23 8.37778 41.718 9.31934 42.5236C10.4349 43.4783 8.12918 43.4971 8.07324 44.1418C8.96198 45.0259 10.424 44.3594 11.524 44.7577C11.4494 45.7124 8.74289 45.0349 9.08472 46.2488C9.34265 47.1666 10.6757 47.2044 11.6872 47.2521C11.8348 48.1719 10.4442 48.0766 10.1459 48.7352C11.2086 49.1921 12.4718 48.8276 13.5983 49.0223C14.5414 49.9143 10.7301 50.8659 13.7832 51.755C12.8758 52.0232 12.0756 52.2597 11.3112 52.4852C11.4355 53.2799 12.4283 53.26 13.1943 53.4457C12.45 54.0626 10.8932 54.0269 10.3246 55.2567C13.6107 54.0726 14.891 56.8242 17.7949 56.4109C19.7122 59.0414 22.9066 57.3527 25.475 57.2245C29.6157 57.0169 33.8139 55.947 37.8023 56.246C41.2298 56.5033 44.5004 56.6205 47.959 56.3762C44.8966 57.1878 41.6059 57.5692 39.2613 58.9977C40.7824 58.958 41.1227 59.9026 41.7752 60.903C41.1755 61.1732 40.4825 61.4851 39.6824 61.8447C38.6631 61.6828 37.2353 60.9715 36.3201 62.4039C41.8312 63.4579 47.3159 62.5877 52.7477 62.7626C52.9823 63.5732 50.9547 63.7857 51.7253 64.7582C54.4801 65.3781 57.3063 64.6301 60.0968 64.4632C64.8994 64.1751 69.671 63.6834 74.4953 63.4301C79.4813 63.1679 84.4547 62.7189 89.3894 62.1844C91.7884 61.9242 94.2324 61.8487 96.6003 61.7394C103.768 61.4086 110.916 60.9636 118.068 60.5444C124.768 60.152 131.48 60.0198 138.191 59.7874C145.485 59.5341 152.783 59.3185 160.075 59.0553C168.693 58.7444 177.318 58.6093 185.926 58.3053C191.662 58.1037 197.386 58.0152 203.11 58.055C211.9 58.1156 220.66 58.5616 229.427 59.0265C236.428 59.398 243.503 59.7834 250.557 59.4397C252.345 59.3523 254.394 59.0682 255.755 58.4007C257.373 57.607 258.953 57.6874 260.648 57.6695C267.174 57.602 273.709 57.2384 280.202 58.0232C284.616 58.5566 289.064 58.8477 293.573 58.7732C295.181 58.7463 296.025 58.4672 295.647 57.3119C299.002 57.3209 302.257 57.303 304.864 55.7603C303.063 55.6719 301.197 56.3752 299.675 55.3004C300.971 54.6229 302.908 55.0202 304.383 54.2623C302.709 53.711 301.068 54.7659 299.738 53.9176C300.762 53.1646 301.466 52.4732 298.997 52.1742C297.669 52.0133 296.401 51.6458 294.972 51.3428C297.181 50.2441 299.686 51.1262 302.229 50.5779C300.678 49.0014 298.025 49.3143 295.919 48.8494C296.446 48.4034 297.187 48.613 297.798 48.6339C298.424 48.6547 299.025 48.8872 299.656 48.9557C300.705 49.0709 302.153 48.9249 302.291 48.3895C302.454 47.7557 301.618 47.0892 300.11 47.1369C298.646 47.1835 297.341 46.5488 295.79 46.671C297.879 46.2935 300.13 46.7097 302.092 45.7332C300.848 44.2223 297.905 45.0945 296.26 44.0981C297.228 43.6104 298.443 44.1468 299.39 43.6372C300.529 43.0253 300.518 42.5425 299.227 42.0707C300.124 41.3823 300.812 41.9862 301.544 42.0538C302.296 42.1233 303.073 42.1571 303.543 41.6276C303.287 40.7088 301.968 40.672 300.952 40.2389C302.605 40.2389 304.257 40.2389 305.841 40.2389C306.196 39.5088 305.911 39.2743 304.894 39.166C302.072 38.865 299.265 38.1558 296.474 38.2005C294.263 38.2363 293.643 36.8604 291.802 36.8157C292.801 36.6349 293.795 36.5058 294.717 36.021C293.687 34.4297 291.285 34.4982 289.353 34.53C286.042 34.5846 282.831 34.0343 279.548 34.1187C278.71 34.1406 278.124 33.9081 277.61 33.5783C278.769 32.6336 281.877 35.0138 282.259 32.2423C279.106 32.7419 276.718 31.4943 273.999 31.0661C274.117 30.3211 275.423 30.6588 276.022 30.1711C274.663 28.5052 271.902 28.9721 269.773 28.5161C272.144 27.7393 274.975 28.2738 277.633 27.4622C276.131 26.9238 274.879 26.4748 273.474 25.9711C278.514 25.1675 283.449 25.5062 288.78 25.3761C286.743 23.5413 283.626 23.9129 281.352 23.0824C283.665 22.8142 286.118 23.143 287.949 21.8536C284.888 20.892 281.46 21.041 278.079 21.0808C276.235 21.1026 275.056 20.8453 275.593 19.3801C279.74 18.944 283.963 19.4785 288.517 19.5103C286.417 17.5911 283.463 18.4871 280.648 17.8781C283.53 16.8877 286.016 18.5298 288.578 17.4669C287.577 14.1371 282.464 16.5063 280.317 14.9596C283.127 14.9596 286.139 14.9596 289.15 14.9596C289.175 14.8096 289.199 14.6606 289.224 14.5106C282.688 13.2828 275.711 13.4129 269.167 12.1673C274.374 12.1216 279.531 11.1441 284.739 11.9895C285.447 12.1047 286.244 12.0073 286.999 11.9934C287.728 11.9795 288.364 11.7729 288.364 11.2881C288.364 10.8083 287.722 10.6683 287.018 10.551C284.44 10.1189 281.821 10.1825 279.206 10.2034C277.888 10.2133 276.614 10.1944 275.496 9.66298C280.234 8.65273 285.303 10.6742 290.2 9.15735C288.663 7.51432 286.151 8.00109 284.262 7.74182C278.807 6.99282 273.188 6.88154 267.645 6.49313C260.521 5.99347 253.308 6.06499 246.254 5.14413C245.799 5.08453 245.313 5.12229 244.84 5.12428C233.467 5.19183 222.153 4.0892 210.772 4.41502C209.241 4.45873 208.009 3.95609 206.858 3.58854C204.263 2.75907 201.701 2.28223 198.775 2.29614C192.581 2.32594 186.401 1.94054 180.21 1.79451C170.047 1.55412 159.913 0.826956 149.755 0.443515C143.003 0.188219 136.228 0.108754 129.462 0.0630589C120.282 0.00147001 111.098 -0.0462113 101.922 0.0759732C93.4617 0.188224 85.0016 0.46337 76.5524 0.797142C68.748 1.10509 60.9701 1.73191 53.2216 2.32694C43.8075 3.05011 16.2303 3.45242 7.18289 5.67459C5.32153 6.13154 3.31879 6.41167 1.41547 7.07027Z" fill="white"/>
</svg>