<svg xmlns="http://www.w3.org/2000/svg" width="294" height="41" viewBox="0 0 294 41" fill="none">
  <path d="M259.044 16.8023C259.035 17.7334 261.382 17.3299 261.518 17.8347C262.086 18.5614 260.624 18.7032 261.047 19.392C271.766 19.9664 282.687 20.5117 293.372 21.9801C291.438 22.4469 289.404 23.0098 287.477 22.6716C284.258 22.1069 280.921 22.0329 277.67 21.892C270.832 21.5951 264.12 20.6711 257.207 20.8023C256.694 20.812 256.181 20.8032 254.716 20.8032C256.842 21.2111 258.573 21.0913 259.309 22.2153C253.509 22.4945 248.011 21.7079 242.234 21.5018C242.06 21.8656 241.873 22.2558 241.667 22.6848C258.794 23.1314 275.833 23.718 293.406 25.6815C290.024 26.6998 287.251 26.3475 284.663 26.2039C279.235 25.9017 273.853 25.3882 268.443 24.9936C267.679 24.9381 266.526 24.9028 266.134 25.1292C264.362 26.1537 262.676 25.5327 260.526 25.375C261.684 24.7566 262.524 25.6895 263.62 24.8852C259.203 24.2219 254.993 25.2446 250.831 24.8808C246.639 24.5144 242.328 24.5161 237.514 24.3355C239.114 25.3477 241.212 25.1988 242.482 25.2059C246.496 25.2296 250.429 25.6947 254.439 25.634C258.629 25.5705 262.754 25.9484 266.895 26.2277C269.54 26.4056 272.203 26.1827 274.838 25.9722C275.715 25.9026 275.225 26.1872 275.357 26.3765C275.777 26.9755 277.101 26.9236 278.223 26.9112C282.32 26.8637 286.278 27.3041 290.207 27.8467C290.781 27.926 291.48 27.8599 291.52 28.3295C291.557 28.7937 290.849 28.7311 290.317 28.8668C287.26 29.6473 284.312 28.7461 281.313 28.7232C279.638 28.71 277.892 27.7842 276.457 29.0359C276.196 29.2641 275.386 29.0808 274.766 28.9928C271.174 28.4854 267.401 28.6413 263.74 28.0211C261.917 27.712 259.271 28.1075 256.984 28.3383C253.812 28.6589 250.58 27.8908 247.303 27.7516C244.533 27.6344 241.605 27.4266 238.847 27.3288C233.14 27.1279 227.413 26.5545 220.999 27.0469C224.94 27.7736 228.566 27.8177 232.016 27.8185C239.856 27.8221 247.422 29.287 255.303 28.8439C261.124 30.9007 268.085 29.834 274.381 30.6929C278.301 31.2276 282.504 31.2046 286.574 31.4513C286.905 31.4715 287.203 31.6416 287.445 32.0098C271.382 30.6303 255.127 31.0919 238.598 30.1027C242.52 31.4504 247.277 29.9212 250.907 31.8741C244.437 33.1223 238.212 31.2786 232.008 31.8221C234.288 32.725 237.759 32.5216 239.43 33.9257C239.776 34.2164 239.53 34.6286 238.497 34.7484C240.385 35.3738 241.275 33.4095 243.095 34.5141C243.19 34.1547 243.272 33.8411 243.352 33.539C244.012 33.3205 244.939 34.0605 244.608 34.4965C244.542 34.5837 244.618 34.7009 244.632 34.803C259.641 35.0594 274.522 35.9024 289.771 37.0951C288.465 37.7857 287.497 37.8914 286.426 37.8341C280.763 37.5285 275.101 37.2307 269.44 36.918C266.907 36.778 264.321 36.6731 261.825 36.63C255.785 36.526 249.807 36.1834 243.798 35.9667C236.619 35.7077 229.38 35.898 222.165 35.9121C221.113 35.9138 219.837 35.683 219.109 36.5569C231.072 36.7489 242.932 36.9321 254.753 37.2906C266.672 37.6518 278.717 38.0975 290.283 39.9888C286.767 40.6345 283.179 40.5781 279.802 40.3129C275.59 39.9826 271.33 39.6021 267.139 39.5157C257.923 39.3255 248.736 38.9097 239.516 38.7282C225.288 38.4481 211.069 38.5441 196.848 38.4833C188.161 38.4464 179.465 38.345 170.788 38.5054C156.463 38.7705 142.128 38.6225 127.814 38.8586C117.267 39.0321 106.714 38.9247 96.184 39.159C87.1784 39.3589 78.159 39.5228 69.1737 39.8285C58.6331 40.187 48.1129 39.9315 37.591 40.0892C34.5195 40.135 31.4531 40.2187 28.2016 39.9579C28.9606 39.1845 30.1168 39.0991 31.341 39.122C38.0444 39.248 44.6764 38.8868 51.3424 38.5618C54.4139 38.412 57.667 38.2737 60.9151 38.6912C62.8711 38.9432 65.1769 38.4983 67.3417 38.4094C73.2419 38.1671 79.1404 37.9813 85.0474 37.7989C94.5659 37.5056 104.095 37.0334 113.61 37.2581C119.763 37.4034 125.862 36.8467 131.981 37.1955C133.85 37.3021 135.497 36.8572 137.253 36.5489C132.548 36.5489 127.843 36.5489 123.14 36.5489C115.484 36.5489 107.825 36.4723 100.172 36.5727C93.7357 36.6564 87.2989 36.7656 80.8655 37.0704C78.7856 37.1691 76.5274 37.1092 74.3303 37.1603C66.2415 37.3461 58.1374 37.5241 50.0469 37.465C45.7444 37.4342 41.4979 37.3981 37.2701 37.828C35.45 38.013 33.9796 36.9859 32.0626 37.4386C32.2205 37.7179 32.3835 38.0024 32.6093 38.4014C31.1254 38.4014 29.3901 38.6816 28.6159 38.353C25.2252 36.9127 21.0585 37.3761 17.3027 36.9013C15.9274 36.7278 14.2618 36.8573 13.8713 35.9552C13.4994 35.0964 15.3858 35.0144 16.0429 34.2534C12.6607 33.3566 12.2871 31.0197 9.2479 29.6067C8.03899 29.7036 8.50758 31.402 5.91318 30.4453C6.20352 32.0168 9.48386 32.9523 8.14422 34.5582C6.31897 34.7793 5.48532 34.027 4.83162 33.4412C2.0097 30.9175 -0.0871989 28.074 0.0027901 25.271C0.143716 20.8825 0.0741167 16.3979 2.82982 12.1266C3.01998 11.8306 3.1371 11.502 3.46819 11.2536C4.21187 10.6942 4.40885 9.73145 6.3105 9.9041C8.05934 10.0627 8.33609 10.8731 8.40231 11.6112C8.48042 12.4912 9.63838 12.7758 11.0358 13.2162C11.7234 12.3388 11.4382 11.3206 13.0936 10.8052C13.2295 10.763 13.367 10.5683 13.3127 10.5374C10.793 9.13861 14.3093 9.12452 15.1294 8.4207C12.6641 7.22975 11.9187 5.67501 12.1173 3.9018C10.8218 3.73443 9.62313 3.63752 8.48553 3.92733C7.06438 4.28938 6.78084 3.59789 6.06432 3.29751C6.58219 2.97775 6.64839 2.55845 7.8556 2.44922C13.9443 1.89956 19.9854 1.32786 26.2082 1.15961C42.2297 0.72622 58.2511 0.59586 74.2879 0.50601C83.8793 0.452276 93.3927 0.764985 102.915 1.19838C105.813 1.33051 108.587 0.611713 111.46 0.88919C117.798 1.5014 124.184 1.09796 130.545 1.18869C136.351 1.27149 142.119 0.801104 147.985 1.15522C157.774 1.74541 167.662 1.34725 177.487 1.57099C185.046 1.74276 192.634 1.85903 200.16 2.21667C209.697 2.67032 219.24 3.07729 228.784 3.48513C237.708 3.86655 246.747 3.81635 255.521 4.79148C261.212 5.42483 267.034 5.53141 272.707 6.32861C275.97 6.78667 279.284 7.35836 282.663 7.57506C284.341 7.68253 283.366 8.22339 283.85 8.55901C280.658 8.01727 277.359 8.07452 274.206 7.63936C270.741 7.16193 267.311 7.01746 263.878 7.9186C261.521 8.53698 258.833 8.07716 256.46 7.87808C248.255 7.19099 239.993 6.82544 231.757 6.31717C222.031 5.71641 212.261 5.44598 202.527 4.97999C194.518 4.59593 186.504 4.66816 178.532 4.35104C169.367 3.98636 160.207 4.36602 151.084 4.03657C146.145 3.85863 141.219 3.85247 136.289 3.77671C132.888 3.72386 129.521 4.59505 126.013 3.95289C126.49 4.10175 126.969 4.38099 127.446 4.38099C135.934 4.37482 144.208 5.57458 152.758 5.4451C158.013 5.36582 163.351 5.5693 168.618 5.9886C171.174 6.19208 173.697 5.74107 176.43 5.92869C182.543 6.34975 188.801 6.21939 194.96 6.42111C204.892 6.74704 214.864 6.70476 224.744 7.10115C235.485 7.5319 246.194 8.44096 256.779 9.74025C261.74 10.3489 267.015 10.7013 272.226 10.8493C272.674 10.8616 273.114 10.9418 273.496 11.14C269.725 11.1858 266.01 11.147 262.37 10.7938C261.901 11.5232 263.477 11.354 263.667 12.027C255.784 13.0841 247.878 11.1127 240.112 11.9425C241.802 12.8277 244.187 12.5599 246.119 12.5767C251.916 12.6278 257.477 13.3897 263.127 13.8311C265.401 14.009 267.822 13.809 269.997 14.3693C271.269 14.697 273.664 13.6575 273.919 15.2369C277.109 14.7859 279.702 16.205 282.842 15.9919C286.046 15.7752 289.069 16.3883 292.158 16.6701C292.837 16.7318 293.852 16.834 293.983 17.359C294.139 17.9835 293.175 18.1359 292.319 18.3341C289.547 18.9763 286.956 18.0646 284.247 18.0628C283.509 18.0619 282.66 17.9016 281.848 17.9157C274.152 18.0461 266.649 17.1123 259.023 16.8155C254.169 16.5222 249.322 16.2262 244.474 15.9311C244.449 16.0694 244.423 16.2077 244.399 16.3468C249.252 16.6305 254.052 17.2445 259.044 16.8023ZM237.934 17.9007C242.095 19.1824 246.398 18.7173 250.547 18.8212C246.488 18.3764 242.42 17.9624 237.934 17.9007Z" fill="white"/>
</svg>