<svg xmlns="http://www.w3.org/2000/svg" width="318" height="41" viewBox="0 0 318 41" fill="none">
  <path d="M225.747 32.5416C228.002 32.7195 230.218 32.9574 232.408 33.0816C240.444 33.5363 248.42 34.133 256.368 34.837C258.85 35.057 261.469 35.0911 263.939 35.1106C267.602 35.1399 270.716 35.9323 274.184 36.1702C275.933 36.2904 274.896 37.531 276.737 37.9321C273.105 38.5695 269.919 37.7186 266.569 37.898C268.345 38.9268 270.781 38.1887 272.721 38.5939C274.42 38.9495 276.864 38.7725 276.978 40.0692C269.471 40.8413 262.056 40.4272 254.594 39.9766C247.739 39.5625 240.825 39.3539 233.94 39.0404C226.006 38.6799 217.991 38.7506 210.101 38.3755C198.973 37.8461 187.819 37.7649 176.684 37.4685C174.034 37.3979 171.386 37.2225 168.7 37.2485C158.037 37.3508 147.394 36.8133 136.753 36.8823C132.827 36.9075 128.843 36.7889 124.909 36.832C118.899 36.8977 112.788 37.1843 106.705 36.7272C103.965 36.521 100.952 36.8571 98.1667 36.8587C91.9906 36.8628 85.8004 37.2022 79.575 36.7508C75.6874 36.469 71.6076 36.7865 67.6142 36.7694C57.6616 36.7272 47.6896 36.9464 37.7952 36.1288C34.8262 35.8836 31.739 35.9526 28.8335 35.1593C30.013 34.2954 32.2098 34.5772 33.7049 33.969C33.5621 33.5785 32.0793 33.5947 32.1199 33.1335C32.1534 32.609 33.4757 32.6017 34.0099 32.2729C31.9929 31.4959 31.9929 31.4958 32.8286 30.5865C22.8125 30.1025 12.5761 31.0095 2.05756 30.1009C3.40984 29.1266 4.84499 29.1128 5.97689 29.0202C7.2322 28.9171 8.42052 28.8075 9.85214 28.486C7.84047 28.3033 5.78824 28.4803 4.59816 27.6594C5.01777 26.936 6.71562 27.4012 7.49667 27.0009C7.40322 26.2369 5.47617 26.9092 5.12532 26.3522C7.27275 24.8476 10.9929 25.1156 14.1188 24.6479C10.4304 24.6105 7.20223 23.9488 3.77127 23.3033C6.05094 21.7176 9.79043 22.4289 13.3959 21.8784C9.85567 21.2913 6.8743 21.7582 3.8559 21.474C3.94053 20.4371 4.91023 19.9703 7.22868 19.6764C9.05523 19.4441 11.3402 19.846 12.8353 18.9261C9.64234 18.8011 6.30835 19.216 3.64257 18.1369C4.38307 17.6627 4.3672 17.6018 7.19694 17.4378C8.86834 17.3412 9.10636 16.3116 11.0105 16.444C9.0376 16.1566 7.27452 15.8229 5.85171 15.2724C5.36157 14.6098 7.53193 14.812 7.16697 14.1941C5.45149 14.1982 3.6937 14.1275 2.09106 13.737C2.85624 12.6132 5.75297 13.2181 7.13876 12.381C5.5132 12.381 4.03926 12.3973 2.56709 12.3762C1.38583 12.3591 -0.00877383 12.26 4.158e-05 11.608C0.00709391 11.0543 1.38759 11.0202 2.39607 10.8976C6.04212 10.4567 10.0285 10.8489 13.5 9.85994C12.3522 9.38901 10.9876 9.06342 9.15044 9.07884C9.97027 8.65907 10.8024 8.4845 11.9238 8.46582C11.1392 8.11993 9.98437 8.02007 10.3317 7.51098C10.6349 7.06766 11.55 7.02298 12.4492 7.05059C15.3247 7.13828 18.0505 6.54719 20.9596 6.65924C16.3861 6.10874 11.1745 7.12206 7.00124 5.49249C8.73787 4.3379 11.4989 4.53276 13.5458 4.47267C21.1517 4.24858 28.5972 3.52514 36.1573 3.17519C46.1293 2.71401 56.1401 2.42982 66.0715 1.75347C69.6188 1.51232 73.2931 1.53344 76.8739 1.48878C86.5197 1.36943 96.1849 1.20946 105.806 1.01053C112.451 0.873313 119.206 1.2728 125.81 0.55748C126.997 0.428381 128.292 0.537175 129.553 0.682513C132.554 1.02759 135.53 0.530677 138.534 0.528241C153.233 0.516062 167.889 1.0552 182.572 1.2322C190.379 1.32639 198.167 1.62111 205.949 1.81517C216.898 2.08798 227.852 2.63117 238.792 3.09967C245.945 3.40658 253.011 4.03829 260.24 4.14872C266.518 4.24453 272.74 5.07433 279.022 5.1945C286.667 5.33984 294.108 6.04299 301.63 6.50093C307.143 6.83626 313.058 6.7981 318 8.84907C313.758 9.10808 316.732 11.3653 312.894 11.8728C313.936 12.0481 314.458 12.1358 315.172 12.256C313.414 13.8498 310.553 13.6306 307.451 13.2433C309.712 14.7016 314.241 14.5489 316.318 16.5309C313.421 15.9024 311.498 16.7574 308.744 16.4505C310.567 17.1796 312.898 17.0059 313.732 17.9477C312.824 19.4839 309.892 18.754 307.309 19.0032C309.761 19.4693 311.094 20.2333 312.702 21.0088C308.204 22.2819 303.922 20.2609 299.502 21.1581C303.264 21.3384 306.931 21.5122 308.589 23.3796C308.243 23.7621 306.727 23.6947 306.857 24.3199C307.169 24.6585 308 24.4124 308.471 24.5505C309.611 24.8834 311.909 24.6065 311.769 25.5841C311.653 26.4025 309.654 26.1744 308.495 26.4236C309.983 26.9408 312.559 26.7476 313.204 28.0256C304.601 28.4153 296.094 27.1909 288.241 28.4608C290.843 29.2662 294.877 29.6519 298.345 30.9275C295.947 31.5779 294.105 31.8312 291.935 31.4975C291.053 31.3619 290.053 31.3448 289.108 31.3464C284.075 31.3562 278.821 30.9348 274.794 32.9573C276.04 33.4469 279.119 32.9281 279.355 34.1947C279.436 34.6251 278.805 35.2958 276.807 35.1382C277.696 34.4927 277.322 34.021 275.656 34.0218C270.205 34.0267 264.824 33.6938 259.42 33.4283C251.426 33.0353 243.413 32.73 235.403 32.4174C232.203 32.2948 228.987 32.0837 225.747 32.5416ZM40.4892 32.4767C42.7248 33.2326 44.7047 33.2821 46.6388 32.9882C47.7126 32.825 48.7545 32.7803 49.7789 32.8388C54.9888 33.136 60.2375 33.2513 65.4439 33.0873C72.7078 32.8583 79.9822 32.7609 87.2267 32.868C96.3154 33.002 105.413 33.2626 114.484 33.0613C119.154 32.9573 123.834 33.0499 128.377 33.2237C136.674 33.5403 144.968 33.2456 153.259 33.6053C161.581 33.9658 169.996 33.8537 178.359 34.0608C179.61 34.0916 180.991 34.1176 182.252 34.1704C186.659 34.3555 191.127 34.2418 194.953 34.2418C144.167 31.7532 92.6464 31.033 40.4892 32.4767ZM256.52 32.0049C242.076 30.368 227.378 29.9856 212.668 29.6251C227.284 30.4184 241.902 31.2117 256.52 32.0049ZM136.076 5.43401C122.912 5.27243 109.699 4.9842 96.5164 5.67597C109.687 5.41859 122.864 5.61345 136.076 5.43401ZM31.3106 26.7435C29.1967 25.9608 23.5601 26.1191 20.2191 27.0634C24.0961 27.2924 27.5499 27.3078 31.3106 26.7435ZM273.807 8.63147C266.347 8.22793 258.886 7.82519 251.426 7.42165C258.782 8.18975 266.167 8.82552 273.807 8.63147ZM102.338 29.0422C102.317 28.9463 102.294 28.8497 102.271 28.7539C96.6786 28.7539 91.0844 28.7539 85.4919 28.7539C85.4936 28.8497 85.4936 28.9463 85.4954 29.0422C91.1108 29.0422 96.7244 29.0422 102.338 29.0422ZM74.5555 28.4462C71.6182 28.6881 68.5557 28.0962 65.6748 28.7255C68.6139 28.486 71.7522 29.5845 74.5555 28.4462Z" fill="white"/>
</svg>