<svg xmlns="http://www.w3.org/2000/svg" width="302" height="55" viewBox="0 0 302 55" fill="none">
  <path d="M266.093 22.4156C266.084 23.6959 268.494 23.1411 268.634 23.8352C269.218 24.8344 267.716 25.0294 268.151 25.9766C279.161 26.7663 290.379 27.516 301.355 29.5351C299.368 30.177 297.279 30.951 295.299 30.4859C291.993 29.7095 288.565 29.6078 285.225 29.414C278.202 29.0058 271.307 27.7353 264.205 27.9157C263.679 27.9291 263.152 27.9169 261.647 27.9169C263.83 28.4777 265.609 28.313 266.365 29.8585C260.407 30.2424 254.759 29.1608 248.826 28.8774C248.646 29.3776 248.454 29.9142 248.243 30.5041C265.836 31.1182 283.338 31.9248 301.39 34.6246C297.916 36.0248 295.067 35.5403 292.409 35.3428C286.833 34.9274 281.305 34.2213 275.748 33.6787C274.963 33.6023 273.779 33.5539 273.376 33.8652C271.555 35.2738 269.823 34.4199 267.615 34.2031C268.805 33.3528 269.668 34.6355 270.793 33.5297C266.256 32.6176 261.931 34.0238 257.656 33.5236C253.35 33.0197 248.922 33.0222 243.977 32.7739C245.62 34.1656 247.776 33.9609 249.081 33.9706C253.204 34.0033 257.243 34.6428 261.362 34.5592C265.667 34.472 269.903 34.9916 274.157 35.3756C276.875 35.6202 279.609 35.3138 282.316 35.0243C283.218 34.9286 282.714 35.3198 282.85 35.5802C283.281 36.4039 284.641 36.3324 285.794 36.3155C290.002 36.2501 294.068 36.8557 298.104 37.6018C298.693 37.7108 299.412 37.6199 299.452 38.2655C299.49 38.9038 298.763 38.8178 298.217 39.0043C295.076 40.0775 292.048 38.8384 288.968 38.8069C287.247 38.7887 285.454 37.5158 283.98 39.2369C283.711 39.5506 282.88 39.2987 282.243 39.1775C278.552 38.4799 274.677 38.6943 270.917 37.8416C269.044 37.4164 266.326 37.9603 263.977 38.2776C260.719 38.7185 257.398 37.6623 254.032 37.4709C251.187 37.3099 248.179 37.024 245.346 36.8896C239.484 36.6134 233.602 35.8249 227.012 36.502C231.06 37.5012 234.786 37.5618 238.33 37.563C246.382 37.5678 254.154 39.5821 262.25 38.9729C268.229 41.801 275.38 40.3343 281.847 41.5152C285.874 42.2504 290.191 42.2189 294.371 42.558C294.712 42.5859 295.019 42.8196 295.266 43.3259C278.767 41.4292 262.069 42.0639 245.09 40.7037C249.119 42.5568 254.006 40.4541 257.735 43.1394C251.088 44.8557 244.694 42.3206 238.321 43.0679C240.663 44.3094 244.228 44.0296 245.945 45.9603C246.3 46.36 246.047 46.9268 244.987 47.0916C246.927 47.9515 247.84 45.2505 249.71 46.7694C249.808 46.2752 249.892 45.844 249.973 45.4286C250.652 45.1282 251.604 46.1456 251.264 46.7452C251.196 46.8651 251.275 47.0262 251.289 47.1667C266.706 47.5191 281.992 48.6783 297.656 50.3182C296.314 51.2678 295.32 51.4132 294.22 51.3344C288.403 50.9142 282.587 50.5048 276.772 50.0748C274.169 49.8822 271.513 49.7381 268.949 49.6787C262.746 49.5358 256.605 49.0646 250.432 48.7667C243.058 48.4106 235.621 48.6722 228.211 48.6916C227.129 48.694 225.819 48.3767 225.071 49.5782C237.36 49.8422 249.543 50.0942 261.685 50.5871C273.929 51.0837 286.301 51.6966 298.182 54.2971C294.57 55.1849 290.885 55.1074 287.416 54.7428C283.089 54.2886 278.713 53.7653 274.408 53.6466C264.941 53.385 255.504 52.8133 246.034 52.5638C231.418 52.1787 216.813 52.3107 202.204 52.2271C193.281 52.1762 184.348 52.0369 175.436 52.2574C160.721 52.6219 145.995 52.4185 131.292 52.7431C120.458 52.9817 109.618 52.8339 98.8013 53.1561C89.5506 53.431 80.2858 53.6563 71.056 54.0766C60.2286 54.5696 49.4221 54.2183 38.6139 54.4351C35.4588 54.4981 32.309 54.6132 28.969 54.2547C29.7486 53.1912 30.9363 53.0737 32.1938 53.1052C39.0796 53.2784 45.8921 52.7818 52.7394 52.3349C55.8945 52.129 59.2362 51.9388 62.5727 52.513C64.5819 52.8594 66.9504 52.2477 69.1741 52.1254C75.2349 51.7923 81.2939 51.5367 87.3617 51.286C97.1391 50.8827 106.927 50.2335 116.701 50.5423C123.022 50.7422 129.286 49.9767 135.572 50.4563C137.493 50.6029 139.184 49.9912 140.988 49.5673C136.155 49.5673 131.322 49.5673 126.491 49.5673C118.627 49.5673 110.759 49.4619 102.898 49.6C96.2863 49.7151 89.6744 49.8652 83.066 50.2843C80.9294 50.42 78.6098 50.3376 76.3529 50.4079C68.044 50.6634 59.7193 50.9081 51.4087 50.8269C46.9891 50.7845 42.6271 50.7349 38.2843 51.326C36.4146 51.5803 34.9042 50.168 32.9351 50.7906C33.0973 51.1746 33.2647 51.5658 33.4967 52.1145C31.9723 52.1145 30.1898 52.4996 29.3945 52.0479C25.9116 50.0675 21.6315 50.7046 17.7736 50.0518C16.3608 49.8132 14.6499 49.9912 14.2487 48.7509C13.8668 47.57 15.8045 47.4574 16.4794 46.4109C13.0052 45.1779 12.6215 41.9645 9.49954 40.0218C8.25774 40.155 8.73908 42.4902 6.07408 41.1748C6.37232 43.3356 9.74193 44.6219 8.36583 46.83C6.49091 47.134 5.63458 46.0996 4.9631 45.2941C2.06439 41.824 -0.0895716 37.9143 0.00286602 34.0602C0.147627 28.0259 0.0761335 21.8597 2.90682 15.9865C3.10216 15.5795 3.22246 15.1278 3.56256 14.7862C4.32648 14.0171 4.52882 12.6932 6.48222 12.9306C8.27865 13.1487 8.56293 14.263 8.63095 15.278C8.71117 16.488 9.90065 16.8792 11.336 17.4848C12.0424 16.2784 11.7494 14.8783 13.4499 14.1697C13.5894 14.1116 13.7307 13.8439 13.6749 13.8015C11.0866 11.8781 14.6987 11.8587 15.5411 10.891C13.0087 9.2534 12.243 7.11563 12.447 4.67747C11.1163 4.44734 9.88498 4.3141 8.71643 4.71258C7.25661 5.21039 6.96535 4.2596 6.22934 3.84657C6.76129 3.40691 6.8293 2.83037 8.06936 2.68018C14.3237 1.92439 20.5292 1.13831 26.9214 0.906968C43.3788 0.311053 59.8362 0.131807 76.3093 0.00826387C86.1618 -0.0656199 95.934 0.364354 105.715 0.960269C108.692 1.14195 111.542 0.153606 114.493 0.535137C121.004 1.37693 127.563 0.822189 134.097 0.946943C140.062 1.0608 145.986 0.414018 152.012 0.900924C162.067 1.71243 172.225 1.16497 182.316 1.47261C190.081 1.7088 197.875 1.86866 205.607 2.36041C215.404 2.98419 225.205 3.54377 235.009 4.10456C244.176 4.62901 253.462 4.55998 262.473 5.90078C268.32 6.77164 274.3 6.91819 280.127 8.01434C283.48 8.64417 286.884 9.43025 290.355 9.72821C292.078 9.87597 291.077 10.6197 291.574 11.0811C288.295 10.3362 284.906 10.415 281.667 9.81662C278.108 9.16015 274.585 8.96151 271.058 10.2006C268.637 11.0508 265.876 10.4186 263.438 10.1449C255.01 9.20011 246.524 8.69748 238.063 7.99861C228.073 7.17256 218.037 6.80072 208.038 6.15999C199.811 5.6319 191.579 5.73121 183.39 5.29518C173.976 4.79374 164.566 5.31578 155.195 4.86278C150.122 4.61812 145.062 4.60964 139.997 4.50548C136.504 4.43281 133.045 5.63069 129.442 4.74772C129.932 4.95241 130.424 5.33636 130.914 5.33636C139.633 5.32788 148.132 6.97755 156.915 6.79951C162.313 6.6905 167.796 6.97029 173.207 7.54683C175.831 7.82662 178.423 7.20647 181.231 7.46445C187.51 8.04341 193.939 7.86416 200.265 8.14153C210.468 8.58967 220.711 8.53154 230.86 9.07658C241.893 9.66887 252.893 10.9188 263.766 12.7053C268.862 13.5423 274.281 14.0268 279.634 14.2303C280.094 14.2472 280.546 14.3574 280.938 14.63C277.065 14.6929 273.249 14.6396 269.509 14.154C269.028 15.1568 270.646 14.9243 270.842 15.8497C262.744 17.3031 254.623 14.5924 246.646 15.7334C248.381 16.9506 250.832 16.5824 252.816 16.6054C258.771 16.6757 264.483 17.7234 270.287 18.3302C272.622 18.5749 275.11 18.2999 277.344 19.0703C278.65 19.5208 281.111 18.0916 281.373 20.2633C284.65 19.6432 287.313 21.5944 290.538 21.3013C293.829 21.0033 296.935 21.8463 300.108 22.2339C300.805 22.3187 301.848 22.4592 301.983 23.1811C302.143 24.0398 301.153 24.2494 300.274 24.5219C297.425 25.4049 294.764 24.1513 291.982 24.1489C291.223 24.1477 290.351 23.9272 289.518 23.9466C281.612 24.1258 273.904 22.842 266.072 22.4338C261.085 22.0305 256.106 21.6235 251.126 21.2177C251.1 21.4079 251.074 21.598 251.05 21.7894C256.034 22.1794 260.965 23.0237 266.093 22.4156ZM244.408 23.926C248.683 25.6883 253.102 25.0488 257.365 25.1917C253.195 24.58 249.016 24.0108 244.408 23.926Z" fill="white"/>
</svg>