<svg width="54" height="209" viewBox="0 0 54 209" fill="none" xmlns="http://www.w3.org/2000/svg">
<path d="M54 107C48.525 107 43.75 106.048 40 105C36.25 103.952 33.325 102.245 31 100C28.75 97.6803 27.05 94.6667 26 91C24.95 87.2585 25 83.3878 25 78V35C25 24.5238 22.9 16.6395 19 12C15.1 7.28571 8.55 5 0 5V0C5.1 0 9.325 0.578231 13 2C16.75 3.42177 19.6 6.08163 22 9C24.475 11.8435 26.8 15.585 28 20C29.2 24.3401 30 29.0884 30 35V78C30 87.2789 31.625 93.6327 35 97C38.375 100.367 44.55 102 54 102V107ZM0 209V204C8.55 204 15.1 201.714 19 197C22.9 192.286 25 184.401 25 174V131C25 125.612 24.95 121.742 26 118C27.05 114.258 28.75 110.32 31 108C33.325 105.68 36.25 104.048 40 103C43.75 101.952 48.525 102 54 102V107C44.55 107 38.375 108.558 35 112C31.625 115.367 30 121.646 30 131V174C30 179.912 29.2 184.66 28 189C26.8 193.415 24.475 197.156 22 200C19.6 202.918 16.75 205.578 13 207C9.325 208.422 5.1 209 0 209ZM54 107H36V102H54V107Z" fill="white"/>
</svg>
