<svg xmlns="http://www.w3.org/2000/svg" width="334" height="41" viewBox="0 0 334 41" fill="none">
  <path d="M317.082 4.85094C316.804 5.13519 316.274 5.2385 315.4 5.25929C316.606 5.73122 317.617 6.12673 318.634 6.52469C316.398 7.25276 315.49 6.19642 313.983 6.05521C313.189 6.64145 315.659 6.83523 314.56 7.35667C312.686 7.32427 310.716 7.29005 307.982 7.24237C310.122 8.13121 312.926 7.97166 314.746 8.50166C313.567 9.62707 310.238 8.19416 308.778 9.17286C310.492 9.19609 312.018 9.34709 313.507 9.55554C312.367 10.544 313.548 12.2569 306.939 11.5423C308.602 12.098 309.405 12.3663 310.309 12.6683C309.958 12.8493 309.582 13.0443 309.118 13.2839C309.98 13.4673 310.723 13.6256 311.48 13.7864C311.202 13.9618 310.926 14.1373 310.556 14.3714C312.545 14.4839 314.092 14.6917 313.386 15.6435C310.929 14.4594 309.144 16.7225 306.682 15.4986C306.321 16.1228 307.692 16.1815 307.84 16.5966C305.985 16.8906 303.402 16.4883 301.787 17.2519C303.245 17.4524 304.689 17.651 306.288 17.8705C304.382 18.6933 300.613 17.1809 299.707 18.7612C301.175 18.851 302.714 18.9831 304.273 19.0289C305.864 19.076 307.473 19.0393 309.333 19.0393C308.52 19.9159 306.12 18.9403 305.542 19.7307C306.862 20.1305 308.59 20.1305 310.267 20.32C306.392 20.9924 301.491 19.8701 298.337 21.1948C304.165 21.5787 310.362 21.8935 316.424 22.4119C322.348 22.9187 329.195 22.5054 334 24.4652C332.324 24.8883 330.981 24.1406 329.437 24.4763C329.741 24.9543 331.814 24.8834 331.945 25.4819C329.218 25.2569 329.185 26.1726 328.153 26.6684C326.929 27.2559 329.458 27.2675 329.519 27.6642C328.545 28.2083 326.941 27.7981 325.735 28.0432C325.817 28.6307 328.785 28.2138 328.41 28.9608C328.127 29.5256 326.665 29.5489 325.556 29.5782C325.394 30.1443 326.919 30.0856 327.246 30.4909C326.081 30.7721 324.696 30.5477 323.461 30.6676C322.426 31.2165 326.606 31.8021 323.258 32.3492C324.253 32.5143 325.13 32.6598 325.969 32.7986C325.832 33.2876 324.744 33.2754 323.904 33.3897C324.72 33.7693 326.427 33.7473 327.05 34.5041C323.447 33.7754 322.043 35.4687 318.859 35.2144C316.756 36.8332 313.253 35.7939 310.437 35.7151C305.897 35.5873 301.293 34.9289 296.919 35.1129C293.161 35.2713 289.574 35.3434 285.782 35.193C289.14 35.6925 292.749 35.9272 295.32 36.8063C293.652 36.7818 293.278 37.3632 292.563 37.9788C293.221 38.145 293.98 38.337 294.858 38.5583C295.975 38.4586 297.541 38.0209 298.545 38.9024C292.502 39.551 286.487 39.0155 280.531 39.1231C280.274 39.6219 282.497 39.7527 281.652 40.3512C278.631 40.7327 275.532 40.2724 272.472 40.1697C267.206 39.9924 261.973 39.6898 256.683 39.5339C251.216 39.3725 245.762 39.0962 240.351 38.7673C237.72 38.6072 235.04 38.5607 232.444 38.4935C224.584 38.2899 216.745 38.016 208.903 37.7581C201.556 37.5166 194.196 37.4353 186.838 37.2922C178.838 37.1364 170.836 37.0037 162.84 36.8417C153.389 36.6504 143.932 36.5673 134.493 36.3802C128.203 36.2561 121.926 36.2017 115.649 36.2261C106.011 36.2634 96.4053 36.5379 86.7909 36.824C79.1138 37.0526 71.3566 37.2898 63.6215 37.0783C61.6605 37.0245 59.4132 36.8497 57.9207 36.4389C56.1471 35.9504 54.4144 36 52.5556 35.989C45.3998 35.9474 38.2337 35.7236 31.1137 36.2066C26.2733 36.5348 21.3955 36.714 16.4512 36.6681C14.6878 36.6516 13.7626 36.4798 14.1767 35.7689C10.4982 35.7744 6.92885 35.7634 4.06993 34.814C6.04459 34.7596 8.09081 35.1924 9.76049 34.531C8.33955 34.1141 6.21497 34.3586 4.5981 33.8922C6.43305 33.5529 8.23224 34.2021 9.69066 33.68C8.56788 33.2167 7.79606 32.7912 10.5033 32.6072C11.9601 32.5082 13.3503 32.282 14.9178 32.0956C12.495 31.4195 9.74854 31.9623 6.95949 31.6248C8.65984 30.6547 11.5699 30.8473 13.8785 30.5612C13.3009 30.2867 12.4882 30.4157 11.8187 30.4285C11.132 30.4414 10.4727 30.5844 9.78093 30.6266C8.63089 30.6975 7.04301 30.6076 6.89137 30.2781C6.71248 29.8881 7.62909 29.478 9.28344 29.5073C10.8884 29.536 12.3195 29.1454 14.0199 29.2206C11.73 28.9883 9.26129 29.2444 7.10944 28.6435C8.47415 27.7137 11.7011 28.2505 13.5054 27.6373C12.4439 27.3372 11.1116 27.6673 10.0723 27.3537C8.82345 26.9771 8.83534 26.68 10.2512 26.3896C9.2681 25.966 8.51333 26.3377 7.71086 26.3792C6.88624 26.422 6.03438 26.4428 5.51814 26.117C5.79926 25.5516 7.24575 25.5289 8.36001 25.2624C6.54721 25.2624 4.73611 25.2624 2.99827 25.2624C2.60981 24.8131 2.92158 24.6688 4.03754 24.6022C7.13157 24.417 10.2103 23.9805 13.2702 24.008C15.6947 24.03 16.3745 23.1833 18.3935 23.1558C17.298 23.0446 16.2075 22.9651 15.1972 22.6668C16.3268 21.6875 -1.1892 21.7297 0.928572 21.7492C4.55929 21.7828 8.08097 21.4442 11.681 21.4961C12.5994 21.5096 13.2416 21.3665 13.8056 21.1636C12.5346 20.5822 9.12709 22.0469 8.70797 20.3414C12.1649 20.6489 14.7835 19.8811 17.7651 19.6176C17.6356 19.1591 16.2045 19.367 15.5468 19.0668C17.0376 18.0417 20.0652 18.329 22.3994 18.0484C19.7994 17.5704 16.6952 17.8992 13.7801 17.3998C15.4276 17.0685 16.8008 16.7922 18.341 16.4822C12.814 15.9877 7.40285 16.1961 1.55724 16.1161C3.79087 14.987 7.20863 15.2156 9.70294 14.7046C7.16604 14.5395 4.47579 14.7419 2.46876 13.9484C5.82517 13.3566 9.58365 13.4483 13.291 13.4728C15.3134 13.4862 16.6066 13.3279 16.0171 12.4262C11.4697 12.1579 6.83891 12.4867 1.84519 12.5063C4.14867 11.3253 7.38753 11.8767 10.4747 11.5019C7.31427 10.8925 4.58824 11.9029 1.77874 11.2489C2.87596 9.19976 8.48307 10.6577 10.8377 9.70593C7.75557 9.70593 4.45362 9.70593 1.15173 9.70593C1.12447 9.61362 1.09726 9.52193 1.07 9.42962C8.23773 8.67405 15.8876 8.75412 23.0639 7.98755C17.3546 7.95943 11.6998 7.35791 5.98875 7.87813C5.21183 7.94904 4.33777 7.88913 3.50975 7.88058C2.71068 7.87202 2.01386 7.74485 2.01386 7.44654C2.01386 7.15128 2.71751 7.06508 3.48931 6.99295C6.31585 6.72703 9.18842 6.76617 12.0559 6.779C13.5006 6.78512 14.8977 6.7735 16.1244 6.44645C10.928 5.82475 5.37026 7.06876 0 6.1353C1.68502 5.1242 4.44004 5.42375 6.51182 5.26419C12.4937 4.80327 18.6545 4.73479 24.7335 4.49577C32.5453 4.18829 60.6042 4.2323 68.3393 3.66562C68.8385 3.62894 69.3717 3.65218 69.8897 3.6534C82.3612 3.69497 94.768 3.01643 107.248 3.21694C108.926 3.24383 110.277 2.93451 111.54 2.70833C114.385 2.19789 117.195 1.90445 120.403 1.91301C127.196 1.93135 133.972 1.69418 140.761 1.60432C151.905 1.45638 163.017 1.0089 174.156 0.772932C181.561 0.615827 188.99 0.566925 196.409 0.538805C206.475 0.500905 216.546 0.471562 226.609 0.546753C235.886 0.61583 245.162 0.785151 254.428 0.990549C262.986 1.18005 271.515 1.56579 280.011 1.93196C290.334 2.37699 300.836 2.62457 310.757 3.99206C312.798 4.27326 314.995 4.44564 317.082 4.85094Z" fill="white"/>
</svg>