<svg xmlns="http://www.w3.org/2000/svg" width="382" height="66" viewBox="0 0 382 66" fill="none">
  <path d="M361.929 7.17905C361.612 7.64807 361.007 7.81853 360.01 7.85283C361.387 8.63151 362.54 9.28411 363.701 9.94074C361.149 11.142 360.113 9.39909 358.392 9.16609C357.485 10.1334 360.305 10.4531 359.051 11.3135C356.912 11.2601 354.664 11.2036 351.542 11.1249C353.985 12.5915 357.186 12.3282 359.263 13.2027C357.917 15.0597 354.117 12.6954 352.451 14.3102C354.407 14.3486 356.149 14.5977 357.849 14.9416C356.548 16.5726 357.896 19.3989 350.352 18.2198C352.25 19.1366 353.166 19.5794 354.199 20.0777C353.798 20.3763 353.368 20.698 352.839 21.0934C353.823 21.396 354.671 21.6572 355.535 21.9225C355.218 22.212 354.903 22.5015 354.481 22.8878C356.75 23.0734 358.516 23.4163 357.711 24.9868C354.907 23.033 352.869 26.7671 350.058 24.7477C349.646 25.7776 351.212 25.8744 351.381 26.5593C349.263 27.0445 346.315 26.3808 344.471 27.6406C346.136 27.9714 347.783 28.2992 349.609 28.6613C347.433 30.019 343.131 27.5236 342.097 30.1309C343.773 30.2792 345.529 30.4971 347.309 30.5727C349.125 30.6504 350.961 30.5899 353.084 30.5899C352.157 32.0363 349.417 30.4265 348.757 31.7307C350.264 32.3903 352.237 32.3903 354.15 32.703C349.728 33.8125 344.133 31.9606 340.533 34.1464C347.186 34.7798 354.259 35.2993 361.178 36.1546C367.94 36.9908 375.756 36.3089 381.24 39.5427C379.327 40.2406 377.794 39.0071 376.032 39.5608C376.379 40.3496 378.745 40.2326 378.895 41.2201C375.781 40.8489 375.744 42.3598 374.566 43.1778C373.17 44.1472 376.056 44.1663 376.126 44.8209C375.013 45.7186 373.183 45.0419 371.806 45.4463C371.9 46.4156 375.287 45.7277 374.86 46.9603C374.537 47.8923 372.868 47.9306 371.602 47.979C371.417 48.913 373.158 48.8162 373.531 49.485C372.201 49.9489 370.62 49.5788 369.21 49.7765C368.03 50.6822 372.8 51.6485 368.979 52.5512C370.115 52.8236 371.116 53.0637 372.073 53.2926C371.917 54.0995 370.675 54.0793 369.716 54.268C370.647 54.8943 372.596 54.8581 373.308 56.1068C369.195 54.9045 367.592 57.6984 363.958 57.2788C361.558 59.9497 357.559 58.235 354.345 58.1049C349.162 57.8941 343.907 56.8078 338.915 57.1114C334.625 57.3726 330.531 57.4916 326.202 57.2435C330.035 58.0676 334.154 58.4549 337.089 59.9053C335.185 59.865 334.759 60.8242 333.942 61.8399C334.693 62.1143 335.56 62.431 336.562 62.7961C337.838 62.6317 339.625 61.9095 340.77 63.364C333.872 64.4342 327.007 63.5506 320.209 63.7281C319.915 64.5512 322.453 64.767 321.488 65.7545C318.04 66.3839 314.503 65.6244 311.01 65.4549C304.999 65.1624 299.026 64.6632 292.988 64.406C286.747 64.1397 280.522 63.6838 274.346 63.1411C271.343 62.8768 268.284 62.8002 265.32 62.6892C256.349 62.3534 247.401 61.9015 238.45 61.4758C230.064 61.0774 221.663 60.9432 213.264 60.7072C204.133 60.45 194.999 60.2311 185.872 59.9638C175.084 59.6481 164.289 59.511 153.515 59.2023C146.335 58.9976 139.171 58.9078 132.007 58.9481C121.005 59.0097 110.041 59.4625 99.0665 59.9346C90.3035 60.3118 81.4491 60.7032 72.62 60.3542C70.3816 60.2654 67.8165 59.9769 66.1129 59.2991C64.0885 58.4932 62.1107 58.5749 59.989 58.5568C51.8211 58.4882 43.6415 58.119 35.5144 58.9158C29.9894 59.4575 24.4216 59.753 18.778 59.6774C16.7652 59.6501 15.7092 59.3667 16.1818 58.1937C11.9831 58.2028 7.90885 58.1846 4.64558 56.6181C6.89953 56.5284 9.23515 57.2425 11.141 56.1511C9.51908 55.4632 7.094 55.8667 5.24844 55.0971C7.34292 54.5373 9.3966 55.6085 11.0613 54.7471C9.77971 53.9825 8.89872 53.2805 11.9889 52.9769C13.6517 52.8135 15.2386 52.4403 17.0277 52.1327C14.2623 51.0171 11.1274 51.9128 7.94382 51.356C9.88467 49.7553 13.2063 50.073 15.8414 49.601C15.1821 49.1481 14.2545 49.3609 13.4903 49.3821C12.7065 49.4032 11.9539 49.6393 11.1643 49.7089C9.85162 49.8259 8.03916 49.6776 7.86608 49.1339C7.66188 48.4904 8.70813 47.8136 10.5965 47.862C12.4284 47.9094 14.062 47.2649 16.0028 47.389C13.3891 47.0057 10.5712 47.4283 8.11498 46.4368C9.67272 44.9027 13.3561 45.7883 15.4155 44.7766C14.204 44.2813 12.6832 44.826 11.4969 44.3085C10.0714 43.6872 10.085 43.197 11.7011 42.7179C10.579 42.0189 9.71744 42.6322 8.80147 42.7008C7.86022 42.7714 6.88787 42.8057 6.29862 42.2681C6.6195 41.3351 8.27058 41.2977 9.54244 40.858C7.47324 40.858 5.40597 40.858 3.42234 40.858C2.97894 40.1166 3.3348 39.8785 4.6086 39.7686C8.14025 39.463 11.6544 38.7428 15.1472 38.7882C17.9145 38.8245 18.6905 37.4275 20.995 37.3821C19.7446 37.1986 18.4999 37.0674 17.3467 36.5752C18.636 34.9594 -1.3574 35.0289 1.05991 35.0612C5.20415 35.1167 9.22393 34.5579 13.3332 34.6436C14.3814 34.6658 15.1145 34.4298 15.7582 34.0949C14.3074 33.1357 10.418 35.5525 9.9396 32.7383C13.8855 33.2457 16.8745 31.9788 20.2778 31.5441C20.13 30.7876 18.4964 31.1305 17.7457 30.6353C19.4474 28.9437 22.9032 29.4178 25.5675 28.9549C22.5998 28.1661 19.0565 28.7087 15.7291 27.8847C17.6096 27.338 19.1771 26.8821 20.9351 26.3707C14.6264 25.5547 8.44989 25.8986 1.77749 25.7665C4.32705 23.9035 8.2282 24.2808 11.0753 23.4375C8.17959 23.1652 5.10884 23.4991 2.81794 22.1898C6.64907 21.2135 10.9391 21.3647 15.1709 21.4051C17.4793 21.4273 18.9554 21.166 18.2825 19.6783C13.092 19.2355 7.8062 19.7781 2.10617 19.8104C4.73545 17.8617 8.43241 18.7715 11.9563 18.1532C8.34878 17.1476 5.23719 18.8149 2.03032 17.7356C3.28273 14.3546 9.6829 16.7602 12.3705 15.1898C8.8525 15.1898 5.08354 15.1898 1.31463 15.1898C1.28352 15.0375 1.25245 14.8862 1.22134 14.7339C9.40285 13.4872 18.1347 13.6193 26.326 12.3545C19.8091 12.3081 13.3545 11.3156 6.83578 12.1739C5.94898 12.2909 4.9513 12.1921 4.00616 12.1779C3.09407 12.1638 2.29869 11.954 2.29869 11.4618C2.29869 10.9746 3.10187 10.8324 3.98283 10.7134C7.20916 10.2746 10.488 10.3392 13.761 10.3604C15.4101 10.3704 17.0048 10.3513 18.405 9.81164C12.4736 8.78584 6.12982 10.8384 0 9.29824C1.92335 7.62993 5.06803 8.12418 7.43283 7.86092C14.2608 7.1004 21.2929 6.98741 28.2318 6.59303C37.1484 6.08567 69.1759 6.1583 78.005 5.22327C78.5749 5.16276 79.1835 5.2011 79.7747 5.20311C94.0102 5.2717 108.172 4.15211 122.417 4.48295C124.333 4.52733 125.875 4.01695 127.316 3.64375C130.563 2.80152 133.77 2.31734 137.432 2.33146C145.186 2.36172 152.92 1.97039 160.67 1.82212C173.391 1.57803 186.074 0.839678 198.789 0.450338C207.241 0.191115 215.72 0.110427 224.189 0.064029C235.679 0.00149262 247.174 -0.0469222 258.66 0.077142C269.249 0.19112 279.838 0.470499 290.413 0.809406C300.182 1.12209 309.917 1.75856 319.615 2.36274C331.399 3.09704 343.386 3.50554 354.71 5.76189C357.04 6.22587 359.547 6.51031 361.929 7.17905Z" fill="white"/>
</svg>