<svg width="103" height="16" viewBox="0 0 103 16" fill="none" xmlns="http://www.w3.org/2000/svg">
<g clip-path="url(#clip0_3062_4633)">
<path fill-rule="evenodd" clip-rule="evenodd" d="M10.3967 12.8386L8.94532 14.29L4.10707 9.45179L4.10706 9.45179L2.65563 8.00036L8.94516 1.71083L10.3966 3.16226L5.5585 8.00036L10.3967 12.8386Z" fill="#032A46"/>
</g>
<g clip-path="url(#clip1_3062_4633)">
<path fill-rule="evenodd" clip-rule="evenodd" d="M18.6077 12.8386L17.1563 14.29L12.318 9.45179L12.318 9.45179L10.8666 8.00036L17.1561 1.71083L18.6075 3.16226L13.7694 8.00036L18.6077 12.8386Z" fill="#032A46"/>
</g>
<g clip-path="url(#clip2_3062_4633)">
<path fill-rule="evenodd" clip-rule="evenodd" d="M26.8167 12.8386L25.3652 14.29L20.527 9.45179L20.527 9.45179L19.0756 8.00036L25.3651 1.71083L26.8165 3.16226L21.9784 8.00036L26.8167 12.8386Z" fill="#032A46"/>
</g>
<g clip-path="url(#clip3_3062_4633)">
<path fill-rule="evenodd" clip-rule="evenodd" d="M35.0276 12.8386L33.5762 14.29L28.7379 9.45179L28.7379 9.45179L27.2865 8.00036L33.576 1.71083L35.0274 3.16226L30.1894 8.00036L35.0276 12.8386Z" fill="#032A46"/>
</g>
<g opacity="0.5" clip-path="url(#clip4_3062_4633)">
<path fill-rule="evenodd" clip-rule="evenodd" d="M43.2385 12.8386L41.7871 14.29L36.9489 9.45179L36.9489 9.45179L35.4974 8.00036L41.787 1.71083L43.2384 3.16226L38.4003 8.00036L43.2385 12.8386Z" fill="#032A46"/>
</g>
<g opacity="0.5" clip-path="url(#clip5_3062_4633)">
<path fill-rule="evenodd" clip-rule="evenodd" d="M51.4495 12.8386L49.9981 14.29L45.1598 9.45179L45.1598 9.45179L43.7084 8.00036L49.9979 1.71083L51.4493 3.16226L46.6112 8.00036L51.4495 12.8386Z" fill="#032A46"/>
</g>
<g opacity="0.5" clip-path="url(#clip6_3062_4633)">
<path fill-rule="evenodd" clip-rule="evenodd" d="M59.6604 12.8386L58.209 14.29L53.3707 9.45179L53.3707 9.45179L51.9193 8.00036L58.2088 1.71083L59.6603 3.16226L54.8222 8.00036L59.6604 12.8386Z" fill="#032A46"/>
</g>
<g opacity="0.5" clip-path="url(#clip7_3062_4633)">
<path fill-rule="evenodd" clip-rule="evenodd" d="M67.8694 12.8386L66.418 14.29L61.5797 9.45179L61.5797 9.45179L60.1283 8.00036L66.4178 1.71083L67.8692 3.16226L63.0312 8.00036L67.8694 12.8386Z" fill="#032A46"/>
</g>
<g opacity="0.2" clip-path="url(#clip8_3062_4633)">
<path fill-rule="evenodd" clip-rule="evenodd" d="M76.0803 12.8386L74.6289 14.29L69.7907 9.45179L69.7907 9.45179L68.3392 8.00036L74.6288 1.71083L76.0802 3.16226L71.2421 8.00036L76.0803 12.8386Z" fill="#032A46"/>
</g>
<g opacity="0.2" clip-path="url(#clip9_3062_4633)">
<path fill-rule="evenodd" clip-rule="evenodd" d="M84.2913 12.8386L82.8398 14.29L78.0016 9.45179L78.0016 9.45179L76.5502 8.00036L82.8397 1.71083L84.2911 3.16226L79.453 8.00036L84.2913 12.8386Z" fill="#032A46"/>
</g>
<g opacity="0.2" clip-path="url(#clip10_3062_4633)">
<path fill-rule="evenodd" clip-rule="evenodd" d="M92.5022 12.8386L91.0508 14.29L86.2125 9.45179L86.2125 9.45179L84.7611 8.00036L91.0506 1.71083L92.5021 3.16226L87.664 8.00036L92.5022 12.8386Z" fill="#032A46"/>
</g>
<g opacity="0.2" clip-path="url(#clip11_3062_4633)">
<path fill-rule="evenodd" clip-rule="evenodd" d="M100.711 12.8386L99.2598 14.29L94.4215 9.45179L94.4215 9.45179L92.9701 8.00036L99.2596 1.71083L100.711 3.16226L95.8729 8.00036L100.711 12.8386Z" fill="#032A46"/>
</g>
<defs>
<clipPath id="clip0_3062_4633">
<rect width="13" height="8.21053" fill="white" transform="matrix(-4.37114e-08 -1 -1 4.37114e-08 10.4473 14.5)"/>
</clipPath>
<clipPath id="clip1_3062_4633">
<rect width="13" height="8.21053" fill="white" transform="matrix(-4.37114e-08 -1 -1 4.37114e-08 18.6582 14.5)"/>
</clipPath>
<clipPath id="clip2_3062_4633">
<rect width="13" height="8.21053" fill="white" transform="matrix(-4.37114e-08 -1 -1 4.37114e-08 26.8672 14.5)"/>
</clipPath>
<clipPath id="clip3_3062_4633">
<rect width="13" height="8.21053" fill="white" transform="matrix(-4.37114e-08 -1 -1 4.37114e-08 35.0781 14.5)"/>
</clipPath>
<clipPath id="clip4_3062_4633">
<rect width="13" height="8.21053" fill="white" transform="matrix(-4.37114e-08 -1 -1 4.37114e-08 43.2891 14.5)"/>
</clipPath>
<clipPath id="clip5_3062_4633">
<rect width="13" height="8.21053" fill="white" transform="matrix(-4.37114e-08 -1 -1 4.37114e-08 51.5 14.5)"/>
</clipPath>
<clipPath id="clip6_3062_4633">
<rect width="13" height="8.21053" fill="white" transform="matrix(-4.37114e-08 -1 -1 4.37114e-08 59.7109 14.5)"/>
</clipPath>
<clipPath id="clip7_3062_4633">
<rect width="13" height="8.21053" fill="white" transform="matrix(-4.37114e-08 -1 -1 4.37114e-08 67.9199 14.5)"/>
</clipPath>
<clipPath id="clip8_3062_4633">
<rect width="13" height="8.21053" fill="white" transform="matrix(-4.37114e-08 -1 -1 4.37114e-08 76.1309 14.5)"/>
</clipPath>
<clipPath id="clip9_3062_4633">
<rect width="13" height="8.21053" fill="white" transform="matrix(-4.37114e-08 -1 -1 4.37114e-08 84.3418 14.5)"/>
</clipPath>
<clipPath id="clip10_3062_4633">
<rect width="13" height="8.21053" fill="white" transform="matrix(-4.37114e-08 -1 -1 4.37114e-08 92.5527 14.5)"/>
</clipPath>
<clipPath id="clip11_3062_4633">
<rect width="13" height="8.21053" fill="white" transform="matrix(-4.37114e-08 -1 -1 4.37114e-08 100.762 14.5)"/>
</clipPath>
</defs>
</svg>
