<svg width="104" height="14" viewBox="0 0 104 14" fill="none" xmlns="http://www.w3.org/2000/svg">
<g clip-path="url(#clip0_3066_1627)">
<path fill-rule="evenodd" clip-rule="evenodd" d="M6.95852 11.0874L5.72461 12.3213L0.377653 6.97433L0.377793 6.97419L0.377586 6.97399L5.72454 1.62703L6.95845 2.86094L2.84527 6.97413L6.95852 11.0874Z" fill="white"/>
</g>
<g clip-path="url(#clip1_3066_1627)">
<path fill-rule="evenodd" clip-rule="evenodd" d="M13.9585 11.0874L12.7246 12.3213L7.37765 6.97433L7.37779 6.97419L7.37759 6.97399L12.7245 1.62703L13.9585 2.86094L9.84527 6.97413L13.9585 11.0874Z" fill="white"/>
</g>
<g clip-path="url(#clip2_3066_1627)">
<path fill-rule="evenodd" clip-rule="evenodd" d="M20.9585 11.0874L19.7246 12.3213L14.3777 6.97433L14.3778 6.97419L14.3776 6.97399L19.7245 1.62703L20.9585 2.86094L16.8453 6.97413L20.9585 11.0874Z" fill="white"/>
</g>
<g clip-path="url(#clip3_3066_1627)">
<path fill-rule="evenodd" clip-rule="evenodd" d="M27.9585 11.0874L26.7246 12.3213L21.3777 6.97433L21.3778 6.97419L21.3776 6.97399L26.7245 1.62703L27.9585 2.86094L23.8453 6.97413L27.9585 11.0874Z" fill="white"/>
</g>
<g opacity="0.5" clip-path="url(#clip4_3066_1627)">
<path fill-rule="evenodd" clip-rule="evenodd" d="M34.9585 11.0874L33.7246 12.3213L28.3777 6.97433L28.3778 6.97419L28.3776 6.97399L33.7245 1.62703L34.9585 2.86094L30.8453 6.97413L34.9585 11.0874Z" fill="white"/>
</g>
<g opacity="0.5" clip-path="url(#clip5_3066_1627)">
<path fill-rule="evenodd" clip-rule="evenodd" d="M41.9585 11.0874L40.7246 12.3213L35.3777 6.97433L35.3778 6.97419L35.3776 6.97399L40.7245 1.62703L41.9585 2.86094L37.8453 6.97413L41.9585 11.0874Z" fill="white"/>
</g>
<g opacity="0.5" clip-path="url(#clip6_3066_1627)">
<path fill-rule="evenodd" clip-rule="evenodd" d="M48.9585 11.0874L47.7246 12.3213L42.3777 6.97433L42.3778 6.97419L42.3776 6.97399L47.7245 1.62703L48.9585 2.86094L44.8453 6.97413L48.9585 11.0874Z" fill="white"/>
</g>
<g opacity="0.5" clip-path="url(#clip7_3066_1627)">
<path fill-rule="evenodd" clip-rule="evenodd" d="M55.9585 11.0874L54.7246 12.3213L49.3777 6.97433L49.3778 6.97419L49.3776 6.97399L54.7245 1.62703L55.9585 2.86094L51.8453 6.97413L55.9585 11.0874Z" fill="white"/>
</g>
<g opacity="0.5" clip-path="url(#clip8_3066_1627)">
<path fill-rule="evenodd" clip-rule="evenodd" d="M62.9585 11.0874L61.7246 12.3213L56.3777 6.97433L56.3778 6.97419L56.3776 6.97399L61.7245 1.62703L62.9585 2.86094L58.8453 6.97413L62.9585 11.0874Z" fill="white"/>
</g>
<g opacity="0.2" clip-path="url(#clip9_3066_1627)">
<path fill-rule="evenodd" clip-rule="evenodd" d="M69.9585 11.0874L68.7246 12.3213L63.3777 6.97433L63.3778 6.97419L63.3776 6.97399L68.7245 1.62703L69.9585 2.86094L65.8453 6.97413L69.9585 11.0874Z" fill="white"/>
</g>
<g opacity="0.2" clip-path="url(#clip10_3066_1627)">
<path fill-rule="evenodd" clip-rule="evenodd" d="M76.9585 11.0874L75.7246 12.3213L70.3777 6.97433L70.3778 6.97419L70.3776 6.97399L75.7245 1.62703L76.9585 2.86094L72.8453 6.97413L76.9585 11.0874Z" fill="white"/>
</g>
<g opacity="0.2" clip-path="url(#clip11_3066_1627)">
<path fill-rule="evenodd" clip-rule="evenodd" d="M83.9585 11.0874L82.7246 12.3213L77.3777 6.97433L77.3778 6.97419L77.3776 6.97399L82.7245 1.62703L83.9585 2.86094L79.8453 6.97413L83.9585 11.0874Z" fill="white"/>
</g>
<g opacity="0.2" clip-path="url(#clip12_3066_1627)">
<path fill-rule="evenodd" clip-rule="evenodd" d="M90.9585 11.0874L89.7246 12.3213L84.3777 6.97433L84.3778 6.97419L84.3776 6.97399L89.7245 1.62703L90.9585 2.86094L86.8453 6.97413L90.9585 11.0874Z" fill="white"/>
</g>
<g opacity="0.2" clip-path="url(#clip13_3066_1627)">
<path fill-rule="evenodd" clip-rule="evenodd" d="M97.9585 11.0874L96.7246 12.3213L91.3777 6.97433L91.3778 6.97419L91.3776 6.97399L96.7245 1.62703L97.9585 2.86094L93.8453 6.97413L97.9585 11.0874Z" fill="white"/>
</g>
<defs>
<clipPath id="clip0_3066_1627">
<rect width="11" height="7" fill="white" transform="matrix(-4.37114e-08 -1 -1 4.37114e-08 7 12.5)"/>
</clipPath>
<clipPath id="clip1_3066_1627">
<rect width="11" height="7" fill="white" transform="matrix(-4.37114e-08 -1 -1 4.37114e-08 14 12.5)"/>
</clipPath>
<clipPath id="clip2_3066_1627">
<rect width="11" height="7" fill="white" transform="matrix(-4.37114e-08 -1 -1 4.37114e-08 21 12.5)"/>
</clipPath>
<clipPath id="clip3_3066_1627">
<rect width="11" height="7" fill="white" transform="matrix(-4.37114e-08 -1 -1 4.37114e-08 28 12.5)"/>
</clipPath>
<clipPath id="clip4_3066_1627">
<rect width="11" height="7" fill="white" transform="matrix(-4.37114e-08 -1 -1 4.37114e-08 35 12.5)"/>
</clipPath>
<clipPath id="clip5_3066_1627">
<rect width="11" height="7" fill="white" transform="matrix(-4.37114e-08 -1 -1 4.37114e-08 42 12.5)"/>
</clipPath>
<clipPath id="clip6_3066_1627">
<rect width="11" height="7" fill="white" transform="matrix(-4.37114e-08 -1 -1 4.37114e-08 49 12.5)"/>
</clipPath>
<clipPath id="clip7_3066_1627">
<rect width="11" height="7" fill="white" transform="matrix(-4.37114e-08 -1 -1 4.37114e-08 56 12.5)"/>
</clipPath>
<clipPath id="clip8_3066_1627">
<rect width="11" height="7" fill="white" transform="matrix(-4.37114e-08 -1 -1 4.37114e-08 63 12.5)"/>
</clipPath>
<clipPath id="clip9_3066_1627">
<rect width="11" height="7" fill="white" transform="matrix(-4.37114e-08 -1 -1 4.37114e-08 70 12.5)"/>
</clipPath>
<clipPath id="clip10_3066_1627">
<rect width="11" height="7" fill="white" transform="matrix(-4.37114e-08 -1 -1 4.37114e-08 77 12.5)"/>
</clipPath>
<clipPath id="clip11_3066_1627">
<rect width="11" height="7" fill="white" transform="matrix(-4.37114e-08 -1 -1 4.37114e-08 84 12.5)"/>
</clipPath>
<clipPath id="clip12_3066_1627">
<rect width="11" height="7" fill="white" transform="matrix(-4.37114e-08 -1 -1 4.37114e-08 91 12.5)"/>
</clipPath>
<clipPath id="clip13_3066_1627">
<rect width="11" height="7" fill="white" transform="matrix(-4.37114e-08 -1 -1 4.37114e-08 98 12.5)"/>
</clipPath>
</defs>
</svg>
