<svg width="220" height="146" viewBox="0 0 220 146" fill="none" xmlns="http://www.w3.org/2000/svg">
<g filter="url(#filter0_d_239_1386)">
<path d="M127.513 68.3891H128V75H99.6684V74.5497H99.6994C100.766 74.5497 101.688 74.1719 102.443 73.4161C103.199 72.6602 103.582 71.7508 103.582 70.6882V57.8363C104.836 58.0215 106.113 58.1127 107.403 58.1292V70.6882C107.403 71.7502 107.786 72.6602 108.542 73.4161C109.298 74.1719 110.23 74.5497 111.317 74.5497H121.332C123.093 74.5497 124.565 73.8783 125.743 72.7009C126.926 71.5186 127.513 70.0856 127.513 68.3891ZM103.582 43.3068V33.3116C103.582 32.2492 103.197 31.3524 102.443 30.6037C101.685 29.8507 100.766 29.4801 99.6994 29.4801H99.6684C97.9071 29.4801 96.4349 30.1521 95.2573 31.3295C94.0744 32.5118 93.4866 33.945 93.4866 35.6407H93V29H99.6684H99.6994H111.348V29.4801H111.317C110.23 29.4801 109.3 29.8507 108.542 30.6037C107.789 31.3524 107.403 32.2492 107.403 33.3116V42.3019C106.129 42.5785 104.856 42.9133 103.582 43.3068Z" fill="#FF6600"/>
<path fill-rule="evenodd" clip-rule="evenodd" d="M124 29C124.535 34.3055 124.695 34.4647 130 35.0001C124.637 35.5355 124.523 35.682 124 41C123.465 35.6945 123.363 35.5355 118 35.0001C123.305 34.4647 123.465 34.3055 124 29Z" fill="white"/>
<path fill-rule="evenodd" clip-rule="evenodd" d="M118.5 61C118.901 64.9791 119.021 65.0984 123 65.5001C118.978 65.9016 118.892 66.0115 118.5 70C118.099 66.0209 118.022 65.9016 114 65.5001C117.979 65.0984 118.099 64.9791 118.5 61Z" fill="#FF6600"/>
<path fill-rule="evenodd" clip-rule="evenodd" d="M93.0001 57C93.5354 62.3054 93.6946 62.4646 99 62.9999C93.6374 63.5354 93.5228 63.682 93.0001 69C92.4646 63.6946 92.3626 63.5354 87 62.9999C92.3054 62.4646 92.4646 62.3054 93.0001 57Z" fill="#FF6600"/>
<path fill-rule="evenodd" clip-rule="evenodd" d="M73.4731 57C76.5258 57 79 59.4685 79 62.514C79 63.8362 78.5338 65.05 77.7556 66C78.1619 65.2483 78.3925 64.3882 78.3925 63.4743C78.3925 60.531 76.0017 58.1457 73.0514 58.1457C70.7097 58.1457 68.7209 59.6488 68 61.7407C68.3768 59.0613 70.6832 57 73.4731 57Z" fill="white"/>
<path fill-rule="evenodd" clip-rule="evenodd" d="M139.473 57C142.526 57 145 59.4685 145 62.514C145 63.8362 144.534 65.05 143.756 66C144.162 65.2483 144.392 64.3882 144.392 63.4743C144.392 60.531 142.002 58.1457 139.051 58.1457C136.71 58.1457 134.721 59.6488 134 61.7407C134.377 59.0613 136.683 57 139.473 57Z" fill="white"/>
<path fill-rule="evenodd" clip-rule="evenodd" d="M59.0666 62C61.0707 60.1135 58.418 59.4277 59.1225 57.5556C60.2466 54.5674 70.832 52.2624 73.8422 51.8793C78.8318 51.2439 83.9084 51.5321 88.7797 50.9919C92.5578 50.573 97.1556 48.0531 100.744 46.5293C111.523 41.9514 122.19 41.8888 133.155 45.9822C126.909 44.1097 121.642 43.4865 115.159 44.3158C106.498 45.4239 104.406 46.4194 96.7013 49.7876C92.1076 51.7957 90.8701 52.3203 85.8025 52.5518C81.3393 52.7553 77.4037 52.862 72.9118 53.3223C69.8147 53.6394 61.9992 54.9538 59.8354 57.0985C58.0067 58.9112 61.4406 60.0411 59.0666 62ZM97.7495 53.9024C103.676 56.9013 110.072 55.7091 116.309 54.5416C126.348 52.6626 138.742 48.3521 148.845 50.139C149.785 50.3051 153.372 50.9626 153.84 51.786C154.634 53.1835 152.141 55.5093 153.458 58.7011C152.809 57.4367 152.765 56.7273 152.972 55.2859C153.105 54.3573 154.016 52.1729 153.009 51.8853C145.889 49.8502 135.666 51.6354 128.538 53.2243C119.098 55.3282 106.653 59.3901 97.7495 53.9024Z" fill="white"/>
<path d="M32 100.887V99.8427H33.1402H37.6449H42.1492V100.887H32ZM32 98.3055V85H33.1402V98.3055H32ZM149.235 100.887L148.58 99.3949H149.828L156.165 85H157.349L150.375 100.887H149.235ZM147.905 97.8576L142.26 85H143.512L149.153 97.8576H147.905ZM164.683 100.887V87.5815H165.823V100.887H164.683ZM164.683 86.0441V85H165.823V86.0441H164.683ZM176.085 100.887V94.6454H177.225H178.991H181.696C183.38 94.6454 184.658 94.2711 185.53 93.5221C186.402 92.7734 186.838 91.7179 186.838 90.356C186.838 88.9794 186.402 87.9163 185.53 87.1676C184.658 86.4186 183.38 86.0441 181.696 86.0441H177.225V93.1082H176.085V85H181.696C183.007 85 184.133 85.212 185.072 85.6355C186.01 86.0593 186.733 86.6683 187.24 87.4625C187.747 88.2568 188 89.2213 188 90.356C188 91.4607 187.747 92.4139 187.24 93.2157C186.733 94.0175 186.01 94.6306 185.072 95.054C184.133 95.4777 183.007 95.6893 181.696 95.6893H177.225V100.887H176.085ZM56.0102 101C54.0729 101 52.5453 100.425 51.4275 99.2753C50.3098 98.1255 49.7507 96.4156 49.7507 94.1461V87.5815H50.8909V94.1008C50.8909 96.0829 51.338 97.5504 52.2323 98.5038C53.1264 99.4568 54.3931 99.9335 56.0325 99.9335C57.6572 99.9335 58.9163 99.4568 59.8106 98.5038C60.7047 97.5504 61.1518 96.0829 61.1518 94.1008V85H62.292V94.1461C62.292 96.4156 61.7331 98.1255 60.6154 99.2753C59.4974 100.425 57.9626 101 56.0102 101ZM49.7507 86.0441V85H50.8909V86.0441H49.7507ZM69.9159 100.887L75.9331 92.6917L70.3407 85H71.6821L76.6673 91.8345L81.6523 85H82.9266L77.3293 92.6703L81.4594 98.3055H80.1143L76.6123 93.5368L71.2574 100.887H69.9159ZM82.5861 99.8427L83.3511 100.887H82.0101L81.2433 99.8427H82.5861Z" fill="#FF6B01"/>
<path d="M54.2807 108.642C54.2423 108.603 54.1908 108.565 54.1264 108.529C54.0621 108.493 53.9899 108.46 53.9095 108.431C53.8292 108.402 53.7416 108.379 53.6466 108.361C53.552 108.342 53.4531 108.333 53.3501 108.333C53.0866 108.333 52.8922 108.377 52.7667 108.462C52.6413 108.548 52.5785 108.666 52.5785 108.815C52.5785 108.92 52.6109 109.004 52.6751 109.065C52.7394 109.125 52.8381 109.175 52.9715 109.214C53.105 109.253 53.2747 109.293 53.4804 109.334C53.7182 109.378 53.924 109.433 54.0976 109.497C54.2712 109.561 54.4046 109.645 54.4978 109.752C54.5908 109.858 54.6377 110 54.6377 110.178C54.6377 110.319 54.6065 110.441 54.5436 110.545C54.481 110.649 54.3933 110.735 54.2807 110.803C54.1682 110.871 54.0365 110.92 53.8854 110.952C53.7344 110.984 53.5703 111 53.3934 111C53.22 111 53.0503 110.984 52.8849 110.952C52.7191 110.92 52.5625 110.874 52.4147 110.813C52.2668 110.751 52.1285 110.675 52 110.583L52.2075 110.267C52.2588 110.314 52.3253 110.361 52.4075 110.406C52.4896 110.452 52.5826 110.495 52.6872 110.533C52.7917 110.572 52.905 110.604 53.0271 110.627C53.1492 110.651 53.2747 110.662 53.4034 110.662C53.6474 110.662 53.8372 110.624 53.9722 110.549C54.1073 110.472 54.1746 110.361 54.1746 110.215C54.1746 110.104 54.137 110.015 54.0613 109.949C53.9858 109.883 53.8742 109.827 53.7264 109.783C53.5783 109.738 53.3983 109.694 53.1863 109.649C52.9548 109.6 52.7603 109.545 52.6029 109.486C52.4451 109.426 52.3271 109.348 52.2483 109.251C52.1695 109.153 52.1303 109.028 52.1303 108.873C52.1303 108.684 52.1832 108.525 52.2893 108.395C52.3954 108.265 52.5417 108.166 52.7281 108.1C52.9146 108.034 53.125 108 53.3597 108C53.514 108 53.6579 108.014 53.7913 108.042C53.9248 108.07 54.0492 108.108 54.1651 108.159C54.2807 108.208 54.3868 108.268 54.4834 108.338L54.2807 108.642ZM90.2712 108.021L91.4042 110.508L92.5328 108.021H92.9907L91.602 110.979H91.2066L89.813 108.021H90.2712ZM135.98 110.979V108.021H137.166C137.533 108.021 137.839 108.087 138.085 108.219C138.331 108.351 138.515 108.529 138.637 108.752C138.759 108.976 138.82 109.224 138.82 109.496C138.82 109.796 138.753 110.057 138.617 110.279C138.482 110.501 138.291 110.674 138.044 110.796C137.796 110.918 137.504 110.979 137.166 110.979H135.98ZM138.381 109.496C138.381 109.274 138.334 109.077 138.239 108.904C138.144 108.732 138.007 108.597 137.827 108.5C137.647 108.403 137.426 108.354 137.166 108.354H136.414V110.646H137.166C137.43 110.646 137.652 110.595 137.832 110.494C138.011 110.392 138.148 110.255 138.241 110.081C138.335 109.908 138.381 109.713 138.381 109.496ZM56.751 110.979V108.021H58.1782C58.3294 108.021 58.4677 108.048 58.5929 108.102C58.7183 108.156 58.8277 108.229 58.9208 108.319C59.014 108.409 59.0864 108.511 59.1379 108.623C59.1892 108.736 59.2149 108.85 59.2149 108.967C59.2149 109.128 59.1732 109.281 59.0897 109.427C59.006 109.573 58.8886 109.691 58.7376 109.781C58.5864 109.871 58.4095 109.917 58.2073 109.917H57.1848V110.979H56.751ZM57.1848 109.583H58.1831C58.3021 109.583 58.4056 109.556 58.494 109.5C58.5825 109.445 58.6516 109.37 58.7015 109.275C58.7513 109.181 58.776 109.078 58.776 108.967C58.776 108.85 58.7472 108.745 58.6894 108.652C58.6315 108.559 58.556 108.486 58.4628 108.433C58.3696 108.381 58.2666 108.354 58.1542 108.354H57.1848V109.583ZM62.095 108.021H62.4615L63.8598 110.979H63.397L63.0129 110.113H61.5405L61.1549 110.979H60.6918L62.095 108.021ZM62.8834 109.821L62.2782 108.454L61.67 109.821H62.8834ZM68.3021 110.979V108.021H69.7295C69.8804 108.021 70.0187 108.048 70.1441 108.102C70.2694 108.156 70.3788 108.229 70.4718 108.319C70.5651 108.409 70.6374 108.511 70.6889 108.623C70.7402 108.736 70.766 108.85 70.766 108.967C70.766 109.128 70.7242 109.281 70.6407 109.427C70.5571 109.573 70.4398 109.691 70.2887 109.781C70.1377 109.871 69.9608 109.917 69.7583 109.917H68.7359V110.979H68.3021ZM68.7359 109.583H69.7341C69.8531 109.583 69.9567 109.556 70.0452 109.5C70.1336 109.445 70.2027 109.37 70.2526 109.275C70.3023 109.181 70.3273 109.078 70.3273 108.967C70.3273 108.85 70.2984 108.745 70.2405 108.652C70.1826 108.559 70.1071 108.486 70.0138 108.433C69.9206 108.381 69.8176 108.354 69.7053 108.354H68.7359V109.583ZM79.4145 111C79.1412 111 78.9113 110.959 78.7248 110.877C78.5383 110.795 78.3889 110.684 78.2764 110.544C78.1638 110.404 78.0819 110.245 78.0304 110.067C77.9791 109.889 77.9534 109.706 77.9534 109.517V108.021H78.3873V109.517C78.3873 109.661 78.4041 109.802 78.4379 109.94C78.4718 110.077 78.527 110.2 78.6042 110.308C78.6813 110.417 78.7858 110.503 78.9177 110.567C79.0495 110.631 79.2134 110.662 79.4096 110.662C79.6088 110.662 79.7743 110.63 79.906 110.564C80.0379 110.499 80.1424 110.412 80.2197 110.302C80.2967 110.192 80.3523 110.069 80.386 109.933C80.4196 109.797 80.4365 109.658 80.4365 109.517V108.021H80.8705V109.517C80.8705 109.717 80.844 109.906 80.791 110.086C80.7379 110.265 80.6536 110.422 80.5378 110.558C80.4221 110.695 80.2717 110.802 80.087 110.881C79.9021 110.961 79.678 111 79.4145 111ZM83.1864 110.979V108.021H84.6522C84.8033 108.021 84.9414 108.048 85.0668 108.102C85.1923 108.156 85.3017 108.229 85.3949 108.319C85.4879 108.409 85.5603 108.511 85.6118 108.623C85.6633 108.736 85.689 108.85 85.689 108.967C85.689 109.103 85.6592 109.232 85.5997 109.354C85.5402 109.476 85.4567 109.581 85.3489 109.667C85.2412 109.753 85.115 109.813 84.9703 109.846L85.7998 110.979H85.3079L84.5267 109.917H83.6203V110.979H83.1864ZM83.6203 109.583H84.657C84.776 109.583 84.8798 109.555 84.9679 109.498C85.0565 109.441 85.1257 109.365 85.1755 109.271C85.2252 109.176 85.25 109.075 85.25 108.967C85.25 108.856 85.2211 108.754 85.1634 108.661C85.1055 108.567 85.03 108.493 84.9367 108.438C84.8433 108.382 84.7407 108.354 84.6282 108.354H83.6203V109.583ZM100.149 110.979V108.021H100.583V110.979H100.149ZM105.416 108.354H104.234V110.979H103.8V108.354H102.619V108.021H105.416V108.354ZM108.865 111C108.592 111 108.362 110.959 108.175 110.877C107.989 110.795 107.839 110.684 107.727 110.544C107.614 110.404 107.532 110.245 107.481 110.067C107.429 109.889 107.404 109.706 107.404 109.517V108.021H107.838V109.517C107.838 109.661 107.855 109.802 107.888 109.94C107.922 110.077 107.977 110.2 108.055 110.308C108.132 110.417 108.236 110.503 108.368 110.567C108.5 110.631 108.664 110.662 108.86 110.662C109.059 110.662 109.225 110.63 109.356 110.564C109.488 110.499 109.593 110.412 109.67 110.302C109.747 110.192 109.803 110.069 109.836 109.933C109.87 109.797 109.887 109.658 109.887 109.517V108.021H110.321V109.517C110.321 109.717 110.294 109.906 110.241 110.086C110.188 110.265 110.104 110.422 109.988 110.558C109.873 110.695 109.722 110.802 109.537 110.881C109.353 110.961 109.128 111 108.865 111ZM112.637 110.979V108.021H114.103C114.254 108.021 114.392 108.048 114.517 108.102C114.643 108.156 114.752 108.229 114.845 108.319C114.938 108.409 115.011 108.511 115.062 108.623C115.114 108.736 115.139 108.85 115.139 108.967C115.139 109.103 115.11 109.232 115.05 109.354C114.991 109.476 114.907 109.581 114.799 109.667C114.692 109.753 114.565 109.813 114.421 109.846L115.25 110.979H114.758L113.977 109.917H113.071V110.979H112.637ZM113.071 109.583H114.107C114.226 109.583 114.33 109.555 114.418 109.498C114.507 109.441 114.576 109.365 114.626 109.271C114.676 109.176 114.7 109.075 114.7 108.967C114.7 108.856 114.672 108.754 114.614 108.661C114.556 108.567 114.48 108.493 114.387 108.438C114.294 108.382 114.191 108.354 114.079 108.354H113.071V109.583ZM123.822 108.642C123.783 108.603 123.731 108.565 123.667 108.529C123.603 108.493 123.531 108.46 123.45 108.431C123.37 108.402 123.282 108.379 123.187 108.361C123.093 108.342 122.994 108.333 122.891 108.333C122.627 108.333 122.433 108.377 122.308 108.462C122.182 108.548 122.119 108.666 122.119 108.815C122.119 108.92 122.152 109.004 122.216 109.065C122.28 109.125 122.379 109.175 122.512 109.214C122.646 109.253 122.815 109.293 123.021 109.334C123.259 109.378 123.465 109.433 123.638 109.497C123.812 109.561 123.945 109.645 124.039 109.752C124.132 109.858 124.178 110 124.178 110.178C124.178 110.319 124.147 110.441 124.084 110.545C124.022 110.649 123.934 110.735 123.822 110.803C123.709 110.871 123.577 110.92 123.426 110.952C123.275 110.984 123.111 111 122.934 111C122.761 111 122.591 110.984 122.426 110.952C122.26 110.92 122.103 110.874 121.955 110.813C121.808 110.751 121.669 110.675 121.541 110.583L121.748 110.267C121.799 110.314 121.866 110.361 121.948 110.406C122.03 110.452 122.123 110.495 122.228 110.533C122.332 110.572 122.446 110.604 122.568 110.627C122.69 110.651 122.815 110.662 122.944 110.662C123.188 110.662 123.378 110.624 123.513 110.549C123.648 110.472 123.715 110.361 123.715 110.215C123.715 110.104 123.678 110.015 123.602 109.949C123.527 109.883 123.415 109.827 123.267 109.783C123.119 109.738 122.939 109.694 122.727 109.649C122.495 109.6 122.301 109.545 122.144 109.486C121.986 109.426 121.868 109.348 121.789 109.251C121.71 109.153 121.671 109.028 121.671 108.873C121.671 108.684 121.724 108.525 121.83 108.395C121.936 108.265 122.082 108.166 122.269 108.1C122.455 108.034 122.666 108 122.901 108C123.055 108 123.199 108.014 123.332 108.042C123.465 108.07 123.59 108.108 123.706 108.159C123.822 108.208 123.928 108.268 124.024 108.338L123.822 108.642ZM129.773 108.021H130.14L131.538 110.979H131.075L130.691 110.113H129.219L128.833 110.979H128.37L129.773 108.021ZM130.561 109.821L129.956 108.454L129.348 109.821H130.561ZM149.089 110.979V108.721L147.961 110.458H147.695L146.562 108.721V110.979H146.128V108.021H146.586L147.826 109.942L149.069 108.021H149.523V110.979H149.089ZM151.887 110.979V108.021H152.321V110.979H151.887ZM154.463 109.475C154.463 109.294 154.499 109.117 154.571 108.944C154.644 108.77 154.75 108.612 154.89 108.469C155.03 108.326 155.201 108.212 155.403 108.127C155.606 108.042 155.835 108 156.093 108C156.398 108 156.66 108.061 156.879 108.181C157.097 108.302 157.26 108.457 157.366 108.646L157.023 108.837C156.956 108.713 156.87 108.613 156.765 108.54C156.661 108.466 156.548 108.414 156.428 108.384C156.307 108.353 156.189 108.338 156.073 108.338C155.884 108.338 155.716 108.371 155.57 108.438C155.423 108.504 155.3 108.593 155.201 108.704C155.101 108.815 155.026 108.94 154.976 109.077C154.927 109.215 154.902 109.353 154.902 109.492C154.902 109.644 154.931 109.792 154.991 109.933C155.05 110.075 155.133 110.2 155.239 110.308C155.345 110.417 155.471 110.503 155.615 110.567C155.76 110.631 155.917 110.662 156.088 110.662C156.207 110.662 156.329 110.645 156.454 110.608C156.58 110.572 156.697 110.516 156.806 110.44C156.916 110.363 157.002 110.264 157.067 110.142L157.428 110.313C157.358 110.46 157.248 110.585 157.1 110.688C156.953 110.79 156.788 110.868 156.606 110.921C156.425 110.974 156.245 111 156.068 111C155.834 111 155.618 110.956 155.423 110.869C155.226 110.781 155.057 110.665 154.914 110.519C154.771 110.373 154.66 110.209 154.581 110.027C154.502 109.845 154.463 109.661 154.463 109.475ZM159.518 110.979V108.021H159.951V110.979H159.518ZM162.316 110.979V108.021H162.749V110.646H164.659V110.979H162.316ZM169 110.646V110.979H166.676V109.486H167.11V110.646H169ZM166.676 108.354V108.021H168.957V108.354H166.676Z" fill="white"/>
<path fill-rule="evenodd" clip-rule="evenodd" d="M188 109H165V109.361H188V109Z" fill="white"/>
<path fill-rule="evenodd" clip-rule="evenodd" d="M49 109H32V109.361H49V109Z" fill="white"/>
<path d="M119 110.662V111H117V109.31H117.373H118.064H118.755H119V109.627H118.755H118.064H117.373V110.662H119ZM119 108H118.963H118.064H117V108.338H117.373H118.064H118.963H119V108Z" fill="white"/>
<path d="M73.4963 111C73.2604 111 73.046 110.958 72.8543 110.875C72.6621 110.792 72.4961 110.678 72.3559 110.536C72.2159 110.392 72.1079 110.231 72.0323 110.052C72.0206 110.024 72.0097 109.996 72 109.968H72.4447C72.4989 110.095 72.5723 110.209 72.6651 110.308C72.766 110.417 72.8871 110.503 73.0288 110.567C73.1706 110.631 73.3278 110.662 73.5009 110.662C73.6806 110.662 73.8411 110.629 73.9826 110.562C74.1244 110.496 74.2447 110.407 74.344 110.296C74.4319 110.197 74.5012 110.088 74.5519 109.968H75C74.9882 110.002 74.9748 110.035 74.9603 110.069C74.8816 110.248 74.7706 110.408 74.6273 110.548C74.484 110.688 74.3165 110.799 74.1244 110.879C73.9324 110.96 73.723 111 73.4963 111ZM72.0006 109.032C72.012 109 72.025 108.967 72.0393 108.935C72.1198 108.756 72.2315 108.597 72.3748 108.456C72.518 108.316 72.6856 108.205 72.8777 108.123C73.0697 108.041 73.2791 108 73.5056 108C73.7417 108 73.9561 108.043 74.1479 108.129C74.34 108.215 74.5053 108.331 74.6437 108.475C74.7822 108.62 74.8894 108.781 74.965 108.958C74.9756 108.983 74.9853 109.007 74.9941 109.032H74.5517C74.4974 108.907 74.4235 108.794 74.3299 108.694C74.2275 108.584 74.1062 108.498 73.9662 108.436C73.8262 108.373 73.6711 108.342 73.5009 108.342C73.3215 108.342 73.161 108.374 73.0195 108.44C72.8777 108.505 72.7574 108.593 72.6581 108.704C72.5698 108.803 72.4997 108.912 72.4478 109.032H72.0006Z" fill="white"/>
<path d="M95.4962 111C95.2603 111 95.0462 110.958 94.8542 110.875C94.662 110.792 94.4961 110.678 94.356 110.536C94.2158 110.392 94.1081 110.231 94.0325 110.052C94.0206 110.024 94.0097 109.996 94 109.968H94.4449C94.4991 110.095 94.5723 110.209 94.6653 110.308C94.766 110.417 94.8872 110.503 95.0288 110.567C95.1705 110.631 95.3279 110.662 95.501 110.662C95.6805 110.662 95.841 110.629 95.9827 110.562C96.1242 110.496 96.2447 110.407 96.3439 110.296C96.4317 110.197 96.5011 110.088 96.5519 109.968H97C96.9882 110.002 96.9748 110.035 96.9603 110.069C96.8814 110.248 96.7704 110.408 96.6271 110.548C96.4841 110.688 96.3164 110.799 96.1242 110.879C95.9324 110.96 95.7229 111 95.4962 111ZM94.0006 109.032C94.0122 109 94.0252 108.967 94.0395 108.935C94.1198 108.756 94.2317 108.597 94.3748 108.456C94.518 108.316 94.6857 108.205 94.8779 108.123C95.0697 108.041 95.2792 108 95.5057 108C95.7418 108 95.9559 108.043 96.1479 108.129C96.3401 108.215 96.5053 108.331 96.6438 108.475C96.7822 108.62 96.8894 108.781 96.965 108.958C96.9754 108.983 96.9851 109.007 96.9941 109.032H96.5517C96.4975 108.907 96.4235 108.794 96.3297 108.694C96.2274 108.584 96.1063 108.498 95.9663 108.436C95.8261 108.373 95.6711 108.342 95.501 108.342C95.3216 108.342 95.1611 108.374 95.0194 108.44C94.8779 108.505 94.7574 108.593 94.6582 108.704C94.57 108.803 94.4999 108.912 94.4477 109.032H94.0006Z" fill="white"/>
<path d="M141.496 111C141.26 111 141.046 110.958 140.854 110.875C140.662 110.792 140.496 110.678 140.356 110.536C140.216 110.392 140.108 110.231 140.032 110.052C140.021 110.024 140.01 109.996 140 109.968H140.445C140.499 110.095 140.572 110.209 140.665 110.308C140.766 110.417 140.887 110.503 141.029 110.567C141.171 110.631 141.328 110.662 141.501 110.662C141.681 110.662 141.841 110.629 141.983 110.562C142.124 110.496 142.245 110.407 142.344 110.296C142.432 110.197 142.501 110.088 142.552 109.968H143C142.988 110.002 142.975 110.035 142.96 110.069C142.882 110.248 142.771 110.408 142.627 110.548C142.484 110.688 142.317 110.799 142.124 110.879C141.932 110.96 141.723 111 141.496 111ZM140.001 109.032C140.012 109 140.025 108.967 140.04 108.935C140.12 108.756 140.232 108.597 140.375 108.456C140.518 108.316 140.686 108.205 140.878 108.123C141.07 108.041 141.279 108 141.506 108C141.742 108 141.956 108.043 142.148 108.129C142.34 108.215 142.505 108.331 142.644 108.475C142.782 108.62 142.889 108.781 142.965 108.958C142.976 108.983 142.985 109.007 142.994 109.032H142.552C142.497 108.907 142.424 108.794 142.33 108.694C142.228 108.584 142.106 108.498 141.966 108.436C141.826 108.373 141.671 108.342 141.501 108.342C141.322 108.342 141.161 108.374 141.019 108.44C140.878 108.505 140.757 108.593 140.658 108.704C140.57 108.803 140.5 108.912 140.448 109.032H140.001Z" fill="white"/>
<path d="M92.2544 101L98.2496 87.5999H99.476L93.5111 101H92.2544ZM98.9423 86.0515H96.2008H90.1222V89.1142H89V85H100.267V85.823L100.165 86.0515H98.9423ZM110.121 101L116.116 87.5999H117.342L111.378 101H110.121ZM116.809 86.0515H114.115H107.989V89.1142H106.866V85H118.133V85.823L118.032 86.0515H116.809ZM127.988 101L133.983 87.5999H135.209L129.244 101H127.988ZM134.675 86.0515H132.478H125.855V89.1142H124.733V85H136V85.823L135.898 86.0515H134.675Z" fill="white"/>
</g>
<defs>
<filter id="filter0_d_239_1386" x="-3.66306" y="-2.61119" width="225.326" height="151.326" filterUnits="userSpaceOnUse" color-interpolation-filters="sRGB">
<feFlood flood-opacity="0" result="BackgroundImageFix"/>
<feColorMatrix in="SourceAlpha" type="matrix" values="0 0 0 0 0 0 0 0 0 0 0 0 0 0 0 0 0 0 127 0" result="hardAlpha"/>
<feOffset dy="3.05186"/>
<feGaussianBlur stdDeviation="15.8315"/>
<feComposite in2="hardAlpha" operator="out"/>
<feColorMatrix type="matrix" values="0 0 0 0 0 0 0 0 0 0 0 0 0 0 0 0 0 0 0.25 0"/>
<feBlend mode="normal" in2="BackgroundImageFix" result="effect1_dropShadow_239_1386"/>
<feBlend mode="normal" in="SourceGraphic" in2="effect1_dropShadow_239_1386" result="shape"/>
</filter>
</defs>
</svg>
