<svg width="191" height="127" viewBox="0 0 191 127" fill="none" xmlns="http://www.w3.org/2000/svg">
<g filter="url(#filter0_d_239_1663)">
<path d="M111.33 59.4277V65.4277H87.3296C88.2438 65.4277 88.6819 65.085 89.3296 64.4277C89.9774 63.7705 90.3296 62.3517 90.3296 61.4277V50.4277C91.4046 50.5887 92.2243 50.4134 93.3296 50.4277V61.4277C93.3296 62.3512 93.6819 63.7705 94.3296 64.4277C94.9774 65.085 96.3976 65.4277 97.3296 65.4277H105.33C106.839 65.4277 108.32 64.4516 109.33 63.4277C110.343 62.3997 111.33 60.9029 111.33 59.4277ZM90.3296 37.4277V29.4277C90.3296 28.5039 89.9753 27.0788 89.3296 26.4277C88.6797 25.773 88.2438 25.4277 87.3296 25.4277C85.8199 25.4277 84.339 26.4039 83.3296 27.4277C82.3157 28.4558 81.3296 29.9532 81.3296 31.4277V25.4277H87.3296H97.3296C96.3976 25.4277 94.9795 25.773 94.3296 26.4277C93.6839 27.0788 93.3296 28.5039 93.3296 29.4277V37.4277C92.2378 37.6682 91.4214 37.0856 90.3296 37.4277Z" fill="#FF6600"/>
<path fill-rule="evenodd" clip-rule="evenodd" d="M108.33 25.4277C108.776 29.8489 108.909 29.9816 113.33 30.4277C108.861 30.8739 108.765 30.9961 108.33 35.4277C107.883 31.0065 107.798 30.8739 103.33 30.4277C107.751 29.9816 107.883 29.8489 108.33 25.4277Z" fill="white"/>
<path fill-rule="evenodd" clip-rule="evenodd" d="M103.33 53.4277C103.642 56.5226 103.235 57.1153 106.33 57.4277C103.201 57.74 103.635 57.3256 103.33 60.4277C103.017 57.3329 102.458 57.74 99.3296 57.4277C102.424 57.1153 103.017 56.5226 103.33 53.4277Z" fill="#FF6600"/>
<path fill-rule="evenodd" clip-rule="evenodd" d="M81.3296 49.4277C81.7757 53.8489 81.9084 53.9817 86.3296 54.4277C81.8608 54.874 81.7652 54.996 81.3296 59.4277C80.8834 55.0065 80.7984 54.874 76.3296 54.4277C80.7508 53.9817 80.8834 53.8489 81.3296 49.4277Z" fill="#FF6600"/>
<path fill-rule="evenodd" clip-rule="evenodd" d="M64.3296 49.4277C67.1048 49.4277 69.3296 51.7207 69.3296 54.4277C69.3296 55.603 69.037 56.5833 68.3296 57.4277C68.699 56.7595 68.3296 56.24 68.3296 55.4277C68.3296 52.8115 67.0117 50.4277 64.3296 50.4277C62.2008 50.4277 59.9849 51.5683 59.3296 53.4277C59.6721 51.046 61.7933 49.4277 64.3296 49.4277Z" fill="white"/>
<path fill-rule="evenodd" clip-rule="evenodd" d="M121.33 49.4277C124.105 49.4277 126.33 51.7207 126.33 54.4277C126.33 55.603 126.037 56.5833 125.33 57.4277C125.699 56.7595 125.33 56.24 125.33 55.4277C125.33 52.8115 124.012 50.4277 121.33 50.4277C119.201 50.4277 116.985 51.5683 116.33 53.4277C116.672 51.046 118.793 49.4277 121.33 49.4277Z" fill="white"/>
<path fill-rule="evenodd" clip-rule="evenodd" d="M51.4327 53.4277C53.1516 51.791 50.8285 50.9977 51.4327 49.3734C52.3968 46.7808 61.8095 44.6379 64.3913 44.3055C68.6707 43.7542 73.172 44.7742 77.3499 44.3055C80.5902 43.9421 84.2408 41.5733 87.3181 40.2512C96.5629 36.2794 105.824 36.6997 115.229 40.2512C109.872 38.6266 104.84 37.5045 99.2799 38.224C91.8518 39.1854 90.9358 40.3696 84.3277 43.2919C80.3878 45.0342 78.7058 45.1182 74.3595 45.3191C70.5316 45.4957 67.247 45.9333 63.3945 46.3327C60.7383 46.6078 54.2854 47.5126 52.4295 49.3734C50.8612 50.9461 53.4688 51.7282 51.4327 53.4277ZM84.3277 46.3327C89.4109 48.9345 94.9274 48.3592 100.277 47.3462C108.887 45.716 120.519 41.7416 129.184 43.2919C129.991 43.4361 132.77 43.5911 133.172 44.3055C133.853 45.518 132.041 47.6177 133.172 50.387C132.615 49.29 131.998 48.5968 132.175 47.3462C132.289 46.5406 133.039 44.555 132.175 44.3055C126.069 42.5398 117.355 44.9542 111.242 46.3327C103.145 48.1581 91.9635 51.0939 84.3277 46.3327Z" fill="white"/>
<path d="M28.3296 87.4277V86.4277H29.3296H33.3296H37.3296V87.4277H28.3296ZM28.3296 85.4277V73.4277H29.3296V85.4277H28.3296ZM129.33 87.4277V86.4277H130.33L135.33 73.4277H136.33L130.33 87.4277H129.33ZM128.33 84.4277L123.33 73.4277H125.33L129.33 84.4277H128.33ZM143.33 87.4277V75.4277H144.33V87.4277H143.33ZM143.33 74.4277V73.4277H144.33V74.4277H143.33ZM153.33 87.4277V81.4277H154.33H155.33H158.33C159.787 81.4277 160.575 81.083 161.33 80.4277C162.084 79.7726 162.33 79.6193 162.33 78.4277C162.33 77.2231 162.084 76.0829 161.33 75.4277C160.575 74.7724 159.787 74.4277 158.33 74.4277H154.33V80.4277H153.33V73.4277H158.33C159.464 73.4277 159.517 74.0572 160.33 74.4277C161.142 74.7986 161.891 74.7328 162.33 75.4277C162.768 76.1227 163.33 77.4348 163.33 78.4277C163.33 79.3943 162.768 79.7262 162.33 80.4277C161.891 81.1293 161.142 82.0572 160.33 82.4277C159.517 82.7984 159.464 82.4277 158.33 82.4277H154.33V87.4277H153.33ZM49.3296 87.4277C47.6531 87.4277 46.2969 86.434 45.3296 85.4277C44.3623 84.4217 43.3296 83.4136 43.3296 81.4277V75.4277H44.3296V81.4277C44.3296 83.162 45.5557 84.5935 46.3296 85.4277C47.1033 86.2616 47.9109 86.4277 49.3296 86.4277C50.7356 86.4277 51.5557 86.2616 52.3296 85.4277C53.1033 84.5935 53.3296 83.162 53.3296 81.4277V73.4277H54.3296V81.4277C54.3296 83.4136 54.2969 84.4217 53.3296 85.4277C52.3621 86.434 51.0191 87.4277 49.3296 87.4277ZM43.3296 74.4277V73.4277H44.3296V74.4277H43.3296ZM61.3296 87.4277L66.3296 80.4277L61.3296 73.4277H62.3296L67.3296 79.4277L71.3296 73.4277H72.3296L67.3296 80.4277L71.3296 85.4277H70.3296L67.3296 80.4277L62.3296 87.4277H61.3296ZM72.3296 86.4277V87.4277H71.3296V86.4277H72.3296Z" fill="#FF6B01"/>
<path d="M47.3695 94.4472C47.3363 94.411 47.425 94.4806 47.3695 94.4472C47.3139 94.4137 47.4388 93.5093 47.3695 93.4822C47.3001 93.4553 46.4518 93.4991 46.3699 93.4822C46.2883 93.4654 46.4587 93.4822 46.3699 93.4822C46.1426 93.4822 46.478 93.4029 46.3699 93.4822C46.2617 93.5625 45.3703 94.3083 45.3703 94.4472C45.3703 94.5447 46.3145 94.3905 46.3699 94.4472C46.2548 94.411 46.4254 94.5035 46.3699 94.4472C46.1924 94.4089 46.4849 94.4834 46.3699 94.4472C46.5749 94.4884 47.2197 94.3878 47.3695 94.4472C47.5192 94.5066 47.289 95.3126 47.3695 95.4122C47.3695 95.247 47.4497 95.5109 47.3695 95.4122C47.3695 95.5432 47.4236 96.2803 47.3695 96.3772C47.3155 96.474 47.4665 96.3138 47.3695 96.3772C47.2724 96.4405 47.4998 96.3474 47.3695 96.3772C47.2392 96.4068 46.5225 96.3772 46.3699 96.3772C46.2203 96.3772 46.5125 96.4068 46.3699 96.3772C46.2269 96.3474 45.4978 96.4339 45.3703 96.3772C45.2427 96.3203 45.4811 96.4624 45.3703 96.3772V95.4122C45.2994 95.3697 45.4145 95.4561 45.3703 95.4122C45.4411 95.4548 46.2797 96.3411 46.3699 96.3772C46.2645 96.3552 46.46 96.4134 46.3699 96.3772C46.2588 96.3772 46.4752 96.3991 46.3699 96.3772C46.5803 96.3772 47.253 96.4475 47.3695 96.3772C47.4861 96.3062 47.3695 95.5485 47.3695 95.4122C47.3695 95.3095 47.4347 95.4742 47.3695 95.4122C47.3044 95.3509 46.4974 95.4534 46.3699 95.4122C46.2422 95.3706 46.5527 95.4534 46.3699 95.4122C46.1702 95.3663 46.5056 94.5028 46.3699 94.4472C46.2338 94.3917 45.4382 94.5376 45.3703 94.4472C45.3023 94.3568 45.3703 94.5912 45.3703 94.4472C45.3703 94.2715 45.2787 93.6037 45.3703 93.4822C45.4618 93.3615 46.209 93.5436 46.3699 93.4822C46.1675 93.4822 46.5307 93.4203 46.3699 93.4822C46.5029 93.4822 47.2544 93.4563 47.3695 93.4822C47.2695 93.4355 47.4845 93.5081 47.3695 93.4822C47.2862 93.4178 47.4692 93.5286 47.3695 93.4822V94.4472ZM78.357 93.4822L79.3566 96.3772L80.3562 93.4822L79.3566 96.3772L78.357 93.4822ZM117.341 96.3772V93.4822H119.34C119.128 93.3596 119.657 93.4822 119.34 93.4822C119.553 93.6049 120.235 94.2392 120.34 94.4472C120.34 94.1941 120.446 94.6552 120.34 94.4472C120.34 94.7262 120.457 95.2056 120.34 95.4122C120.224 95.6189 119.554 96.2635 119.34 96.3772C119.127 96.491 119.632 96.3772 119.34 96.3772H117.341ZM120.34 94.4472C120.34 94.2405 119.422 94.6075 119.34 94.4472C119.259 94.2872 119.496 94.5375 119.34 94.4472C119.185 94.3568 119.565 93.4822 119.34 93.4822H118.341V96.3772H119.34C119.568 96.3772 119.185 95.5064 119.34 95.4122C119.26 95.5736 119.496 95.3178 119.34 95.4122C119.421 95.2507 120.34 94.6486 120.34 94.4472ZM49.3687 96.3772V93.4822H50.3683C50.4986 93.4822 51.2598 93.4319 51.3679 93.4822C51.2876 93.3982 51.476 93.5327 51.3679 93.4822C51.4483 93.5662 51.3234 94.3425 51.3679 94.4472C51.3679 94.3386 51.4121 94.5517 51.3679 94.4472C51.3679 94.5969 51.4399 94.3115 51.3679 94.4472C51.2957 94.5828 51.4981 95.3282 51.3679 95.4122C51.2375 95.4959 50.5427 95.4122 50.3683 95.4122H49.3687V96.3772ZM49.3687 95.4122H50.3683C50.4709 95.4122 51.2916 94.4989 51.3679 94.4472C51.3248 94.5351 51.4442 94.3956 51.3679 94.4472C51.3679 94.5505 51.4108 94.3594 51.3679 94.4472C51.3679 94.3386 51.4176 94.5337 51.3679 94.4472C51.3179 94.3605 51.4483 93.5311 51.3679 93.4822C51.2874 93.4332 50.4652 93.4822 50.3683 93.4822H49.3687V95.4122ZM54.3666 93.4822L55.3662 96.3772V95.4122H53.367V96.3772L54.3666 93.4822ZM54.3666 95.4122V93.4822L53.367 95.4122H54.3666ZM59.3646 96.3772V93.4822H60.3642C60.4944 93.4822 61.2556 93.4319 61.3638 93.4822C61.2836 93.3982 61.4718 93.5327 61.3638 93.4822C61.4442 93.5662 61.3194 94.3425 61.3638 94.4472C61.3638 94.3386 61.4081 94.5517 61.3638 94.4472C61.3638 94.5969 61.4358 94.3115 61.3638 94.4472C61.2916 94.5828 61.4942 95.3282 61.3638 95.4122C61.2336 95.4959 60.5389 95.4122 60.3642 95.4122H59.3646V96.3772ZM59.3646 95.4122H60.3642C60.4669 95.4122 61.2874 94.4989 61.3638 94.4472C61.3208 94.5351 61.44 94.3956 61.3638 94.4472C61.3638 94.5505 61.4067 94.3594 61.3638 94.4472C61.3638 94.3386 61.4138 94.5337 61.3638 94.4472C61.3139 94.3605 61.4442 93.5311 61.3638 93.4822C61.2834 93.4332 60.4611 93.4822 60.3642 93.4822H59.3646V95.4122ZM69.3606 96.3772C69.1249 96.3772 68.5218 96.4533 68.361 96.3772C68.2002 96.3008 68.4581 96.5076 68.361 96.3772C68.2639 96.2468 67.4058 95.5777 67.3614 95.4122C67.3172 95.247 67.3614 95.5879 67.3614 95.4122V93.4822H68.361V95.4122C68.3319 95.2843 68.361 95.5467 68.361 95.4122C68.2944 95.3114 68.3903 95.5399 68.361 95.4122C68.4275 95.513 68.2473 96.3178 68.361 96.3772C68.4747 96.4366 69.1914 96.3772 69.3606 96.3772C69.5324 96.3772 69.247 96.438 69.3606 96.3772C69.4743 96.3167 69.294 95.5142 69.3606 95.4122C69.4271 95.3101 70.3311 95.5387 70.3602 95.4122C70.3602 95.544 70.3891 95.2855 70.3602 95.4122V93.4822V95.4122C70.3602 95.5982 70.406 95.2456 70.3602 95.4122C70.3144 95.5788 70.4601 96.2507 70.3602 96.3772C70.2604 96.504 69.5199 96.3035 69.3606 96.3772C69.5879 96.3772 69.2011 96.451 69.3606 96.3772ZM72.3594 96.3772V93.4822H73.359C73.4894 93.4822 74.2504 93.4319 74.3586 93.4822C74.2782 93.3982 74.4668 93.5327 74.3586 93.4822C74.4388 93.5662 74.3142 94.3425 74.3586 94.4472C74.3586 94.3386 74.403 94.5517 74.3586 94.4472C74.3586 94.5737 74.4099 94.3336 74.3586 94.4472C74.3073 94.5608 74.4516 95.3319 74.3586 95.4122C74.2657 95.4921 73.4838 95.3813 73.359 95.4122L74.3586 96.3772L73.359 95.4122H72.3594V96.3772ZM72.3594 95.4122H73.359C73.4616 95.4122 73.2829 94.5002 73.359 94.4472C73.4354 94.3944 74.3157 94.535 74.3586 94.4472C74.3586 94.5478 74.4015 94.3593 74.3586 94.4472C74.3586 94.3437 74.4084 94.5337 74.3586 94.4472C74.3086 94.3607 73.4394 93.5341 73.359 93.4822C73.2784 93.4306 73.4561 93.4822 73.359 93.4822H72.3594V95.4122ZM87.3534 96.3772V93.4822V96.3772ZM91.3517 93.4822H90.3521V96.3772V93.4822H89.3525H91.3517ZM94.3505 96.3772C94.1148 96.3772 93.5119 96.4533 93.3509 96.3772C93.1903 96.3008 93.448 96.5076 93.3509 96.3772C93.2539 96.2468 93.3954 95.5777 93.3509 95.4122C93.3065 95.247 93.3509 95.5879 93.3509 95.4122V93.4822V95.4122C93.3218 95.2843 93.3509 95.5467 93.3509 95.4122C93.2843 95.3114 93.3802 95.5399 93.3509 95.4122C93.4174 95.513 94.2368 96.3178 94.3505 96.3772C94.4643 96.4366 94.1813 96.3772 94.3505 96.3772C94.5223 96.3772 95.2366 96.438 95.3501 96.3772C95.4639 96.3167 95.2835 95.5142 95.3501 95.4122C95.321 95.5387 95.4166 95.3101 95.3501 95.4122C95.3501 95.544 95.3791 95.2855 95.3501 95.4122V93.4822V95.4122C95.3501 95.5982 95.3959 95.2456 95.3501 95.4122C95.3044 95.5788 95.4501 96.2507 95.3501 96.3772C95.2504 96.504 95.5095 96.3035 95.3501 96.3772C95.1906 96.451 94.5778 96.3772 94.3505 96.3772ZM97.3493 96.3772V93.4822H99.3485C99.2403 93.4319 99.4789 93.4822 99.3485 93.4822C99.2681 93.3982 99.4567 93.5327 99.3485 93.4822C99.4288 93.5662 99.3041 94.3425 99.3485 94.4472C99.3929 94.5517 100.348 94.3386 100.348 94.4472C100.348 94.5737 99.3998 94.3336 99.3485 94.4472C99.2972 94.5608 99.4416 95.3319 99.3485 95.4122C99.2556 95.4921 99.4734 95.3813 99.3485 95.4122L100.348 96.3772H99.3485V95.4122H98.3489V96.3772H97.3493ZM98.3489 95.4122H99.3485C99.4511 95.4122 99.2725 94.5002 99.3485 94.4472C99.3055 94.535 99.4249 94.3944 99.3485 94.4472C99.3485 94.5478 99.3914 94.3593 99.3485 94.4472C99.3485 94.3437 99.3983 94.5337 99.3485 94.4472C99.2986 94.3607 99.4289 93.5341 99.3485 93.4822C99.2679 93.4306 99.4456 93.4822 99.3485 93.4822H98.3489V95.4122ZM107.345 94.4472C107.312 94.411 107.401 94.4806 107.345 94.4472C107.29 94.4137 107.415 93.5093 107.345 93.4822C107.276 93.4553 106.427 93.4991 106.346 93.4822C106.264 93.4654 106.434 93.4822 106.346 93.4822C106.118 93.4822 106.454 93.4029 106.346 93.4822C106.238 93.5625 106.346 94.3083 106.346 94.4472C106.29 94.3905 106.346 94.5447 106.346 94.4472C106.231 94.411 106.401 94.5035 106.346 94.4472C106.168 94.4089 106.461 94.4834 106.346 94.4472C106.551 94.4884 107.195 94.3878 107.345 94.4472C107.495 94.5066 107.265 95.3126 107.345 95.4122C107.345 95.247 107.426 95.5109 107.345 95.4122C107.345 95.5432 107.399 96.2803 107.345 96.3772C107.291 96.474 107.442 96.3138 107.345 96.3772C107.248 96.4405 107.476 96.3474 107.345 96.3772C107.215 96.4068 106.498 96.3772 106.346 96.3772C106.196 96.3772 106.489 96.4068 106.346 96.3772C106.203 96.3474 105.474 96.4339 105.346 96.3772C105.219 96.3203 105.457 96.4624 105.346 96.3772V95.4122C105.275 95.3697 105.39 95.4561 105.346 95.4122C105.417 95.4548 106.256 96.3411 106.346 96.3772C106.24 96.3552 106.436 96.4134 106.346 96.3772C106.235 96.3772 106.451 96.3991 106.346 96.3772C106.556 96.3772 107.229 96.4475 107.345 96.3772C107.462 96.3062 107.345 95.5485 107.345 95.4122C107.345 95.3095 107.41 95.4742 107.345 95.4122C107.28 95.3509 107.473 95.4534 107.345 95.4122C107.218 95.3706 106.529 95.4534 106.346 95.4122C106.146 95.3663 106.482 94.5028 106.346 94.4472C106.21 94.3917 105.414 94.5376 105.346 94.4472C105.278 94.3568 105.346 94.5912 105.346 94.4472C105.346 94.2715 105.255 93.6037 105.346 93.4822C105.438 93.3615 106.185 93.5436 106.346 93.4822C106.143 93.4822 106.507 93.4203 106.346 93.4822C106.479 93.4822 107.23 93.4563 107.345 93.4822C107.246 93.4355 107.46 93.5081 107.345 93.4822C107.262 93.4178 107.445 93.5286 107.345 93.4822V94.4472ZM112.343 93.4822L114.342 96.3772H113.343V95.4122H112.343L111.344 96.3772L112.343 93.4822ZM113.343 95.4122L112.343 93.4822V95.4122H113.343ZM129.336 96.3772V94.4472L128.337 95.4122L127.337 94.4472V96.3772H126.338V93.4822H127.337L128.337 95.4122L129.336 93.4822V96.3772ZM131.336 96.3772V93.4822H132.335V96.3772H131.336ZM133.335 94.4472C133.335 94.2792 134.272 94.6086 134.334 94.4472C134.397 94.2858 134.214 93.6153 134.334 93.4822C134.16 93.561 134.455 93.3491 134.334 93.4822C134.509 93.4035 135.112 93.4822 135.334 93.4822C135.597 93.4822 136.145 93.3698 136.334 93.4822C136.522 93.5946 136.242 94.2715 136.334 94.4472C136.275 94.3311 135.424 94.5157 135.334 94.4472C135.244 94.3787 135.438 93.5106 135.334 93.4822C135.23 93.4535 135.434 93.4822 135.334 93.4822C135.17 93.4822 134.46 93.4201 134.334 93.4822C134.208 93.5443 134.42 94.3439 134.334 94.4472C134.248 94.5506 134.377 94.3191 134.334 94.4472C134.292 94.5749 134.334 94.318 134.334 94.4472C134.334 94.5892 134.283 95.2804 134.334 95.4122C134.243 95.3114 134.386 95.5438 134.334 95.4122C134.426 95.513 134.21 96.3178 134.334 96.3772C134.459 96.4366 135.187 96.3772 135.334 96.3772C135.226 96.4107 135.436 96.3772 135.334 96.3772C135.442 96.3435 135.24 95.4832 135.334 95.4122C135.428 95.3412 136.278 95.5258 136.334 95.4122C136.273 95.5492 136.461 96.2817 136.334 96.3772C136.206 96.4728 135.491 96.3281 135.334 96.3772C135.177 96.4264 135.487 96.3772 135.334 96.3772C135.132 96.3772 134.503 96.4587 134.334 96.3772C134.165 96.2958 134.458 96.5127 134.334 96.3772C134.211 96.2416 134.402 95.5813 134.334 95.4122C134.267 95.2429 133.335 94.6204 133.335 94.4472ZM138.333 96.3772V93.4822V96.3772ZM140.332 96.3772V93.4822H141.332V96.3772H142.331H140.332ZM146.33 96.3772H144.33V94.4472V96.3772H146.33ZM144.33 93.4822H146.33H144.33Z" fill="white"/>
<path d="M103.33 96.4277H101.33V94.4277H102.33H103.33V95.4277H102.33H101.33V96.4277H103.33ZM103.33 93.4277H102.33H101.33H102.33H103.33Z" fill="white"/>
<path d="M64.3449 96.3821C64.1235 96.3821 64.5248 96.4604 64.3449 96.3821C64.1646 96.3039 63.5073 96.5163 63.3757 96.3821C63.2443 96.2477 63.4467 95.581 63.3757 95.4126C63.3648 95.3863 63.3848 95.4392 63.3757 95.4126C63.4266 95.5318 64.2578 95.3189 64.3449 95.4126C64.4395 95.5144 64.2119 96.3221 64.3449 96.3821C64.4779 96.4421 65.1517 96.3821 65.3141 96.3821C65.1812 96.4448 65.4827 96.3821 65.3141 96.3821C65.4471 96.3196 65.2209 95.5169 65.3141 95.4126C65.3965 95.3202 66.2357 95.5254 66.2832 95.4126C66.2721 95.4446 66.2969 95.3813 66.2832 95.4126C66.2094 95.5808 66.4177 96.2504 66.2832 96.3821C66.1488 96.5138 65.4944 96.3065 65.3141 96.3821C65.1339 96.4578 64.5576 96.3821 64.3449 96.3821ZM63.3757 94.4431C63.3623 94.4732 63.3865 94.4127 63.3757 94.4431C63.4512 94.275 63.2413 93.6053 63.3757 93.4736C63.5101 93.3417 64.1646 93.5505 64.3449 93.4736C64.525 93.3967 65.1015 93.4736 65.3141 93.4736C65.1341 93.3929 65.5356 93.4736 65.3141 93.4736C65.4944 93.5545 66.1533 93.338 66.2832 93.4736C66.4132 93.6092 66.2123 94.2761 66.2832 94.4431C66.275 94.42 66.2931 94.466 66.2832 94.4431C66.2323 94.3258 65.4019 94.5374 65.3141 94.4431C65.218 94.3401 65.4455 93.5323 65.3141 93.4736C65.1827 93.4149 65.4738 93.4736 65.3141 93.4736C65.1457 93.4736 64.4777 93.4122 64.3449 93.4736C64.2119 93.535 64.4381 94.3388 64.3449 94.4431C64.2621 94.536 63.4245 94.3307 63.3757 94.4431Z" fill="white"/>
<path d="M83.3449 96.3821C83.1235 96.3821 83.525 96.4604 83.3449 96.3821C83.1645 96.3039 82.507 96.5163 82.3757 96.3821C82.2441 96.2477 82.4466 95.581 82.3757 95.4126C82.3645 95.3863 82.3848 95.4392 82.3757 95.4126C82.4266 95.5318 83.2576 95.3189 83.3449 95.4126C83.4393 95.5144 83.212 96.3221 83.3449 96.3821C83.4779 96.4421 84.1517 96.3821 84.3141 96.3821C84.1811 96.4448 84.4826 96.3821 84.3141 96.3821C84.4469 96.3196 84.221 95.5169 84.3141 95.4126C84.3965 95.3202 85.2356 95.5254 85.2833 95.4126C85.2722 95.4446 85.2969 95.3813 85.2833 95.4126C85.2092 95.5808 85.4177 96.2504 85.2833 96.3821C85.149 96.5138 84.4944 96.3065 84.3141 96.3821C84.1341 96.4578 83.5576 96.3821 83.3449 96.3821ZM82.3757 94.4431C82.3622 94.4732 82.3866 94.4127 82.3757 94.4431C82.4509 94.275 82.2414 93.6053 82.3757 93.4736C82.5101 93.3417 83.1645 93.5505 83.3449 93.4736C83.5248 93.3967 84.1015 93.4736 84.3141 93.4736C84.1339 93.3929 84.5356 93.4736 84.3141 93.4736C84.4944 93.5545 85.1533 93.338 85.2833 93.4736C85.4132 93.6092 85.2123 94.2761 85.2833 94.4431C85.2748 94.42 85.2929 94.466 85.2833 94.4431C85.2324 94.3258 84.4021 94.5374 84.3141 94.4431C84.218 94.3401 84.4455 93.5323 84.3141 93.4736C84.1825 93.4149 84.4738 93.4736 84.3141 93.4736C84.1458 93.4736 83.4779 93.4122 83.3449 93.4736C83.212 93.535 83.4379 94.3388 83.3449 94.4431C83.262 94.536 82.4246 94.3307 82.3757 94.4431Z" fill="white"/>
<path d="M123.345 96.3821C123.123 96.3821 123.525 96.4604 123.345 96.3821C123.165 96.3039 122.507 96.5163 122.376 96.3821C122.244 96.2477 122.447 95.581 122.376 95.4126C122.365 95.3863 122.385 95.4392 122.376 95.4126C122.427 95.5318 123.258 95.3189 123.345 95.4126C123.44 95.5144 123.212 96.3221 123.345 96.3821C123.478 96.4421 124.152 96.3821 124.314 96.3821C124.181 96.4448 124.483 96.3821 124.314 96.3821C124.447 96.3196 124.221 95.5169 124.314 95.4126C124.397 95.3202 125.236 95.5254 125.283 95.4126C125.272 95.4446 125.297 95.3813 125.283 95.4126C125.209 95.5808 125.418 96.2504 125.283 96.3821C125.149 96.5138 124.494 96.3065 124.314 96.3821C124.134 96.4578 123.558 96.3821 123.345 96.3821ZM122.376 94.4431C122.362 94.4732 122.387 94.4127 122.376 94.4431C122.451 94.275 122.241 93.6053 122.376 93.4736C122.51 93.3417 123.165 93.5505 123.345 93.4736C123.525 93.3967 124.102 93.4736 124.314 93.4736C124.134 93.3929 124.536 93.4736 124.314 93.4736C124.494 93.5545 125.153 93.338 125.283 93.4736C125.413 93.6092 125.212 94.2761 125.283 94.4431C125.275 94.42 125.293 94.466 125.283 94.4431C125.232 94.3258 124.402 94.5374 124.314 94.4431C124.218 94.3401 124.446 93.5323 124.314 93.4736C124.183 93.4149 124.474 93.4736 124.314 93.4736C124.146 93.4736 123.478 93.4122 123.345 93.4736C123.212 93.535 123.438 94.3388 123.345 94.4431C123.262 94.536 122.424 94.3307 122.376 94.4431Z" fill="white"/>
<path d="M81.3296 87.4277L86.3296 75.4277H87.3296L82.3296 87.4277H81.3296ZM87.3296 74.4277H84.3296H79.3296V77.4277H78.3296V73.4277H88.3296V74.4277H87.3296ZM96.3296 87.4277L102.33 75.4277H103.33L98.3296 87.4277H96.3296ZM102.33 74.4277H100.33H95.3296V77.4277H94.3296V73.4277H103.33V74.4277H102.33ZM112.33 87.4277L117.33 75.4277H118.33L113.33 87.4277H112.33ZM118.33 74.4277H116.33H110.33V77.4277H109.33V73.4277H119.33V74.4277H118.33Z" fill="white"/>
</g>
<defs>
<filter id="filter0_d_239_1663" x="0.915758" y="0.6562" width="189.828" height="126.828" filterUnits="userSpaceOnUse" color-interpolation-filters="sRGB">
<feFlood flood-opacity="0" result="BackgroundImageFix"/>
<feColorMatrix in="SourceAlpha" type="matrix" values="0 0 0 0 0 0 0 0 0 0 0 0 0 0 0 0 0 0 127 0" result="hardAlpha"/>
<feOffset dy="2.6423"/>
<feGaussianBlur stdDeviation="13.7069"/>
<feComposite in2="hardAlpha" operator="out"/>
<feColorMatrix type="matrix" values="0 0 0 0 0 0 0 0 0 0 0 0 0 0 0 0 0 0 0.25 0"/>
<feBlend mode="normal" in2="BackgroundImageFix" result="effect1_dropShadow_239_1663"/>
<feBlend mode="normal" in="SourceGraphic" in2="effect1_dropShadow_239_1663" result="shape"/>
</filter>
</defs>
</svg>
