<svg width="33" height="33" viewBox="0 0 33 33" fill="none" xmlns="http://www.w3.org/2000/svg">
<rect width="33" height="33" rx="2.5" fill="#02263B" fill-opacity="0.5"/>
<path d="M13.625 4.69895C13.6278 4.51759 13.4115 4.42477 13.2849 4.55303L11.0157 6.85235C10.9379 6.93118 10.8118 6.93118 10.734 6.85235L5.01656 1.05912C4.93876 0.980292 4.81262 0.980292 4.73482 1.05912L2.05835 3.77109C1.98055 3.84992 1.98055 3.97773 2.05835 4.05656L7.77575 9.84979C7.85355 9.92862 7.85355 10.0564 7.77575 10.1353L5.65868 12.2804C5.5321 12.4087 5.62371 12.6278 5.8027 12.625L13.3103 12.5047C13.4178 12.503 13.5046 12.4151 13.5063 12.3061L13.625 4.69895Z" fill="white"/>
<path d="M13.625 27.3011C13.6278 27.4824 13.4115 27.5752 13.2849 27.447L11.0157 25.1477C10.9379 25.0688 10.8118 25.0688 10.734 25.1477L5.01656 30.9409C4.93876 31.0197 4.81262 31.0197 4.73482 30.9409L2.05835 28.2289C1.98055 28.1501 1.98055 28.0223 2.05835 27.9434L7.77575 22.1502C7.85355 22.0714 7.85355 21.9436 7.77575 21.8647L5.65868 19.7196C5.5321 19.5913 5.62371 19.3722 5.8027 19.375L13.3103 19.4953C13.4178 19.497 13.5046 19.5849 13.5063 19.6939L13.625 27.3011Z" fill="white"/>
<path d="M20.7151 27.447C20.5885 27.5752 20.3722 27.4824 20.375 27.3011L20.4937 19.6939C20.4954 19.5849 20.5822 19.497 20.6897 19.4953L28.1973 19.375C28.3763 19.3722 28.4679 19.5913 28.3413 19.7196L26.2243 21.8647C26.1465 21.9436 26.1465 22.0714 26.2243 22.1502L31.9417 27.9434C32.0194 28.0223 32.0194 28.1501 31.9417 28.2289L29.2652 30.9409C29.1874 31.0197 29.0612 31.0197 28.9834 30.9409L23.266 25.1477C23.1882 25.0688 23.0621 25.0688 22.9843 25.1477L20.7151 27.447Z" fill="white"/>
<path d="M20.375 4.69895C20.3722 4.51759 20.5885 4.42477 20.7151 4.55303L22.9843 6.85235C23.0621 6.93118 23.1882 6.93118 23.266 6.85235L28.9834 1.05912C29.0612 0.980292 29.1874 0.980292 29.2652 1.05912L31.9417 3.77109C32.0194 3.84992 32.0194 3.97773 31.9417 4.05656L26.2243 9.84979C26.1465 9.92862 26.1465 10.0564 26.2243 10.1353L28.3413 12.2804C28.4679 12.4087 28.3763 12.6278 28.1973 12.625L20.6897 12.5047C20.5822 12.503 20.4954 12.4151 20.4937 12.3061L20.375 4.69895Z" fill="white"/>
</svg>
