<svg width="333" height="33" viewBox="0 0 333 33" fill="none" xmlns="http://www.w3.org/2000/svg">
<path d="M1.54044 3.58952C1.81604 3.82403 2.34192 3.90927 3.20935 3.92641C2.01218 4.31575 1.00946 4.64206 0 4.97037C2.21844 5.57102 3.11969 4.69955 4.61612 4.58305C5.40408 5.06669 2.9523 5.22656 4.04294 5.65675C5.90292 5.63003 7.85764 5.60179 10.5715 5.56246C8.44775 6.29575 5.66449 6.16412 3.85861 6.60137C5.02872 7.52983 8.3327 6.34769 9.7818 7.15511C8.08078 7.17428 6.5657 7.29885 5.08786 7.47082C6.21909 8.28632 5.04736 9.69944 11.6064 9.10988C9.95605 9.56832 9.15958 9.78972 8.26172 10.0389C8.61005 10.1881 8.9838 10.349 9.44373 10.5467C8.58813 10.698 7.8508 10.8286 7.10004 10.9613C7.37564 11.106 7.64969 11.2507 8.0166 11.4439C6.04333 11.5367 4.50797 11.7082 5.20801 12.4934C7.64627 11.5165 9.41833 13.3835 11.8617 12.3739C12.2202 12.8888 10.859 12.9372 10.7119 13.2797C12.5533 13.5222 15.1166 13.1904 16.7196 13.8203C15.2722 13.9857 13.84 14.1496 12.2522 14.3307C14.1443 15.0095 17.8846 13.7618 18.7842 15.0655C17.3267 15.1396 15.7998 15.2485 14.2526 15.2864C12.6733 15.3252 11.0771 15.2949 9.23059 15.2949C10.0372 16.0181 12.4197 15.2132 12.9929 15.8653C11.6824 16.1952 9.96786 16.1952 8.30402 16.3515C12.1491 16.9063 17.0139 15.9803 20.1437 17.0732C14.3592 17.3899 8.20932 17.6496 2.19308 18.0773C-3.68616 18.4954 9.10721 18.1545 4.33887 19.7713C6.00272 20.1203 7.33511 19.5035 8.86707 19.7804C8.56607 20.1748 6.50827 20.1163 6.37808 20.61C9.08521 20.4244 9.11737 21.1799 10.1421 21.5889C11.3561 22.0736 8.84683 22.0832 8.78595 22.4105C9.75314 22.8593 11.3442 22.5209 12.5414 22.7232C12.4602 23.2078 9.51474 22.8639 9.88672 23.4801C10.1674 23.9461 11.6182 23.9653 12.719 23.9895C12.8796 24.4565 11.3662 24.4081 11.0416 24.7425C12.1982 24.9745 13.5728 24.7894 14.7987 24.8882C15.8251 25.3411 11.6774 25.8243 15 26.2756C14.0125 26.4118 13.1417 26.5318 12.3098 26.6463C12.445 27.0498 13.5255 27.0397 14.3591 27.134C13.5491 27.4472 11.8549 27.429 11.236 28.0534C14.8123 27.4522 16.2056 28.8492 19.3658 28.6394C21.4524 29.9749 24.9289 29.1175 27.7239 29.0524C32.2302 28.947 36.799 28.4039 41.1396 28.5557C44.8697 28.6863 48.429 28.7458 52.193 28.6218C48.8602 29.0338 45.279 29.2275 42.7274 29.9527C44.3828 29.9325 44.7531 30.4121 45.4632 30.92C44.8105 31.0571 44.0564 31.2155 43.1856 31.3981C42.0764 31.3159 40.5224 30.9548 39.5265 31.682C45.5241 32.2171 51.493 31.7753 57.4044 31.8641C57.6597 32.2756 55.453 32.3835 56.2917 32.8772C59.2897 33.1919 62.3654 32.8122 65.4023 32.7275C70.6288 32.5812 75.8217 32.3316 81.0719 32.203C86.498 32.0698 91.9106 31.8419 97.2809 31.5706C99.8916 31.4384 102.551 31.4001 105.128 31.3446C112.928 31.1767 120.708 30.9507 128.492 30.7379C135.783 30.5387 143.087 30.4716 150.39 30.3536C158.329 30.225 166.271 30.1156 174.207 29.9819C183.586 29.8241 192.972 29.7555 202.34 29.6012C208.583 29.4988 214.812 29.4539 221.041 29.4741C230.607 29.5048 240.14 29.7313 249.682 29.9673C257.301 30.1559 265 30.3516 272.676 30.1771C274.622 30.1327 276.853 29.9885 278.334 29.6496C280.094 29.2466 281.814 29.2875 283.659 29.2784C290.76 29.2441 297.872 29.0595 304.939 29.4579C309.742 29.7287 314.583 29.8765 319.49 29.8387C321.24 29.8251 322.159 29.6834 321.748 29.0968C325.398 29.1014 328.941 29.0923 331.778 28.3091C329.818 28.2642 327.788 28.6212 326.131 28.0756C327.541 27.7316 329.649 27.9334 331.254 27.5486C329.433 27.2687 327.647 27.8042 326.2 27.3735C327.314 26.9913 328.08 26.6403 325.393 26.4884C323.948 26.4067 322.568 26.2202 321.012 26.0663C323.417 25.5086 326.142 25.9564 328.91 25.678C327.223 24.8776 324.335 25.0365 322.044 24.8005C322.617 24.574 323.423 24.6804 324.088 24.691C324.769 24.7016 325.424 24.8196 326.11 24.8544C327.252 24.9129 328.828 24.8388 328.978 24.567C329.156 24.2452 328.246 23.9068 326.604 23.931C325.011 23.9547 323.591 23.6325 321.903 23.6945C324.176 23.5028 326.626 23.7142 328.762 23.2184C327.407 22.4513 324.205 22.8941 322.414 22.3883C323.467 22.1407 324.79 22.413 325.821 22.1543C327.061 21.8436 327.049 21.5985 325.644 21.359C326.619 21.0095 327.368 21.3161 328.165 21.3504C328.983 21.3857 329.829 21.4028 330.341 21.134C330.062 20.6675 328.626 20.6489 327.52 20.429C329.32 20.429 331.117 20.429 332.842 20.429C333.227 20.0583 332.918 19.9393 331.81 19.8843C328.74 19.7315 325.684 19.3714 322.647 19.3941C320.241 19.4123 319.566 18.7138 317.563 18.6911C318.65 18.5993 319.732 18.5337 320.735 18.2876C319.614 17.4797 317 17.5145 314.898 17.5306C311.295 17.5583 307.8 17.279 304.227 17.3218C303.315 17.3329 302.678 17.2149 302.118 17.0475C303.38 16.5679 306.761 17.7762 307.177 16.3692C303.746 16.6228 301.148 15.9894 298.188 15.772C298.317 15.3938 299.737 15.5653 300.39 15.3176C298.91 14.4719 295.906 14.7089 293.589 14.4774C296.17 14.083 299.25 14.3544 302.143 13.9423C300.508 13.669 299.145 13.441 297.617 13.1853C303.102 12.7773 308.473 12.9493 314.274 12.8832C312.057 11.9518 308.665 12.1404 306.19 11.7188C308.708 11.5826 311.377 11.7495 313.369 11.0949C310.038 10.6067 306.308 10.6824 302.629 10.7025C300.622 10.7136 299.338 10.583 299.923 9.83913C304.436 9.61773 309.032 9.88907 313.988 9.9052C311.702 8.93085 308.488 9.38575 305.424 9.07659C308.56 8.57378 311.266 9.40743 314.054 8.8678C312.965 7.1773 307.4 8.38013 305.064 7.59489C308.122 7.59489 311.399 7.59489 314.676 7.59489C314.703 7.51874 314.73 7.44309 314.758 7.36694C307.644 6.74359 300.052 6.80965 292.93 6.17723C298.596 6.15403 304.208 5.65778 309.876 6.08696C310.647 6.14546 311.514 6.09604 312.336 6.08898C313.129 6.08191 313.821 5.977 313.821 5.73089C313.821 5.4873 313.122 5.41619 312.356 5.35668C309.551 5.1373 306.7 5.16959 303.855 5.18018C302.421 5.18522 301.034 5.17564 299.817 4.90582C304.974 4.39292 310.49 5.41922 315.819 4.64912C314.147 3.81496 311.413 4.06209 309.357 3.93046C303.42 3.5502 297.306 3.4937 291.273 3.29651C283.52 3.04284 275.671 3.07915 267.994 2.61164C267.499 2.58138 266.969 2.60055 266.455 2.60156C254.078 2.63585 241.765 2.07605 229.379 2.24147C227.713 2.26366 226.373 2.00847 225.12 1.82187C222.296 1.40076 219.508 1.15867 216.324 1.16573C209.582 1.18086 202.857 0.985197 196.119 0.911061C185.059 0.789014 174.031 0.419839 162.976 0.225169C155.627 0.0955574 148.255 0.0552135 140.891 0.0320145C130.901 0.000746311 120.906 -0.0234611 110.92 0.038571C101.713 0.0955599 92.5057 0.235249 83.3106 0.404703C74.8172 0.561044 66.3526 0.879278 57.9201 1.18137C47.6749 1.54852 17.6631 1.75277 7.81702 2.88095C5.79132 3.11294 3.61179 3.25516 1.54044 3.58952Z" fill="#031C2F"/>
</svg>
