<svg width="28" height="27" viewBox="0 0 28 27" fill="none" xmlns="http://www.w3.org/2000/svg">
<path d="M9.07527 3.095C11.2855 -0.705068 16.4671 -0.632927 18.5706 3.2272L26.3186 17.4451C28.4947 21.4384 25.7627 26.4567 21.4453 26.3966L5.55664 26.1754C1.23926 26.1153 -1.35195 21.0229 0.934511 17.0917L9.07527 3.095Z" fill="#FC473F"/>
<path fill-rule="evenodd" clip-rule="evenodd" d="M22.9283 18.9814L15.847 5.60875C14.9518 3.91836 12.6893 3.88686 11.7474 5.55168L4.29654 18.722C3.34296 20.4076 4.45571 22.5626 6.29289 22.5882L20.8251 22.7905C22.6623 22.8161 23.8346 20.6929 22.9283 18.9814ZM17.9147 4.3476C16.1245 0.966808 11.5993 0.90381 9.7156 4.23345L2.26473 17.4038C0.35755 20.775 2.58306 25.0849 6.25741 25.1361L20.7896 25.3384C24.464 25.3896 26.8086 21.1433 24.996 17.7203L17.9147 4.3476Z" fill="#021523"/>
<path fill-rule="evenodd" clip-rule="evenodd" d="M13.7013 7.35C12.7907 7.33732 12.056 8.14814 12.0944 9.12347L12.3901 16.6394C12.4078 17.0892 12.75 17.4454 13.17 17.4512L13.9797 17.4625C14.3961 17.4683 14.7462 17.1275 14.7811 16.6826L15.3676 9.18891C15.4444 8.20804 14.7301 7.36432 13.8121 7.35154L13.7013 7.35ZM13.06 18.2652C12.7099 18.2603 12.4219 18.5605 12.4167 18.9358L12.4002 20.1248C12.3949 20.5 12.6745 20.8082 13.0245 20.8131L14.1337 20.8285C14.4837 20.8334 14.7717 20.5331 14.7769 20.1579L14.7935 18.9689C14.7987 18.5936 14.5192 18.2855 14.1691 18.2806L13.06 18.2652Z" fill="#021523"/>
</svg>
