<svg xmlns="http://www.w3.org/2000/svg" width="30" height="31" viewBox="0 0 30 31" fill="none">
  <g clip-path="url(#clip0_1_2444)">
    <path d="M15 25.718C14.1797 25.718 13.5117 26.3859 13.5117 27.2063V28.6945C13.5117 29.5148 14.1797 30.1828 15 30.1828C15.8203 30.1828 16.4883 29.5148 16.4883 28.6945V27.2063C16.4883 26.3859 15.8203 25.718 15 25.718Z" fill="#FF6600"/>
    <path d="M15 4.88203C15.8203 4.88203 16.4883 4.21407 16.4883 3.39375V1.90547C16.4883 1.08516 15.8203 0.417191 15 0.417191C14.1797 0.417191 13.5117 1.08516 13.5117 1.90547V3.39375C13.5117 4.21407 14.1797 4.88203 15 4.88203Z" fill="#FF6600"/>
    <path d="M4.58203 15.3C4.58203 14.4797 3.91406 13.8117 3.09375 13.8117H1.60547C0.785156 13.8117 0.117188 14.4797 0.117188 15.3C0.117188 16.1203 0.785156 16.7883 1.60547 16.7883H3.09375C3.91406 16.7883 4.58203 16.1203 4.58203 15.3Z" fill="#FF6600"/>
    <path d="M28.3945 13.8117H26.9063C26.0859 13.8117 25.418 14.4797 25.418 15.3C25.418 16.1203 26.0859 16.7883 26.9063 16.7883H28.3945C29.2148 16.7883 29.8828 16.1203 29.8828 15.3C29.8828 14.4797 29.2148 13.8117 28.3945 13.8117Z" fill="#FF6600"/>
    <path d="M5.53125 22.6647L4.47656 23.7194C3.89648 24.2995 3.89648 25.2429 4.47656 25.823C5.05664 26.403 6 26.403 6.58008 25.823L7.63477 24.7683C8.21484 24.1882 8.21484 23.2448 7.63477 22.6647C7.05469 22.0847 6.11133 22.0847 5.53125 22.6647Z" fill="#FF6600"/>
    <path d="M24.4687 7.93428L25.5234 6.87959C26.1035 6.29951 26.1035 5.35616 25.5234 4.77608C24.9434 4.196 24 4.196 23.4199 4.77608L22.3652 5.83076C21.7852 6.41084 21.7852 7.3542 22.3652 7.93428C22.9453 8.51436 23.8887 8.51436 24.4687 7.93428Z" fill="#FF6600"/>
    <path d="M5.53125 7.93428C6.11133 8.51436 7.05469 8.51436 7.63477 7.93428C8.21484 7.3542 8.21484 6.41084 7.63477 5.83076L6.58008 4.77608C6 4.196 5.05664 4.196 4.47656 4.77608C3.89648 5.35616 3.89648 6.29951 4.47656 6.87959L5.53125 7.93428Z" fill="#FF6600"/>
    <path d="M24.4687 22.6647C23.8887 22.0847 22.9453 22.0847 22.3652 22.6647C21.7852 23.2448 21.7852 24.1882 22.3652 24.7683L23.4199 25.823C24 26.403 24.9434 26.403 25.5234 25.823C26.1035 25.2429 26.1035 24.2995 25.5234 23.7194L24.4687 22.6647Z" fill="#FF6600"/>
    <path d="M15 7.8586C10.8984 7.8586 7.55859 11.1984 7.55859 15.3C7.55859 19.4016 10.8984 22.7414 15 22.7414C19.1016 22.7414 22.4414 19.4016 22.4414 15.3C22.4414 11.1984 19.1016 7.8586 15 7.8586ZM15 19.7648C12.5391 19.7648 10.5352 17.7609 10.5352 15.3C10.5352 12.8391 12.5391 10.8352 15 10.8352C17.4609 10.8352 19.4648 12.8391 19.4648 15.3C19.4648 17.7609 17.4609 19.7648 15 19.7648Z" fill="#FF6600"/>
  </g>
  <defs>
    <clipPath id="clip0_1_2444">
      <rect width="30" height="30" fill="white" transform="translate(0 0.300003)"/>
    </clipPath>
  </defs>
</svg>