<svg xmlns="http://www.w3.org/2000/svg" width="30" height="31" viewBox="0 0 30 31" fill="none">
  <g clip-path="url(#clip0_1_2434)">
    <path d="M28.6363 13.9364H23.5689L26.9111 10.3158C27.4219 9.76243 27.3874 8.89969 26.8339 8.38899C26.2806 7.87799 25.4177 7.9128 24.9071 8.4661L19.8575 13.9364H16.3637V10.4425L21.834 5.39291C22.3875 4.88209 22.422 4.01936 21.9112 3.466C21.4005 2.91252 20.5378 2.87801 19.9843 3.38883L16.3637 6.7309V1.66366C16.3637 0.91055 15.7531 0.300003 15 0.300003C14.2469 0.300003 13.6363 0.91055 13.6363 1.66366V6.7309L10.0158 3.38883C9.46231 2.87801 8.59969 2.91276 8.08887 3.466C7.57816 4.01936 7.61262 4.88209 8.16604 5.39291L13.6363 10.4425V13.9364H10.1423L5.09285 8.46598C4.58215 7.9125 3.71941 7.87799 3.16594 8.38881C2.61246 8.89963 2.57795 9.76237 3.08877 10.3157L6.43078 13.9364H1.36359C0.610547 13.9364 0 14.5469 0 15.3C0 16.0531 0.610547 16.6637 1.36365 16.6637H6.43102L3.08895 20.2841C2.57812 20.8376 2.61258 21.7002 3.16594 22.211C3.4282 22.4532 3.75984 22.5727 4.09061 22.5727C4.45799 22.5727 4.82414 22.4252 5.09285 22.1341L10.1427 16.6637H13.6364V20.1575L8.16604 25.2071C7.61256 25.7179 7.57811 26.5806 8.08887 27.134C8.3577 27.4253 8.72385 27.5728 9.09123 27.5728C9.42193 27.5728 9.75357 27.4532 10.0158 27.2111L13.6364 23.8691V28.9363C13.6363 29.6895 14.2469 30.3 15 30.3C15.7531 30.3 16.3637 29.6895 16.3637 28.9363V23.8691L19.9842 27.2112C20.2464 27.4532 20.5781 27.5728 20.9088 27.5728C21.2762 27.5728 21.6423 27.4253 21.9111 27.1341C22.4218 26.5807 22.3874 25.718 21.834 25.2072L16.3637 20.1575V16.6637H19.8577L24.9071 22.134C25.176 22.4253 25.5421 22.5728 25.9095 22.5728C26.2402 22.5728 26.5719 22.4532 26.8341 22.2113C27.3875 21.7004 27.4221 20.8377 26.9112 20.2843L23.5692 16.6637H28.6364C29.3895 16.6637 30 16.0531 30 15.3C30 14.5469 29.3895 13.9364 28.6363 13.9364Z" fill="#FF6600"/>
  </g>
  <defs>
    <clipPath id="clip0_1_2434">
      <rect width="30" height="30" fill="white" transform="translate(0 0.300003)"/>
    </clipPath>
  </defs>
</svg>