<svg xmlns="http://www.w3.org/2000/svg" width="30" height="31" viewBox="0 0 30 31" fill="none">
  <path d="M23.125 16.7883H2.5C2.16848 16.7883 1.85054 16.92 1.61612 17.1544C1.3817 17.3888 1.25 17.7068 1.25 18.0383C1.25 18.3698 1.3817 18.6877 1.61612 18.9222C1.85054 19.1566 2.16848 19.2883 2.5 19.2883H23.125C23.7431 19.2883 24.3473 19.4716 24.8612 19.8149C25.3751 20.1583 25.7756 20.6464 26.0121 21.2174C26.2486 21.7884 26.3105 22.4168 26.19 23.0229C26.0694 23.6291 25.7717 24.186 25.3347 24.623C24.8977 25.06 24.3409 25.3577 23.7347 25.4782C23.1285 25.5988 22.5001 25.5369 21.9291 25.3004C21.3581 25.0639 20.87 24.6633 20.5267 24.1494C20.1833 23.6355 20 23.0314 20 22.4133V21.7883C20 21.4568 19.8683 21.1388 19.6339 20.9044C19.3995 20.67 19.0815 20.5383 18.75 20.5383C18.4185 20.5383 18.1005 20.67 17.8661 20.9044C17.6317 21.1388 17.5 21.4568 17.5 21.7883V22.4133C17.5 23.5258 17.8299 24.6133 18.448 25.5384C19.0661 26.4634 19.9446 27.1844 20.9724 27.6101C22.0002 28.0359 23.1312 28.1472 24.2224 27.9302C25.3135 27.7132 26.3158 27.1774 27.1025 26.3908C27.8891 25.6041 28.4249 24.6018 28.6419 23.5107C28.859 22.4195 28.7476 21.2885 28.3218 20.2607C27.8961 19.2329 27.1751 18.3544 26.2501 17.7363C25.3251 17.1182 24.2375 16.7883 23.125 16.7883Z" fill="#FF6600"/>
  <path d="M2.5 15.5383H23.125C24.2375 15.5383 25.3251 15.2084 26.2501 14.5903C27.1751 13.9722 27.8961 13.0937 28.3218 12.0659C28.7476 11.038 28.859 9.90705 28.6419 8.8159C28.4249 7.72476 27.8891 6.72248 27.1025 5.93581C26.3158 5.14914 25.3135 4.61341 24.2224 4.39637C23.1312 4.17933 22.0002 4.29072 20.9724 4.71646C19.9446 5.14221 19.0661 5.86318 18.448 6.7882C17.8299 7.71323 17.5 8.80077 17.5 9.91329V10.5383C17.5 10.8698 17.6317 11.1878 17.8661 11.4222C18.1005 11.6566 18.4185 11.7883 18.75 11.7883C19.0815 11.7883 19.3995 11.6566 19.6339 11.4222C19.8683 11.1878 20 10.8698 20 10.5383V9.91329C20 9.29522 20.1833 8.69103 20.5267 8.17713C20.87 7.66323 21.3581 7.26269 21.9291 7.02616C22.5001 6.78964 23.1285 6.72775 23.7347 6.84833C24.3409 6.96891 24.8977 7.26654 25.3347 7.70358C25.7717 8.14062 26.0694 8.69744 26.19 9.30363C26.3105 9.90982 26.2486 10.5382 26.0121 11.1092C25.7756 11.6802 25.3751 12.1683 24.8612 12.5116C24.3473 12.855 23.7431 13.0383 23.125 13.0383H2.5C2.16848 13.0383 1.85054 13.17 1.61612 13.4044C1.3817 13.6388 1.25 13.9568 1.25 14.2883C1.25 14.6198 1.3817 14.9378 1.61612 15.1722C1.85054 15.4066 2.16848 15.5383 2.5 15.5383Z" fill="#FF6600"/>
  <path d="M2.5 11.7867H11.6375C12.5498 11.7867 13.4415 11.5162 14.2001 11.0094C14.9586 10.5026 15.5498 9.78218 15.8989 8.93935C16.248 8.09653 16.3393 7.16911 16.1614 6.27437C15.9834 5.37963 15.5441 4.55776 14.899 3.91269C14.254 3.26762 13.4321 2.82833 12.5374 2.65035C11.6426 2.47238 10.7152 2.56372 9.87237 2.91283C9.02955 3.26194 8.30917 3.85313 7.80235 4.61166C7.29552 5.37018 7.025 6.26196 7.025 7.17422V7.64922C7.025 7.98074 7.1567 8.29869 7.39112 8.53311C7.62554 8.76753 7.94348 8.89922 8.275 8.89922C8.60652 8.89922 8.92446 8.76753 9.15888 8.53311C9.3933 8.29869 9.525 7.98074 9.525 7.64922V7.17422C9.525 6.75641 9.6489 6.34798 9.88102 6.00058C10.1131 5.65318 10.4431 5.38242 10.8291 5.22253C11.2151 5.06264 11.6398 5.0208 12.0496 5.10232C12.4594 5.18383 12.8358 5.38502 13.1313 5.68046C13.4267 5.9759 13.6279 6.35231 13.7094 6.7621C13.7909 7.17188 13.7491 7.59663 13.5892 7.98264C13.4293 8.36865 13.1585 8.69858 12.8111 8.9307C12.4637 9.16283 12.0553 9.28672 11.6375 9.28672H2.5C2.16848 9.28672 1.85054 9.41842 1.61612 9.65284C1.3817 9.88726 1.25 10.2052 1.25 10.5367C1.25 10.8682 1.3817 11.1862 1.61612 11.4206C1.85054 11.655 2.16848 11.7867 2.5 11.7867Z" fill="#FF6600"/>
</svg>